<?xml version="1.0" encoding="UTF-8" standalone="no"?>
<!-- Created with Inkscape (http://www.inkscape.org/) -->

<svg
   width="13.556274mm"
   height="13.556275mm"
   viewBox="0 0 13.556274 13.556275"
   version="1.1"
   id="svg1"
   xml:space="preserve"
   inkscape:version="1.3.2 (091e20e, 2023-11-25, custom)"
   sodipodi:docname="QR code.svg"
   inkscape:export-filename="ThermaCurata logo - export.svg"
   inkscape:export-xdpi="96"
   inkscape:export-ydpi="96"
   xmlns:inkscape="http://www.inkscape.org/namespaces/inkscape"
   xmlns:sodipodi="http://sodipodi.sourceforge.net/DTD/sodipodi-0.dtd"
   xmlns="http://www.w3.org/2000/svg"
   xmlns:svg="http://www.w3.org/2000/svg"><sodipodi:namedview
     id="namedview1"
     pagecolor="#ffffff"
     bordercolor="#000000"
     borderopacity="0.25"
     inkscape:showpageshadow="2"
     inkscape:pageopacity="0.0"
     inkscape:pagecheckerboard="0"
     inkscape:deskcolor="#d1d1d1"
     inkscape:document-units="mm"
     inkscape:zoom="11.905618"
     inkscape:cx="25.618157"
     inkscape:cy="25.618157"
     inkscape:window-width="1440"
     inkscape:window-height="830"
     inkscape:window-x="-6"
     inkscape:window-y="-6"
     inkscape:window-maximized="1"
     inkscape:current-layer="g29" /><defs
     id="defs1" /><g
     inkscape:label="Layer 1"
     inkscape:groupmode="layer"
     id="layer1"
     transform="translate(-14.819128,-34.881191)"><g
       id="g29"
       transform="matrix(0.44169292,0,0,0.44169292,29.085966,18.756369)"><g
         style="fill:#000000;stroke:none"
         id="g7"
         transform="matrix(0.264583,0,0,0.264583,-36.533687,32.273532)"><path
           d="m 127.6,132 h -3.2 c -0.221,0 -0.4,-0.179 -0.4,-0.4 v -7.2 c 0,-0.221 0.179,-0.4 0.4,-0.4 h 3.2 c 0.221,0 0.4,0.179 0.4,0.4 v 7.2 c 0,0.221 -0.179,0.4 -0.4,0.4 z m -8,0 H 96.4 c -0.2209,0 -0.4,-0.179 -0.4,-0.4 v -3.2 C 96,128.179 95.8209,128 95.6,128 H 84.4 c -0.2209,0 -0.4,-0.179 -0.4,-0.4 v -3.2 c 0,-0.221 0.1791,-0.4 0.4,-0.4 h 7.2 c 0.2209,0 0.4,-0.179 0.4,-0.4 v -7.2 c 0,-0.221 0.1791,-0.4 0.4,-0.4 h 3.2 c 0.2209,0 0.4,-0.179 0.4,-0.4 V 104.4 C 96,104.179 95.8209,104 95.6,104 H 92.4 C 92.1791,104 92,103.821 92,103.6 V 96.4 C 92,96.1791 92.1791,96 92.4,96 h 3.2 C 95.8209,96 96,95.8209 96,95.6 V 92.4 C 96,92.1791 96.1791,92 96.4,92 h 3.2 c 0.2209,0 0.4,-0.1791 0.4,-0.4 V 88.4 C 100,88.1791 99.8209,88 99.6,88 H 96.4 C 96.1791,88 96,87.8209 96,87.6 V 72.4 C 96,72.1791 95.8209,72 95.6,72 H 92.4 C 92.1791,72 92,71.8209 92,71.6 V 64.4 C 92,64.1791 91.8209,64 91.6,64 H 88.4 C 88.1791,64 88,63.8209 88,63.6 V 56.4 C 88,56.1791 88.1791,56 88.4,56 h 7.2 C 95.8209,56 96,55.8209 96,55.6 V 52.4 C 96,52.1791 96.1791,52 96.4,52 h 3.2 c 0.2209,0 0.4,0.1791 0.4,0.4 v 3.2 c 0,0.2209 0.179,0.4 0.4,0.4 h 3.2 c 0.221,0 0.4,0.1791 0.4,0.4 v 3.2 c 0,0.2209 -0.179,0.4 -0.4,0.4 h -3.2 c -0.221,0 -0.4,0.1791 -0.4,0.4 v 3.2 c 0,0.2209 0.179,0.4 0.4,0.4 h 7.2 c 0.221,0 0.4,0.1791 0.4,0.4 v 3.2 c 0,0.2209 -0.179,0.4 -0.4,0.4 h -3.2 c -0.221,0 -0.4,0.1791 -0.4,0.4 v 3.2 c 0,0.2209 -0.179,0.4 -0.4,0.4 h -3.2 c -0.221,0 -0.4,0.1791 -0.4,0.4 v 3.2 c 0,0.2209 0.179,0.4 0.4,0.4 h 3.2 c 0.221,0 0.4,-0.1791 0.4,-0.4 v -3.2 c 0,-0.2209 0.179,-0.4 0.4,-0.4 h 27.2 c 0.221,0 0.4,0.1791 0.4,0.4 v 3.2 c 0,0.2209 -0.179,0.4 -0.4,0.4 h -3.2 c -0.221,0 -0.4,0.1791 -0.4,0.4 v 7.2 c 0,0.2209 -0.179,0.4 -0.4,0.4 h -3.2 c -0.221,0 -0.4,-0.1791 -0.4,-0.4 v -7.2 c 0,-0.2209 -0.179,-0.4 -0.4,-0.4 h -3.2 c -0.221,0 -0.4,0.1791 -0.4,0.4 v 3.2 c 0,0.2209 -0.179,0.4 -0.4,0.4 h -3.2 c -0.221,0 -0.4,-0.1791 -0.4,-0.4 v -3.2 c 0,-0.2209 -0.179,-0.4 -0.4,-0.4 h -7.2 c -0.221,0 -0.4,0.1791 -0.4,0.4 v 3.2 c 0,0.2209 -0.179,0.4 -0.4,0.4 h -7.2 c -0.221,0 -0.4,0.1791 -0.4,0.4 v 3.2 c 0,0.2209 0.179,0.4 0.4,0.4 h 7.2 c 0.221,0 0.4,-0.1791 0.4,-0.4 v -3.2 c 0,-0.2209 0.179,-0.4 0.4,-0.4 h 3.2 c 0.221,0 0.4,0.1791 0.4,0.4 v 7.2 c 0,0.2209 0.179,0.4 0.4,0.4 h 3.2 c 0.221,0 0.4,0.1791 0.4,0.4 v 19.2 c 0,0.221 0.179,0.4 0.4,0.4 h 7.2 c 0.221,0 0.4,0.179 0.4,0.4 v 3.2 c 0,0.221 -0.179,0.4 -0.4,0.4 h -7.2 c -0.221,0 -0.4,0.179 -0.4,0.4 v 3.2 c 0,0.221 0.179,0.4 0.4,0.4 h 11.2 c 0.221,0 0.4,0.179 0.4,0.4 v 3.2 c 0,0.221 -0.179,0.4 -0.4,0.4 h -3.2 c -0.221,0 -0.4,0.179 -0.4,0.4 v 3.2 c 0,0.221 -0.179,0.4 -0.4,0.4 h -7.2 c -0.221,0 -0.4,0.179 -0.4,0.4 v 3.2 c 0,0.221 0.179,0.4 0.4,0.4 h 3.2 c 0.221,0 0.4,0.179 0.4,0.4 v 3.2 c 0,0.221 -0.179,0.4 -0.4,0.4 z m -36,0 h -3.2 c -0.2209,0 -0.4,-0.179 -0.4,-0.4 v -3.2 c 0,-0.221 0.1791,-0.4 0.4,-0.4 h 3.2 c 0.2209,0 0.4,0.179 0.4,0.4 v 3.2 c 0,0.221 -0.1791,0.4 -0.4,0.4 z m -8,0 H 60.4 c -0.2209,0 -0.4,-0.179 -0.4,-0.4 v -3.2 c 0,-0.221 0.1791,-0.4 0.4,-0.4 h 3.2 c 0.2209,0 0.4,-0.179 0.4,-0.4 v -7.2 c 0,-0.221 -0.1791,-0.4 -0.4,-0.4 h -3.2 c -0.2209,0 -0.4,-0.179 -0.4,-0.4 v -3.2 c 0,-0.221 0.1791,-0.4 0.4,-0.4 h 3.2 c 0.2209,0 0.4,-0.179 0.4,-0.4 v -3.2 c 0,-0.221 0.1791,-0.4 0.4,-0.4 h 3.2 c 0.2209,0 0.4,-0.179 0.4,-0.4 V 96.4 C 68,96.1791 68.1791,96 68.4,96 h 15.2 c 0.2209,0 0.4,0.1791 0.4,0.4 v 15.2 c 0,0.221 0.1791,0.4 0.4,0.4 h 7.2 c 0.2209,0 0.4,0.179 0.4,0.4 v 3.2 c 0,0.221 -0.1791,0.4 -0.4,0.4 H 76.4 c -0.2209,0 -0.4,-0.179 -0.4,-0.4 v -3.2 c 0,-0.221 0.1791,-0.4 0.4,-0.4 h 3.2 c 0.2209,0 0.4,-0.179 0.4,-0.4 v -11.2 c 0,-0.221 -0.1791,-0.4 -0.4,-0.4 h -7.2 c -0.2209,0 -0.4,0.179 -0.4,0.4 v 3.2 c 0,0.221 0.1791,0.4 0.4,0.4 h 3.2 c 0.2209,0 0.4,0.179 0.4,0.4 v 3.2 c 0,0.221 -0.1791,0.4 -0.4,0.4 h -3.2 c -0.2209,0 -0.4,0.179 -0.4,0.4 v 7.2 c 0,0.221 -0.1791,0.4 -0.4,0.4 h -3.2 c -0.2209,0 -0.4,0.179 -0.4,0.4 v 7.2 c 0,0.221 0.1791,0.4 0.4,0.4 h 3.2 c 0.2209,0 0.4,0.179 0.4,0.4 v 3.2 c 0,0.221 0.1791,0.4 0.4,0.4 h 3.2 c 0.2209,0 0.4,0.179 0.4,0.4 v 3.2 c 0,0.221 -0.1791,0.4 -0.4,0.4 z m -24,0 h -3.2 c -0.2209,0 -0.4,-0.179 -0.4,-0.4 v -7.2 c 0,-0.221 0.1791,-0.4 0.4,-0.4 h 3.2 c 0.2209,0 0.4,-0.179 0.4,-0.4 v -3.2 c 0,-0.221 0.1791,-0.4 0.4,-0.4 h 3.2 c 0.2209,0 0.4,0.179 0.4,0.4 v 3.2 c 0,0.221 0.1791,0.4 0.4,0.4 h 3.2 c 0.2209,0 0.4,0.179 0.4,0.4 v 3.2 c 0,0.221 -0.1791,0.4 -0.4,0.4 h -7.2 c -0.2209,0 -0.4,0.179 -0.4,0.4 v 3.2 c 0,0.221 -0.1791,0.4 -0.4,0.4 z m -8,0 H 16.4 c -0.2209,0 -0.4,-0.179 -0.4,-0.4 v -27.2 c 0,-0.221 0.1791,-0.4 0.4,-0.4 h 27.2 c 0.2209,0 0.4,0.179 0.4,0.4 v 27.2 c 0,0.221 -0.1791,0.4 -0.4,0.4 z m 68.4,-4.4 v -7.2 c 0,-0.221 -0.179,-0.4 -0.4,-0.4 h -7.2 c -0.221,0 -0.4,-0.179 -0.4,-0.4 v -3.2 c 0,-0.221 -0.179,-0.4 -0.4,-0.4 h -3.2 c -0.221,0 -0.4,0.179 -0.4,0.4 v 7.2 c 0,0.221 0.179,0.4 0.4,0.4 h 3.2 c 0.221,0 0.4,0.179 0.4,0.4 v 3.2 c 0,0.221 0.179,0.4 0.4,0.4 h 7.2 c 0.221,0 0.4,-0.179 0.4,-0.4 z m -72,0 V 108.4 C 40,108.179 39.8209,108 39.6,108 H 20.4 c -0.2209,0 -0.4,0.179 -0.4,0.4 v 19.2 c 0,0.221 0.1791,0.4 0.4,0.4 h 19.2 c 0.2209,0 0.4,-0.179 0.4,-0.4 z m 91.6,-3.6 h -3.2 c -0.221,0 -0.4,-0.179 -0.4,-0.4 v -3.2 c 0,-0.221 0.179,-0.4 0.4,-0.4 h 3.2 c 0.221,0 0.4,0.179 0.4,0.4 v 3.2 c 0,0.221 -0.179,0.4 -0.4,0.4 z m -48,0 h -3.2 c -0.2209,0 -0.4,-0.179 -0.4,-0.4 v -3.2 c 0,-0.221 0.1791,-0.4 0.4,-0.4 h 3.2 c 0.2209,0 0.4,0.179 0.4,0.4 v 3.2 c 0,0.221 -0.1791,0.4 -0.4,0.4 z m -8,0 h -3.2 c -0.2209,0 -0.4,-0.179 -0.4,-0.4 v -7.2 c 0,-0.221 0.1791,-0.4 0.4,-0.4 h 3.2 c 0.2209,0 0.4,0.179 0.4,0.4 v 7.2 c 0,0.221 -0.1791,0.4 -0.4,0.4 z m -40,0 H 24.4 c -0.2209,0 -0.4,-0.179 -0.4,-0.4 v -11.2 c 0,-0.221 0.1791,-0.4 0.4,-0.4 h 11.2 c 0.2209,0 0.4,0.179 0.4,0.4 v 11.2 c 0,0.221 -0.1791,0.4 -0.4,0.4 z m 16,-4 h -3.2 c -0.2209,0 -0.4,-0.179 -0.4,-0.4 v -3.2 c 0,-0.221 0.1791,-0.4 0.4,-0.4 h 3.2 c 0.2209,0 0.4,0.179 0.4,0.4 v 3.2 c 0,0.221 -0.1791,0.4 -0.4,0.4 z m 8,-4 h -3.2 c -0.2209,0 -0.4,-0.179 -0.4,-0.4 v -3.2 c 0,-0.221 0.1791,-0.4 0.4,-0.4 h 3.2 c 0.2209,0 0.4,0.179 0.4,0.4 v 3.2 c 0,0.221 -0.1791,0.4 -0.4,0.4 z m 72,-4 h -3.2 c -0.221,0 -0.4,-0.179 -0.4,-0.4 v -3.2 c 0,-0.221 0.179,-0.4 0.4,-0.4 h 3.2 c 0.221,0 0.4,0.179 0.4,0.4 v 3.2 c 0,0.221 -0.179,0.4 -0.4,0.4 z M 112,111.6 v -11.2 c 0,-0.221 -0.179,-0.4 -0.4,-0.4 h -11.2 c -0.221,0 -0.4,0.179 -0.4,0.4 v 11.2 c 0,0.221 0.179,0.4 0.4,0.4 h 11.2 c 0.221,0 0.4,-0.179 0.4,-0.4 z M 55.6,112 h -3.2 c -0.2209,0 -0.4,-0.179 -0.4,-0.4 v -3.2 c 0,-0.221 0.1791,-0.4 0.4,-0.4 h 3.2 c 0.2209,0 0.4,0.179 0.4,0.4 v 3.2 c 0,0.221 -0.1791,0.4 -0.4,0.4 z m 72,-4 h -3.2 c -0.221,0 -0.4,-0.179 -0.4,-0.4 v -3.2 c 0,-0.221 -0.179,-0.4 -0.4,-0.4 h -3.2 c -0.221,0 -0.4,-0.179 -0.4,-0.4 v -7.2 c 0,-0.2209 0.179,-0.4 0.4,-0.4 h 3.2 c 0.221,0 0.4,0.1791 0.4,0.4 v 3.2 c 0,0.2209 0.179,0.4 0.4,0.4 h 7.2 c 0.221,0 0.4,0.179 0.4,0.4 v 3.2 c 0,0.221 -0.179,0.4 -0.4,0.4 h -3.2 c -0.221,0 -0.4,0.179 -0.4,0.4 v 3.2 c 0,0.221 -0.179,0.4 -0.4,0.4 z m -20,0 h -3.2 c -0.221,0 -0.4,-0.179 -0.4,-0.4 v -3.2 c 0,-0.221 0.179,-0.4 0.4,-0.4 h 3.2 c 0.221,0 0.4,0.179 0.4,0.4 v 3.2 c 0,0.221 -0.179,0.4 -0.4,0.4 z m -48,0 h -3.2 c -0.2209,0 -0.4,-0.179 -0.4,-0.4 v -7.2 c 0,-0.221 0.1791,-0.4 0.4,-0.4 h 7.2 c 0.2209,0 0.4,0.179 0.4,0.4 v 3.2 c 0,0.221 -0.1791,0.4 -0.4,0.4 h -3.2 c -0.2209,0 -0.4,0.179 -0.4,0.4 v 3.2 c 0,0.221 -0.1791,0.4 -0.4,0.4 z m -8,0 H 48.4 C 48.1791,108 48,107.821 48,107.6 V 92.4 C 48,92.1791 47.8209,92 47.6,92 H 40.4 C 40.1791,92 40,92.1791 40,92.4 v 3.2 c 0,0.2209 0.1791,0.4 0.4,0.4 h 3.2 c 0.2209,0 0.4,0.1791 0.4,0.4 v 3.2 c 0,0.2209 -0.1791,0.4 -0.4,0.4 H 32.4 C 32.1791,100 32,99.8209 32,99.6 V 96.4 C 32,96.1791 31.8209,96 31.6,96 H 28.4 C 28.1791,96 28,96.1791 28,96.4 v 3.2 c 0,0.2209 -0.1791,0.4 -0.4,0.4 H 24.4 C 24.1791,100 24,99.8209 24,99.6 V 88.4 C 24,88.1791 24.1791,88 24.4,88 h 3.2 c 0.2209,0 0.4,0.1791 0.4,0.4 v 3.2 c 0,0.2209 0.1791,0.4 0.4,0.4 h 7.2 C 35.8209,92 36,91.8209 36,91.6 V 84.4 C 36,84.1791 36.1791,84 36.4,84 h 3.2 c 0.2209,0 0.4,0.1791 0.4,0.4 v 3.2 c 0,0.2209 0.1791,0.4 0.4,0.4 h 3.2 C 43.8209,88 44,87.8209 44,87.6 V 84.4 C 44,84.1791 43.8209,84 43.6,84 H 40.4 C 40.1791,84 40,83.8209 40,83.6 V 80.4 C 40,80.1791 40.1791,80 40.4,80 H 51.6 C 51.8209,80 52,79.8209 52,79.6 V 76.4 C 52,76.1791 51.8209,76 51.6,76 H 40.4 C 40.1791,76 40,76.1791 40,76.4 v 3.2 C 40,79.8209 39.8209,80 39.6,80 H 36.4 C 36.1791,80 36,79.8209 36,79.6 V 72.4 C 36,72.1791 35.8209,72 35.6,72 H 32.4 C 32.1791,72 32,72.1791 32,72.4 v 7.2 C 32,79.8209 31.8209,80 31.6,80 H 28.4 C 28.1791,80 28,79.8209 28,79.6 V 72.4 C 28,72.1791 27.8209,72 27.6,72 H 24.4 C 24.1791,72 24,72.1791 24,72.4 v 3.2 C 24,75.8209 23.8209,76 23.6,76 H 20.4 C 20.1791,76 20,75.8209 20,75.6 V 68.4 C 20,68.1791 20.1791,68 20.4,68 H 35.6 C 35.8209,68 36,67.8209 36,67.6 V 56.4 C 36,56.1791 36.1791,56 36.4,56 H 47.6 C 47.8209,56 48,55.8209 48,55.6 V 52.4 C 48,52.1791 48.1791,52 48.4,52 h 7.2 c 0.2209,0 0.4,0.1791 0.4,0.4 v 3.2 C 56,55.8209 55.8209,56 55.6,56 H 52.4 C 52.1791,56 52,56.1791 52,56.4 v 3.2 C 52,59.8209 51.8209,60 51.6,60 H 40.4 C 40.1791,60 40,60.1791 40,60.4 v 3.2 c 0,0.2209 0.1791,0.4 0.4,0.4 h 7.2 c 0.2209,0 0.4,0.1791 0.4,0.4 v 3.2 C 48,67.8209 47.8209,68 47.6,68 H 40.4 C 40.1791,68 40,68.1791 40,68.4 v 3.2 c 0,0.2209 0.1791,0.4 0.4,0.4 H 51.6 C 51.8209,72 52,71.8209 52,71.6 V 68.4 C 52,68.1791 52.1791,68 52.4,68 h 3.2 c 0.2209,0 0.4,0.1791 0.4,0.4 v 7.2 c 0,0.2209 0.1791,0.4 0.4,0.4 h 3.2 C 59.8209,76 60,75.8209 60,75.6 V 68.4 C 60,68.1791 59.8209,68 59.6,68 H 56.4 C 56.1791,68 56,67.8209 56,67.6 V 64.4 C 56,64.1791 55.8209,64 55.6,64 H 52.4 C 52.1791,64 52,63.8209 52,63.6 V 60.4 C 52,60.1791 52.1791,60 52.4,60 h 7.2 C 59.8209,60 60,59.8209 60,59.6 V 48.4 C 60,48.1791 59.8209,48 59.6,48 H 56.4 C 56.1791,48 56,47.8209 56,47.6 V 36.4 C 56,36.1791 55.8209,36 55.6,36 H 52.4 C 52.1791,36 52,36.1791 52,36.4 V 47.6 C 52,47.8209 51.8209,48 51.6,48 H 48.4 C 48.1791,48 48,47.8209 48,47.6 V 32.4 C 48,32.1791 48.1791,32 48.4,32 h 3.2 C 51.8209,32 52,31.8209 52,31.6 V 28.4 C 52,28.1791 52.1791,28 52.4,28 h 3.2 c 0.2209,0 0.4,0.1791 0.4,0.4 v 3.2 c 0,0.2209 0.1791,0.4 0.4,0.4 h 3.2 c 0.2209,0 0.4,0.1791 0.4,0.4 v 11.2 c 0,0.2209 0.1791,0.4 0.4,0.4 h 3.2 c 0.2209,0 0.4,0.1791 0.4,0.4 v 3.2 c 0,0.2209 0.1791,0.4 0.4,0.4 h 7.2 C 71.8209,48 72,47.8209 72,47.6 V 40.4 C 72,40.1791 72.1791,40 72.4,40 h 3.2 c 0.2209,0 0.4,0.1791 0.4,0.4 v 3.2 c 0,0.2209 0.1791,0.4 0.4,0.4 h 3.2 C 79.8209,44 80,43.8209 80,43.6 V 40.4 C 80,40.1791 80.1791,40 80.4,40 h 3.2 c 0.2209,0 0.4,0.1791 0.4,0.4 v 3.2 c 0,0.2209 0.1791,0.4 0.4,0.4 h 3.2 c 0.2209,0 0.4,0.1791 0.4,0.4 v 3.2 C 88,47.8209 87.8209,48 87.6,48 H 84.4 C 84.1791,48 84,48.1791 84,48.4 v 3.2 c 0,0.2209 0.1791,0.4 0.4,0.4 h 3.2 c 0.2209,0 0.4,0.1791 0.4,0.4 v 3.2 C 88,55.8209 87.8209,56 87.6,56 H 80.4 C 80.1791,56 80,55.8209 80,55.6 V 52.4 C 80,52.1791 79.8209,52 79.6,52 H 68.4 C 68.1791,52 68,52.1791 68,52.4 v 7.2 c 0,0.2209 0.1791,0.4 0.4,0.4 h 3.2 c 0.2209,0 0.4,0.1791 0.4,0.4 v 7.2 C 72,67.8209 71.8209,68 71.6,68 H 68.4 C 68.1791,68 68,67.8209 68,67.6 V 64.4 C 68,64.1791 67.8209,64 67.6,64 H 64.4 C 64.1791,64 64,64.1791 64,64.4 V 79.6 C 64,79.8209 63.8209,80 63.6,80 H 56.4 C 56.1791,80 56,80.1791 56,80.4 v 7.2 C 56,87.8209 55.8209,88 55.6,88 H 52.4 C 52.1791,88 52,88.1791 52,88.4 v 7.2 c 0,0.2209 0.1791,0.4 0.4,0.4 h 3.2 c 0.2209,0 0.4,0.1791 0.4,0.4 v 3.2 c 0,0.2209 -0.1791,0.4 -0.4,0.4 h -3.2 c -0.2209,0 -0.4,0.179 -0.4,0.4 v 7.2 c 0,0.221 -0.1791,0.4 -0.4,0.4 z m -32,-8 H 16.4 C 16.1791,100 16,99.8209 16,99.6 V 96.4 C 16,96.1791 16.1791,96 16.4,96 h 3.2 c 0.2209,0 0.4,0.1791 0.4,0.4 v 3.2 c 0,0.2209 -0.1791,0.4 -0.4,0.4 z m 112,-4 h -7.2 c -0.221,0 -0.4,-0.1791 -0.4,-0.4 v -7.2 c 0,-0.2209 0.179,-0.4 0.4,-0.4 h 3.2 c 0.221,0 0.4,-0.1791 0.4,-0.4 v -3.2 c 0,-0.2209 0.179,-0.4 0.4,-0.4 h 3.2 c 0.221,0 0.4,0.1791 0.4,0.4 v 11.2 c 0,0.2209 -0.179,0.4 -0.4,0.4 z M 108,95.6 v -7.2 c 0,-0.2209 -0.179,-0.4 -0.4,-0.4 h -3.2 c -0.221,0 -0.4,0.1791 -0.4,0.4 v 7.2 c 0,0.2209 0.179,0.4 0.4,0.4 h 3.2 c 0.221,0 0.4,-0.1791 0.4,-0.4 z M 87.6,96 H 84.4 C 84.1791,96 84,95.8209 84,95.6 V 88.4 C 84,88.1791 83.8209,88 83.6,88 H 80.4 C 80.1791,88 80,87.8209 80,87.6 V 84.4 C 80,84.1791 80.1791,84 80.4,84 h 3.2 C 83.8209,84 84,83.8209 84,83.6 V 80.4 C 84,80.1791 83.8209,80 83.6,80 H 80.4 C 80.1791,80 80,80.1791 80,80.4 v 3.2 C 80,83.8209 79.8209,84 79.6,84 H 76.4 C 76.1791,84 76,83.8209 76,83.6 V 80.4 C 76,80.1791 75.8209,80 75.6,80 H 68.4 C 68.1791,80 68,79.8209 68,79.6 V 72.4 C 68,72.1791 68.1791,72 68.4,72 h 3.2 c 0.2209,0 0.4,0.1791 0.4,0.4 v 3.2 c 0,0.2209 0.1791,0.4 0.4,0.4 h 15.2 c 0.2209,0 0.4,0.1791 0.4,0.4 v 19.2 c 0,0.2209 -0.1791,0.4 -0.4,0.4 z m -20,0 H 64.4 C 64.1791,96 64,95.8209 64,95.6 V 92.4 C 64,92.1791 63.8209,92 63.6,92 H 60.4 C 60.1791,92 60,91.8209 60,91.6 V 88.4 C 60,88.1791 60.1791,88 60.4,88 h 3.2 C 63.8209,88 64,87.8209 64,87.6 V 80.4 C 64,80.1791 64.1791,80 64.4,80 h 3.2 c 0.2209,0 0.4,0.1791 0.4,0.4 v 3.2 c 0,0.2209 0.1791,0.4 0.4,0.4 h 3.2 c 0.2209,0 0.4,0.1791 0.4,0.4 v 3.2 C 72,87.8209 71.8209,88 71.6,88 H 68.4 C 68.1791,88 68,88.1791 68,88.4 v 7.2 c 0,0.2209 -0.1791,0.4 -0.4,0.4 z m -48,-4 H 16.4 C 16.1791,92 16,91.8209 16,91.6 V 88.4 C 16,88.1791 16.1791,88 16.4,88 h 3.2 c 0.2209,0 0.4,0.1791 0.4,0.4 v 3.2 c 0,0.2209 -0.1791,0.4 -0.4,0.4 z m 100,-4 h -3.2 c -0.221,0 -0.4,-0.1791 -0.4,-0.4 v -3.2 c 0,-0.2209 0.179,-0.4 0.4,-0.4 h 3.2 c 0.221,0 0.4,0.1791 0.4,0.4 v 3.2 c 0,0.2209 -0.179,0.4 -0.4,0.4 z m -88,0 H 28.4 C 28.1791,88 28,87.8209 28,87.6 V 84.4 C 28,84.1791 28.1791,84 28.4,84 h 3.2 c 0.2209,0 0.4,0.1791 0.4,0.4 v 3.2 c 0,0.2209 -0.1791,0.4 -0.4,0.4 z m 4,-4 H 32.4 C 32.1791,84 32,83.8209 32,83.6 V 80.4 C 32,80.1791 32.1791,80 32.4,80 h 3.2 c 0.2209,0 0.4,0.1791 0.4,0.4 v 3.2 c 0,0.2209 -0.1791,0.4 -0.4,0.4 z m -16,0 H 16.4 C 16.1791,84 16,83.8209 16,83.6 V 80.4 C 16,80.1791 16.1791,80 16.4,80 h 3.2 c 0.2209,0 0.4,0.1791 0.4,0.4 v 3.2 c 0,0.2209 -0.1791,0.4 -0.4,0.4 z m 60,-12 H 72.4 C 72.1791,72 72,71.8209 72,71.6 V 68.4 C 72,68.1791 72.1791,68 72.4,68 h 7.2 c 0.2209,0 0.4,0.1791 0.4,0.4 v 3.2 c 0,0.2209 -0.1791,0.4 -0.4,0.4 z m 52,-4 h -7.2 c -0.221,0 -0.4,-0.1791 -0.4,-0.4 v -3.2 c 0,-0.2209 -0.179,-0.4 -0.4,-0.4 h -3.2 c -0.221,0 -0.4,-0.1791 -0.4,-0.4 v -3.2 c 0,-0.2209 -0.179,-0.4 -0.4,-0.4 h -3.2 c -0.221,0 -0.4,0.1791 -0.4,0.4 v 3.2 c 0,0.2209 -0.179,0.4 -0.4,0.4 h -3.2 c -0.221,0 -0.4,-0.1791 -0.4,-0.4 v -7.2 c 0,-0.2209 0.179,-0.4 0.4,-0.4 h 3.2 c 0.221,0 0.4,-0.1791 0.4,-0.4 v -3.2 c 0,-0.2209 0.179,-0.4 0.4,-0.4 h 3.2 c 0.221,0 0.4,0.1791 0.4,0.4 v 3.2 c 0,0.2209 0.179,0.4 0.4,0.4 h 7.2 c 0.221,0 0.4,0.1791 0.4,0.4 v 7.2 c 0,0.2209 0.179,0.4 0.4,0.4 h 3.2 c 0.221,0 0.4,0.1791 0.4,0.4 v 3.2 c 0,0.2209 -0.179,0.4 -0.4,0.4 z m -12,0 h -3.2 c -0.221,0 -0.4,-0.1791 -0.4,-0.4 v -3.2 c 0,-0.2209 0.179,-0.4 0.4,-0.4 h 3.2 c 0.221,0 0.4,0.1791 0.4,0.4 v 3.2 c 0,0.2209 -0.179,0.4 -0.4,0.4 z m -32,0 H 84.4 C 84.1791,68 84,67.8209 84,67.6 V 64.4 C 84,64.1791 84.1791,64 84.4,64 h 3.2 c 0.2209,0 0.4,0.1791 0.4,0.4 v 3.2 c 0,0.2209 -0.1791,0.4 -0.4,0.4 z m -68,0 H 16.4 C 16.1791,68 16,67.8209 16,67.6 V 64.4 C 16,64.1791 16.1791,64 16.4,64 h 3.2 c 0.2209,0 0.4,0.1791 0.4,0.4 v 3.2 c 0,0.2209 -0.1791,0.4 -0.4,0.4 z m 64,-4 H 76.4 C 76.1791,64 76,63.8209 76,63.6 V 60.4 C 76,60.1791 76.1791,60 76.4,60 h 7.2 c 0.2209,0 0.4,0.1791 0.4,0.4 v 3.2 c 0,0.2209 -0.1791,0.4 -0.4,0.4 z m -52,0 H 24.4 C 24.1791,64 24,63.8209 24,63.6 V 56.4 C 24,56.1791 23.8209,56 23.6,56 H 20.4 C 20.1791,56 20,56.1791 20,56.4 v 3.2 C 20,59.8209 19.8209,60 19.6,60 H 16.4 C 16.1791,60 16,59.8209 16,59.6 V 48.4 C 16,48.1791 16.1791,48 16.4,48 h 7.2 c 0.2209,0 0.4,0.1791 0.4,0.4 v 3.2 c 0,0.2209 0.1791,0.4 0.4,0.4 h 3.2 C 27.8209,52 28,51.8209 28,51.6 V 48.4 C 28,48.1791 28.1791,48 28.4,48 h 3.2 c 0.2209,0 0.4,0.1791 0.4,0.4 v 3.2 c 0,0.2209 0.1791,0.4 0.4,0.4 h 3.2 c 0.2209,0 0.4,0.1791 0.4,0.4 v 3.2 C 36,55.8209 35.8209,56 35.6,56 H 28.4 C 28.1791,56 28,56.1791 28,56.4 v 3.2 c 0,0.2209 0.1791,0.4 0.4,0.4 h 3.2 c 0.2209,0 0.4,0.1791 0.4,0.4 v 3.2 c 0,0.2209 -0.1791,0.4 -0.4,0.4 z m 100,-8 h -3.2 c -0.221,0 -0.4,-0.1791 -0.4,-0.4 v -3.2 c 0,-0.2209 0.179,-0.4 0.4,-0.4 h 3.2 c 0.221,0 0.4,0.1791 0.4,0.4 v 3.2 c 0,0.2209 -0.179,0.4 -0.4,0.4 z m -24,0 h -3.2 c -0.221,0 -0.4,-0.1791 -0.4,-0.4 v -7.2 c 0,-0.2209 0.179,-0.4 0.4,-0.4 h 11.2 c 0.221,0 0.4,0.1791 0.4,0.4 v 3.2 c 0,0.2209 -0.179,0.4 -0.4,0.4 h -7.2 c -0.221,0 -0.4,0.1791 -0.4,0.4 v 3.2 c 0,0.2209 -0.179,0.4 -0.4,0.4 z m 20,-4 h -7.2 c -0.221,0 -0.4,-0.1791 -0.4,-0.4 v -3.2 c 0,-0.2209 0.179,-0.4 0.4,-0.4 h 7.2 c 0.221,0 0.4,0.1791 0.4,0.4 v 3.2 c 0,0.2209 -0.179,0.4 -0.4,0.4 z m -80,0 H 40.4 C 40.1791,52 40,51.8209 40,51.6 V 48.4 C 40,48.1791 40.1791,48 40.4,48 h 7.2 c 0.2209,0 0.4,0.1791 0.4,0.4 v 3.2 c 0,0.2209 -0.1791,0.4 -0.4,0.4 z m 52,-4 H 96.4 C 96.1791,48 96,47.8209 96,47.6 V 40.4 C 96,40.1791 96.1791,40 96.4,40 h 3.2 c 0.2209,0 0.4,0.1791 0.4,0.4 v 7.2 c 0,0.2209 -0.1791,0.4 -0.4,0.4 z m 32,-4 H 104.4 C 104.179,44 104,43.8209 104,43.6 V 16.4 c 0,-0.2209 0.179,-0.4 0.4,-0.4 h 27.2 c 0.221,0 0.4,0.1791 0.4,0.4 v 27.2 c 0,0.2209 -0.179,0.4 -0.4,0.4 z m -40,0 H 88.4 C 88.1791,44 88,43.8209 88,43.6 V 40.4 C 88,40.1791 88.1791,40 88.4,40 h 3.2 c 0.2209,0 0.4,0.1791 0.4,0.4 v 3.2 c 0,0.2209 -0.1791,0.4 -0.4,0.4 z m -24,0 H 64.4 C 64.1791,44 64,43.8209 64,43.6 V 28.4 C 64,28.1791 64.1791,28 64.4,28 h 3.2 c 0.2209,0 0.4,0.1791 0.4,0.4 v 7.2 c 0,0.2209 0.1791,0.4 0.4,0.4 h 3.2 c 0.2209,0 0.4,0.1791 0.4,0.4 v 3.2 C 72,39.8209 71.8209,40 71.6,40 H 68.4 C 68.1791,40 68,40.1791 68,40.4 v 3.2 c 0,0.2209 -0.1791,0.4 -0.4,0.4 z m -24,0 H 16.4 C 16.1791,44 16,43.8209 16,43.6 V 16.4 C 16,16.1791 16.1791,16 16.4,16 h 27.2 c 0.2209,0 0.4,0.1791 0.4,0.4 V 43.6 C 44,43.8209 43.8209,44 43.6,44 Z M 128,39.6 V 20.4 c 0,-0.2209 -0.179,-0.4 -0.4,-0.4 h -19.2 c -0.221,0 -0.4,0.1791 -0.4,0.4 v 19.2 c 0,0.2209 0.179,0.4 0.4,0.4 h 19.2 c 0.221,0 0.4,-0.1791 0.4,-0.4 z M 95.6,40 H 92.4 C 92.1791,40 92,39.8209 92,39.6 V 36.4 C 92,36.1791 92.1791,36 92.4,36 h 3.2 c 0.2209,0 0.4,0.1791 0.4,0.4 v 3.2 c 0,0.2209 -0.1791,0.4 -0.4,0.4 z m -8,0 H 84.4 C 84.1791,40 84,39.8209 84,39.6 V 36.4 C 84,36.1791 83.8209,36 83.6,36 H 80.4 C 80.1791,36 80,36.1791 80,36.4 v 3.2 C 80,39.8209 79.8209,40 79.6,40 H 76.4 C 76.1791,40 76,39.8209 76,39.6 V 36.4 C 76,36.1791 75.8209,36 75.6,36 H 72.4 C 72.1791,36 72,35.8209 72,35.6 V 28.4 C 72,28.1791 72.1791,28 72.4,28 h 7.2 c 0.2209,0 0.4,0.1791 0.4,0.4 v 3.2 c 0,0.2209 0.1791,0.4 0.4,0.4 h 7.2 C 87.8209,32 88,31.8209 88,31.6 V 28.4 C 88,28.1791 88.1791,28 88.4,28 h 3.2 c 0.2209,0 0.4,0.1791 0.4,0.4 v 7.2 C 92,35.8209 91.8209,36 91.6,36 H 88.4 C 88.1791,36 88,36.1791 88,36.4 v 3.2 C 88,39.8209 87.8209,40 87.6,40 Z M 40,39.6 V 20.4 C 40,20.1791 39.8209,20 39.6,20 H 20.4 C 20.1791,20 20,20.1791 20,20.4 v 19.2 c 0,0.2209 0.1791,0.4 0.4,0.4 H 39.6 C 39.8209,40 40,39.8209 40,39.6 Z M 123.6,36 H 112.4 C 112.179,36 112,35.8209 112,35.6 V 24.4 c 0,-0.2209 0.179,-0.4 0.4,-0.4 h 11.2 c 0.221,0 0.4,0.1791 0.4,0.4 v 11.2 c 0,0.2209 -0.179,0.4 -0.4,0.4 z m -88,0 H 24.4 C 24.1791,36 24,35.8209 24,35.6 V 24.4 C 24,24.1791 24.1791,24 24.4,24 h 11.2 c 0.2209,0 0.4,0.1791 0.4,0.4 v 11.2 c 0,0.2209 -0.1791,0.4 -0.4,0.4 z m 64,-8 H 92.4 C 92.1791,28 92,27.8209 92,27.6 V 24.4 C 92,24.1791 92.1791,24 92.4,24 h 7.2 c 0.2209,0 0.4,0.1791 0.4,0.4 v 3.2 c 0,0.2209 -0.1791,0.4 -0.4,0.4 z m -12,0 H 84.4 C 84.1791,28 84,27.8209 84,27.6 V 24.4 C 84,24.1791 84.1791,24 84.4,24 h 3.2 c 0.2209,0 0.4,0.1791 0.4,0.4 v 3.2 c 0,0.2209 -0.1791,0.4 -0.4,0.4 z m -36,0 H 48.4 C 48.1791,28 48,27.8209 48,27.6 V 20.4 C 48,20.1791 48.1791,20 48.4,20 h 7.2 C 55.8209,20 56,19.8209 56,19.6 V 16.4 C 56,16.1791 56.1791,16 56.4,16 h 3.2 c 0.2209,0 0.4,0.1791 0.4,0.4 v 7.2 C 60,23.8209 59.8209,24 59.6,24 H 52.4 C 52.1791,24 52,24.1791 52,24.4 v 3.2 c 0,0.2209 -0.1791,0.4 -0.4,0.4 z m 28,-4 H 76.4 C 76.1791,24 76,23.8209 76,23.6 V 16.4 C 76,16.1791 76.1791,16 76.4,16 h 3.2 c 0.2209,0 0.4,0.1791 0.4,0.4 v 7.2 c 0,0.2209 -0.1791,0.4 -0.4,0.4 z m -8,0 H 68.4 C 68.1791,24 68,23.8209 68,23.6 V 20.4 C 68,20.1791 68.1791,20 68.4,20 h 3.2 c 0.2209,0 0.4,0.1791 0.4,0.4 v 3.2 c 0,0.2209 -0.1791,0.4 -0.4,0.4 z m 24,-4 H 84.4 C 84.1791,20 84,19.8209 84,19.6 V 16.4 C 84,16.1791 84.1791,16 84.4,16 h 11.2 c 0.2209,0 0.4,0.1791 0.4,0.4 v 3.2 c 0,0.2209 -0.1791,0.4 -0.4,0.4 z"
           id="path7" /></g></g></g></svg>
