<?xml version="1.0" encoding="UTF-8" standalone="no"?>
<!-- Created with Inkscape (http://www.inkscape.org/) -->

<svg
   width="40.000141mm"
   height="40.000141mm"
   viewBox="0 0 40.000141 40.000141"
   version="1.1"
   id="svg1"
   xml:space="preserve"
   inkscape:version="1.3.2 (091e20e, 2023-11-25, custom)"
   sodipodi:docname="ThermaCurata logo - export.svg"
   inkscape:export-filename="ThermaCurata logo - export.svg"
   inkscape:export-xdpi="96"
   inkscape:export-ydpi="96"
   xmlns:inkscape="http://www.inkscape.org/namespaces/inkscape"
   xmlns:sodipodi="http://sodipodi.sourceforge.net/DTD/sodipodi-0.dtd"
   xmlns="http://www.w3.org/2000/svg"
   xmlns:svg="http://www.w3.org/2000/svg"><sodipodi:namedview
     id="namedview1"
     pagecolor="#ffffff"
     bordercolor="#000000"
     borderopacity="0.25"
     inkscape:showpageshadow="2"
     inkscape:pageopacity="0.0"
     inkscape:pagecheckerboard="0"
     inkscape:deskcolor="#d1d1d1"
     inkscape:document-units="mm"
     inkscape:zoom="3.8166011"
     inkscape:cx="75.590818"
     inkscape:cy="75.459811"
     inkscape:window-width="1440"
     inkscape:window-height="830"
     inkscape:window-x="-6"
     inkscape:window-y="-6"
     inkscape:window-maximized="1"
     inkscape:current-layer="layer1" /><defs
     id="defs1" /><g
     inkscape:label="Layer 1"
     inkscape:groupmode="layer"
     id="layer1"
     transform="translate(-52.096717,-75.92841)"><path
       id="circle6"
       style="fill:#000000;stroke:none;stroke-width:0.132508;stroke-linejoin:round;stroke-miterlimit:10"
       d="m 72.09653,75.928412 c -11.045449,1.01e-4 -19.999709,8.954383 -19.999813,19.999811 -1.81e-4,11.045667 8.954162,20.000227 19.999813,20.000327 11.045869,1.8e-4 20.000509,-8.95446 20.000328,-20.000327 C 92.096752,84.882591 83.142201,75.92823 72.09653,75.928412 Z m 0,1.63039 c 9.076462,0.0049 16.788823,6.638353 18.151348,15.611967 h -6.714837 c -1.271046,-5.291437 -5.994594,-9.02849 -11.436511,-9.048026 -5.441713,0.01979 -10.165006,3.756775 -11.435995,9.048026 H 53.9457 c 1.362485,-8.97342 9.074566,-15.606764 18.15083,-15.611967 z m -3.720186,1.668115 -0.710551,0.147795 0.86868,4.16822 0.711068,-0.147794 -0.435632,-2.089795 c -0.01912,-0.09174 -0.01483,-0.165432 0.01344,-0.221174 0.02787,-0.05766 0.08013,-0.09465 0.15658,-0.110591 0.07645,-0.01595 0.139006,-0.0031 0.187585,0.03874 0.04818,0.0398 0.08241,0.10753 0.102319,0.20309 l 0.434082,2.08411 0.711068,-0.148311 -0.473873,-2.273248 c -0.05098,-0.244627 -0.141414,-0.420045 -0.271301,-0.526582 -0.128376,-0.108846 -0.284201,-0.144173 -0.467672,-0.105935 -0.135689,0.02827 -0.251516,0.103024 -0.347782,0.22479 -0.07302,0.09393 -0.11619,0.218581 -0.14366,0.359154 z m -1.68827,0.434599 -1.97714,0.797366 0.260449,0.645959 0.652157,-0.262521 1.331185,3.302644 0.673344,-0.271818 -1.331185,-3.302643 0.65164,-0.262516 z m 5.129403,0.325563 c -0.294741,0.0049 -0.523751,0.09468 -0.68678,0.269234 -0.161079,0.174522 -0.238886,0.419657 -0.233577,0.735869 l 0.02015,1.212333 c 0.005,0.296694 0.09293,0.525632 0.26355,0.686779 0.172539,0.15916 0.410069,0.236072 0.712618,0.230992 0.296693,-0.005 0.52589,-0.08477 0.687297,-0.239777 0.161372,-0.156956 0.239814,-0.375099 0.235128,-0.654227 l -0.0015,-0.08475 -0.699699,0.0057 0.0015,0.105419 c 0.0011,0.06832 -0.01854,0.121391 -0.05891,0.159164 -0.04037,0.03777 -0.09854,0.05711 -0.174667,0.0584 -0.08003,0.0013 -0.14297,-0.01992 -0.188619,-0.06408 -0.04565,-0.04413 -0.06887,-0.108304 -0.07028,-0.192234 l -0.0067,-0.397912 1.182874,-0.02014 -0.01447,-0.860413 c -0.0052,-0.308408 -0.09224,-0.545469 -0.260966,-0.710551 -0.168734,-0.165083 -0.404383,-0.244857 -0.706934,-0.239778 z m 1.974557,0.127641 -0.446485,3.006533 0.718303,0.106969 0.256831,-1.729608 v -4.42e-4 c 0.02615,-0.175462 0.0944,-0.307131 0.204124,-0.395324 0.109827,-0.08828 0.24968,-0.119818 0.419613,-0.09457 l 0.103868,0.0155 0.07855,0.01188 0.112653,-0.759125 c -0.164111,-0.02438 -0.322307,0.0055 -0.474903,0.0894 -0.119134,0.06517 -0.222649,0.164005 -0.317295,0.28112 l 0.06305,-0.425298 z m 2.518193,0.40876 -1.089855,2.83755 0.685746,0.263549 0.771527,-2.009177 -4.42e-4,0.0031 c 0.03432,-0.0893 0.07911,-0.149491 0.134876,-0.180352 0.05577,-0.03087 0.120374,-0.03264 0.193271,-0.0046 0.07654,0.02942 0.124619,0.07538 0.144694,0.137459 0.02262,0.06096 0.01674,0.136011 -0.01758,0.225312 l -0.769464,2.00401 0.683162,0.262516 0.771014,-2.006594 c 0.03432,-0.0893 0.07911,-0.149491 0.134876,-0.180352 0.05759,-0.03017 0.124478,-0.03056 0.201023,-8.83e-4 0.07472,0.02871 0.121276,0.07349 0.139526,0.134875 0.02076,0.06026 0.01413,0.134977 -0.02014,0.224274 l -0.769464,2.004014 0.686262,0.263549 0.832508,-2.167824 c 0.0875,-0.227803 0.105926,-0.4235 0.05581,-0.587045 -0.05011,-0.163546 -0.163259,-0.279371 -0.340033,-0.347268 -0.134858,-0.05179 -0.274843,-0.05511 -0.419613,-0.01034 -0.125591,0.03746 -0.244565,0.12185 -0.359149,0.238227 0.02231,-0.124804 0.01829,-0.237617 -0.01758,-0.335898 -0.05432,-0.15261 -0.171496,-0.263501 -0.351915,-0.332794 -0.136682,-0.0525 -0.277767,-0.05538 -0.42323,-0.0088 -0.108223,0.03467 -0.210219,0.107425 -0.309026,0.198952 l 0.13901,-0.361733 z m -4.481898,0.110587 c 0.07808,-0.0013 0.13914,0.02284 0.182935,0.07286 0.04574,0.05 0.06929,0.120017 0.0708,0.209809 l 0.0062,0.363283 -0.480591,0.0077 -0.0057,-0.342612 c -0.0016,-0.0976 0.01777,-0.172954 0.05788,-0.226346 0.04008,-0.05534 0.09624,-0.08354 0.168465,-0.08475 z m -7.474996,1.41025 c -0.121036,-0.0089 -0.240451,0.02668 -0.357601,0.106969 -0.119159,0.08167 -0.201245,0.194897 -0.246496,0.339516 -0.04044,0.124743 -0.03864,0.270484 -0.0078,0.430982 -0.09006,-0.08905 -0.185092,-0.150012 -0.286288,-0.176218 -0.156487,-0.04187 -0.314453,-0.008 -0.473873,0.101285 -0.120772,0.08278 -0.202865,0.196902 -0.247013,0.343133 -0.03279,0.108608 -0.03109,0.233864 -0.01189,0.366902 l -0.218591,-0.319362 -0.606165,0.415995 1.718759,2.506824 0.606164,-0.415479 -1.21543,-1.773017 c -0.05408,-0.0789 -0.07805,-0.14999 -0.07183,-0.213426 0.0062,-0.06341 0.04152,-0.117079 0.105937,-0.161227 0.06763,-0.04636 0.132825,-0.06003 0.195337,-0.04134 0.06302,0.01599 0.121619,0.06321 0.175699,0.14211 l 1.213363,1.770434 0.604098,-0.413929 -1.21543,-1.773017 -5.3e-4,-4.41e-4 c -0.05377,-0.07864 -0.077,-0.149646 -0.0708,-0.21291 0.0078,-0.06454 0.04554,-0.120043 0.113172,-0.166394 0.06602,-0.04525 0.129267,-0.05803 0.190169,-0.03825 0.06141,0.01709 0.119036,0.06527 0.173116,0.144178 l 1.213363,1.770433 0.606681,-0.415479 -1.313098,-1.915127 c -0.137958,-0.201288 -0.288545,-0.327794 -0.451652,-0.379304 -0.04078,-0.0129 -0.0811,-0.0208 -0.12144,-0.02376 z m 16.252238,0.532266 c -0.05465,-0.0051 -0.10859,-0.0048 -0.161747,0.0022 -0.211523,0.02531 -0.390528,0.145065 -0.537435,0.359149 l -0.84491,1.231453 c -0.148011,0.215675 -0.197463,0.429485 -0.148311,0.640786 0.05026,0.20969 0.193324,0.395735 0.429948,0.558106 0.238231,0.163475 0.462841,0.231125 0.67386,0.203086 0.213731,-0.02853 0.394145,-0.149712 0.541052,-0.363801 l 0.850077,-1.238683 c 0.146907,-0.214089 0.194058,-0.42452 0.141594,-0.630967 -0.04975,-0.206978 -0.19378,-0.392069 -0.432016,-0.555522 -0.177467,-0.121779 -0.348142,-0.190378 -0.512112,-0.205674 z m 0.07131,0.709001 c 0.02526,0.0055 0.0505,0.01696 0.07545,0.0341 0.0499,0.03423 0.07741,0.07667 0.08268,0.127641 0.0053,0.05097 -0.01148,0.104888 -0.05012,0.161231 L 80.001472,84.7506 c -0.04196,0.06117 -0.088,0.09821 -0.137459,0.111625 -0.04946,0.01343 -0.09893,0.0031 -0.148828,-0.03101 -0.0499,-0.03423 -0.07838,-0.07763 -0.08527,-0.129707 -0.0069,-0.05208 0.01073,-0.108334 0.05271,-0.1695 l 0.78393,-1.14205 c 0.03865,-0.05634 0.08329,-0.09104 0.134358,-0.103352 0.02553,-0.0061 0.05072,-0.0067 0.07596,-8.83e-4 z m 1.918232,0.957564 c -0.233262,0.004 -0.44493,0.103065 -0.634589,0.29714 -0.09824,0.100525 -0.168815,0.199491 -0.211871,0.296624 -0.04028,0.0971 -0.06136,0.192392 -0.06305,0.286287 -0.0018,0.0939 0.01016,0.184093 0.03463,0.270785 0.02447,0.08669 0.05261,0.169217 0.08526,0.247529 0.03971,0.09066 0.07584,0.176792 0.108524,0.257864 0.03405,0.07968 0.05261,0.153038 0.05477,0.220661 0.0035,0.06898 -0.02314,0.132407 -0.07906,0.18965 -0.05458,0.05585 -0.117358,0.08393 -0.189137,0.08475 -0.06901,8.83e-4 -0.133078,-0.02743 -0.191721,-0.08475 -0.05864,-0.0573 -0.08854,-0.123382 -0.0894,-0.197918 0.0018,-0.07457 0.03229,-0.141501 0.09095,-0.20154 l 0.03308,-0.03361 -0.485756,-0.466635 -0.03516,0.03564 c -0.192357,0.199628 -0.286345,0.421291 -0.282154,0.665596 0.0069,0.24427 0.111744,0.465677 0.314194,0.663525 0.203846,0.199207 0.42657,0.299392 0.668176,0.300757 0.243001,0.0027 0.4608,-0.09459 0.653188,-0.291455 0.11325,-0.115887 0.19113,-0.22635 0.234098,-0.331765 0.04436,-0.104049 0.06415,-0.203492 0.05891,-0.29869 -0.0052,-0.09519 -0.0246,-0.186253 -0.05736,-0.272852 -0.03277,-0.08659 -0.06844,-0.169464 -0.108007,-0.249079 -0.03816,-0.07825 -0.07249,-0.154036 -0.102318,-0.226858 -0.02845,-0.07146 -0.04179,-0.140419 -0.0398,-0.206708 0.0022,-0.06629 0.0314,-0.127755 0.08734,-0.185003 0.05185,-0.05305 0.107791,-0.08266 0.168462,-0.08888 0.06068,-0.0062 0.113453,0.01215 0.15813,0.05581 0.04747,0.04639 0.06961,0.09924 0.06615,0.158647 -0.0035,0.0594 -0.02924,0.113912 -0.077,0.162777 l -0.04289,0.0439 0.489891,0.466123 0.03671,-0.03719 c 0.185533,-0.192645 0.276367,-0.404604 0.272334,-0.635102 -0.004,-0.230502 -0.101726,-0.438875 -0.293006,-0.625804 -0.188488,-0.184203 -0.399259,-0.274331 -0.632517,-0.270267 z m -21.614186,0.535367 c -0.211953,0.01974 -0.415589,0.135781 -0.611332,0.348302 -0.194422,0.21108 -0.293509,0.423389 -0.297139,0.637685 -0.0051,0.212976 0.08756,0.407524 0.278536,0.583428 l 1.09864,1.011826 c 0.192415,0.177224 0.396737,0.256778 0.612883,0.238227 0.214712,-0.01988 0.419494,-0.135671 0.613916,-0.346751 0.195745,-0.212517 0.294831,-0.424825 0.29714,-0.637686 0.0022,-0.215617 -0.09221,-0.411653 -0.283187,-0.587562 l -1.105359,-1.017506 c -0.190976,-0.175908 -0.39226,-0.25248 -0.604098,-0.229963 z m 11.115601,0.242878 c 6.019634,0 10.906829,4.887191 10.906829,10.90683 0,2.317267 -0.726099,4.465407 -1.960604,6.232697 h -0.814937 c 1.325437,-1.72639 2.11563,-3.885749 2.11563,-6.232697 0,-5.663157 -4.583761,-10.246918 -10.246918,-10.246918 -5.663154,0 -10.24692,4.583761 -10.24692,10.246918 0,2.34697 0.790088,4.506327 2.115633,6.232697 h -0.81442 C 61.916165,100.39364 61.1897,98.245574 61.1897,95.928223 c 0,-6.019639 4.887195,-10.90683 10.906828,-10.90683 z m 13.055532,0.361738 -0.703316,0.536401 -0.160198,-0.209809 -0.528132,0.40308 0.159681,0.209805 -1.259872,0.960664 c -0.20646,0.15745 -0.326402,0.328734 -0.359666,0.513662 -0.03326,0.184955 0.03357,0.386773 0.200502,0.60565 l 0.193789,0.25373 0.567924,-0.433049 -0.12609,-0.165361 c -0.03432,-0.04502 -0.04761,-0.09131 -0.0398,-0.139009 0.01056,-0.04733 0.04232,-0.09153 0.09508,-0.131775 l 1.166855,-0.88987 0.23616,0.31006 0.528649,-0.403076 -0.23616,-0.31006 0.7028,-0.535884 z M 60.987647,85.50147 c 0.0512,0.0022 0.102188,0.02606 0.152445,0.07234 l 1.018543,0.938448 c 0.05457,0.05026 0.08523,0.100547 0.09147,0.151412 0.0062,0.05086 -0.01119,0.09863 -0.05219,0.143144 -0.041,0.04451 -0.08752,0.06675 -0.140043,0.06614 -0.05252,-4.41e-4 -0.106149,-0.02624 -0.160714,-0.07648 l -1.019059,-0.938447 c -0.05026,-0.04629 -0.07777,-0.09549 -0.08268,-0.147795 -0.0049,-0.0523 0.01326,-0.100697 0.05426,-0.145206 0.041,-0.04451 0.08677,-0.0656 0.137976,-0.06356 z m -1.64021,1.380277 c -0.05204,0.0022 -0.103369,0.011 -0.154512,0.02584 -0.20517,0.05674 -0.385746,0.206981 -0.541053,0.450619 -0.154257,0.241991 -0.213958,0.468985 -0.179834,0.680578 0.03248,0.210542 0.158293,0.385466 0.377238,0.525032 l 1.259355,0.802534 c 0.220591,0.140617 0.435411,0.182896 0.644922,0.126607 0.207867,-0.05733 0.388862,-0.207097 0.543119,-0.449065 0.155307,-0.243638 0.215525,-0.470116 0.180351,-0.680066 -0.03577,-0.21264 -0.163463,-0.389083 -0.382405,-0.528649 l -1.26659,-0.807185 C 59.66382,86.923319 59.503563,86.874485 59.347437,86.881747 Z M 72.09653,87.45949 c 0.95135,0 1.728061,0.776708 1.728061,1.728062 v 6.444047 c 0.937966,0.594002 1.529592,1.612904 1.529623,2.733687 -3.6e-5,1.794964 -1.462675,3.257644 -3.257684,3.257684 -1.794985,-4e-5 -3.257126,-1.46272 -3.257166,-3.257684 v -4.42e-4 c 0.0032,-1.117655 0.593586,-2.134229 1.529106,-2.726451 v -1.084171 h -0.60203 v -0.23616 h 0.60203 v -1.075906 h -0.60203 v -0.236677 h 0.60203 v -1.075385 h -0.60203 v -0.236677 h 0.60203 v -1.07539 H 69.76644 V 90.499689 90.38135 h 0.60203 v -1.075902 h -0.60203 v -0.236164 h 0.613916 c 0.0623,-0.895515 0.805349,-1.609719 1.716174,-1.609719 z m -12.769763,0.158647 c 0.05076,-0.007 0.105163,0.0077 0.16278,0.04444 l 1.167888,0.744659 c 0.06256,0.03988 0.101187,0.08435 0.116272,0.133325 0.01508,0.04897 0.0067,0.09883 -0.02584,0.149862 -0.03253,0.05103 -0.07479,0.08075 -0.126607,0.0894 -0.05181,0.0087 -0.109011,-0.0066 -0.171566,-0.0465 l -1.167888,-0.744659 c -0.05762,-0.03675 -0.09345,-0.08064 -0.107487,-0.131258 -0.01404,-0.05062 -0.0051,-0.101413 0.02739,-0.152446 0.03253,-0.05103 0.07429,-0.07982 0.125057,-0.08682 z m 26.102281,0.225308 c -0.16904,-0.01104 -0.349604,0.03485 -0.541568,0.138492 l 0.329697,0.610818 c 0.07043,-0.03803 0.133201,-0.05101 0.188616,-0.03874 0.05806,0.01303 0.103449,0.04943 0.135909,0.109553 0.03803,0.07043 0.04839,0.135074 0.03101,0.193272 -0.0174,0.0582 -0.06134,0.106147 -0.131775,0.144177 l -0.31161,0.168466 -0.103352,-0.190687 c -0.153969,-0.285153 -0.347643,-0.463588 -0.58136,-0.534851 -0.231072,-0.07047 -0.489824,-0.02831 -0.776695,0.126607 -0.24908,0.134491 -0.410753,0.289808 -0.484727,0.46509 -0.07397,0.175277 -0.05746,0.362457 0.05013,0.561722 0.05751,0.106501 0.128878,0.184345 0.213427,0.234093 0.08626,0.04882 0.183545,0.06929 0.292484,0.06149 0.0246,-0.0013 0.0511,-0.01007 0.07648,-0.01444 l -0.294556,0.15916 0.327113,0.605649 1.919778,-1.036631 c 0.255953,-0.138179 0.414194,-0.316972 0.475421,-0.536401 0.06216,-0.217706 0.0239,-0.455464 -0.115238,-0.713135 -0.138201,-0.25593 -0.316486,-0.41717 -0.534333,-0.483689 -0.0538,-0.01643 -0.108502,-0.02628 -0.164849,-0.02999 z M 72.09653,88.165907 c -0.571941,0 -1.021126,0.449696 -1.021126,1.021645 v 6.839371 l -0.186552,0.09974 c -0.825287,0.4435 -1.339979,1.301766 -1.343071,2.238624 3.1e-5,1.412887 1.137837,2.551233 2.550749,2.551263 1.412927,-3e-5 2.55124,-1.138376 2.551267,-2.551263 -2.3e-5,-0.939795 -0.515761,-1.801507 -1.343591,-2.246376 l -0.186033,-0.09974 v -6.83162 c 0,-0.571949 -0.449695,-1.021645 -1.021643,-1.021644 z m -15.004252,0.688847 c -0.04303,2.34e-4 -0.08511,0.0031 -0.126608,0.0098 -0.165971,0.02646 -0.313885,0.102376 -0.443383,0.227375 -0.130593,0.122464 -0.238425,0.290802 -0.323495,0.504881 l -0.267167,0.67231 -0.119889,0.301791 3.959448,1.573544 0.263033,-0.661457 -1.6738,-0.665075 0.08992,-0.225828 1.868102,0.175184 0.287838,-0.723471 -2.012797,-0.122473 c -1.31e-4,-0.0022 1.44e-4,-0.004 0,-0.0062 -0.01201,-0.181231 -0.07109,-0.339256 -0.17725,-0.473871 -0.10616,-0.134619 -0.257269,-0.240983 -0.453202,-0.318844 L 57.500524,88.93845 C 57.357653,88.88168 57.221357,88.85403 57.09228,88.85474 Z m 27.222626,0.248562 c 0.09231,0.01895 0.166041,0.07987 0.221695,0.182936 l 0.08475,0.157097 -0.321945,0.174146 h -4.42e-4 c -0.09257,0.04988 -0.177145,0.06372 -0.25373,0.04081 -0.07407,-0.02213 -0.134597,-0.07724 -0.181898,-0.164849 -0.03339,-0.06184 -0.03958,-0.120525 -0.0186,-0.176213 0.02359,-0.0549 0.07324,-0.102853 0.148829,-0.143661 0.12196,-0.06586 0.229115,-0.08921 0.321424,-0.07028 z m -27.180768,0.514696 c 0.04024,0.0018 0.08332,0.01144 0.128674,0.02946 l 0.4408,0.175184 c 0.08164,0.03246 0.13611,0.08265 0.163814,0.150379 0.02589,0.06701 0.02137,0.145198 -0.01395,0.234093 l -0.14056,0.353469 -0.990637,-0.393261 0.14056,-0.353982 c 0.03533,-0.0889 0.08787,-0.147936 0.15813,-0.176734 0.03513,-0.0144 0.07293,-0.02041 0.113171,-0.0186 z m 30.629657,0.295073 -0.834575,0.29404 -0.08734,-0.248563 -0.626833,0.220656 0.08733,0.248568 -1.493964,0.526065 c -0.244897,0.08626 -0.411654,0.212533 -0.500231,0.37827 -0.08857,0.165736 -0.08716,0.378579 0.004,0.638206 l 0.10594,0.300753 0.674377,-0.237193 -0.06925,-0.196372 c -0.01882,-0.0534 -0.01745,-0.101219 0.0046,-0.144173 0.0246,-0.04178 0.06865,-0.07407 0.131258,-0.09612 l 1.383378,-0.487307 0.129707,0.367418 0.626838,-0.220657 -0.129708,-0.367422 0.834575,-0.294039 z m -20.275768,0.978752 1.546676,0.89297 -1.546676,0.892967 z m 8.439281,0 v 1.785937 l -1.546159,-0.892967 z m -4.440041,0.89297 c 0.37929,-0.37929 0.831589,-0.387457 1.219047,0 v 4.980057 c 0.643883,0.24749 1.10536,0.873081 1.10536,1.600422 0,0.941698 -0.773414,1.715134 -1.715142,1.715134 -0.941725,0 -1.714624,-0.773436 -1.714624,-1.715134 0,-0.72746 0.461313,-1.353021 1.105359,-1.600422 z m 17.033585,3.05201 c 0.207172,0 0.363129,0.05263 0.467673,0.158131 0.105503,0.104544 0.158131,0.250077 0.158131,0.436149 v 0.950846 c 0,0.185109 -0.05263,0.330647 -0.158131,0.43615 -0.105503,0.105502 -0.26146,0.15813 -0.467673,0.15813 -0.20813,0 -0.364679,-0.05322 -0.469224,-0.159681 -0.104544,-0.107424 -0.156575,-0.252365 -0.156575,-0.434599 v -0.950846 c 0,-0.185113 0.05262,-0.330647 0.158126,-0.436149 0.105507,-0.105503 0.261464,-0.158131 0.467673,-0.158131 z m -2.182811,0.0046 c 0.185109,0 0.328204,0.04716 0.428915,0.14211 0.101664,0.09399 0.152446,0.227923 0.152446,0.401526 v 0.06305 c 0,0.09687 -0.02447,0.18128 -0.07338,0.253214 -0.04891,0.07193 -0.118617,0.125741 -0.208771,0.161231 0.100706,0.02301 0.178908,0.07616 0.233576,0.158643 0.05563,0.08249 0.0832,0.187149 0.0832,0.31471 v 0.06356 c 0,0.183192 -0.05381,0.325104 -0.161231,0.425814 -0.107415,0.100706 -0.258496,0.150896 -0.453199,0.150896 -0.125644,0 -0.237626,-0.02319 -0.336415,-0.06925 -0.09879,-0.04604 -0.177654,-0.112707 -0.23616,-0.199989 -0.05851,-0.08727 -0.09095,-0.19253 -0.09767,-0.316257 h 0.40721 c 0.0096,0.06426 0.03348,0.114372 0.07183,0.149862 0.03838,0.03547 0.08789,0.05322 0.148311,0.05322 0.07481,0 0.132318,-0.02076 0.172601,-0.06201 0.04125,-0.04223 0.06149,-0.101479 0.06149,-0.177252 v -0.04858 c 0,-0.07961 -0.01656,-0.141324 -0.05012,-0.184482 -0.0326,-0.04315 -0.0797,-0.0646 -0.141077,-0.0646 h -0.176734 v -0.379821 h 0.176734 c 0.04987,0 0.08838,-0.01842 0.115238,-0.05581 0.02783,-0.03838 0.04187,-0.09158 0.04187,-0.159681 v -0.03618 c 0,-0.06426 -0.01528,-0.113784 -0.04599,-0.148312 -0.02973,-0.03551 -0.07194,-0.05323 -0.126607,-0.05323 -0.05371,0 -0.100127,0.02018 -0.138493,0.06046 -0.03741,0.04028 -0.06254,0.0972 -0.07597,0.171046 H 85.70398 c 0.01727,-0.194694 0.0846,-0.345779 0.202573,-0.453199 0.117972,-0.107424 0.261734,-0.160714 0.431499,-0.160714 z m -30.122194,0.0212 h 0.40566 l 0.444935,1.395781 0.444417,-1.395781 h 0.40566 l -0.696082,2.091862 h -0.307991 z m 32.305005,0.353982 c -0.08152,0 -0.140803,0.02809 -0.177251,0.08372 -0.03644,0.05563 -0.05426,0.13272 -0.05426,0.231509 v 0.74931 c 0,0.09783 0.0178,0.175436 0.05426,0.232026 0.03644,0.05563 0.09573,0.0832 0.177251,0.0832 0.08249,0 0.141245,-0.02756 0.176735,-0.0832 0.03644,-0.05659 0.05477,-0.134195 0.05477,-0.232026 v -0.74931 c 0,-0.09879 -0.01833,-0.175882 -0.05477,-0.231509 -0.03551,-0.05563 -0.09425,-0.08372 -0.176735,-0.08372 z m -1.257288,1.344107 h 0.393774 v 0.393773 h -0.393774 z m -15.167032,0.9741 c -0.464316,0 -0.831474,0.36612 -0.831474,0.830441 0,0.464281 0.367158,0.83199 0.831474,0.83199 0.464316,0 0.831991,-0.367709 0.831991,-0.83199 0,-0.464321 -0.367675,-0.830441 -0.831991,-0.830441 z M 53.9457,98.594727 h 6.714835 c 0.273517,1.062166 0.693734,2.081033 1.248503,3.027203 h -6.964433 c -0.07486,0.0113 -0.147225,0.0355 -0.21394,0.0713 -0.351189,-1.00807 -0.613838,-2.044838 -0.784965,-3.098523 z m 29.587341,0 h 6.714837 c -0.169279,1.044277 -0.428455,2.071983 -0.774632,3.071643 -0.07178,-0.0277 -0.147848,-0.0428 -0.224791,-0.0444 h -6.964433 c 0.554952,-0.94614 0.975338,-1.965011 1.249019,-3.027203 z m -27.55129,4.352703 h 32.230073 c -2.807202,6.37967 -9.081224,10.57627 -16.113227,10.59626 -7.033419,-0.0186 -13.309164,-4.21554 -16.116846,-10.59626 z m 0.895553,0.57516 c 1.210164,2.40325 2.949238,4.52479 5.137154,6.12676 0.0017,8.8e-4 0.0034,0.002 0.0052,0.003 1.618718,1.2004 3.595686,2.15228 5.541264,2.69338 2.301606,0.63677 4.711897,0.78896 7.045564,0.43149 8.83e-4,-3.4e-4 0.0018,-8.8e-4 0.0027,-8.8e-4 2.33747,-0.35211 4.59373,-1.19406 6.607868,-2.46961 8.83e-4,-8.9e-4 0.0018,-0.001 0.0027,-0.002 2.031761,-1.27909 3.859782,-3.08127 5.169189,-5.09375 3.45e-4,-8.8e-4 8.84e-4,-0.001 8.84e-4,-0.002 0.351685,-0.5375 0.589399,-1.12387 0.872816,-1.6862 z m 9.848494,1.96836 c 0.05438,0 0.0985,0.0182 0.131775,0.0548 0.03409,0.0357 0.05116,0.0905 0.05116,0.16434 v 0.51107 h 0.780314 v -0.51107 c 0,-0.073 0.01611,-0.12782 0.04858,-0.16434 0.03327,-0.0365 0.07666,-0.0548 0.130224,-0.0548 0.05438,0 0.09799,0.0182 0.131259,0.0548 0.03409,0.0357 0.05116,0.0905 0.05116,0.16434 v 1.4056 c 0,0.0738 -0.01708,0.12935 -0.05116,0.16588 -0.03409,0.0365 -0.0777,0.0548 -0.131259,0.0548 -0.05437,0 -0.09776,-0.0182 -0.130224,-0.0548 -0.03246,-0.0373 -0.04858,-0.0929 -0.04858,-0.16588 v -0.59997 h -0.780314 v 0.59997 c 0,0.0738 -0.01708,0.12935 -0.05116,0.16588 -0.03409,0.0365 -0.07821,0.0548 -0.131775,0.0548 -0.05437,0 -0.09776,-0.0182 -0.130224,-0.0548 -0.03247,-0.0373 -0.04858,-0.0929 -0.04858,-0.16588 v -1.4056 c 0,-0.073 0.01589,-0.12782 0.04754,-0.16434 0.03247,-0.0365 0.07607,-0.0548 0.131258,-0.0548 z m 4.86482,0 c 0.05113,0 0.09141,0.0173 0.121439,0.0522 0.03003,0.0349 0.04496,0.0863 0.04496,0.15451 v 0.80564 l 0.37362,-0.39171 c 0.04626,-0.0487 0.08159,-0.0819 0.105937,-0.0997 0.02435,-0.0178 0.05399,-0.0269 0.08888,-0.0269 0.04139,0 0.07628,0.0135 0.10387,0.0403 0.02759,0.026 0.04134,0.0589 0.04134,0.0987 0,0.0487 -0.04531,0.11315 -0.135393,0.1943 l -0.176216,0.16226 0.340547,0.53537 c 0.02516,0.0397 0.04319,0.0704 0.05374,0.0915 0.01136,0.0203 0.01705,0.0397 0.01705,0.0584 0,0.0528 -0.01471,0.0947 -0.04393,0.12558 -0.0284,0.03 -0.0661,0.045 -0.113171,0.045 -0.04058,0 -0.07162,-0.0112 -0.09354,-0.0331 -0.02191,-0.0219 -0.05155,-0.0617 -0.08888,-0.11937 l -0.293522,-0.48214 -0.180351,0.17053 v 0.26407 c 0,0.0641 -0.01708,0.11393 -0.05116,0.14883 -0.03327,0.0341 -0.07141,0.0512 -0.115239,0.0512 -0.05113,0 -0.09171,-0.0171 -0.120923,-0.0512 -0.02921,-0.0341 -0.04341,-0.0844 -0.04341,-0.15089 v -1.41697 c 0,-0.0739 0.01397,-0.12981 0.04238,-0.16795 0.0284,-0.039 0.0692,-0.0584 0.121957,-0.0584 z m 2.119248,0 c 0.056,0 0.100348,0.0182 0.132813,0.0548 0.03326,0.0365 0.04961,0.0913 0.04961,0.16434 v 0.93482 c 0,0.0812 -0.0035,0.1499 -0.01086,0.20671 -0.0065,0.0568 -0.02217,0.11468 -0.04651,0.17311 -0.04059,0.0982 -0.107177,0.17478 -0.200507,0.22996 -0.09333,0.0544 -0.207158,0.0816 -0.341066,0.0816 -0.120914,0 -0.221666,-0.0192 -0.302822,-0.0574 -0.08034,-0.0382 -0.145315,-0.0998 -0.19482,-0.185 -0.02597,-0.0455 -0.04733,-0.0979 -0.06356,-0.1571 -0.01623,-0.0592 -0.02429,-0.11542 -0.02429,-0.16898 0,-0.0568 0.01589,-0.1002 0.04754,-0.13022 0.03165,-0.03 0.07194,-0.0455 0.12144,-0.0455 0.04788,0 0.08417,0.0143 0.10852,0.0419 0.02435,0.0276 0.04334,0.0702 0.05633,0.12868 0.0138,0.0625 0.02754,0.11253 0.04134,0.14986 0.0138,0.0373 0.03678,0.0693 0.06925,0.0961 0.03246,0.0268 0.07844,0.0403 0.13849,0.0403 0.159879,0 0.239782,-0.11738 0.239782,-0.35192 v -0.98702 c 0,-0.073 0.0159,-0.12781 0.04754,-0.16433 0.03247,-0.0365 0.07659,-0.0548 0.131775,-0.0548 z m -4.705137,0.49144 c 0.129848,0 0.240795,0.0275 0.333313,0.0827 0.09333,0.0544 0.163549,0.12504 0.209806,0.21188 0.04626,0.0868 0.06925,0.17553 0.06925,0.26561 0,0.0836 -0.02395,0.13814 -0.07183,0.1633 -0.04788,0.0243 -0.115219,0.0362 -0.202056,0.0362 H 68.69312 c 7.95e-4,0.0755 0.01574,0.14237 0.04496,0.19999 0.03003,0.0576 0.06964,0.101 0.118338,0.13022 0.04951,0.0292 0.103539,0.0434 0.162781,0.0434 0.03977,0 0.07606,-0.005 0.108521,-0.0134 0.03327,-0.01 0.06528,-0.0239 0.09612,-0.0434 0.03084,-0.0203 0.0593,-0.0419 0.08527,-0.0646 0.02597,-0.0227 0.05938,-0.0536 0.100769,-0.0925 0.01704,-0.0146 0.04173,-0.0222 0.07338,-0.0222 0.03408,0 0.06158,0.01 0.08268,0.0284 0.0211,0.0187 0.03152,0.045 0.03152,0.0791 0,0.03 -0.0116,0.0653 -0.03514,0.10593 -0.02353,0.0397 -0.05909,0.0779 -0.10697,0.11524 -0.04707,0.0365 -0.107088,0.0671 -0.179317,0.0915 -0.07142,0.0243 -0.153684,0.0367 -0.247013,0.0367 -0.21344,0 -0.379158,-0.0612 -0.497644,-0.18294 -0.118488,-0.12173 -0.177767,-0.28648 -0.177767,-0.49505 0,-0.0982 0.01471,-0.18926 0.04393,-0.27286 0.02922,-0.0844 0.07164,-0.15646 0.127641,-0.21652 0.056,-0.06 0.124738,-0.10633 0.206706,-0.13797 0.08197,-0.0325 0.17303,-0.0486 0.272851,-0.0486 z m 5.827549,0 c 0.146082,0 0.260577,0.0178 0.344168,0.0527 0.08359,0.0341 0.142649,0.0881 0.176734,0.16278 0.03489,0.0747 0.05219,0.17378 0.05219,0.29714 0,0.0779 -2.21e-4,0.14406 -8.84e-4,0.19844 0,0.0544 -2.21e-4,0.11483 -8.83e-4,0.18138 0,0.0625 0.0097,0.12768 0.02999,0.19586 0.02111,0.0674 0.03202,0.11074 0.03202,0.13022 0,0.0341 -0.01661,0.0657 -0.04909,0.0941 -0.03167,0.0276 -0.06742,0.0413 -0.108002,0.0413 -0.0341,0 -0.06801,-0.0159 -0.101285,-0.0475 -0.03326,-0.0325 -0.06861,-0.0792 -0.10594,-0.14005 -0.08034,0.0625 -0.1581,0.10943 -0.233576,0.14108 -0.07466,0.0308 -0.158851,0.0465 -0.25218,0.0465 -0.08522,0 -0.159867,-0.0169 -0.224791,-0.0501 -0.06412,-0.0341 -0.113935,-0.0798 -0.148829,-0.13747 -0.03489,-0.0576 -0.05219,-0.12022 -0.05219,-0.18758 0,-0.0909 0.02867,-0.16843 0.0863,-0.23254 0.05762,-0.0641 0.137079,-0.10677 0.237714,-0.12868 0.02111,-0.005 0.07299,-0.016 0.15658,-0.0331 0.08359,-0.017 0.155211,-0.0327 0.214456,-0.0465 0.06006,-0.0146 0.125025,-0.0319 0.194822,-0.0522 -0.004,-0.0876 -0.02208,-0.15165 -0.05375,-0.19223 -0.03083,-0.0414 -0.09507,-0.062 -0.193271,-0.062 -0.0844,0 -0.148188,0.0116 -0.1912,0.0351 -0.04218,0.0236 -0.07871,0.0589 -0.109553,0.10594 -0.03003,0.0471 -0.05161,0.0781 -0.0646,0.0935 -0.01219,0.0146 -0.03869,0.0222 -0.0801,0.0222 -0.03732,0 -0.07008,-0.0116 -0.09767,-0.0351 -0.02677,-0.0243 -0.04033,-0.0552 -0.04033,-0.0925 0,-0.0584 0.02063,-0.11536 0.06201,-0.17053 0.04139,-0.0552 0.106138,-0.10072 0.193788,-0.13643 0.08764,-0.0357 0.196968,-0.0537 0.327626,-0.0537 z m -4.790403,0.003 c 0.02922,0 0.05553,0.007 0.07906,0.0207 0.02353,0.0138 0.04253,0.0344 0.05633,0.062 0.01461,0.0276 0.0217,0.0615 0.0217,0.10129 v 0.0398 c 0.05843,-0.0771 0.12222,-0.13328 0.191202,-0.16899 0.06979,-0.0365 0.149696,-0.0548 0.239779,-0.0548 0.08765,0 0.166146,0.0192 0.235128,0.0574 0.06898,0.0382 0.120427,0.0919 0.154513,0.16175 0.02191,0.0406 0.03588,0.0842 0.04238,0.13125 0.0065,0.0471 0.0098,0.10732 0.0098,0.18036 v 0.61856 c 0,0.0665 -0.01567,0.11681 -0.04651,0.1509 -0.03003,0.0341 -0.06913,0.0512 -0.117822,0.0512 -0.0495,0 -0.08957,-0.0178 -0.120406,-0.0527 -0.03084,-0.0349 -0.04651,-0.0844 -0.04651,-0.14935 v -0.55397 c 0,-0.10956 -0.01516,-0.19301 -0.04599,-0.25063 -0.03003,-0.0584 -0.09049,-0.0879 -0.181384,-0.0879 -0.05924,0 -0.11357,0.018 -0.162264,0.0538 -0.04869,0.0349 -0.08425,0.083 -0.10697,0.14469 -0.01623,0.0495 -0.02429,0.14197 -0.02429,0.2775 v 0.41651 c 0,0.0674 -0.01589,0.11785 -0.04754,0.15193 -0.03084,0.0333 -0.0709,0.0501 -0.120406,0.0501 -0.04788,0 -0.0875,-0.0178 -0.118339,-0.0527 -0.03084,-0.0349 -0.04599,-0.0844 -0.04599,-0.14935 v -0.96066 c 0,-0.0633 0.01375,-0.11024 0.04134,-0.14108 0.02759,-0.0317 0.06529,-0.0475 0.113171,-0.0475 z m 5.845639,0 c 0.0292,0 0.05553,0.007 0.07906,0.0207 0.02354,0.0138 0.04254,0.0344 0.05633,0.062 0.01462,0.0276 0.02169,0.0615 0.02169,0.10129 v 0.0398 c 0.05843,-0.0771 0.122221,-0.13328 0.1912,-0.16899 0.0698,-0.0365 0.149699,-0.0548 0.239782,-0.0548 0.08764,0 0.166143,0.0192 0.235126,0.0574 0.06898,0.0382 0.120428,0.0919 0.154513,0.16175 0.02191,0.0406 0.03587,0.0842 0.04236,0.13125 0.0065,0.0471 0.0098,0.10732 0.0098,0.18036 v 0.61856 c 0,0.0665 -0.01515,0.11681 -0.04599,0.1509 -0.03003,0.0341 -0.06965,0.0512 -0.118338,0.0512 -0.0495,0 -0.08957,-0.0178 -0.12041,-0.0527 -0.03083,-0.0349 -0.04651,-0.0844 -0.04651,-0.14935 v -0.55397 c 0,-0.10956 -0.01515,-0.19301 -0.04599,-0.25063 -0.03004,-0.0584 -0.09049,-0.0879 -0.181385,-0.0879 -0.05924,0 -0.113568,0.018 -0.16226,0.0538 -0.0487,0.0349 -0.08425,0.083 -0.106974,0.14469 -0.01621,0.0495 -0.02429,0.14197 -0.02429,0.2775 v 0.41651 c 0,0.0674 -0.0159,0.11785 -0.04754,0.15193 -0.03083,0.0333 -0.0709,0.0501 -0.120405,0.0501 -0.04788,0 -0.0875,-0.0178 -0.118339,-0.0527 -0.03083,-0.0349 -0.04599,-0.0844 -0.04599,-0.14935 v -0.96066 c 0,-0.0633 0.01374,-0.11024 0.04134,-0.14108 0.02761,-0.0317 0.06529,-0.0475 0.113171,-0.0475 z m -6.893637,0.22893 c -0.08278,0 -0.151076,0.0287 -0.204639,0.0863 -0.05275,0.0568 -0.08476,0.14122 -0.09612,0.25321 h 0.602547 c -0.0081,-0.11362 -0.03894,-0.19825 -0.0925,-0.25425 -0.05275,-0.0568 -0.122452,-0.0853 -0.209289,-0.0853 z m 6.085418,0.45423 c -0.0487,0.0178 -0.119579,0.0366 -0.212909,0.0568 -0.09252,0.0195 -0.157044,0.0342 -0.19275,0.0439 -0.03569,0.009 -0.06934,0.0272 -0.101806,0.0548 -0.03247,0.0268 -0.04909,0.0645 -0.04909,0.11317 0,0.0503 0.01921,0.0935 0.05736,0.12919 0.03816,0.0349 0.08818,0.0522 0.149862,0.0522 0.06574,0 0.126201,-0.014 0.181386,-0.0424 0.056,-0.0292 0.09702,-0.0667 0.122989,-0.11214 0.03003,-0.0503 0.04496,-0.13332 0.04496,-0.24856 z m -3.602882,1.31569 c 0.05032,0 0.08897,0.0161 0.115755,0.0486 0.02759,0.0317 0.04134,0.0786 0.04134,0.14108 v 1.46606 c 0,0.0633 -0.01471,0.11046 -0.04393,0.14211 -0.02922,0.0317 -0.06691,0.0475 -0.113171,0.0475 -0.04545,0 -0.08314,-0.0161 -0.113172,-0.0486 -0.02922,-0.0333 -0.04393,-0.0802 -0.04393,-0.14108 v -0.0331 c -0.04464,0.0511 -0.08847,0.0931 -0.132292,0.12557 -0.04301,0.0317 -0.09046,0.0556 -0.141593,0.0718 -0.05032,0.017 -0.105309,0.0253 -0.165365,0.0253 -0.07953,0 -0.153521,-0.0163 -0.221691,-0.0496 -0.06736,-0.0341 -0.125678,-0.0827 -0.175184,-0.14521 -0.0495,-0.0625 -0.0872,-0.13574 -0.113171,-0.22015 -0.02516,-0.0844 -0.03772,-0.17568 -0.03772,-0.27388 0,-0.20776 0.05048,-0.36971 0.151928,-0.48576 0.101445,-0.11605 0.234936,-0.17415 0.400493,-0.17415 0.09576,0 0.176626,0.0169 0.242362,0.0501 0.06574,0.0325 0.129747,0.0827 0.192237,0.15089 v -0.49092 c 0,-0.0682 0.01352,-0.11962 0.04031,-0.15452 0.02759,-0.0349 0.06647,-0.0522 0.116789,-0.0522 z m 6.925676,0 c 0.05032,0 0.0906,0.0171 0.121439,0.0511 0.03083,0.0333 0.04651,0.0835 0.04651,0.1509 v 1.44126 c 0,0.0674 -0.0159,0.11836 -0.04754,0.15244 -0.03083,0.0333 -0.0709,0.0496 -0.120406,0.0496 -0.0487,0 -0.08853,-0.0173 -0.119372,-0.0522 -0.03004,-0.0349 -0.04496,-0.0849 -0.04496,-0.14986 v -1.44126 c 0,-0.0666 0.01471,-0.11681 0.0439,-0.1509 0.03003,-0.0341 0.07009,-0.0511 0.120405,-0.0511 z m -2.986383,0.0305 h 0.464056 c 0.137154,0 0.242405,0.0104 0.316261,0.0315 0.07304,0.0203 0.135865,0.0542 0.188616,0.10128 0.05356,0.0471 0.09436,0.10443 0.121956,0.17261 0.02761,0.0682 0.04134,0.14474 0.04134,0.22995 0,0.1818 -0.05595,0.31979 -0.167949,0.41393 -0.111996,0.0933 -0.278673,0.14004 -0.500226,0.14004 h -0.331248 v 0.5054 c 0,0.0722 -0.01709,0.127 -0.05116,0.16434 -0.0341,0.0373 -0.07725,0.0558 -0.129191,0.0558 -0.05438,0 -0.09798,-0.0182 -0.131263,-0.0548 -0.03326,-0.0373 -0.05012,-0.0914 -0.05012,-0.16278 v -1.37563 c 0,-0.0795 0.01824,-0.13645 0.05477,-0.17053 0.03653,-0.0341 0.09462,-0.0512 0.174151,-0.0512 z m 0.132808,0.2713 v 0.54571 h 0.2434 c 0.0852,0 0.156094,-0.009 0.212905,-0.0269 0.05762,-0.0178 0.101748,-0.0473 0.131774,-0.0878 0.03003,-0.0406 0.04496,-0.0934 0.04496,-0.15916 0,-0.0787 -0.02297,-0.14325 -0.06925,-0.19275 -0.05194,-0.0528 -0.158907,-0.0791 -0.32039,-0.0791 z m -8.179344,0.19018 c 0.14608,0 0.261091,0.0173 0.344682,0.0522 0.08359,0.0341 0.142131,0.0886 0.176216,0.16329 0.03489,0.0747 0.05271,0.17327 0.05271,0.29663 0,0.0779 -7.51e-4,0.14406 -0.0015,0.19844 0,0.0544 -2.22e-4,0.11483 -10e-4,0.18138 0,0.0625 0.0102,0.1282 0.03049,0.19637 0.0211,0.0674 0.03152,0.11075 0.03152,0.13022 0,0.0341 -0.01611,0.0651 -0.04858,0.0935 -0.03165,0.0276 -0.06794,0.0413 -0.10852,0.0413 -0.03409,0 -0.0675,-0.0159 -0.100769,-0.0475 -0.03327,-0.0325 -0.06861,-0.0792 -0.105937,-0.14004 -0.08034,0.0625 -0.158619,0.10994 -0.234095,0.1416 -0.07466,0.0308 -0.158336,0.046 -0.251663,0.046 -0.08521,0 -0.160385,-0.0163 -0.22531,-0.0496 -0.06411,-0.0341 -0.113414,-0.0804 -0.148311,-0.13798 -0.0349,-0.0576 -0.05271,-0.11971 -0.05271,-0.18707 0,-0.0909 0.0292,-0.16843 0.08682,-0.23254 0.05762,-0.0641 0.136562,-0.10728 0.237195,-0.12919 0.0211,-0.005 0.07351,-0.016 0.157097,-0.0331 0.08359,-0.017 0.154696,-0.0322 0.21394,-0.046 0.06006,-0.0146 0.125026,-0.0319 0.19482,-0.0522 -0.0041,-0.0876 -0.02158,-0.15218 -0.05323,-0.19275 -0.03084,-0.0414 -0.09559,-0.062 -0.193786,-0.062 -0.0844,0 -0.148191,0.0121 -0.191203,0.0357 -0.0422,0.0235 -0.07872,0.0589 -0.109554,0.10593 -0.03003,0.0471 -0.05161,0.0781 -0.0646,0.0935 -0.01217,0.0146 -0.03871,0.0217 -0.0801,0.0217 -0.03733,0 -0.06956,-0.0116 -0.09715,-0.0351 -0.02678,-0.0243 -0.04031,-0.0552 -0.04031,-0.0925 0,-0.0584 0.02062,-0.11534 0.06201,-0.17053 0.04139,-0.0552 0.105621,-0.10072 0.19327,-0.13643 0.08765,-0.0357 0.196968,-0.0532 0.327628,-0.0532 z m 5.18728,0 c 0.129849,0 0.240797,0.0275 0.333313,0.0827 0.09333,0.0544 0.163032,0.12503 0.209289,0.21187 0.04626,0.0868 0.06976,0.17502 0.06976,0.2651 0,0.0836 -0.02395,0.13814 -0.07183,0.1633 -0.04788,0.0243 -0.115219,0.0367 -0.202055,0.0367 h -0.65009 c 7.95e-4,0.0755 0.01574,0.14185 0.04496,0.19947 0.03003,0.0576 0.06913,0.10101 0.117822,0.13023 0.0495,0.0292 0.104055,0.0439 0.163297,0.0439 0.03977,0 0.07606,-0.004 0.108521,-0.0134 0.03327,-0.01 0.06528,-0.0245 0.09612,-0.0439 0.03084,-0.0203 0.0593,-0.0419 0.08527,-0.0646 0.02597,-0.0227 0.05938,-0.0536 0.100769,-0.0925 0.01704,-0.0146 0.04173,-0.0217 0.07338,-0.0217 0.03408,0 0.06158,0.009 0.08268,0.0279 0.0211,0.0187 0.03152,0.045 0.03152,0.0791 0,0.03 -0.0116,0.0654 -0.03514,0.10593 -0.02353,0.0398 -0.05961,0.0784 -0.107487,0.11576 -0.04707,0.0365 -0.106572,0.0671 -0.178801,0.0915 -0.07142,0.0243 -0.153685,0.0362 -0.247013,0.0362 -0.21344,0 -0.379673,-0.0607 -0.498161,-0.18241 -0.118486,-0.12174 -0.177767,-0.28701 -0.177767,-0.49558 0,-0.0982 0.01471,-0.18926 0.04393,-0.27285 0.02922,-0.0844 0.07216,-0.15647 0.128157,-0.21653 0.056,-0.06 0.124739,-0.10581 0.206706,-0.13745 0.08197,-0.0325 0.173031,-0.0486 0.272851,-0.0486 z m -7.024377,0.002 c 0.05519,0 0.09288,0.0159 0.113171,0.0476 0.0211,0.0317 0.0446,0.085 0.06976,0.15967 l 0.268717,0.75448 0.289906,-0.78755 c 0.02273,-0.0633 0.04527,-0.10787 0.06718,-0.13384 0.02191,-0.0268 0.0551,-0.0403 0.09974,-0.0403 0.0422,0 0.07775,0.0145 0.106971,0.0429 0.03003,0.0284 0.04496,0.0614 0.04496,0.0987 0,0.0146 -0.0026,0.0317 -0.0083,0.0512 -0.0049,0.0195 -0.0113,0.0377 -0.0186,0.0548 -0.0065,0.017 -0.01381,0.0365 -0.02274,0.0584 l -0.31936,0.79116 c -0.0089,0.0227 -0.02053,0.0514 -0.03514,0.0863 -0.0138,0.0349 -0.02969,0.0648 -0.04754,0.0899 -0.01704,0.0243 -0.03863,0.0436 -0.06459,0.0574 -0.02516,0.0138 -0.05598,0.0207 -0.0925,0.0207 -0.04707,0 -0.08477,-0.0104 -0.113171,-0.0315 -0.02759,-0.0219 -0.04821,-0.0456 -0.06201,-0.0708 -0.01299,-0.026 -0.03501,-0.0765 -0.06666,-0.15193 L 65.4251,108.7922 c -0.0073,-0.0195 -0.01514,-0.0389 -0.02326,-0.0584 -0.0073,-0.0195 -0.01344,-0.0391 -0.01912,-0.0594 -0.0049,-0.0203 -0.0072,-0.0381 -0.0072,-0.0527 0,-0.0227 0.0069,-0.0447 0.02067,-0.0667 0.0138,-0.0227 0.0325,-0.041 0.05684,-0.0548 0.02435,-0.0146 0.05066,-0.0222 0.07906,-0.0222 z m 2.892846,0 c 0.02922,0 0.05553,0.007 0.07906,0.0207 0.02354,0.0138 0.04201,0.0349 0.05581,0.0625 0.01461,0.0276 0.0217,0.061 0.0217,0.10077 v 0.0403 c 0.05843,-0.0771 0.122221,-0.13379 0.191203,-0.1695 0.06979,-0.0365 0.149696,-0.0548 0.239779,-0.0548 0.08765,0 0.166145,0.0192 0.235128,0.0574 0.06898,0.0381 0.120427,0.0919 0.154512,0.16174 0.02191,0.0406 0.0364,0.0847 0.04289,0.13178 0.0065,0.0471 0.0093,0.10731 0.0093,0.18035 v 0.61805 c 0,0.0665 -0.01516,0.11681 -0.04599,0.1509 -0.03003,0.0341 -0.06964,0.0512 -0.118339,0.0512 -0.0495,0 -0.08957,-0.0173 -0.120406,-0.0522 -0.03084,-0.0349 -0.04599,-0.0849 -0.04599,-0.14986 v -0.55397 c 0,-0.10956 -0.01567,-0.19301 -0.04651,-0.25063 -0.03003,-0.0584 -0.09049,-0.0879 -0.181384,-0.0879 -0.05924,0 -0.113054,0.018 -0.161747,0.0537 -0.04869,0.0349 -0.08425,0.083 -0.10697,0.1447 -0.01623,0.0495 -0.02481,0.14248 -0.02481,0.27802 v 0.41599 c 0,0.0674 -0.01537,0.11836 -0.04703,0.15245 -0.03084,0.0333 -0.07142,0.0496 -0.120923,0.0496 -0.04788,0 -0.08698,-0.0173 -0.117822,-0.0522 -0.03084,-0.0349 -0.04651,-0.0849 -0.04651,-0.14986 v -0.96015 c 0,-0.0633 0.01375,-0.11075 0.04134,-0.14159 0.02759,-0.0317 0.06581,-0.0475 0.113688,-0.0475 z m 5.183146,0 c 0.05519,0 0.09503,0.0178 0.119372,0.0527 0.02434,0.0349 0.0379,0.0863 0.04033,0.1545 0.03975,-0.0682 0.08005,-0.11961 0.121439,-0.1545 0.04223,-0.0349 0.09815,-0.0527 0.167949,-0.0527 0.06979,0 0.137871,0.0178 0.203608,0.0527 0.06572,0.0349 0.0987,0.0809 0.0987,0.13849 0,0.0406 -0.01449,0.0745 -0.04289,0.10128 -0.02761,0.026 -0.05745,0.0387 -0.08991,0.0387 -0.01219,0 -0.04183,-0.007 -0.08889,-0.0217 -0.04626,-0.0154 -0.08728,-0.0232 -0.122989,-0.0232 -0.04869,0 -0.08853,0.0128 -0.119372,0.0387 -0.03083,0.0252 -0.05479,0.0628 -0.07183,0.11317 -0.01705,0.0503 -0.02867,0.11055 -0.03516,0.18035 -0.0065,0.069 -0.0098,0.15339 -0.0098,0.25321 v 0.2775 c 0,0.0674 -0.0159,0.11836 -0.04754,0.15245 -0.03163,0.0333 -0.07171,0.0496 -0.120406,0.0496 -0.04788,0 -0.0875,-0.017 -0.118338,-0.0512 -0.03083,-0.0341 -0.04599,-0.0844 -0.04599,-0.1509 v -0.92501 c 0,-0.14932 0.05381,-0.22427 0.161748,-0.22427 z m 3.704169,0 c 0.100631,0 0.191916,0.0167 0.273885,0.0491 0.08196,0.0325 0.152406,0.0784 0.210838,0.13849 0.05843,0.0601 0.102782,0.13168 0.132808,0.21446 0.03083,0.0828 0.04599,0.17406 0.04599,0.27388 0,0.099 -0.01515,0.1903 -0.04599,0.27389 -0.03083,0.0836 -0.07541,0.15543 -0.133842,0.21549 -0.05843,0.0601 -0.128652,0.10603 -0.209804,0.13849 -0.08116,0.0317 -0.172441,0.0475 -0.273885,0.0475 -0.100635,0 -0.190957,-0.0161 -0.271301,-0.0486 -0.08035,-0.0325 -0.150048,-0.079 -0.209292,-0.13901 -0.05843,-0.0609 -0.103003,-0.13197 -0.133842,-0.21394 -0.03003,-0.0828 -0.04496,-0.17407 -0.04496,-0.27389 0,-0.10063 0.01515,-0.19288 0.04599,-0.27647 0.03083,-0.0836 0.07519,-0.15521 0.132808,-0.21445 0.05762,-0.0592 0.127323,-0.10426 0.209292,-0.13591 0.08197,-0.0325 0.172291,-0.0491 0.271301,-0.0491 z m -4.766636,0.22893 c -0.08278,0 -0.151076,0.0292 -0.204639,0.0868 -0.05275,0.0568 -0.08476,0.14122 -0.09612,0.25321 h 0.602548 c -0.0081,-0.11362 -0.03894,-0.19876 -0.0925,-0.25476 -0.05275,-0.0568 -0.122453,-0.0853 -0.20929,-0.0853 z m 4.766636,0.017 c -0.06492,0 -0.122062,0.0171 -0.171567,0.0512 -0.0495,0.0333 -0.08742,0.0831 -0.114204,0.14883 -0.02677,0.0657 -0.04033,0.14231 -0.04033,0.22996 0,0.0868 0.01329,0.16245 0.03927,0.22737 0.02677,0.0649 0.06448,0.11497 0.113171,0.14986 0.0495,0.0341 0.107084,0.0512 0.173633,0.0512 0.100631,0 0.18105,-0.0377 0.240295,-0.11317 0.06005,-0.0763 0.08991,-0.18132 0.08991,-0.31522 0,-0.13553 -0.02986,-0.2413 -0.08991,-0.31678 -0.05925,-0.0755 -0.139664,-0.11317 -0.240295,-0.11317 z m -6.332432,0.003 c -0.06087,0 -0.115415,0.0173 -0.163298,0.0522 -0.04788,0.0341 -0.08484,0.0839 -0.111621,0.14883 -0.02597,0.0641 -0.03927,0.13855 -0.03927,0.22376 0,0.0901 0.01375,0.16666 0.04134,0.22996 0.02841,0.0633 0.06706,0.1112 0.115756,0.14366 0.04869,0.0317 0.10206,0.0475 0.15968,0.0475 0.05843,0 0.111282,-0.0149 0.159163,-0.045 0.04869,-0.0308 0.08735,-0.0775 0.115756,-0.14004 0.02921,-0.0633 0.04393,-0.14202 0.04393,-0.23616 0,-0.0885 -0.01471,-0.16408 -0.04393,-0.22738 -0.02841,-0.0641 -0.06728,-0.11297 -0.116789,-0.14624 -0.04869,-0.0341 -0.102282,-0.0512 -0.160714,-0.0512 z m -3.363619,0.4346 c -0.04869,0.0178 -0.119579,0.0371 -0.212907,0.0574 -0.09252,0.0195 -0.156528,0.0337 -0.192236,0.0434 -0.03571,0.009 -0.06986,0.0272 -0.102319,0.0548 -0.03247,0.0268 -0.04858,0.065 -0.04858,0.11368 0,0.0503 0.01922,0.093 0.05736,0.12868 0.03814,0.0349 0.08767,0.0527 0.149344,0.0527 0.06574,0 0.126199,-0.0145 0.181385,-0.0429 0.056,-0.0292 0.09702,-0.0667 0.122989,-0.11214 0.03003,-0.0503 0.04496,-0.1328 0.04496,-0.24804 z"
       inkscape:export-filename="ThermaCurata logo - export.svg"
       inkscape:export-xdpi="96"
       inkscape:export-ydpi="96"
       sodipodi:nodetypes="ccccccccccccccccccscccccccccccccccccccsccccscccccsccccccsscccccscccccccccccccscccccccccccccsscccssccccccccccccscccssccccccsscccccccsccccccccccccsccccccccccsscscccccsccscccccsccccccscsccccccsssccccccsccsccccsccccssccsssccssccccccscccccccccccccccsscccsscccscccccccccsscccssccccccccccccccccccccccscccsscccsscccccsccccccsscccccccsscsscccccccsssccsccccccccccsccscccccsscscccccccccscccccccscccccscccccccccccccccccsssccscsssscssssscsssccssssssccssssscsccscsscscccssccccccccsssscscsscscccccsssssccccccccccccccccccccccccccccscsccscscsssscsccssscsscssssccsscsccccscsscccsssssscsscsscccsccssssscssssscsscsscscccsccscssscccssscscssccscccscscccscssscscccscccscsssssscsccsscssscsssscsccsscsssscssscsccsscssscsssscsccsscsssscssccccsccccscsccscscsssscscccscscsssccscsscsscscsscsssccsscscssscssssccscsscscsccscccscscccscssscscccscccscssssscsscscccsccscssscccssscscsscccccscscccccccsccccccsccssscsccsscssscsssscsccsscsssscsssccssscscscscsscsssssssscssscssccssscssccccsscssccscscssccsccsccsccsccccscsccsc" /></g></svg>
