<?xml version="1.0" encoding="UTF-8" standalone="no"?>
<!-- Created with Inkscape (http://www.inkscape.org/) -->

<svg
   width="40mm"
   height="40mm"
   viewBox="0 0 40 40"
   version="1.1"
   id="svg1"
   xml:space="preserve"
   inkscape:version="1.3.2 (091e20e, 2023-11-25, custom)"
   sodipodi:docname="RoomThermostat logo.svg"
   inkscape:export-filename="ThermaCurata logo - export.svg"
   inkscape:export-xdpi="96"
   inkscape:export-ydpi="96"
   xmlns:inkscape="http://www.inkscape.org/namespaces/inkscape"
   xmlns:sodipodi="http://sodipodi.sourceforge.net/DTD/sodipodi-0.dtd"
   xmlns:xlink="http://www.w3.org/1999/xlink"
   xmlns="http://www.w3.org/2000/svg"
   xmlns:svg="http://www.w3.org/2000/svg"><sodipodi:namedview
     id="namedview1"
     pagecolor="#ffffff"
     bordercolor="#000000"
     borderopacity="0.25"
     inkscape:showpageshadow="2"
     inkscape:pageopacity="0.0"
     inkscape:pagecheckerboard="0"
     inkscape:deskcolor="#d1d1d1"
     inkscape:document-units="mm"
     inkscape:zoom="1.9602699"
     inkscape:cx="39.790438"
     inkscape:cy="155.59082"
     inkscape:window-width="1440"
     inkscape:window-height="830"
     inkscape:window-x="-6"
     inkscape:window-y="-6"
     inkscape:window-maximized="1"
     inkscape:current-layer="g29" /><defs
     id="defs1" /><g
     inkscape:label="Layer 1"
     inkscape:groupmode="layer"
     id="layer1"
     transform="translate(-52.096717,-33.595077)"><g
       id="g29"
       transform="matrix(0.44169292,0,0,0.44169292,29.085966,18.756369)"><circle
         style="fill:none;stroke:#ababab;stroke-width:0.3;stroke-linejoin:round;stroke-miterlimit:10"
         id="circle2"
         cx="78.875427"
         cy="-97.377045"
         r="29.096085"
         transform="rotate(90)" /><circle
         style="fill:#000000;stroke:none;stroke-width:0.3;stroke-linejoin:round;stroke-miterlimit:10"
         id="path1"
         cx="78.875404"
         cy="-97.377045"
         r="45.280327"
         transform="rotate(90)" /><path
         id="circle3"
         style="fill:#ffffff;stroke:#000000;stroke-width:0.3;stroke-linejoin:round;stroke-miterlimit:10"
         d="m 37.286613,-97.377002 a 41.588879,41.588879 0 0 0 35.345129,41.094649 v -15.202689 a 26.727631,26.727631 0 0 1 -20.484021,-25.89196 26.727631,26.727631 0 0 1 20.484021,-25.891958 v -15.20269 a 41.588879,41.588879 0 0 0 -35.345129,41.094648 z"
         transform="rotate(90)" /><circle
         style="fill:#ffffff;stroke:#000000;stroke-width:0.3;stroke-linejoin:round;stroke-miterlimit:10"
         id="path2"
         cx="78.875404"
         cy="-97.377045"
         r="25.412321"
         transform="rotate(90)" /><text
         xml:space="preserve"
         style="font-style:normal;font-variant:normal;font-weight:bold;font-stretch:condensed;font-size:13.57780927px;line-height:130%;font-family:Bahnschrift;-inkscape-font-specification:'Bahnschrift Bold Condensed';font-variant-ligatures:normal;font-variant-caps:normal;font-variant-numeric:normal;font-variant-east-asian:normal;text-align:center;text-decoration-color:#000000;text-anchor:middle;fill:#000000;stroke:none;stroke-width:0.3;stroke-linejoin:round;stroke-miterlimit:10"
         id="text2"><textPath
           xlink:href="#circle2"
           startOffset="50%"
           id="textPath2">RoomThermostat<tspan
   id="tspan2"
   style="font-style:normal;font-variant:normal;font-weight:bold;font-stretch:condensed;font-family:Bahnschrift;-inkscape-font-specification:'Bahnschrift Bold Condensed';font-variant-ligatures:normal;font-variant-caps:normal;font-variant-numeric:normal;font-variant-east-asian:normal;text-align:center;text-anchor:middle;fill:#000000;stroke:none;stroke-width:0.3;font-size:13.57780927px" /></textPath></text><path
         id="path4"
         style="fill:#ffffff;stroke:#000000;stroke-width:0.3;stroke-linejoin:round;stroke-miterlimit:10"
         d="M 97.377002,120.25672 A 41.588879,41.588879 0 0 1 56.282353,84.911613 h 15.202689 a 26.727631,26.727631 0 0 0 25.89196,20.483997 26.727631,26.727631 0 0 0 25.891958,-20.483997 h 15.20269 A 41.588879,41.588879 0 0 1 97.377002,120.25672 Z" /><circle
         style="fill:#000000;stroke:#000000;stroke-width:0.3;stroke-linejoin:round;stroke-miterlimit:10"
         id="circle4"
         cx="78.875404"
         cy="-97.377045"
         r="23.571457"
         transform="rotate(90)" /><path
         id="path5"
         style="fill:#ffffff;stroke:#000000;stroke-width:3;stroke-linejoin:round;stroke-miterlimit:10;stroke-dasharray:none"
         d="m 58.54423,93.265625 c 6.071519,16.197315 21.534964,26.945335 38.832772,26.991115 17.297808,-0.0458 32.761248,-10.7938 38.832768,-26.991115 z"
         sodipodi:nodetypes="cccc" /><text
         xml:space="preserve"
         style="font-style:normal;font-variant:normal;font-weight:bold;font-stretch:normal;font-size:6.67075px;line-height:100%;font-family:Bahnschrift;-inkscape-font-specification:'Bahnschrift Bold';font-variant-ligatures:normal;font-variant-caps:normal;font-variant-numeric:normal;font-variant-east-asian:normal;text-align:center;text-decoration-color:#000000;text-anchor:middle;fill:#ffffff;stroke:none;stroke-width:2.99999;stroke-linejoin:round;stroke-miterlimit:10;stroke-dasharray:none"
         x="63.347923"
         y="81.198906"
         id="text10"><tspan
           sodipodi:role="line"
           style="font-style:normal;font-variant:normal;font-weight:bold;font-stretch:normal;font-size:6.67075px;line-height:100%;font-family:Bahnschrift;-inkscape-font-specification:'Bahnschrift Bold';fill:#ffffff;stroke-width:2.99999"
           x="63.347923"
           y="81.198906"
           id="tspan10">V</tspan></text><text
         xml:space="preserve"
         style="font-style:normal;font-variant:normal;font-weight:bold;font-stretch:normal;font-size:6.67075px;line-height:100%;font-family:Bahnschrift;-inkscape-font-specification:'Bahnschrift Bold';font-variant-ligatures:normal;font-variant-caps:normal;font-variant-numeric:normal;font-variant-east-asian:normal;text-align:center;text-decoration-color:#000000;text-anchor:middle;fill:#ffffff;stroke:none;stroke-width:2.99999;stroke-linejoin:round;stroke-miterlimit:10;stroke-dasharray:none"
         x="132.13956"
         y="81.198906"
         id="text12"><tspan
           sodipodi:role="line"
           style="font-style:normal;font-variant:normal;font-weight:bold;font-stretch:normal;font-size:6.67075px;line-height:100%;font-family:Bahnschrift;-inkscape-font-specification:'Bahnschrift Bold';fill:#ffffff;stroke-width:2.99999"
           x="132.13956"
           y="81.198906"
           id="tspan12">3.0</tspan></text><circle
         style="fill:#000000;stroke:#ffffff;stroke-width:2;stroke-linejoin:round;stroke-miterlimit:10;stroke-dasharray:none"
         id="circle12"
         cx="97.377052"
         cy="84.393219"
         r="2.8819718" /><path
         style="fill:#ffffff;stroke:#ffffff;stroke-width:0.534263;stroke-linejoin:round;stroke-miterlimit:10;stroke-dasharray:none"
         d="M 94.264529,63.614204 H 92.101291"
         id="path12" /><path
         style="fill:#ffffff;stroke:#ffffff;stroke-width:0.534263;stroke-linejoin:round;stroke-miterlimit:10;stroke-dasharray:none"
         d="M 94.264529,66.584761 H 92.101291"
         id="path13" /><path
         style="fill:#ffffff;stroke:#ffffff;stroke-width:0.534263;stroke-linejoin:round;stroke-miterlimit:10;stroke-dasharray:none"
         d="M 94.264529,75.496433 H 92.101291"
         id="path15" /><path
         style="fill:#ffffff;stroke:#ffffff;stroke-width:0.534263;stroke-linejoin:round;stroke-miterlimit:10;stroke-dasharray:none"
         d="M 94.264529,69.555319 H 92.101291"
         id="path27" /><path
         style="fill:#ffffff;stroke:#ffffff;stroke-width:0.534263;stroke-linejoin:round;stroke-miterlimit:10;stroke-dasharray:none"
         d="M 94.264529,72.525876 H 92.101291"
         id="path28" /><path
         id="path29"
         style="fill:#000000;stroke:none;stroke-width:3;stroke-linejoin:round;stroke-miterlimit:10;stroke-dasharray:none"
         sodipodi:type="inkscape:offset"
         inkscape:radius="-2.2725747"
         inkscape:original="M 59.316406 93.794922 L 59.326172 93.822266 C 62.155924 100.96559 66.981092 107.21349 73.208984 111.77344 C 77.119722 114.67363 81.817442 116.93265 86.498047 118.23438 C 92.013312 119.76084 97.791254 120.12705 103.40234 119.26758 C 109.00923 118.42298 114.41614 116.404 119.24219 113.34766 C 124.13383 110.26822 128.48713 105.97441 131.63867 101.13086 C 133.16769 98.793704 134.40647 96.38681 135.4375 93.794922 L 59.316406 93.794922 z "
         d="m 62.919922,96.068359 c 2.739869,5.441101 6.677323,10.244201 11.630859,13.871091 a 2.2728019,2.2728019 0 0 1 0.01172,0.008 c 3.66484,2.71783 8.140043,4.8726 12.544922,6.09765 5.210935,1.44168 10.66765,1.78586 15.951168,0.97656 a 2.2728019,2.2728019 0 0 1 0.006,-0.002 c 5.29219,-0.79719 10.4009,-2.70392 14.96094,-5.5918 a 2.2728019,2.2728019 0 0 1 0.006,-0.004 c 4.60006,-2.89588 8.73849,-6.97691 11.70312,-11.533205 a 2.2728019,2.2728019 0 0 1 0.002,-0.0039 c 0.79621,-1.217039 1.33489,-2.545125 1.97656,-3.81836 z" /><text
         xml:space="preserve"
         style="font-style:normal;font-variant:normal;font-weight:normal;font-stretch:normal;font-size:5.64444px;line-height:100%;font-family:'Arial Rounded MT Bold';-inkscape-font-specification:'Arial Rounded MT Bold, ';font-variant-ligatures:normal;font-variant-caps:normal;font-variant-numeric:normal;font-variant-east-asian:normal;text-align:center;text-decoration-color:#000000;text-anchor:middle;fill:#ffffff;stroke:none;stroke-width:2.99999;stroke-linejoin:round;stroke-miterlimit:10;stroke-dasharray:none"
         x="97.214584"
         y="104.6339"
         id="text5"><tspan
           sodipodi:role="line"
           id="tspan5"
           style="font-style:normal;font-variant:normal;font-weight:normal;font-stretch:normal;font-size:5.64444px;line-height:100%;font-family:'Arial Rounded MT Bold';-inkscape-font-specification:'Arial Rounded MT Bold, ';fill:#ffffff;stroke-width:2.99999"
           x="97.214584"
           y="104.6339">HenkJan </tspan><tspan
           sodipodi:role="line"
           style="font-style:normal;font-variant:normal;font-weight:normal;font-stretch:normal;font-size:5.64444px;line-height:100%;font-family:'Arial Rounded MT Bold';-inkscape-font-specification:'Arial Rounded MT Bold, ';fill:#ffffff;stroke-width:2.99999"
           x="97.214584"
           y="110.27834"
           id="tspan7">van der Pol</tspan></text><rect
         style="fill:#ffffff;stroke:none;stroke-width:1.6;stroke-linejoin:round;stroke-miterlimit:10;stroke-dasharray:none"
         id="rect29"
         width="2.7594967"
         height="12.229931"
         x="95.997307"
         y="69.494392" /><path
         sodipodi:type="star"
         style="fill:#ffffff;stroke:none;stroke-width:1.79706;stroke-linejoin:round;stroke-miterlimit:10"
         id="path3"
         inkscape:flatsided="true"
         sodipodi:sides="3"
         sodipodi:cx="65.215279"
         sodipodi:cy="58.545536"
         sodipodi:r1="9.6700821"
         sodipodi:r2="4.835041"
         sodipodi:arg1="3.1415927"
         sodipodi:arg2="4.1887902"
         inkscape:rounded="0"
         inkscape:randomized="0"
         d="M 55.545197,58.545536 70.05032,50.171 l -10e-7,16.749073 z"
         transform="matrix(-0.24137675,0,0,0.24137675,103.85169,55.362862)"
         inkscape:transform-center-x="-0.25774248" /><path
         sodipodi:type="star"
         style="fill:#ffffff;stroke:none;stroke-width:1.79706;stroke-linejoin:round;stroke-miterlimit:10"
         id="path6"
         inkscape:flatsided="true"
         sodipodi:sides="3"
         sodipodi:cx="65.215279"
         sodipodi:cy="58.545536"
         sodipodi:r1="9.6700821"
         sodipodi:r2="4.835041"
         sodipodi:arg1="3.1415927"
         sodipodi:arg2="4.1887902"
         inkscape:rounded="0"
         inkscape:randomized="0"
         d="M 55.545197,58.545536 70.05032,50.171 l -10e-7,16.749073 z"
         transform="matrix(0.24137675,0,0,0.24137675,89.141344,55.362862)"
         inkscape:transform-center-x="0.25774248" /><path
         id="circle6"
         style="fill:#000000;stroke:none;stroke-width:0.3;stroke-linejoin:round;stroke-miterlimit:10"
         d="m 129.43844,-97.37662 c 2.3e-4,25.007077 20.27287,45.279667 45.2799,45.279903 25.00758,4.1e-4 45.28084,-20.272369 45.28107,-45.279903 4.1e-4,-25.00803 -20.27304,-45.28148 -45.28107,-45.28107 -25.00749,2.4e-4 -45.28031,20.27349 -45.2799,45.28107 z m 3.69123,0 c 0.0112,-20.54926 15.02934,-38.01017 35.34575,-41.09495 v 15.2025 c -11.9799,2.87767 -20.44065,13.57186 -20.48488,25.89245 0.0448,12.320126 8.5054,23.013738 20.48488,25.891278 v 15.202498 c -20.31597,-3.08469 -35.33397,-20.544966 -35.34575,-41.093776 z m 3.77664,8.422562 0.33461,1.608699 9.43692,-1.966707 -0.33461,-1.609869 -4.73133,0.986278 c -0.20769,0.04329 -0.37454,0.03358 -0.50074,-0.03042 -0.13054,-0.06309 -0.2143,-0.181423 -0.25038,-0.354498 -0.0361,-0.173075 -0.007,-0.314713 0.0877,-0.424697 0.0901,-0.109082 0.24345,-0.186569 0.4598,-0.231652 l 4.71846,-0.982769 -0.33578,-1.609869 -5.14667,1.072856 c -0.55384,0.115427 -0.95099,0.320165 -1.19219,0.61423 -0.24643,0.290646 -0.32641,0.643436 -0.23984,1.058817 0.064,0.307203 0.23325,0.569436 0.50893,0.787385 0.21266,0.165325 0.49487,0.263056 0.81313,0.325249 z m 0.98394,3.822269 1.80525,4.476278 1.46246,-0.589661 -0.59435,-1.476493 7.47724,-3.013825 -0.6154,-1.524461 -7.47724,3.013824 -0.59434,-1.475323 z m 0.73708,-11.613051 c 0.0112,0.667298 0.21435,1.18578 0.60955,1.55488 0.39512,0.364686 0.95011,0.540843 1.66602,0.528823 l 2.74474,-0.04563 c 0.67172,-0.01128 1.19004,-0.2104 1.55488,-0.596681 0.36034,-0.390631 0.53447,-0.928403 0.52297,-1.613379 -0.0113,-0.671718 -0.19193,-1.190623 -0.54286,-1.556051 -0.35535,-0.365349 -0.84923,-0.542943 -1.48118,-0.532333 l -0.19187,0.0035 0.0129,1.58413 0.23867,-0.0035 c 0.15468,-0.0026 0.27483,0.04198 0.36035,0.133376 0.0855,0.09139 0.12931,0.223097 0.13221,0.395447 0.003,0.181189 -0.0451,0.323688 -0.14508,0.427037 -0.0999,0.103348 -0.2452,0.155924 -0.43522,0.159115 l -0.90088,0.01521 -0.0456,-2.678045 -1.94799,0.03276 c -0.69824,0.01172 -1.23495,0.208821 -1.6087,0.590831 -0.37375,0.382016 -0.55436,0.915529 -0.54286,1.60051 z m 0.28898,-4.47043 6.80684,1.01085 0.24218,-1.62625 -3.91586,-0.58147 h -0.001 c -0.39725,-0.0592 -0.69535,-0.21373 -0.89502,-0.46214 -0.19988,-0.24865 -0.27127,-0.56528 -0.21411,-0.95001 l 0.0351,-0.23516 0.0269,-0.17783 -1.71867,-0.25505 c -0.0552,0.37155 0.0124,0.72971 0.2024,1.07519 0.14754,0.26972 0.37131,0.50408 0.63646,0.71836 l -0.96288,-0.14274 z m 0.92544,-5.70123 6.42426,2.46745 0.59668,-1.55254 -4.54881,-1.74675 0.007,0.001 c -0.20217,-0.0777 -0.33845,-0.1791 -0.40832,-0.30536 -0.0699,-0.12627 -0.0739,-0.27253 -0.0105,-0.43757 0.0666,-0.17329 0.17066,-0.28214 0.31121,-0.32759 0.13802,-0.0512 0.30793,-0.0379 0.51011,0.0398 l 4.53711,1.74208 0.59434,-1.54669 -4.54296,-1.74559 c -0.20218,-0.0777 -0.33845,-0.1791 -0.40832,-0.30536 -0.0683,-0.13039 -0.0692,-0.28182 -0.002,-0.45512 0.065,-0.16916 0.16639,-0.27457 0.30536,-0.31589 0.13643,-0.047 0.30559,-0.032 0.50776,0.0456 l 4.53712,1.74208 0.59668,-1.55371 -4.90799,-1.88481 c -0.51575,-0.19809 -0.95881,-0.23982 -1.32908,-0.12636 -0.37027,0.11346 -0.6325,0.36962 -0.78622,0.76984 -0.11726,0.30532 -0.12476,0.62225 -0.0234,0.95001 0.0848,0.28434 0.27587,0.5537 0.53935,0.81312 -0.28256,-0.0505 -0.53797,-0.0414 -0.76048,0.0398 -0.34551,0.12297 -0.59657,0.38827 -0.75345,0.79674 -0.11886,0.30945 -0.12539,0.62887 -0.0199,0.9582 0.0785,0.24502 0.24321,0.47594 0.45043,0.69964 l -0.81897,-0.31472 z m 0.25037,10.14709 c -0.003,-0.176769 0.0517,-0.315014 0.16496,-0.414167 0.1132,-0.103566 0.27172,-0.156872 0.47501,-0.160284 l 0.82248,-0.01404 0.0175,1.088065 -0.77568,0.01287 c -0.22096,0.0037 -0.39157,-0.04023 -0.51245,-0.131036 -0.12529,-0.09073 -0.18913,-0.217896 -0.19187,-0.381408 z m 3.19283,16.923513 c -0.0202,0.274029 0.0604,0.544387 0.24218,0.809615 0.18491,0.269779 0.44125,0.455622 0.76867,0.558072 0.28242,0.09155 0.61238,0.08749 0.97575,0.01755 -0.20161,0.203898 -0.33963,0.419052 -0.39896,0.64816 -0.0948,0.35429 -0.0181,0.711928 0.22931,1.072856 0.18741,0.27343 0.44579,0.459291 0.77686,0.559242 0.24589,0.07424 0.52947,0.07039 0.83067,0.02691 l -0.72304,0.494895 0.94182,1.372366 5.67549,-3.891297 -0.94065,-1.372366 -4.01414,2.751753 c -0.17864,0.122438 -0.33958,0.176716 -0.4832,0.162625 -0.14356,-0.01409 -0.26507,-0.09401 -0.36502,-0.239843 -0.10495,-0.153121 -0.13592,-0.300718 -0.0936,-0.442246 0.0362,-0.142674 0.1431,-0.275349 0.32174,-0.397787 l 4.00829,-2.747073 -0.93714,-1.367687 -4.01414,2.751753 -0.001,0.0012 c -0.17805,0.121726 -0.3388,0.174338 -0.48203,0.160285 -0.14611,-0.01774 -0.27178,-0.103101 -0.37672,-0.256222 -0.10245,-0.149475 -0.13138,-0.292664 -0.0866,-0.430546 0.0387,-0.139029 0.14778,-0.2695 0.32642,-0.391938 l 4.00829,-2.747073 -0.94065,-1.373536 -4.33588,2.972876 c -0.45572,0.312337 -0.74213,0.653269 -0.85875,1.022547 -0.0292,0.09232 -0.0471,0.183604 -0.0538,0.274941 z m 1.20506,-36.795333 c -0.0115,0.12374 -0.0109,0.24585 0.005,0.3662 0.0573,0.47889 0.32843,0.88416 0.81312,1.21676 l 2.78803,1.91289 c 0.48829,0.3351 0.97236,0.44706 1.45075,0.33578 0.47474,-0.11378 0.89595,-0.43769 1.26356,-0.97341 0.37011,-0.53936 0.52327,-1.04788 0.45979,-1.52563 -0.0646,-0.48389 -0.33895,-0.89235 -0.82365,-1.22495 l -2.8044,-1.92459 c -0.4847,-0.3326 -0.96112,-0.43935 -1.42852,-0.32057 -0.4686,0.11264 -0.88765,0.43872 -1.25771,0.97809 -0.27571,0.40179 -0.43102,0.7882 -0.46565,1.15943 z m 1.60519,-0.16145 c 0.0124,-0.0572 0.0384,-0.11433 0.0772,-0.17082 0.0775,-0.11297 0.17358,-0.17525 0.28898,-0.18719 0.1154,-0.0119 0.23747,0.026 0.36503,0.11348 l 2.58561,1.77367 c 0.13849,0.095 0.22234,0.19924 0.25272,0.31121 0.0304,0.11197 0.007,0.22397 -0.0702,0.33695 -0.0775,0.11297 -0.17576,0.17746 -0.29366,0.19304 -0.1179,0.0156 -0.24527,-0.0243 -0.38375,-0.11934 l -2.58562,-1.77483 c -0.12755,-0.0875 -0.20612,-0.18858 -0.23399,-0.30419 -0.0139,-0.0578 -0.0151,-0.11484 -0.002,-0.17198 z m 2.16794,-4.34291 c 0.009,0.52811 0.23334,1.00733 0.67273,1.43672 0.22759,0.22242 0.45165,0.3822 0.67156,0.47968 0.21983,0.0912 0.43558,0.13893 0.64816,0.14274 0.21258,0.004 0.41679,-0.023 0.61306,-0.0784 0.19627,-0.0554 0.38311,-0.11912 0.56041,-0.19304 0.20525,-0.0899 0.40026,-0.1717 0.58381,-0.2457 0.18039,-0.0771 0.34648,-0.11912 0.49958,-0.12401 0.15618,-0.008 0.29977,0.0524 0.42937,0.179 0.12644,0.12357 0.19001,0.2657 0.19188,0.42821 0.002,0.15625 -0.0621,0.30129 -0.19188,0.43406 -0.12974,0.13276 -0.27934,0.20046 -0.44809,0.2024 -0.16883,-0.004 -0.32036,-0.0731 -0.45629,-0.20591 l -0.0761,-0.0749 -1.05647,1.09976 0.0807,0.0796 c 0.45196,0.4355 0.95381,0.64829 1.50692,0.6388 0.55303,-0.0157 1.0543,-0.25299 1.50223,-0.71134 0.45101,-0.46151 0.67783,-0.96576 0.68092,-1.51276 0.006,-0.55016 -0.21415,-1.04326 -0.65986,-1.47883 -0.26237,-0.2564 -0.51246,-0.43272 -0.75112,-0.53 -0.23557,-0.10043 -0.46071,-0.14523 -0.67624,-0.13337 -0.21552,0.0118 -0.42168,0.0557 -0.61774,0.12986 -0.19605,0.0742 -0.38367,0.15494 -0.56392,0.24453 -0.17716,0.0864 -0.34874,0.16412 -0.51361,0.23165 -0.16179,0.0644 -0.31791,0.0946 -0.46799,0.0901 -0.15008,-0.005 -0.28924,-0.0711 -0.41885,-0.19773 -0.12011,-0.11738 -0.18715,-0.24404 -0.20123,-0.3814 -0.0141,-0.13737 0.0275,-0.25686 0.12636,-0.35801 0.10503,-0.10748 0.22469,-0.15759 0.35918,-0.14976 0.13448,0.008 0.2579,0.0662 0.36853,0.17433 l 0.0994,0.0971 1.05531,-1.10912 -0.0842,-0.0831 c -0.43615,-0.42005 -0.91603,-0.6257 -1.43788,-0.61657 -0.52186,0.009 -0.99362,0.23031 -1.41683,0.66337 -0.41704,0.42674 -0.62109,0.90393 -0.61189,1.43203 z m 1.21208,48.934871 c 0.0447,0.479866 0.30741,0.940902 0.78856,1.384066 0.47789,0.440175 0.95856,0.664509 1.44373,0.672729 0.48218,0.01147 0.92264,-0.198233 1.32089,-0.63061 l 2.29079,-2.487341 c 0.40124,-0.435629 0.58135,-0.898219 0.53935,-1.387576 -0.045,-0.486111 -0.30716,-0.949741 -0.78505,-1.389916 -0.48114,-0.44317 -0.96181,-0.667503 -1.44373,-0.672729 -0.48816,-0.005 -0.93199,0.208763 -1.33025,0.64114 l -2.30365,2.502551 c -0.39826,0.432372 -0.57162,0.888082 -0.52064,1.367686 z m 0.54988,-25.165901 c 0,-13.62855 11.06468,-24.69324 24.69324,-24.69324 5.24633,0 10.10975,1.6439 14.11092,4.43884 v 1.84503 c -3.90856,-3.00081 -8.79739,-4.78982 -14.11092,-4.78982 -12.82148,0 -23.19919,10.37771 -23.19919,23.19919 0,12.821473 10.37771,23.199194 23.19919,23.199194 5.31358,0 10.20239,-1.788772 14.11092,-4.789828 v 1.843861 c -4.00115,2.79528 -8.8644,4.440009 -14.11092,4.440009 -13.62856,0 -24.69324,-11.064689 -24.69324,-24.693236 z m 0.81898,-29.55794 1.21442,1.59232 -0.47501,0.36269 0.91258,1.1957 0.475,-0.36152 2.17496,2.85237 c 0.35647,0.46743 0.74426,0.73898 1.16294,0.81429 0.41874,0.0753 0.87566,-0.076 1.3712,-0.45394 l 0.57445,-0.43874 -0.98043,-1.28579 -0.37438,0.28547 c -0.10192,0.0777 -0.20673,0.10778 -0.31472,0.0901 -0.10716,-0.0239 -0.20722,-0.0958 -0.29834,-0.21527 l -2.01468,-2.64178 0.70198,-0.53467 -0.91257,-1.19687 -0.70198,0.53467 -1.21325,-1.59115 z m 0.26792,54.708632 c 0.005,-0.115924 0.059,-0.231356 0.16379,-0.345139 l 2.12466,-2.305997 c 0.11378,-0.123537 0.22764,-0.192969 0.3428,-0.207084 0.11515,-0.01411 0.2233,0.02534 0.32408,0.118167 0.10078,0.09283 0.15112,0.198141 0.14975,0.31706 -0.001,0.118913 -0.0594,0.240322 -0.17315,0.363858 l -2.12466,2.307167 c -0.1048,0.113783 -0.2162,0.176074 -0.33461,0.187194 -0.1184,0.01112 -0.22798,-0.03002 -0.32875,-0.122846 -0.10078,-0.09283 -0.14853,-0.196457 -0.14391,-0.31238 z m 3.12497,3.713462 c 0.005,0.117823 0.0249,0.234029 0.0585,0.349819 0.12846,0.464507 0.46861,0.873334 1.02021,1.224951 0.54787,0.349241 1.06179,0.484405 1.54084,0.407147 0.47667,-0.07353 0.8727,-0.358378 1.18868,-0.854073 l 1.81695,-2.851199 c 0.31836,-0.499422 0.41408,-0.985778 0.28664,-1.460114 -0.1298,-0.470615 -0.46887,-0.88039 -1.01669,-1.229631 -0.5516,-0.351617 -1.06435,-0.487951 -1.53968,-0.408317 -0.48142,0.08098 -0.88089,0.370083 -1.19687,0.865772 l -1.82748,2.867579 c -0.23698,0.371771 -0.34754,0.734595 -0.3311,1.088066 z m 1.30802,-28.864154 c 0,-2.153872 1.75848,-3.91236 3.91236,-3.91236 h 14.58943 c 1.34483,-2.12357 3.65164,-3.46302 6.18911,-3.46309 4.06384,8e-5 7.37535,3.31152 7.37544,7.37545 -9e-5,4.063875 -3.3116,7.374186 -7.37544,7.374276 h -0.001 c -2.53039,-0.0072 -4.83193,-1.343889 -6.17273,-3.461921 h -2.45458 v 1.363007 h -0.53467 v -1.363007 h -2.43587 v 1.363007 h -0.53584 v -1.363007 h -2.43469 v 1.363007 h -0.53584 v -1.363007 h -2.4347 v 1.363007 h -0.26792 -0.26792 v -1.363007 h -2.43586 v 1.363007 h -0.53468 v -1.389916 c -2.02746,-0.14105 -3.64443,-1.823324 -3.64443,-3.885446 z m 0.35918,28.910952 c -0.0159,-0.114924 0.0175,-0.238092 0.10061,-0.368538 l 1.68592,-2.644116 c 0.0903,-0.141627 0.19098,-0.22909 0.30185,-0.263242 0.11088,-0.03415 0.22375,-0.01515 0.33929,0.0585 0.11554,0.07365 0.18283,0.169337 0.2024,0.286641 0.0196,0.117305 -0.015,0.246801 -0.10529,0.388428 l -1.68592,2.644116 c -0.0832,0.130446 -0.18257,0.211576 -0.29717,0.243352 -0.1146,0.03178 -0.2296,0.01164 -0.34514,-0.06201 -0.11554,-0.07365 -0.18071,-0.168202 -0.19655,-0.283131 z m 0.5101,-59.095992 c -0.025,0.38271 0.0789,0.79151 0.31355,1.22612 l 1.3829,-0.74644 c -0.0861,-0.15945 -0.11549,-0.30157 -0.0877,-0.42703 0.0295,-0.13145 0.11191,-0.23421 0.24803,-0.3077 0.15946,-0.0861 0.30581,-0.10956 0.43757,-0.0702 0.13176,0.0394 0.24032,0.13888 0.32642,0.29834 l 0.38141,0.70549 -0.43172,0.23399 c -0.64559,0.34859 -1.04957,0.78707 -1.21091,1.31621 -0.15955,0.52315 -0.0641,1.10897 0.28664,1.75845 0.30449,0.56392 0.65613,0.92995 1.05297,1.09743 0.39683,0.16747 0.82061,0.1301 1.27175,-0.11349 0.24112,-0.1302 0.41736,-0.29178 0.52999,-0.4832 0.11053,-0.1953 0.15687,-0.41555 0.13922,-0.66219 -0.003,-0.0557 -0.0228,-0.11569 -0.0327,-0.17316 l 0.36034,0.66688 1.3712,-0.74059 -2.34695,-4.34641 c -0.31284,-0.57948 -0.71763,-0.93774 -1.21442,-1.07636 -0.49289,-0.14073 -1.03118,-0.0541 -1.61455,0.2609 -0.57943,0.31289 -0.94448,0.71653 -1.09508,1.20974 -0.0372,0.1218 -0.0595,0.24565 -0.0679,0.37322 z m 0.73006,30.18504 c 0,1.294882 1.01812,2.311846 2.31302,2.311846 h 15.48445 l 0.22581,0.422357 c 1.00409,1.868462 2.94722,3.033733 5.06828,3.040733 3.1988,-7e-5 5.77603,-2.576082 5.7761,-5.774936 -7e-5,-3.19889 -2.5773,-5.77605 -5.7761,-5.77611 -2.12771,5e-5 -4.07864,1.16769 -5.08583,3.04191 l -0.22581,0.421183 h -15.4669 c -1.2949,0 -2.31302,1.018116 -2.31302,2.313017 z m 1.55956,33.969872 c 5.3e-4,0.09741 0.007,0.192699 0.0222,0.286641 0.0599,0.375762 0.23178,0.710641 0.51478,1.003828 0.27726,0.295663 0.65838,0.539797 1.14306,0.732397 l 1.52212,0.604871 0.68326,0.271431 3.56253,-8.964256 -1.49755,-0.595511 -1.50574,3.78951 -0.51128,-0.203574 0.39662,-4.229415 -1.63795,-0.65167 -0.27728,4.557006 c -0.005,2.97e-4 -0.009,-3.25e-4 -0.014,0 -0.41031,0.02719 -0.76808,0.160949 -1.07285,0.401297 -0.30478,0.240348 -0.54559,0.58246 -0.72187,1.026057 l -0.41651,1.047117 c -0.12853,0.323461 -0.19112,0.632037 -0.18953,0.924271 z m 0.56275,-61.632472 c 0.0429,-0.209 0.18082,-0.37592 0.41417,-0.50192 l 0.35567,-0.19187 0.39427,0.72889 v 0.001 c 0.11292,0.20959 0.14426,0.40106 0.0924,0.57445 -0.0501,0.16769 -0.17487,0.30473 -0.37322,0.41182 -0.14001,0.0756 -0.27287,0.0896 -0.39895,0.0421 -0.1243,-0.0534 -0.23286,-0.16582 -0.32525,-0.33695 -0.1491,-0.27612 -0.20198,-0.51872 -0.15912,-0.72771 z m 1.16528,61.537705 c 0.004,-0.09111 0.0259,-0.188635 0.0667,-0.291321 l 0.39662,-0.997978 c 0.0735,-0.184835 0.18712,-0.308155 0.34046,-0.370878 0.1517,-0.05862 0.32873,-0.04839 0.52999,0.03159 l 0.80026,0.318229 -0.89035,2.242819 -0.80142,-0.31823 c -0.20126,-0.07998 -0.33493,-0.198931 -0.40013,-0.358008 -0.0326,-0.07954 -0.0462,-0.16511 -0.0421,-0.256222 z m 0.66805,-69.346045 0.66571,1.88949 -0.56275,0.19773 0.49957,1.41916 0.56276,-0.19772 1.19102,3.38236 c 0.1953,0.55445 0.48118,0.93199 0.85641,1.13253 0.37523,0.20053 0.85711,0.19732 1.44491,-0.009 l 0.68091,-0.23985 -0.53701,-1.5268 -0.44459,0.15678 c -0.12089,0.0426 -0.22916,0.0395 -0.32641,-0.0105 -0.0946,-0.0557 -0.16769,-0.15543 -0.21762,-0.29717 l -1.10327,-3.13199 0.83184,-0.29366 -0.49957,-1.41917 -0.83185,0.29366 -0.66571,-1.88949 z m 2.21591,45.904669 2.0217,-3.501699 2.02169,3.501699 z m 0,-19.106669 h 4.04339 l -2.02169,3.50053 z m 2.0217,10.052326 c -0.85872,-0.85872 -0.87721,-1.882731 0,-2.759943 h 11.27493 c 0.56032,-1.457763 1.97667,-2.502553 3.62338,-2.502553 2.13202,0 3.8831,1.751021 3.8831,3.88311 0,2.13208 -1.75108,3.881936 -3.8831,3.881936 -1.64698,0 -3.06326,-1.044421 -3.62338,-2.50255 z m 6.9098,-38.564316 c 0,-0.46904 0.11915,-0.82213 0.35801,-1.05882 0.23669,-0.23886 0.56618,-0.35801 0.98745,-0.35801 h 2.15273 c 0.41909,0 0.74859,0.11915 0.98745,0.35801 0.23886,0.23886 0.35801,0.59195 0.35801,1.05882 0,0.47121 -0.12049,0.82564 -0.36152,1.06233 -0.24321,0.23669 -0.57136,0.35449 -0.98394,0.35449 h -2.15273 c -0.4191,0 -0.74859,-0.11914 -0.98745,-0.358 -0.23886,-0.23887 -0.35801,-0.59196 -0.35801,-1.05882 z m 0.0105,4.94192 c 0,-0.41909 0.10676,-0.74306 0.32174,-0.97107 0.2128,-0.23017 0.51602,-0.34514 0.90906,-0.34514 h 0.14274 c 0.21931,0 0.41042,0.0554 0.57328,0.16614 0.16286,0.11074 0.28468,0.26855 0.36503,0.47266 0.0521,-0.228 0.17243,-0.40505 0.35917,-0.52882 0.18675,-0.12594 0.42371,-0.18836 0.71251,-0.18836 h 0.14391 c 0.41475,0 0.73604,0.12182 0.96405,0.36503 0.228,0.24319 0.34163,0.58524 0.34163,1.02605 0,0.28446 -0.0525,0.53799 -0.15678,0.76165 -0.10423,0.22366 -0.25517,0.40221 -0.45278,0.53467 -0.19759,0.13246 -0.43589,0.20592 -0.71601,0.22112 v -0.92193 c 0.14549,-0.0217 0.25894,-0.0758 0.33929,-0.16262 0.0803,-0.0869 0.1205,-0.19898 0.1205,-0.33578 0,-0.16937 -0.047,-0.29957 -0.14039,-0.39077 -0.0956,-0.0934 -0.22975,-0.13922 -0.4013,-0.13922 h -0.10998 c -0.18023,0 -0.31996,0.0375 -0.41767,0.11348 -0.0977,0.0738 -0.14625,0.18043 -0.14625,0.3194 v 0.40013 h -0.85992 v -0.40013 c 0,-0.11291 -0.0417,-0.2001 -0.12636,-0.2609 -0.0869,-0.063 -0.20734,-0.0948 -0.36152,-0.0948 h -0.0819 c -0.14549,0 -0.25761,0.0346 -0.33578,0.10413 -0.0804,0.0673 -0.12051,0.16287 -0.12051,0.28664 0,0.1216 0.0457,0.22669 0.13689,0.31355 0.0912,0.0847 0.22006,0.14159 0.38725,0.17199 v 0.91842 c -0.44079,-0.0391 -0.78285,-0.19154 -1.02605,-0.45863 -0.24321,-0.26709 -0.36386,-0.59257 -0.36386,-0.97692 z m 0.048,68.197139 v -0.918421 l 3.16007,-1.007338 -3.16007,-1.006168 v -0.918421 l 4.73601,1.57594 v 0.697298 z m 0.80142,-73.139059 c 0,0.18457 0.0636,0.31878 0.18954,0.4013 0.12594,0.0825 0.30048,0.12284 0.52414,0.12284 h 1.69645 c 0.22149,0 0.39719,-0.0403 0.52531,-0.12284 0.12594,-0.0825 0.18836,-0.21673 0.18836,-0.4013 0,-0.18675 -0.0624,-0.31978 -0.18836,-0.40013 -0.12812,-0.0825 -0.30382,-0.12401 -0.52531,-0.12401 h -1.69645 c -0.22366,0 -0.3982,0.0415 -0.52414,0.12401 -0.12595,0.0804 -0.18954,0.21338 -0.18954,0.40013 z m 3.04308,2.84652 v -0.89151 h 0.89151 v 0.89151 z m 2.20538,34.33841 c 0,1.051219 0.8289,1.88247 1.88013,1.88247 1.05114,0 1.88364,-0.831251 1.88364,-1.88247 0,-1.051219 -0.8325,-1.883641 -1.88364,-1.883641 -1.05123,0 -1.88013,0.832422 -1.88013,1.883641 z m 2.39959,41.093776 v -15.202498 c 2.40476,-0.619246 4.71149,-1.570624 6.85364,-2.82663 v 15.76759 c 0.0257,0.169485 0.0804,0.333321 0.16146,0.484364 -2.28229,0.795097 -4.62954,1.389739 -7.0151,1.777174 z m 0,-66.986226 v -15.2025 c 2.36426,0.38325 4.691,0.97003 6.95426,1.75378 -0.0628,0.16251 -0.0969,0.33473 -0.10062,0.50893 v 15.76759 c -2.14208,-1.25642 -4.44882,-2.20818 -6.85364,-2.8278 z m 9.8546,62.376572 v -72.969412 c 14.44366,6.35555 23.94483,20.56004 23.99009,36.48061 -0.0421,15.923775 -9.54405,30.132164 -23.99009,36.488802 z m 1.30217,-2.027546 c 5.44098,-2.739832 10.24419,-6.677124 13.87108,-11.630601 0.002,-0.0039 0.005,-0.0078 0.007,-0.0117 2.71772,-3.664804 4.8728,-8.140693 6.09784,-12.545512 1.44167,-5.210875 1.78622,-10.667813 0.97692,-15.951274 -7.8e-4,-0.002 -0.002,-0.004 -0.002,-0.006 -0.79719,-5.29207 -2.70338,-10.40028 -5.59125,-14.96032 -0.002,-0.002 -0.003,-0.004 -0.005,-0.006 -2.89588,-4.59994 -6.97604,-8.73861 -11.53233,-11.70313 -0.002,-7.8e-4 -0.003,-0.002 -0.005,-0.002 -1.21692,-0.79622 -2.54446,-1.33441 -3.81758,-1.97607 z m 4.45638,-22.297152 c 0,-0.123105 0.0413,-0.223008 0.12402,-0.298341 0.0808,-0.07717 0.20485,-0.115826 0.37205,-0.115826 h 1.15709 v -1.766644 h -1.15709 c -0.16537,0 -0.28937,-0.03648 -0.37205,-0.109977 -0.0827,-0.07533 -0.12402,-0.173563 -0.12402,-0.29483 0,-0.123105 0.0413,-0.221838 0.12402,-0.297171 0.0808,-0.07717 0.20485,-0.115826 0.37205,-0.115826 h 3.1823 c 0.1672,0 0.29287,0.03866 0.37556,0.115826 0.0827,0.07717 0.12401,0.175904 0.12401,0.297171 0,0.123104 -0.0413,0.221338 -0.12401,0.29483 -0.0845,0.0735 -0.2102,0.109977 -0.37556,0.109977 h -1.35833 v 1.766644 h 1.35833 c 0.1672,0 0.29287,0.03866 0.37556,0.115826 0.0827,0.07717 0.12401,0.177074 0.12401,0.298341 0,0.123104 -0.0413,0.221338 -0.12401,0.29483 -0.0845,0.0735 -0.2102,0.109977 -0.37556,0.109977 h -3.1823 c -0.16537,0 -0.28937,-0.03598 -0.37205,-0.107637 -0.0827,-0.0735 -0.12402,-0.172228 -0.12402,-0.29717 z m 0,-11.014031 c 0,-0.115755 0.0392,-0.206958 0.11817,-0.274941 0.079,-0.06798 0.19548,-0.101787 0.34982,-0.101787 h 1.82397 l -0.88683,-0.845883 c -0.11024,-0.104731 -0.18538,-0.184721 -0.2258,-0.239842 -0.0404,-0.05512 -0.0608,-0.122227 -0.0608,-0.201234 0,-0.09371 0.0306,-0.172692 0.0913,-0.235163 0.0588,-0.06247 0.13343,-0.0936 0.22346,-0.0936 0.11024,0 0.25617,0.102581 0.4399,0.306531 l 0.36737,0.398957 1.21208,-0.771005 c 0.09,-0.05696 0.15932,-0.09779 0.20709,-0.121677 0.0459,-0.02572 0.0899,-0.03861 0.1322,-0.03861 0.11943,0 0.21448,0.0333 0.2843,0.09945 0.068,0.06431 0.10179,0.149654 0.10179,0.256222 0,0.09187 -0.0253,0.162154 -0.0749,0.211764 -0.0496,0.04961 -0.1398,0.116714 -0.27026,0.201233 l -1.09157,0.664539 0.38608,0.408317 h 0.59786 c 0.14515,0 0.25794,0.03866 0.33695,0.115826 0.0772,0.07533 0.11582,0.161684 0.11582,0.260902 0,0.115755 -0.0386,0.207626 -0.11582,0.273772 -0.0772,0.06614 -0.19097,0.09828 -0.34163,0.09828 h -3.20804 c -0.1672,0 -0.29388,-0.03163 -0.38024,-0.09594 -0.0882,-0.0643 -0.13221,-0.156681 -0.13221,-0.276111 z m 0,-4.798013 c 0,-0.12678 0.0413,-0.22719 0.12402,-0.30069 0.0827,-0.0753 0.20668,-0.11231 0.37205,-0.11231 h 2.11646 c 0.18374,0 0.33937,0.008 0.46799,0.0246 0.12861,0.0147 0.25964,0.0502 0.39193,0.10529 0.22233,0.0919 0.3957,0.24265 0.52064,0.45395 0.1231,0.2113 0.18485,0.46901 0.18485,0.77218 0,0.27375 -0.0435,0.501856 -0.12986,0.685594 -0.0864,0.1819 -0.22593,0.328996 -0.41885,0.441076 -0.10289,0.0588 -0.22154,0.107158 -0.35567,0.143905 -0.13413,0.03675 -0.26131,0.05499 -0.38258,0.05499 -0.12861,0 -0.22685,-0.03598 -0.29483,-0.107636 -0.068,-0.07166 -0.10296,-0.162864 -0.10296,-0.274941 0,-0.108406 0.0323,-0.190571 0.0948,-0.245693 0.0625,-0.05512 0.15903,-0.09813 0.29132,-0.127526 0.14148,-0.03124 0.25477,-0.06236 0.33929,-0.0936 0.0845,-0.03124 0.15698,-0.08328 0.21762,-0.156775 0.0606,-0.07349 0.0913,-0.177598 0.0913,-0.313545 0,-0.36197 -0.26574,-0.54287 -0.79674,-0.54287 h -2.23463 c -0.16537,0 -0.28937,-0.036 -0.37205,-0.10763 -0.0827,-0.0735 -0.12402,-0.1734 -0.12402,-0.29834 z m 1.11264,10.652507 c 0,-0.293977 0.0622,-0.545164 0.18719,-0.754626 0.12311,-0.211295 0.28309,-0.370277 0.47969,-0.475004 0.1966,-0.104731 0.39741,-0.156776 0.60136,-0.156776 0.18925,0 0.31275,0.05422 0.36971,0.162625 0.0551,0.108406 0.0819,0.260856 0.0819,0.457456 v 1.471813 c 0.17088,-0.0018 0.32233,-0.03564 0.45278,-0.101787 0.13045,-0.06798 0.22868,-0.157678 0.29483,-0.267921 0.0661,-0.11208 0.0983,-0.234413 0.0983,-0.368538 0,-0.09003 -0.0102,-0.172197 -0.0304,-0.245693 -0.022,-0.07533 -0.0542,-0.147792 -0.0983,-0.217613 -0.0459,-0.06982 -0.0948,-0.134247 -0.14624,-0.193044 -0.0514,-0.0588 -0.12123,-0.134439 -0.20943,-0.228142 -0.0331,-0.03858 -0.0503,-0.09448 -0.0503,-0.166135 0,-0.07717 0.0221,-0.139422 0.0643,-0.187194 0.0423,-0.04777 0.10184,-0.07137 0.17901,-0.07137 0.068,0 0.14797,0.02627 0.23984,0.07956 0.09,0.05328 0.17638,0.133776 0.2609,0.242182 0.0827,0.106568 0.15196,0.24245 0.20708,0.405977 0.0551,0.16169 0.0831,0.347943 0.0831,0.559242 0,0.483231 -0.13856,0.85842 -0.41417,1.126674 -0.2756,0.268258 -0.64861,0.402468 -1.12082,0.402468 -0.22232,0 -0.42849,-0.0333 -0.61774,-0.09945 -0.19109,-0.06615 -0.35425,-0.162202 -0.49021,-0.288981 -0.13597,-0.126779 -0.24073,-0.28241 -0.31238,-0.467985 -0.0735,-0.185576 -0.10998,-0.391743 -0.10998,-0.617741 z m 0,-13.193667 c 0,-0.33073 0.0404,-0.58995 0.11933,-0.7792 0.0772,-0.18925 0.1995,-0.32296 0.36854,-0.40013 0.16904,-0.079 0.39345,-0.11816 0.67273,-0.11816 0.17639,0 0.32616,5e-4 0.44927,0.002 0.1231,0 0.25999,5e-4 0.41065,0.002 0.14148,0 0.28908,-0.0219 0.44342,-0.0679 0.1525,-0.0478 0.25073,-0.0725 0.29483,-0.0725 0.0772,0 0.14863,0.0376 0.21293,0.11115 0.0625,0.0717 0.0936,0.15265 0.0936,0.24452 0,0.0772 -0.036,0.15398 -0.10764,0.22931 -0.0735,0.0753 -0.17925,0.15533 -0.31706,0.23985 0.14148,0.1819 0.24775,0.35794 0.3194,0.52882 0.0698,0.16904 0.1053,0.35964 0.1053,0.57094 0,0.19293 -0.0382,0.36194 -0.11348,0.50893 -0.0772,0.14516 -0.18076,0.25795 -0.31122,0.33695 -0.13042,0.079 -0.27219,0.11817 -0.42469,0.11817 -0.20579,0 -0.38133,-0.0649 -0.52648,-0.19538 -0.14516,-0.13046 -0.24172,-0.31035 -0.29133,-0.53819 -0.011,-0.0478 -0.0363,-0.16525 -0.0749,-0.3545 -0.0386,-0.18925 -0.0741,-0.3514 -0.1053,-0.48553 -0.0331,-0.13597 -0.0722,-0.28306 -0.11817,-0.44108 -0.19843,0.009 -0.34335,0.05 -0.43522,0.12168 -0.0937,0.0698 -0.1404,0.21524 -0.1404,0.43757 0,0.19108 0.0263,0.3355 0.0796,0.43288 0.0533,0.0955 0.13327,0.17821 0.23984,0.24803 0.10657,0.068 0.17686,0.11685 0.21177,0.14625 0.0331,0.0276 0.0503,0.0876 0.0503,0.18134 0,0.0845 -0.0263,0.15866 -0.0795,0.22113 -0.0551,0.0606 -0.12491,0.0913 -0.20943,0.0913 -0.13229,0 -0.26117,-0.0467 -0.38608,-0.14039 -0.12495,-0.0937 -0.22803,-0.2403 -0.30888,-0.43874 -0.0808,-0.19843 -0.12167,-0.44594 -0.12167,-0.74175 z m 0.006,10.845552 c 0,-0.06615 0.0156,-0.12572 0.0468,-0.179004 0.0312,-0.05328 0.0779,-0.09629 0.14039,-0.127526 0.0625,-0.03307 0.13928,-0.04914 0.22932,-0.04914 h 0.0901 c -0.17455,-0.132291 -0.30173,-0.276709 -0.38258,-0.432886 -0.0827,-0.158015 -0.12401,-0.338913 -0.12401,-0.542863 0,-0.198437 0.0435,-0.376156 0.12986,-0.532333 0.0864,-0.156177 0.20819,-0.272649 0.3662,-0.349819 0.0919,-0.04961 0.19061,-0.08124 0.29717,-0.09594 0.10657,-0.0147 0.24296,-0.02223 0.40832,-0.02223 h 1.40045 c 0.15066,0 0.26446,0.03548 0.34163,0.105297 0.0772,0.06798 0.11582,0.156508 0.11582,0.266751 0,0.11208 -0.0403,0.202781 -0.11933,0.272602 -0.079,0.06982 -0.19113,0.105296 -0.33812,0.105296 h -1.2542 c -0.24805,0 -0.43698,0.03431 -0.56744,0.104127 -0.13229,0.06798 -0.19889,0.20487 -0.19889,0.410657 0,0.134129 0.0408,0.257125 0.12168,0.367368 0.079,0.110243 0.18794,0.190739 0.32759,0.242182 0.11208,0.03675 0.32142,0.05499 0.62827,0.05499 h 0.94299 c 0.1525,0 0.2668,0.03598 0.34397,0.107636 0.0753,0.06982 0.11348,0.160521 0.11348,0.272602 0,0.108405 -0.0403,0.198101 -0.11933,0.267921 -0.079,0.06982 -0.19113,0.104127 -0.33812,0.104127 h -2.17496 c -0.14332,0 -0.24958,-0.03113 -0.3194,-0.0936 -0.0717,-0.06247 -0.10764,-0.147817 -0.10764,-0.256222 z m 0,-13.234622 c 0,-0.0661 0.0156,-0.12572 0.0468,-0.179 0.0312,-0.0533 0.0779,-0.0963 0.14039,-0.12753 0.0625,-0.0331 0.13928,-0.0491 0.22932,-0.0491 h 0.0901 c -0.17455,-0.13229 -0.30173,-0.27671 -0.38258,-0.43288 -0.0827,-0.15802 -0.12401,-0.33892 -0.12401,-0.54287 0,-0.19843 0.0435,-0.37615 0.12986,-0.53233 0.0864,-0.15618 0.20819,-0.27265 0.3662,-0.34982 0.0919,-0.0496 0.19061,-0.0812 0.29717,-0.0959 0.10657,-0.0147 0.24296,-0.0222 0.40832,-0.0222 h 1.40045 c 0.15066,0 0.26446,0.0343 0.34163,0.10412 0.0772,0.068 0.11582,0.15768 0.11582,0.26792 0,0.11208 -0.0403,0.20278 -0.11933,0.27261 -0.079,0.0698 -0.19113,0.10529 -0.33812,0.10529 h -1.2542 c -0.24805,0 -0.43698,0.0343 -0.56744,0.10413 -0.13229,0.068 -0.19889,0.20487 -0.19889,0.41066 0,0.13412 0.0408,0.25712 0.12168,0.36736 0.079,0.11025 0.18794,0.19074 0.32759,0.24219 0.11208,0.0367 0.32142,0.055 0.62827,0.055 h 0.94299 c 0.1525,0 0.2668,0.036 0.34397,0.10764 0.0753,0.0698 0.11348,0.16052 0.11348,0.2726 0,0.10841 -0.0403,0.1981 -0.11933,0.26792 -0.079,0.0698 -0.19113,0.10413 -0.33812,0.10413 h -2.17496 c -0.14332,0 -0.24958,-0.0311 -0.3194,-0.0936 -0.0717,-0.0625 -0.10764,-0.14781 -0.10764,-0.25622 z m 0.51829,15.607307 c 0,0.187413 0.0649,0.342038 0.19539,0.463305 0.12861,0.11943 0.31972,0.19189 0.57328,0.217613 v -1.364177 c -0.25724,0.01837 -0.44884,0.08816 -0.57562,0.209424 -0.12862,0.11943 -0.19305,0.277235 -0.19305,0.473835 z m 1.0284,-13.777487 c 0.0404,0.11025 0.0828,0.27073 0.1287,0.48203 0.0441,0.20946 0.0774,0.35555 0.0994,0.43639 0.0202,0.0808 0.0616,0.15699 0.12402,0.23049 0.0606,0.0735 0.14598,0.11114 0.25622,0.11114 0.11392,0 0.21165,-0.0435 0.29249,-0.12986 0.079,-0.0864 0.11817,-0.19965 0.11817,-0.33929 0,-0.14883 -0.0316,-0.28572 -0.0959,-0.41066 -0.0662,-0.12678 -0.15099,-0.21965 -0.25388,-0.27845 -0.11392,-0.068 -0.30185,-0.10179 -0.56275,-0.10179 z m 2.97873,8.156985 c 0,-0.113918 0.0365,-0.201438 0.10997,-0.262072 0.0717,-0.06247 0.17792,-0.0936 0.3194,-0.0936 h 3.31919 c 0.14331,0 0.25008,0.0333 0.32174,0.09945 0.0717,0.06615 0.10763,0.151491 0.10763,0.256222 0,0.102893 -0.0365,0.188239 -0.10997,0.256222 -0.0753,0.06615 -0.1816,0.09945 -0.3194,0.09945 h -0.0749 c 0.11575,0.101056 0.2108,0.200292 0.2843,0.29951 0.0717,0.09738 0.12588,0.204815 0.16262,0.32057 0.0386,0.113918 0.0573,0.238422 0.0573,0.374388 0,0.180064 -0.037,0.347574 -0.11231,0.501914 -0.0772,0.152503 -0.18729,0.284537 -0.32876,0.396618 -0.14148,0.11208 -0.30732,0.197425 -0.49841,0.256222 -0.19109,0.05696 -0.39775,0.08541 -0.62008,0.08541 -0.47037,0 -0.83702,-0.114297 -1.09976,-0.343969 -0.26275,-0.229673 -0.39428,-0.531899 -0.39428,-0.906721 0,-0.216811 0.0382,-0.399885 0.11349,-0.548713 0.0735,-0.148828 0.18731,-0.293748 0.34162,-0.435226 h -1.11146 c -0.15434,0 -0.27081,-0.03062 -0.34982,-0.09126 -0.079,-0.06247 -0.11816,-0.150494 -0.11816,-0.264412 z m 0,-15.679845 c 0,-0.11392 0.0387,-0.20512 0.11582,-0.27494 0.0753,-0.0698 0.18913,-0.1053 0.34163,-0.1053 h 3.26303 c 0.1525,0 0.26797,0.036 0.34514,0.10764 0.0753,0.0698 0.11231,0.16052 0.11231,0.2726 0,0.11025 -0.0392,0.20044 -0.11816,0.27026 -0.079,0.068 -0.1923,0.10179 -0.33929,0.10179 h -3.26303 c -0.15066,0 -0.26446,-0.0333 -0.34163,-0.0994 -0.0772,-0.068 -0.11582,-0.15868 -0.11582,-0.2726 z m 0.069,6.76122 v -1.05063 c 0,-0.31052 0.0236,-0.54881 0.0714,-0.71602 0.0459,-0.16536 0.12275,-0.3076 0.22931,-0.42703 0.10657,-0.12127 0.23643,-0.21364 0.39077,-0.27611 0.15434,-0.0625 0.32771,-0.0936 0.52063,-0.0936 0.41158,0 0.72401,0.12668 0.93714,0.38024 0.2113,0.25356 0.31706,0.63092 0.31706,1.13252 v 0.74995 h 1.14423 c 0.16353,0 0.28753,0.0387 0.37205,0.11582 0.0845,0.0772 0.12635,0.1749 0.12635,0.29249 0,0.12311 -0.0413,0.22184 -0.12401,0.29718 -0.0845,0.0753 -0.20685,0.11348 -0.36854,0.11348 h -3.11444 c -0.18007,0 -0.30892,-0.0413 -0.38609,-0.12401 -0.0772,-0.0827 -0.11583,-0.21422 -0.11583,-0.39428 z m 0.61423,-0.30068 h 1.23548 v -0.55106 c 0,-0.19289 -0.0204,-0.3534 -0.0608,-0.48202 -0.0404,-0.13045 -0.10703,-0.23036 -0.1989,-0.29834 -0.0919,-0.068 -0.21152,-0.10179 -0.36035,-0.10179 -0.17822,0 -0.32431,0.052 -0.43639,0.15678 -0.11943,0.11759 -0.17901,0.35977 -0.17901,0.72537 z m 0.43055,18.51817 c 0,-0.330729 0.0392,-0.591115 0.11817,-0.780365 0.0772,-0.18925 0.20067,-0.321788 0.3697,-0.398958 0.16904,-0.079 0.39228,-0.119336 0.67156,-0.119336 0.17639,0 0.32616,0.0017 0.44927,0.0035 0.1231,0 0.25999,5.03e-4 0.41066,0.0023 0.14147,0 0.29024,-0.02309 0.44458,-0.06903 0.1525,-0.04777 0.25074,-0.07137 0.29483,-0.07137 0.0772,0 0.14746,0.03648 0.21177,0.109977 0.0625,0.07166 0.0936,0.153823 0.0936,0.245692 0,0.07717 -0.036,0.15281 -0.10763,0.228143 -0.0735,0.07533 -0.17926,0.155323 -0.31706,0.239842 0.14147,0.181901 0.24891,0.359117 0.32057,0.529994 0.0698,0.169036 0.10412,0.358476 0.10412,0.569771 0,0.192925 -0.037,0.363114 -0.11231,0.510104 -0.0772,0.145153 -0.18193,0.256772 -0.31238,0.33578 -0.13046,0.07901 -0.27103,0.119336 -0.42353,0.119336 -0.20579,0 -0.38133,-0.0661 -0.52648,-0.196554 -0.14516,-0.130454 -0.24289,-0.309178 -0.29249,-0.537013 -0.011,-0.04777 -0.0363,-0.166418 -0.0749,-0.355669 -0.0386,-0.189247 -0.0729,-0.350235 -0.10413,-0.484364 -0.0331,-0.135966 -0.0722,-0.283061 -0.11817,-0.441076 -0.19843,0.0092 -0.34452,0.04885 -0.43639,0.120506 -0.0937,0.06982 -0.1404,0.216413 -0.1404,0.438736 0,0.191088 0.0274,0.335505 0.0807,0.432886 0.0533,0.09554 0.13327,0.178212 0.23984,0.248032 0.10657,0.06798 0.17686,0.116848 0.21177,0.146246 0.0331,0.02756 0.0491,0.08764 0.0491,0.181344 0,0.08452 -0.0263,0.157482 -0.0795,0.219953 -0.0551,0.06063 -0.12491,0.09126 -0.20943,0.09126 -0.13229,0 -0.26114,-0.04669 -0.38608,-0.140395 -0.12495,-0.09371 -0.22803,-0.239129 -0.30887,-0.437567 -0.0808,-0.198434 -0.12051,-0.445938 -0.12051,-0.741756 z m 0,-11.744087 c 0,-0.293981 0.0623,-0.545168 0.18719,-0.754626 0.12311,-0.211299 0.28309,-0.369108 0.47969,-0.473835 0.1966,-0.104731 0.39624,-0.157945 0.60019,-0.157945 0.18925,0 0.31275,0.05422 0.36971,0.162624 0.0551,0.108406 0.0831,0.260856 0.0831,0.457456 v 1.471813 c 0.17084,-0.0018 0.32115,-0.03564 0.4516,-0.101787 0.13045,-0.06798 0.22869,-0.156508 0.29483,-0.266751 0.0661,-0.11208 0.0994,-0.235583 0.0994,-0.369708 0,-0.09003 -0.0102,-0.172197 -0.0304,-0.245693 -0.0221,-0.07533 -0.0554,-0.147792 -0.0994,-0.217613 -0.0459,-0.06982 -0.0948,-0.134247 -0.14624,-0.193044 -0.0514,-0.05879 -0.12123,-0.134436 -0.20943,-0.228142 -0.0331,-0.03858 -0.0491,-0.09448 -0.0491,-0.166135 0,-0.07717 0.0209,-0.139422 0.0632,-0.187194 0.0423,-0.04777 0.10184,-0.07137 0.17901,-0.07137 0.068,0 0.14797,0.02627 0.23984,0.07956 0.09,0.05328 0.17755,0.134946 0.26207,0.243352 0.0827,0.106568 0.15196,0.24128 0.20709,0.404807 0.0551,0.16169 0.0819,0.347947 0.0819,0.559242 0,0.483232 -0.13739,0.859587 -0.41299,1.127845 -0.27561,0.268254 -0.64979,0.402467 -1.122,0.402467 -0.22232,0 -0.42849,-0.0333 -0.61774,-0.09945 -0.19109,-0.06615 -0.35425,-0.163372 -0.49021,-0.290151 -0.13597,-0.126779 -0.23956,-0.28241 -0.31121,-0.467985 -0.0735,-0.185575 -0.10998,-0.391746 -0.10998,-0.61774 z m 0.005,15.903305 c 0,-0.124942 0.036,-0.210287 0.10764,-0.256222 0.0717,-0.04777 0.19248,-0.100986 0.36151,-0.157945 l 1.70815,-0.60838 -1.78302,-0.65635 c -0.14332,-0.05145 -0.24423,-0.102486 -0.30302,-0.152095 -0.0606,-0.04961 -0.0913,-0.124747 -0.0913,-0.225803 0,-0.09554 0.0328,-0.176036 0.0971,-0.242182 0.0643,-0.06798 0.13894,-0.101787 0.22346,-0.101787 0.0331,0 0.0717,0.0059 0.11583,0.01872 0.0441,0.01102 0.0854,0.02558 0.12401,0.04212 0.0386,0.0147 0.0826,0.03127 0.13221,0.05148 l 1.79121,0.723037 c 0.0514,0.02021 0.11638,0.04648 0.19538,0.07956 0.079,0.03124 0.14662,0.06721 0.20358,0.107637 0.0551,0.03858 0.0986,0.08745 0.12986,0.146245 0.0312,0.05696 0.0468,0.126741 0.0468,0.209424 0,0.106565 -0.0236,0.191913 -0.0714,0.256221 -0.0496,0.06247 -0.10332,0.10916 -0.16028,0.140396 -0.0588,0.0294 -0.17309,0.07927 -0.34397,0.150925 l -1.77249,0.717187 c -0.0441,0.01654 -0.0881,0.03428 -0.13221,0.05265 -0.0441,0.01654 -0.0886,0.03043 -0.13454,0.04329 -0.0459,0.01103 -0.0863,0.01638 -0.11934,0.01638 -0.0515,0 -0.10132,-0.01556 -0.15093,-0.0468 -0.0514,-0.03124 -0.0928,-0.07357 -0.12401,-0.128696 -0.0331,-0.05512 -0.0503,-0.114696 -0.0503,-0.179004 z m 0,-6.549452 c 0,-0.06615 0.0156,-0.125723 0.0468,-0.179004 0.0312,-0.05329 0.0791,-0.09512 0.14156,-0.126356 0.0625,-0.03307 0.13811,-0.04914 0.22815,-0.04914 h 0.0913 c -0.17455,-0.132291 -0.3029,-0.276709 -0.38374,-0.432886 -0.0827,-0.158015 -0.12402,-0.338914 -0.12402,-0.542863 0,-0.198437 0.0435,-0.376156 0.12987,-0.532333 0.0863,-0.156177 0.20818,-0.272649 0.36619,-0.349819 0.0919,-0.04961 0.19178,-0.08241 0.29834,-0.09711 0.10657,-0.0147 0.24296,-0.02106 0.40832,-0.02106 h 1.39928 c 0.15066,0 0.26446,0.03431 0.34163,0.104126 0.0772,0.06798 0.11582,0.157679 0.11582,0.267922 0,0.11208 -0.0392,0.202781 -0.11816,0.272601 -0.079,0.06982 -0.1923,0.104127 -0.33929,0.104127 h -1.2542 c -0.24805,0 -0.43698,0.03548 -0.56744,0.105297 -0.13229,0.06798 -0.19889,0.20487 -0.19889,0.410657 0,0.134128 0.0408,0.255955 0.12168,0.366198 0.079,0.110243 0.18795,0.190736 0.32759,0.242182 0.11208,0.03675 0.32259,0.05616 0.62944,0.05616 h 0.94182 c 0.1525,0 0.26797,0.03481 0.34514,0.106466 0.0753,0.06982 0.11231,0.161691 0.11231,0.273772 0,0.108402 -0.0392,0.196931 -0.11816,0.266751 -0.079,0.06982 -0.1923,0.105297 -0.33929,0.105297 h -2.17379 c -0.14332,0 -0.25075,-0.03113 -0.32057,-0.0936 -0.0717,-0.06247 -0.10764,-0.148987 -0.10764,-0.257392 z m 0,-11.734726 c 0,-0.12494 0.0403,-0.21514 0.11934,-0.27026 0.079,-0.0551 0.19547,-0.0858 0.34981,-0.0913 -0.15434,-0.09 -0.27081,-0.18124 -0.34981,-0.27494 -0.079,-0.0956 -0.11934,-0.22222 -0.11934,-0.38024 0,-0.15801 0.0403,-0.31214 0.11934,-0.46097 0.079,-0.14879 0.18309,-0.22346 0.31355,-0.22346 0.0919,0 0.16867,0.0328 0.22931,0.0971 0.0588,0.0625 0.0877,0.13008 0.0877,0.20357 0,0.0276 -0.0161,0.0947 -0.0491,0.20124 -0.0349,0.10473 -0.0526,0.1976 -0.0526,0.27845 0,0.11024 0.0289,0.20044 0.0877,0.27026 0.057,0.0698 0.1423,0.12404 0.25622,0.16262 0.11392,0.0386 0.2503,0.0649 0.40832,0.0796 0.15614,0.0147 0.34728,0.0222 0.57328,0.0222 h 0.62827 c 0.1525,0 0.26797,0.036 0.34514,0.10764 0.0753,0.0716 0.11231,0.16236 0.11231,0.2726 0,0.1084 -0.0386,0.1981 -0.11582,0.26792 -0.0772,0.0698 -0.19097,0.10413 -0.34163,0.10413 h -2.09424 c -0.33807,0 -0.50776,-0.12183 -0.50776,-0.3662 z m 0,-8.3863 c 0,-0.22783 0.0377,-0.4345 0.11115,-0.62008 0.0735,-0.18557 0.17758,-0.34505 0.31355,-0.47734 0.13596,-0.13229 0.29812,-0.2327 0.48553,-0.30068 0.18741,-0.0698 0.39408,-0.10413 0.62008,-0.10413 0.22416,0 0.43083,0.0343 0.62008,0.10413 0.18925,0.0698 0.35191,0.17073 0.48788,0.30302 0.13596,0.13229 0.24005,0.29127 0.31355,0.475 0.0717,0.18374 0.10763,0.39041 0.10763,0.62008 0,0.22784 -0.0365,0.43233 -0.10997,0.61423 -0.0735,0.18191 -0.17876,0.33971 -0.31472,0.47384 -0.13781,0.13229 -0.29879,0.2332 -0.48437,0.30302 -0.18741,0.068 -0.39408,0.10179 -0.62008,0.10179 -0.22783,0 -0.43668,-0.0343 -0.62593,-0.10413 -0.18925,-0.0698 -0.3514,-0.17023 -0.48553,-0.30068 -0.13413,-0.13045 -0.23605,-0.28826 -0.3077,-0.47384 -0.0735,-0.18557 -0.11115,-0.39007 -0.11115,-0.61423 z m 0.51829,10.791742 c 0,0.187413 0.0661,0.342038 0.19656,0.463305 0.12861,0.11943 0.31972,0.19189 0.57328,0.217613 v -1.364177 c -0.25723,0.01837 -0.45001,0.08816 -0.57679,0.209424 -0.12862,0.11943 -0.19305,0.277235 -0.19305,0.473835 z m 0.0386,-10.791742 c 0,0.14699 0.0387,0.27635 0.11583,0.38843 0.0753,0.11208 0.18812,0.19793 0.33695,0.25856 0.14883,0.0606 0.32219,0.0913 0.52063,0.0913 0.1966,0 0.36779,-0.0301 0.51478,-0.0889 0.147,-0.0606 0.26029,-0.14598 0.33929,-0.25622 0.0772,-0.11208 0.11583,-0.24244 0.11583,-0.39311 0,-0.22783 -0.0854,-0.4099 -0.25622,-0.54403 -0.17272,-0.13596 -0.41051,-0.20357 -0.71368,-0.20357 -0.30684,0 -0.54631,0.0676 -0.71719,0.20357 -0.17087,0.13413 -0.25622,0.3162 -0.25622,0.54403 z m 0.006,14.336729 c 0,0.137804 0.0392,0.261303 0.11817,0.369709 0.0772,0.108405 0.18996,0.192078 0.33695,0.252712 0.14515,0.0588 0.31367,0.08892 0.50659,0.08892 0.20395,0 0.37732,-0.03113 0.52063,-0.0936 0.14332,-0.06431 0.25176,-0.151829 0.32525,-0.262072 0.0717,-0.110243 0.10764,-0.231067 0.10764,-0.361518 0,-0.132292 -0.0338,-0.251944 -0.10179,-0.360349 -0.0698,-0.110243 -0.17558,-0.197763 -0.31706,-0.262072 -0.14331,-0.06614 -0.32153,-0.09945 -0.53467,-0.09945 -0.20027,0 -0.37147,0.0333 -0.51478,0.09945 -0.14516,0.06431 -0.25577,0.152332 -0.3311,0.264412 -0.0772,0.110243 -0.11583,0.231567 -0.11583,0.363858 z m 0.98394,7.615289 c 0.0404,0.110243 0.0839,0.270729 0.12987,0.482024 0.0441,0.209462 0.0762,0.354382 0.0983,0.435227 0.0202,0.08084 0.0616,0.158157 0.12402,0.231652 0.0606,0.0735 0.14715,0.109977 0.25739,0.109977 0.11392,0 0.21048,-0.04351 0.29132,-0.129866 0.079,-0.08636 0.11934,-0.198478 0.11934,-0.338119 0,-0.148828 -0.0328,-0.285715 -0.0971,-0.410657 -0.0661,-0.12678 -0.15099,-0.219658 -0.25388,-0.278451 -0.11392,-0.06798 -0.30067,-0.101787 -0.56158,-0.101787 z"
         transform="rotate(90)"
         inkscape:export-filename="ThermaCurata logo - export.svg"
         inkscape:export-xdpi="96"
         inkscape:export-ydpi="96"
         sodipodi:nodetypes="ccccccccccccccccccscccccccccccccccccccsccccscccccsccccccsscccccscccccccccccccscccccccccccccsscccssccccccccccccscccssccccccsscccccccsccccccccccccsccccccccccsscscccccsccscccccsccccccscsccccccsssccccccsccsccccsccccssccsssccssccccccscccccccccccccccsscccsscccscccccccccsscccssccccccccccccccccccccccscccsscccsscccccsccccccsscccccccsscsscccccccsssccsccccccccccsccscccccsscscccccccccscccccccscccccscccccccccccccccccsssccscsssscssssscsssccssssssccssssscsccscsscscccssccccccccsssscscsscscccccsssssccccccccccccccccccccccccccccscsccscscsssscsccssscsscssssccsscsccccscsscccsssssscsscsscccsccssssscssssscsscsscscccsccscssscccssscscssccscccscscccscssscscccscccscsssssscsccsscssscsssscsccsscsssscssscsccsscssscsssscsccsscsssscssccccsccccscsccscscsssscscccscscsssccscsscsscscsscsssccsscscssscssssccscsscscsccscccscscccscssscscccscccscssssscsscscccsccscssscccssscscsscccccscscccccccsccccccsccssscsccsscssscsssscsccsscsssscsssccssscscscscsscsssssssscssscssccssscssccccsscssccscscssccsccsccsccsccccscsccsc" /><path
         id="path16"
         style="fill:none;stroke:#ffffff;stroke-width:1.60066;stroke-linejoin:miter;stroke-miterlimit:10;stroke-dasharray:none"
         d="m 97.377,60.501733 c -1.7244,0 -3.11247,1.388075 -3.11247,3.112472 v 15.005802 a 6.5754457,6.5754457 0 0 0 -3.46284,5.773291 6.5754457,6.5754457 0 0 0 6.57531,6.57531 6.5754457,6.5754457 0 0 0 6.57531,-6.57531 6.5754457,6.5754457 0 0 0 -3.46284,-5.791894 V 63.614205 c 0,-1.724397 -1.38807,-3.112472 -3.11247,-3.112472 z" /><g
         style="fill:#000000;stroke:none"
         id="g7"
         transform="matrix(0.264583,0,0,0.264583,5.1913411,29.36175)"
         inkscape:export-filename="QR code.svg"
         inkscape:export-xdpi="96"
         inkscape:export-ydpi="96"><path
           d="m 127.6,132 h -3.2 c -0.221,0 -0.4,-0.179 -0.4,-0.4 v -7.2 c 0,-0.221 0.179,-0.4 0.4,-0.4 h 3.2 c 0.221,0 0.4,0.179 0.4,0.4 v 7.2 c 0,0.221 -0.179,0.4 -0.4,0.4 z m -8,0 H 96.4 c -0.2209,0 -0.4,-0.179 -0.4,-0.4 v -3.2 C 96,128.179 95.8209,128 95.6,128 H 84.4 c -0.2209,0 -0.4,-0.179 -0.4,-0.4 v -3.2 c 0,-0.221 0.1791,-0.4 0.4,-0.4 h 7.2 c 0.2209,0 0.4,-0.179 0.4,-0.4 v -7.2 c 0,-0.221 0.1791,-0.4 0.4,-0.4 h 3.2 c 0.2209,0 0.4,-0.179 0.4,-0.4 V 104.4 C 96,104.179 95.8209,104 95.6,104 H 92.4 C 92.1791,104 92,103.821 92,103.6 V 96.4 C 92,96.1791 92.1791,96 92.4,96 h 3.2 C 95.8209,96 96,95.8209 96,95.6 V 92.4 C 96,92.1791 96.1791,92 96.4,92 h 3.2 c 0.2209,0 0.4,-0.1791 0.4,-0.4 V 88.4 C 100,88.1791 99.8209,88 99.6,88 H 96.4 C 96.1791,88 96,87.8209 96,87.6 V 72.4 C 96,72.1791 95.8209,72 95.6,72 H 92.4 C 92.1791,72 92,71.8209 92,71.6 V 64.4 C 92,64.1791 91.8209,64 91.6,64 H 88.4 C 88.1791,64 88,63.8209 88,63.6 V 56.4 C 88,56.1791 88.1791,56 88.4,56 h 7.2 C 95.8209,56 96,55.8209 96,55.6 V 52.4 C 96,52.1791 96.1791,52 96.4,52 h 3.2 c 0.2209,0 0.4,0.1791 0.4,0.4 v 3.2 c 0,0.2209 0.179,0.4 0.4,0.4 h 3.2 c 0.221,0 0.4,0.1791 0.4,0.4 v 3.2 c 0,0.2209 -0.179,0.4 -0.4,0.4 h -3.2 c -0.221,0 -0.4,0.1791 -0.4,0.4 v 3.2 c 0,0.2209 0.179,0.4 0.4,0.4 h 7.2 c 0.221,0 0.4,0.1791 0.4,0.4 v 3.2 c 0,0.2209 -0.179,0.4 -0.4,0.4 h -3.2 c -0.221,0 -0.4,0.1791 -0.4,0.4 v 3.2 c 0,0.2209 -0.179,0.4 -0.4,0.4 h -3.2 c -0.221,0 -0.4,0.1791 -0.4,0.4 v 3.2 c 0,0.2209 0.179,0.4 0.4,0.4 h 3.2 c 0.221,0 0.4,-0.1791 0.4,-0.4 v -3.2 c 0,-0.2209 0.179,-0.4 0.4,-0.4 h 27.2 c 0.221,0 0.4,0.1791 0.4,0.4 v 3.2 c 0,0.2209 -0.179,0.4 -0.4,0.4 h -3.2 c -0.221,0 -0.4,0.1791 -0.4,0.4 v 7.2 c 0,0.2209 -0.179,0.4 -0.4,0.4 h -3.2 c -0.221,0 -0.4,-0.1791 -0.4,-0.4 v -7.2 c 0,-0.2209 -0.179,-0.4 -0.4,-0.4 h -3.2 c -0.221,0 -0.4,0.1791 -0.4,0.4 v 3.2 c 0,0.2209 -0.179,0.4 -0.4,0.4 h -3.2 c -0.221,0 -0.4,-0.1791 -0.4,-0.4 v -3.2 c 0,-0.2209 -0.179,-0.4 -0.4,-0.4 h -7.2 c -0.221,0 -0.4,0.1791 -0.4,0.4 v 3.2 c 0,0.2209 -0.179,0.4 -0.4,0.4 h -7.2 c -0.221,0 -0.4,0.1791 -0.4,0.4 v 3.2 c 0,0.2209 0.179,0.4 0.4,0.4 h 7.2 c 0.221,0 0.4,-0.1791 0.4,-0.4 v -3.2 c 0,-0.2209 0.179,-0.4 0.4,-0.4 h 3.2 c 0.221,0 0.4,0.1791 0.4,0.4 v 7.2 c 0,0.2209 0.179,0.4 0.4,0.4 h 3.2 c 0.221,0 0.4,0.1791 0.4,0.4 v 19.2 c 0,0.221 0.179,0.4 0.4,0.4 h 7.2 c 0.221,0 0.4,0.179 0.4,0.4 v 3.2 c 0,0.221 -0.179,0.4 -0.4,0.4 h -7.2 c -0.221,0 -0.4,0.179 -0.4,0.4 v 3.2 c 0,0.221 0.179,0.4 0.4,0.4 h 11.2 c 0.221,0 0.4,0.179 0.4,0.4 v 3.2 c 0,0.221 -0.179,0.4 -0.4,0.4 h -3.2 c -0.221,0 -0.4,0.179 -0.4,0.4 v 3.2 c 0,0.221 -0.179,0.4 -0.4,0.4 h -7.2 c -0.221,0 -0.4,0.179 -0.4,0.4 v 3.2 c 0,0.221 0.179,0.4 0.4,0.4 h 3.2 c 0.221,0 0.4,0.179 0.4,0.4 v 3.2 c 0,0.221 -0.179,0.4 -0.4,0.4 z m -36,0 h -3.2 c -0.2209,0 -0.4,-0.179 -0.4,-0.4 v -3.2 c 0,-0.221 0.1791,-0.4 0.4,-0.4 h 3.2 c 0.2209,0 0.4,0.179 0.4,0.4 v 3.2 c 0,0.221 -0.1791,0.4 -0.4,0.4 z m -8,0 H 60.4 c -0.2209,0 -0.4,-0.179 -0.4,-0.4 v -3.2 c 0,-0.221 0.1791,-0.4 0.4,-0.4 h 3.2 c 0.2209,0 0.4,-0.179 0.4,-0.4 v -7.2 c 0,-0.221 -0.1791,-0.4 -0.4,-0.4 h -3.2 c -0.2209,0 -0.4,-0.179 -0.4,-0.4 v -3.2 c 0,-0.221 0.1791,-0.4 0.4,-0.4 h 3.2 c 0.2209,0 0.4,-0.179 0.4,-0.4 v -3.2 c 0,-0.221 0.1791,-0.4 0.4,-0.4 h 3.2 c 0.2209,0 0.4,-0.179 0.4,-0.4 V 96.4 C 68,96.1791 68.1791,96 68.4,96 h 15.2 c 0.2209,0 0.4,0.1791 0.4,0.4 v 15.2 c 0,0.221 0.1791,0.4 0.4,0.4 h 7.2 c 0.2209,0 0.4,0.179 0.4,0.4 v 3.2 c 0,0.221 -0.1791,0.4 -0.4,0.4 H 76.4 c -0.2209,0 -0.4,-0.179 -0.4,-0.4 v -3.2 c 0,-0.221 0.1791,-0.4 0.4,-0.4 h 3.2 c 0.2209,0 0.4,-0.179 0.4,-0.4 v -11.2 c 0,-0.221 -0.1791,-0.4 -0.4,-0.4 h -7.2 c -0.2209,0 -0.4,0.179 -0.4,0.4 v 3.2 c 0,0.221 0.1791,0.4 0.4,0.4 h 3.2 c 0.2209,0 0.4,0.179 0.4,0.4 v 3.2 c 0,0.221 -0.1791,0.4 -0.4,0.4 h -3.2 c -0.2209,0 -0.4,0.179 -0.4,0.4 v 7.2 c 0,0.221 -0.1791,0.4 -0.4,0.4 h -3.2 c -0.2209,0 -0.4,0.179 -0.4,0.4 v 7.2 c 0,0.221 0.1791,0.4 0.4,0.4 h 3.2 c 0.2209,0 0.4,0.179 0.4,0.4 v 3.2 c 0,0.221 0.1791,0.4 0.4,0.4 h 3.2 c 0.2209,0 0.4,0.179 0.4,0.4 v 3.2 c 0,0.221 -0.1791,0.4 -0.4,0.4 z m -24,0 h -3.2 c -0.2209,0 -0.4,-0.179 -0.4,-0.4 v -7.2 c 0,-0.221 0.1791,-0.4 0.4,-0.4 h 3.2 c 0.2209,0 0.4,-0.179 0.4,-0.4 v -3.2 c 0,-0.221 0.1791,-0.4 0.4,-0.4 h 3.2 c 0.2209,0 0.4,0.179 0.4,0.4 v 3.2 c 0,0.221 0.1791,0.4 0.4,0.4 h 3.2 c 0.2209,0 0.4,0.179 0.4,0.4 v 3.2 c 0,0.221 -0.1791,0.4 -0.4,0.4 h -7.2 c -0.2209,0 -0.4,0.179 -0.4,0.4 v 3.2 c 0,0.221 -0.1791,0.4 -0.4,0.4 z m -8,0 H 16.4 c -0.2209,0 -0.4,-0.179 -0.4,-0.4 v -27.2 c 0,-0.221 0.1791,-0.4 0.4,-0.4 h 27.2 c 0.2209,0 0.4,0.179 0.4,0.4 v 27.2 c 0,0.221 -0.1791,0.4 -0.4,0.4 z m 68.4,-4.4 v -7.2 c 0,-0.221 -0.179,-0.4 -0.4,-0.4 h -7.2 c -0.221,0 -0.4,-0.179 -0.4,-0.4 v -3.2 c 0,-0.221 -0.179,-0.4 -0.4,-0.4 h -3.2 c -0.221,0 -0.4,0.179 -0.4,0.4 v 7.2 c 0,0.221 0.179,0.4 0.4,0.4 h 3.2 c 0.221,0 0.4,0.179 0.4,0.4 v 3.2 c 0,0.221 0.179,0.4 0.4,0.4 h 7.2 c 0.221,0 0.4,-0.179 0.4,-0.4 z m -72,0 V 108.4 C 40,108.179 39.8209,108 39.6,108 H 20.4 c -0.2209,0 -0.4,0.179 -0.4,0.4 v 19.2 c 0,0.221 0.1791,0.4 0.4,0.4 h 19.2 c 0.2209,0 0.4,-0.179 0.4,-0.4 z m 91.6,-3.6 h -3.2 c -0.221,0 -0.4,-0.179 -0.4,-0.4 v -3.2 c 0,-0.221 0.179,-0.4 0.4,-0.4 h 3.2 c 0.221,0 0.4,0.179 0.4,0.4 v 3.2 c 0,0.221 -0.179,0.4 -0.4,0.4 z m -48,0 h -3.2 c -0.2209,0 -0.4,-0.179 -0.4,-0.4 v -3.2 c 0,-0.221 0.1791,-0.4 0.4,-0.4 h 3.2 c 0.2209,0 0.4,0.179 0.4,0.4 v 3.2 c 0,0.221 -0.1791,0.4 -0.4,0.4 z m -8,0 h -3.2 c -0.2209,0 -0.4,-0.179 -0.4,-0.4 v -7.2 c 0,-0.221 0.1791,-0.4 0.4,-0.4 h 3.2 c 0.2209,0 0.4,0.179 0.4,0.4 v 7.2 c 0,0.221 -0.1791,0.4 -0.4,0.4 z m -40,0 H 24.4 c -0.2209,0 -0.4,-0.179 -0.4,-0.4 v -11.2 c 0,-0.221 0.1791,-0.4 0.4,-0.4 h 11.2 c 0.2209,0 0.4,0.179 0.4,0.4 v 11.2 c 0,0.221 -0.1791,0.4 -0.4,0.4 z m 16,-4 h -3.2 c -0.2209,0 -0.4,-0.179 -0.4,-0.4 v -3.2 c 0,-0.221 0.1791,-0.4 0.4,-0.4 h 3.2 c 0.2209,0 0.4,0.179 0.4,0.4 v 3.2 c 0,0.221 -0.1791,0.4 -0.4,0.4 z m 8,-4 h -3.2 c -0.2209,0 -0.4,-0.179 -0.4,-0.4 v -3.2 c 0,-0.221 0.1791,-0.4 0.4,-0.4 h 3.2 c 0.2209,0 0.4,0.179 0.4,0.4 v 3.2 c 0,0.221 -0.1791,0.4 -0.4,0.4 z m 72,-4 h -3.2 c -0.221,0 -0.4,-0.179 -0.4,-0.4 v -3.2 c 0,-0.221 0.179,-0.4 0.4,-0.4 h 3.2 c 0.221,0 0.4,0.179 0.4,0.4 v 3.2 c 0,0.221 -0.179,0.4 -0.4,0.4 z M 112,111.6 v -11.2 c 0,-0.221 -0.179,-0.4 -0.4,-0.4 h -11.2 c -0.221,0 -0.4,0.179 -0.4,0.4 v 11.2 c 0,0.221 0.179,0.4 0.4,0.4 h 11.2 c 0.221,0 0.4,-0.179 0.4,-0.4 z M 55.6,112 h -3.2 c -0.2209,0 -0.4,-0.179 -0.4,-0.4 v -3.2 c 0,-0.221 0.1791,-0.4 0.4,-0.4 h 3.2 c 0.2209,0 0.4,0.179 0.4,0.4 v 3.2 c 0,0.221 -0.1791,0.4 -0.4,0.4 z m 72,-4 h -3.2 c -0.221,0 -0.4,-0.179 -0.4,-0.4 v -3.2 c 0,-0.221 -0.179,-0.4 -0.4,-0.4 h -3.2 c -0.221,0 -0.4,-0.179 -0.4,-0.4 v -7.2 c 0,-0.2209 0.179,-0.4 0.4,-0.4 h 3.2 c 0.221,0 0.4,0.1791 0.4,0.4 v 3.2 c 0,0.2209 0.179,0.4 0.4,0.4 h 7.2 c 0.221,0 0.4,0.179 0.4,0.4 v 3.2 c 0,0.221 -0.179,0.4 -0.4,0.4 h -3.2 c -0.221,0 -0.4,0.179 -0.4,0.4 v 3.2 c 0,0.221 -0.179,0.4 -0.4,0.4 z m -20,0 h -3.2 c -0.221,0 -0.4,-0.179 -0.4,-0.4 v -3.2 c 0,-0.221 0.179,-0.4 0.4,-0.4 h 3.2 c 0.221,0 0.4,0.179 0.4,0.4 v 3.2 c 0,0.221 -0.179,0.4 -0.4,0.4 z m -48,0 h -3.2 c -0.2209,0 -0.4,-0.179 -0.4,-0.4 v -7.2 c 0,-0.221 0.1791,-0.4 0.4,-0.4 h 7.2 c 0.2209,0 0.4,0.179 0.4,0.4 v 3.2 c 0,0.221 -0.1791,0.4 -0.4,0.4 h -3.2 c -0.2209,0 -0.4,0.179 -0.4,0.4 v 3.2 c 0,0.221 -0.1791,0.4 -0.4,0.4 z m -8,0 H 48.4 C 48.1791,108 48,107.821 48,107.6 V 92.4 C 48,92.1791 47.8209,92 47.6,92 H 40.4 C 40.1791,92 40,92.1791 40,92.4 v 3.2 c 0,0.2209 0.1791,0.4 0.4,0.4 h 3.2 c 0.2209,0 0.4,0.1791 0.4,0.4 v 3.2 c 0,0.2209 -0.1791,0.4 -0.4,0.4 H 32.4 C 32.1791,100 32,99.8209 32,99.6 V 96.4 C 32,96.1791 31.8209,96 31.6,96 H 28.4 C 28.1791,96 28,96.1791 28,96.4 v 3.2 c 0,0.2209 -0.1791,0.4 -0.4,0.4 H 24.4 C 24.1791,100 24,99.8209 24,99.6 V 88.4 C 24,88.1791 24.1791,88 24.4,88 h 3.2 c 0.2209,0 0.4,0.1791 0.4,0.4 v 3.2 c 0,0.2209 0.1791,0.4 0.4,0.4 h 7.2 C 35.8209,92 36,91.8209 36,91.6 V 84.4 C 36,84.1791 36.1791,84 36.4,84 h 3.2 c 0.2209,0 0.4,0.1791 0.4,0.4 v 3.2 c 0,0.2209 0.1791,0.4 0.4,0.4 h 3.2 C 43.8209,88 44,87.8209 44,87.6 V 84.4 C 44,84.1791 43.8209,84 43.6,84 H 40.4 C 40.1791,84 40,83.8209 40,83.6 V 80.4 C 40,80.1791 40.1791,80 40.4,80 H 51.6 C 51.8209,80 52,79.8209 52,79.6 V 76.4 C 52,76.1791 51.8209,76 51.6,76 H 40.4 C 40.1791,76 40,76.1791 40,76.4 v 3.2 C 40,79.8209 39.8209,80 39.6,80 H 36.4 C 36.1791,80 36,79.8209 36,79.6 V 72.4 C 36,72.1791 35.8209,72 35.6,72 H 32.4 C 32.1791,72 32,72.1791 32,72.4 v 7.2 C 32,79.8209 31.8209,80 31.6,80 H 28.4 C 28.1791,80 28,79.8209 28,79.6 V 72.4 C 28,72.1791 27.8209,72 27.6,72 H 24.4 C 24.1791,72 24,72.1791 24,72.4 v 3.2 C 24,75.8209 23.8209,76 23.6,76 H 20.4 C 20.1791,76 20,75.8209 20,75.6 V 68.4 C 20,68.1791 20.1791,68 20.4,68 H 35.6 C 35.8209,68 36,67.8209 36,67.6 V 56.4 C 36,56.1791 36.1791,56 36.4,56 H 47.6 C 47.8209,56 48,55.8209 48,55.6 V 52.4 C 48,52.1791 48.1791,52 48.4,52 h 7.2 c 0.2209,0 0.4,0.1791 0.4,0.4 v 3.2 C 56,55.8209 55.8209,56 55.6,56 H 52.4 C 52.1791,56 52,56.1791 52,56.4 v 3.2 C 52,59.8209 51.8209,60 51.6,60 H 40.4 C 40.1791,60 40,60.1791 40,60.4 v 3.2 c 0,0.2209 0.1791,0.4 0.4,0.4 h 7.2 c 0.2209,0 0.4,0.1791 0.4,0.4 v 3.2 C 48,67.8209 47.8209,68 47.6,68 H 40.4 C 40.1791,68 40,68.1791 40,68.4 v 3.2 c 0,0.2209 0.1791,0.4 0.4,0.4 H 51.6 C 51.8209,72 52,71.8209 52,71.6 V 68.4 C 52,68.1791 52.1791,68 52.4,68 h 3.2 c 0.2209,0 0.4,0.1791 0.4,0.4 v 7.2 c 0,0.2209 0.1791,0.4 0.4,0.4 h 3.2 C 59.8209,76 60,75.8209 60,75.6 V 68.4 C 60,68.1791 59.8209,68 59.6,68 H 56.4 C 56.1791,68 56,67.8209 56,67.6 V 64.4 C 56,64.1791 55.8209,64 55.6,64 H 52.4 C 52.1791,64 52,63.8209 52,63.6 V 60.4 C 52,60.1791 52.1791,60 52.4,60 h 7.2 C 59.8209,60 60,59.8209 60,59.6 V 48.4 C 60,48.1791 59.8209,48 59.6,48 H 56.4 C 56.1791,48 56,47.8209 56,47.6 V 36.4 C 56,36.1791 55.8209,36 55.6,36 H 52.4 C 52.1791,36 52,36.1791 52,36.4 V 47.6 C 52,47.8209 51.8209,48 51.6,48 H 48.4 C 48.1791,48 48,47.8209 48,47.6 V 32.4 C 48,32.1791 48.1791,32 48.4,32 h 3.2 C 51.8209,32 52,31.8209 52,31.6 V 28.4 C 52,28.1791 52.1791,28 52.4,28 h 3.2 c 0.2209,0 0.4,0.1791 0.4,0.4 v 3.2 c 0,0.2209 0.1791,0.4 0.4,0.4 h 3.2 c 0.2209,0 0.4,0.1791 0.4,0.4 v 11.2 c 0,0.2209 0.1791,0.4 0.4,0.4 h 3.2 c 0.2209,0 0.4,0.1791 0.4,0.4 v 3.2 c 0,0.2209 0.1791,0.4 0.4,0.4 h 7.2 C 71.8209,48 72,47.8209 72,47.6 V 40.4 C 72,40.1791 72.1791,40 72.4,40 h 3.2 c 0.2209,0 0.4,0.1791 0.4,0.4 v 3.2 c 0,0.2209 0.1791,0.4 0.4,0.4 h 3.2 C 79.8209,44 80,43.8209 80,43.6 V 40.4 C 80,40.1791 80.1791,40 80.4,40 h 3.2 c 0.2209,0 0.4,0.1791 0.4,0.4 v 3.2 c 0,0.2209 0.1791,0.4 0.4,0.4 h 3.2 c 0.2209,0 0.4,0.1791 0.4,0.4 v 3.2 C 88,47.8209 87.8209,48 87.6,48 H 84.4 C 84.1791,48 84,48.1791 84,48.4 v 3.2 c 0,0.2209 0.1791,0.4 0.4,0.4 h 3.2 c 0.2209,0 0.4,0.1791 0.4,0.4 v 3.2 C 88,55.8209 87.8209,56 87.6,56 H 80.4 C 80.1791,56 80,55.8209 80,55.6 V 52.4 C 80,52.1791 79.8209,52 79.6,52 H 68.4 C 68.1791,52 68,52.1791 68,52.4 v 7.2 c 0,0.2209 0.1791,0.4 0.4,0.4 h 3.2 c 0.2209,0 0.4,0.1791 0.4,0.4 v 7.2 C 72,67.8209 71.8209,68 71.6,68 H 68.4 C 68.1791,68 68,67.8209 68,67.6 V 64.4 C 68,64.1791 67.8209,64 67.6,64 H 64.4 C 64.1791,64 64,64.1791 64,64.4 V 79.6 C 64,79.8209 63.8209,80 63.6,80 H 56.4 C 56.1791,80 56,80.1791 56,80.4 v 7.2 C 56,87.8209 55.8209,88 55.6,88 H 52.4 C 52.1791,88 52,88.1791 52,88.4 v 7.2 c 0,0.2209 0.1791,0.4 0.4,0.4 h 3.2 c 0.2209,0 0.4,0.1791 0.4,0.4 v 3.2 c 0,0.2209 -0.1791,0.4 -0.4,0.4 h -3.2 c -0.2209,0 -0.4,0.179 -0.4,0.4 v 7.2 c 0,0.221 -0.1791,0.4 -0.4,0.4 z m -32,-8 H 16.4 C 16.1791,100 16,99.8209 16,99.6 V 96.4 C 16,96.1791 16.1791,96 16.4,96 h 3.2 c 0.2209,0 0.4,0.1791 0.4,0.4 v 3.2 c 0,0.2209 -0.1791,0.4 -0.4,0.4 z m 112,-4 h -7.2 c -0.221,0 -0.4,-0.1791 -0.4,-0.4 v -7.2 c 0,-0.2209 0.179,-0.4 0.4,-0.4 h 3.2 c 0.221,0 0.4,-0.1791 0.4,-0.4 v -3.2 c 0,-0.2209 0.179,-0.4 0.4,-0.4 h 3.2 c 0.221,0 0.4,0.1791 0.4,0.4 v 11.2 c 0,0.2209 -0.179,0.4 -0.4,0.4 z M 108,95.6 v -7.2 c 0,-0.2209 -0.179,-0.4 -0.4,-0.4 h -3.2 c -0.221,0 -0.4,0.1791 -0.4,0.4 v 7.2 c 0,0.2209 0.179,0.4 0.4,0.4 h 3.2 c 0.221,0 0.4,-0.1791 0.4,-0.4 z M 87.6,96 H 84.4 C 84.1791,96 84,95.8209 84,95.6 V 88.4 C 84,88.1791 83.8209,88 83.6,88 H 80.4 C 80.1791,88 80,87.8209 80,87.6 V 84.4 C 80,84.1791 80.1791,84 80.4,84 h 3.2 C 83.8209,84 84,83.8209 84,83.6 V 80.4 C 84,80.1791 83.8209,80 83.6,80 H 80.4 C 80.1791,80 80,80.1791 80,80.4 v 3.2 C 80,83.8209 79.8209,84 79.6,84 H 76.4 C 76.1791,84 76,83.8209 76,83.6 V 80.4 C 76,80.1791 75.8209,80 75.6,80 H 68.4 C 68.1791,80 68,79.8209 68,79.6 V 72.4 C 68,72.1791 68.1791,72 68.4,72 h 3.2 c 0.2209,0 0.4,0.1791 0.4,0.4 v 3.2 c 0,0.2209 0.1791,0.4 0.4,0.4 h 15.2 c 0.2209,0 0.4,0.1791 0.4,0.4 v 19.2 c 0,0.2209 -0.1791,0.4 -0.4,0.4 z m -20,0 H 64.4 C 64.1791,96 64,95.8209 64,95.6 V 92.4 C 64,92.1791 63.8209,92 63.6,92 H 60.4 C 60.1791,92 60,91.8209 60,91.6 V 88.4 C 60,88.1791 60.1791,88 60.4,88 h 3.2 C 63.8209,88 64,87.8209 64,87.6 V 80.4 C 64,80.1791 64.1791,80 64.4,80 h 3.2 c 0.2209,0 0.4,0.1791 0.4,0.4 v 3.2 c 0,0.2209 0.1791,0.4 0.4,0.4 h 3.2 c 0.2209,0 0.4,0.1791 0.4,0.4 v 3.2 C 72,87.8209 71.8209,88 71.6,88 H 68.4 C 68.1791,88 68,88.1791 68,88.4 v 7.2 c 0,0.2209 -0.1791,0.4 -0.4,0.4 z m -48,-4 H 16.4 C 16.1791,92 16,91.8209 16,91.6 V 88.4 C 16,88.1791 16.1791,88 16.4,88 h 3.2 c 0.2209,0 0.4,0.1791 0.4,0.4 v 3.2 c 0,0.2209 -0.1791,0.4 -0.4,0.4 z m 100,-4 h -3.2 c -0.221,0 -0.4,-0.1791 -0.4,-0.4 v -3.2 c 0,-0.2209 0.179,-0.4 0.4,-0.4 h 3.2 c 0.221,0 0.4,0.1791 0.4,0.4 v 3.2 c 0,0.2209 -0.179,0.4 -0.4,0.4 z m -88,0 H 28.4 C 28.1791,88 28,87.8209 28,87.6 V 84.4 C 28,84.1791 28.1791,84 28.4,84 h 3.2 c 0.2209,0 0.4,0.1791 0.4,0.4 v 3.2 c 0,0.2209 -0.1791,0.4 -0.4,0.4 z m 4,-4 H 32.4 C 32.1791,84 32,83.8209 32,83.6 V 80.4 C 32,80.1791 32.1791,80 32.4,80 h 3.2 c 0.2209,0 0.4,0.1791 0.4,0.4 v 3.2 c 0,0.2209 -0.1791,0.4 -0.4,0.4 z m -16,0 H 16.4 C 16.1791,84 16,83.8209 16,83.6 V 80.4 C 16,80.1791 16.1791,80 16.4,80 h 3.2 c 0.2209,0 0.4,0.1791 0.4,0.4 v 3.2 c 0,0.2209 -0.1791,0.4 -0.4,0.4 z m 60,-12 H 72.4 C 72.1791,72 72,71.8209 72,71.6 V 68.4 C 72,68.1791 72.1791,68 72.4,68 h 7.2 c 0.2209,0 0.4,0.1791 0.4,0.4 v 3.2 c 0,0.2209 -0.1791,0.4 -0.4,0.4 z m 52,-4 h -7.2 c -0.221,0 -0.4,-0.1791 -0.4,-0.4 v -3.2 c 0,-0.2209 -0.179,-0.4 -0.4,-0.4 h -3.2 c -0.221,0 -0.4,-0.1791 -0.4,-0.4 v -3.2 c 0,-0.2209 -0.179,-0.4 -0.4,-0.4 h -3.2 c -0.221,0 -0.4,0.1791 -0.4,0.4 v 3.2 c 0,0.2209 -0.179,0.4 -0.4,0.4 h -3.2 c -0.221,0 -0.4,-0.1791 -0.4,-0.4 v -7.2 c 0,-0.2209 0.179,-0.4 0.4,-0.4 h 3.2 c 0.221,0 0.4,-0.1791 0.4,-0.4 v -3.2 c 0,-0.2209 0.179,-0.4 0.4,-0.4 h 3.2 c 0.221,0 0.4,0.1791 0.4,0.4 v 3.2 c 0,0.2209 0.179,0.4 0.4,0.4 h 7.2 c 0.221,0 0.4,0.1791 0.4,0.4 v 7.2 c 0,0.2209 0.179,0.4 0.4,0.4 h 3.2 c 0.221,0 0.4,0.1791 0.4,0.4 v 3.2 c 0,0.2209 -0.179,0.4 -0.4,0.4 z m -12,0 h -3.2 c -0.221,0 -0.4,-0.1791 -0.4,-0.4 v -3.2 c 0,-0.2209 0.179,-0.4 0.4,-0.4 h 3.2 c 0.221,0 0.4,0.1791 0.4,0.4 v 3.2 c 0,0.2209 -0.179,0.4 -0.4,0.4 z m -32,0 H 84.4 C 84.1791,68 84,67.8209 84,67.6 V 64.4 C 84,64.1791 84.1791,64 84.4,64 h 3.2 c 0.2209,0 0.4,0.1791 0.4,0.4 v 3.2 c 0,0.2209 -0.1791,0.4 -0.4,0.4 z m -68,0 H 16.4 C 16.1791,68 16,67.8209 16,67.6 V 64.4 C 16,64.1791 16.1791,64 16.4,64 h 3.2 c 0.2209,0 0.4,0.1791 0.4,0.4 v 3.2 c 0,0.2209 -0.1791,0.4 -0.4,0.4 z m 64,-4 H 76.4 C 76.1791,64 76,63.8209 76,63.6 V 60.4 C 76,60.1791 76.1791,60 76.4,60 h 7.2 c 0.2209,0 0.4,0.1791 0.4,0.4 v 3.2 c 0,0.2209 -0.1791,0.4 -0.4,0.4 z m -52,0 H 24.4 C 24.1791,64 24,63.8209 24,63.6 V 56.4 C 24,56.1791 23.8209,56 23.6,56 H 20.4 C 20.1791,56 20,56.1791 20,56.4 v 3.2 C 20,59.8209 19.8209,60 19.6,60 H 16.4 C 16.1791,60 16,59.8209 16,59.6 V 48.4 C 16,48.1791 16.1791,48 16.4,48 h 7.2 c 0.2209,0 0.4,0.1791 0.4,0.4 v 3.2 c 0,0.2209 0.1791,0.4 0.4,0.4 h 3.2 C 27.8209,52 28,51.8209 28,51.6 V 48.4 C 28,48.1791 28.1791,48 28.4,48 h 3.2 c 0.2209,0 0.4,0.1791 0.4,0.4 v 3.2 c 0,0.2209 0.1791,0.4 0.4,0.4 h 3.2 c 0.2209,0 0.4,0.1791 0.4,0.4 v 3.2 C 36,55.8209 35.8209,56 35.6,56 H 28.4 C 28.1791,56 28,56.1791 28,56.4 v 3.2 c 0,0.2209 0.1791,0.4 0.4,0.4 h 3.2 c 0.2209,0 0.4,0.1791 0.4,0.4 v 3.2 c 0,0.2209 -0.1791,0.4 -0.4,0.4 z m 100,-8 h -3.2 c -0.221,0 -0.4,-0.1791 -0.4,-0.4 v -3.2 c 0,-0.2209 0.179,-0.4 0.4,-0.4 h 3.2 c 0.221,0 0.4,0.1791 0.4,0.4 v 3.2 c 0,0.2209 -0.179,0.4 -0.4,0.4 z m -24,0 h -3.2 c -0.221,0 -0.4,-0.1791 -0.4,-0.4 v -7.2 c 0,-0.2209 0.179,-0.4 0.4,-0.4 h 11.2 c 0.221,0 0.4,0.1791 0.4,0.4 v 3.2 c 0,0.2209 -0.179,0.4 -0.4,0.4 h -7.2 c -0.221,0 -0.4,0.1791 -0.4,0.4 v 3.2 c 0,0.2209 -0.179,0.4 -0.4,0.4 z m 20,-4 h -7.2 c -0.221,0 -0.4,-0.1791 -0.4,-0.4 v -3.2 c 0,-0.2209 0.179,-0.4 0.4,-0.4 h 7.2 c 0.221,0 0.4,0.1791 0.4,0.4 v 3.2 c 0,0.2209 -0.179,0.4 -0.4,0.4 z m -80,0 H 40.4 C 40.1791,52 40,51.8209 40,51.6 V 48.4 C 40,48.1791 40.1791,48 40.4,48 h 7.2 c 0.2209,0 0.4,0.1791 0.4,0.4 v 3.2 c 0,0.2209 -0.1791,0.4 -0.4,0.4 z m 52,-4 H 96.4 C 96.1791,48 96,47.8209 96,47.6 V 40.4 C 96,40.1791 96.1791,40 96.4,40 h 3.2 c 0.2209,0 0.4,0.1791 0.4,0.4 v 7.2 c 0,0.2209 -0.1791,0.4 -0.4,0.4 z m 32,-4 H 104.4 C 104.179,44 104,43.8209 104,43.6 V 16.4 c 0,-0.2209 0.179,-0.4 0.4,-0.4 h 27.2 c 0.221,0 0.4,0.1791 0.4,0.4 v 27.2 c 0,0.2209 -0.179,0.4 -0.4,0.4 z m -40,0 H 88.4 C 88.1791,44 88,43.8209 88,43.6 V 40.4 C 88,40.1791 88.1791,40 88.4,40 h 3.2 c 0.2209,0 0.4,0.1791 0.4,0.4 v 3.2 c 0,0.2209 -0.1791,0.4 -0.4,0.4 z m -24,0 H 64.4 C 64.1791,44 64,43.8209 64,43.6 V 28.4 C 64,28.1791 64.1791,28 64.4,28 h 3.2 c 0.2209,0 0.4,0.1791 0.4,0.4 v 7.2 c 0,0.2209 0.1791,0.4 0.4,0.4 h 3.2 c 0.2209,0 0.4,0.1791 0.4,0.4 v 3.2 C 72,39.8209 71.8209,40 71.6,40 H 68.4 C 68.1791,40 68,40.1791 68,40.4 v 3.2 c 0,0.2209 -0.1791,0.4 -0.4,0.4 z m -24,0 H 16.4 C 16.1791,44 16,43.8209 16,43.6 V 16.4 C 16,16.1791 16.1791,16 16.4,16 h 27.2 c 0.2209,0 0.4,0.1791 0.4,0.4 V 43.6 C 44,43.8209 43.8209,44 43.6,44 Z M 128,39.6 V 20.4 c 0,-0.2209 -0.179,-0.4 -0.4,-0.4 h -19.2 c -0.221,0 -0.4,0.1791 -0.4,0.4 v 19.2 c 0,0.2209 0.179,0.4 0.4,0.4 h 19.2 c 0.221,0 0.4,-0.1791 0.4,-0.4 z M 95.6,40 H 92.4 C 92.1791,40 92,39.8209 92,39.6 V 36.4 C 92,36.1791 92.1791,36 92.4,36 h 3.2 c 0.2209,0 0.4,0.1791 0.4,0.4 v 3.2 c 0,0.2209 -0.1791,0.4 -0.4,0.4 z m -8,0 H 84.4 C 84.1791,40 84,39.8209 84,39.6 V 36.4 C 84,36.1791 83.8209,36 83.6,36 H 80.4 C 80.1791,36 80,36.1791 80,36.4 v 3.2 C 80,39.8209 79.8209,40 79.6,40 H 76.4 C 76.1791,40 76,39.8209 76,39.6 V 36.4 C 76,36.1791 75.8209,36 75.6,36 H 72.4 C 72.1791,36 72,35.8209 72,35.6 V 28.4 C 72,28.1791 72.1791,28 72.4,28 h 7.2 c 0.2209,0 0.4,0.1791 0.4,0.4 v 3.2 c 0,0.2209 0.1791,0.4 0.4,0.4 h 7.2 C 87.8209,32 88,31.8209 88,31.6 V 28.4 C 88,28.1791 88.1791,28 88.4,28 h 3.2 c 0.2209,0 0.4,0.1791 0.4,0.4 v 7.2 C 92,35.8209 91.8209,36 91.6,36 H 88.4 C 88.1791,36 88,36.1791 88,36.4 v 3.2 C 88,39.8209 87.8209,40 87.6,40 Z M 40,39.6 V 20.4 C 40,20.1791 39.8209,20 39.6,20 H 20.4 C 20.1791,20 20,20.1791 20,20.4 v 19.2 c 0,0.2209 0.1791,0.4 0.4,0.4 H 39.6 C 39.8209,40 40,39.8209 40,39.6 Z M 123.6,36 H 112.4 C 112.179,36 112,35.8209 112,35.6 V 24.4 c 0,-0.2209 0.179,-0.4 0.4,-0.4 h 11.2 c 0.221,0 0.4,0.1791 0.4,0.4 v 11.2 c 0,0.2209 -0.179,0.4 -0.4,0.4 z m -88,0 H 24.4 C 24.1791,36 24,35.8209 24,35.6 V 24.4 C 24,24.1791 24.1791,24 24.4,24 h 11.2 c 0.2209,0 0.4,0.1791 0.4,0.4 v 11.2 c 0,0.2209 -0.1791,0.4 -0.4,0.4 z m 64,-8 H 92.4 C 92.1791,28 92,27.8209 92,27.6 V 24.4 C 92,24.1791 92.1791,24 92.4,24 h 7.2 c 0.2209,0 0.4,0.1791 0.4,0.4 v 3.2 c 0,0.2209 -0.1791,0.4 -0.4,0.4 z m -12,0 H 84.4 C 84.1791,28 84,27.8209 84,27.6 V 24.4 C 84,24.1791 84.1791,24 84.4,24 h 3.2 c 0.2209,0 0.4,0.1791 0.4,0.4 v 3.2 c 0,0.2209 -0.1791,0.4 -0.4,0.4 z m -36,0 H 48.4 C 48.1791,28 48,27.8209 48,27.6 V 20.4 C 48,20.1791 48.1791,20 48.4,20 h 7.2 C 55.8209,20 56,19.8209 56,19.6 V 16.4 C 56,16.1791 56.1791,16 56.4,16 h 3.2 c 0.2209,0 0.4,0.1791 0.4,0.4 v 7.2 C 60,23.8209 59.8209,24 59.6,24 H 52.4 C 52.1791,24 52,24.1791 52,24.4 v 3.2 c 0,0.2209 -0.1791,0.4 -0.4,0.4 z m 28,-4 H 76.4 C 76.1791,24 76,23.8209 76,23.6 V 16.4 C 76,16.1791 76.1791,16 76.4,16 h 3.2 c 0.2209,0 0.4,0.1791 0.4,0.4 v 7.2 c 0,0.2209 -0.1791,0.4 -0.4,0.4 z m -8,0 H 68.4 C 68.1791,24 68,23.8209 68,23.6 V 20.4 C 68,20.1791 68.1791,20 68.4,20 h 3.2 c 0.2209,0 0.4,0.1791 0.4,0.4 v 3.2 c 0,0.2209 -0.1791,0.4 -0.4,0.4 z m 24,-4 H 84.4 C 84.1791,20 84,19.8209 84,19.6 V 16.4 C 84,16.1791 84.1791,16 84.4,16 h 11.2 c 0.2209,0 0.4,0.1791 0.4,0.4 v 3.2 c 0,0.2209 -0.1791,0.4 -0.4,0.4 z"
           id="path7" /></g></g></g></svg>
