<?xml version="1.0" encoding="UTF-8" standalone="no"?>
<!-- Created with Inkscape (http://www.inkscape.org/) -->

<svg
   version="1.1"
   id="svg1"
   width="151.18359"
   height="151.18359"
   viewBox="0 0 151.1836 151.1836"
   sodipodi:docname="ThermaCurata logo - export.svg"
   inkscape:version="1.3.2 (091e20e, 2023-11-25, custom)"
   xmlns:inkscape="http://www.inkscape.org/namespaces/inkscape"
   xmlns:sodipodi="http://sodipodi.sourceforge.net/DTD/sodipodi-0.dtd"
   xmlns="http://www.w3.org/2000/svg"
   xmlns:svg="http://www.w3.org/2000/svg">
  <defs
     id="defs1" />
  <sodipodi:namedview
     id="namedview1"
     pagecolor="#ffffff"
     bordercolor="#000000"
     borderopacity="0.25"
     inkscape:showpageshadow="2"
     inkscape:pageopacity="0.0"
     inkscape:pagecheckerboard="0"
     inkscape:deskcolor="#d1d1d1"
     inkscape:zoom="2.0392665"
     inkscape:cx="100.52634"
     inkscape:cy="84.834425"
     inkscape:window-width="1440"
     inkscape:window-height="830"
     inkscape:window-x="-6"
     inkscape:window-y="-6"
     inkscape:window-maximized="1"
     inkscape:current-layer="g1">
    <inkscape:page
       x="0"
       y="0"
       inkscape:label="1"
       id="page1"
       width="151.18359"
       height="151.18359"
       margin="0"
       bleed="0" />
  </sodipodi:namedview>
  <g
     id="g1"
     inkscape:groupmode="layer"
     inkscape:label="1"
     transform="translate(160)">
    <path
       id="path2"
       style="fill:#000000;fill-opacity:1;fill-rule:nonzero;stroke:none;stroke-width:1.33333"
       d="M -84.412109,0 C -126.15565,0 -160,33.844356 -160,75.587891 c 0,41.750219 33.84435,75.595699 75.587891,75.595699 41.750209,0 75.5957027,-33.84548 75.5957028,-75.595699 C -8.8164062,33.844356 -42.6619,0 -84.412109,0 Z m 0,6.1621094 c 34.307628,0.021333 63.453586,25.0882756 68.605468,59.0039066 H -41.1875 c -4.801276,-19.99978 -22.656832,-34.120027 -43.224609,-34.19336 -20.566441,0.07333 -38.416651,14.19358 -43.224611,34.19336 h -25.37305 c 5.14663,-33.915631 34.29669,-58.9825733 68.597661,-59.0039066 z m 12.199218,5.2499996 c -0.462331,0.009 -0.899263,0.07779 -1.308593,0.203125 -0.811998,0.245333 -1.489921,0.701574 -2.03125,1.378907 -0.541333,0.677329 -0.924964,1.558583 -1.154297,2.642578 l -1.371094,6.513672 c -0.224,1.07333 -0.227912,2.032863 -0.0039,2.880859 0.222666,0.838662 0.655452,1.531988 1.300781,2.083984 0.650664,0.552 1.489488,0.931724 2.521484,1.150391 1.019997,0.213333 1.915409,0.192972 2.691407,-0.06836 0.781331,-0.26 1.447476,-0.754144 1.99414,-1.494141 0.551998,-0.749329 0.995318,-1.744908 1.333985,-2.990234 l -3.00586,-0.63086 c -0.243999,0.881329 -0.565465,1.501235 -0.966797,1.865235 -0.395997,0.363996 -0.875738,0.483807 -1.427734,0.36914 -0.594663,-0.124 -1.014958,-0.408898 -1.265625,-0.851562 -0.249333,-0.447998 -0.307969,-1.006265 -0.167969,-1.683594 l 1.371094,-6.515625 c 0.145334,-0.681329 0.421987,-1.177708 0.833984,-1.484375 0.405333,-0.308 0.905338,-0.396816 1.5,-0.271484 0.369333,0.07733 0.66167,0.239567 0.875,0.490234 0.224,0.245333 0.3695,0.573708 0.4375,0.984375 0.068,0.417332 0.06109,0.927779 -0.01758,1.537109 l 3.00586,0.628907 c 0.198664,-1.270662 0.188468,-2.357911 -0.01953,-3.253907 -0.203997,-0.906664 -0.609946,-1.637453 -1.224609,-2.189453 -0.605333,-0.551995 -1.417504,-0.931198 -2.4375,-1.144531 -0.51333,-0.109333 -1.000559,-0.159391 -1.462891,-0.150391 z m -14.125,3.5 c -1.057329,0.036 -1.933096,0.294925 -2.621093,0.794922 -0.681332,0.489332 -1.124652,1.167874 -1.333985,2.033203 l 2.386719,0.847657 c 0.157334,-0.295998 0.371011,-0.526169 0.652344,-0.6875 0.285329,-0.172 0.603697,-0.260199 0.957031,-0.269532 0.490666,-0.016 0.864101,0.08797 1.134766,0.306641 0.275997,0.224 0.417593,0.547136 0.433593,0.980469 l 0.0293,0.964843 -1.828125,0.05469 c -1.342659,0.04133 -2.351965,0.384492 -3.029297,1.035156 -0.671997,0.651998 -0.985218,1.589557 -0.949218,2.824219 0.036,1.181329 0.33382,2.063821 0.896484,2.646484 0.57333,0.573334 1.395419,0.842639 2.46875,0.806641 0.509328,-0.016 0.973293,-0.114209 1.390625,-0.296875 0.426667,-0.188 0.760433,-0.457834 1.009766,-0.8125 0.09685,-0.132918 0.15824,-0.288838 0.220703,-0.443359 l 0.04102,1.296875 2.78125,-0.08203 -0.25,-8.140625 c -0.04133,-1.265326 -0.448085,-2.236203 -1.21875,-2.908203 -0.765331,-0.675996 -1.822546,-0.993839 -3.171875,-0.951172 z m -12,1.605469 c -0.426996,-0.04433 -0.880708,0.01378 -1.359375,0.175781 -0.614664,0.202666 -1.109424,0.571949 -1.496094,1.113282 -0.34212,0.47896 -0.55044,1.077272 -0.64258,1.779297 -0.25267,-0.329979 -0.52909,-0.609978 -0.84179,-0.810547 -0.73866,-0.478665 -1.58769,-0.557565 -2.54102,-0.240235 -0.62,0.209332 -1.10379,0.574372 -1.45313,1.095703 -0.26453,0.399918 -0.41614,0.902311 -0.50781,1.458985 l -0.50781,-1.521485 -2.85938,0.958985 3.79297,11.322265 2.85352,-0.958984 -2.49023,-7.447266 c -0.15066,-0.45333 -0.15614,-0.834485 -0.0215,-1.146484 0.14133,-0.324 0.42828,-0.555933 0.84961,-0.697266 0.44267,-0.145329 0.82248,-0.12693 1.14648,0.06641 0.33333,0.187997 0.578,0.53125 0.75,1.03125 l 2.4375,7.302734 2.859379,-0.958984 -2.460939,-7.353516 0.008,0.01563 c -0.16667,-0.489332 -0.17703,-0.899617 -0.041,-1.238281 0.14533,-0.338666 0.43571,-0.585136 0.873046,-0.730469 0.43733,-0.146667 0.81362,-0.119729 1.126953,0.07227 0.322664,0.19333 0.566281,0.537639 0.738281,1.042968 l 2.4375,7.294922 2.859375,-0.957031 -2.552734,-7.634766 c -0.412,-1.229326 -0.99453,-2.093751 -1.75586,-2.59375 -0.374664,-0.249997 -0.774172,-0.397072 -1.201172,-0.441406 z m 36.296875,2.685547 -3.542968,7.359375 c -0.551999,1.155997 -0.727529,2.156003 -0.519532,3 0.202667,0.849329 0.781573,1.500846 1.740235,1.964844 0.582662,0.279997 1.155559,0.327198 1.71289,0.144531 0.446804,-0.147886 0.847158,-0.420778 1.222657,-0.763672 l -0.716797,1.492188 2.685547,1.287109 5.171875,-10.761719 -2.685547,-1.285156 -3.507813,7.298828 0.01563,-0.04297 c -0.192,0.406666 -0.440856,0.672443 -0.742187,0.78711 -0.307998,0.12 -0.653731,0.08172 -1.039063,-0.09961 -0.394664,-0.193331 -0.645098,-0.438376 -0.759765,-0.734375 -0.09867,-0.307997 -0.05661,-0.656208 0.136718,-1.046875 l 3.509766,-7.3125 z m -22.585937,3.009766 0.03906,1.277343 c 0.0093,0.406667 -0.136692,0.716881 -0.443359,0.935547 -0.308,0.213333 -0.765141,0.33361 -1.369141,0.34961 -0.431996,0.016 -0.760375,-0.06681 -0.984375,-0.244141 -0.22933,-0.176 -0.350661,-0.449029 -0.361328,-0.818359 -0.01467,-0.467999 0.09489,-0.816641 0.324219,-1.056641 0.238667,-0.244 0.58821,-0.374625 1.046875,-0.390625 z m -30.226567,1.005859 c -0.10033,5e-4 -0.2014,0.01182 -0.30273,0.03516 -0.204,0.04267 -0.40032,0.131052 -0.59766,0.261719 -0.53733,0.358666 -0.91219,0.858141 -1.13086,1.494141 -0.16867,0.497578 -0.2031,1.0556 -0.16406,1.642578 l -0.9414,-1.402344 -2.57813,1.728516 6.65039,9.917968 2.58008,-1.730468 -3.79297,-5.65625 c -0.396,-0.593333 -0.55771,-1.154604 -0.48437,-1.697266 0.0733,-0.546664 0.38054,-1.006572 0.92187,-1.365234 0.188,-0.125333 0.36017,-0.218583 0.52148,-0.28125 0.16133,-0.06267 0.31127,-0.0918 0.44727,-0.0918 L -114.55273,23.25 c -0.10134,-0.02133 -0.20045,-0.03175 -0.30079,-0.03125 z m 64.863286,2.515625 -7.25586,9.484375 2.470703,1.884766 4.134766,-5.40625 c 0.437333,-0.566667 0.917128,-0.899907 1.453125,-1.003907 0.542664,-0.109333 1.072419,0.03564 1.59375,0.431641 0.171998,0.134665 0.318401,0.271583 0.427734,0.40625 0.114667,0.130667 0.187708,0.259864 0.234375,0.394531 l 2.410157,-1.691406 c -0.03067,-0.204 -0.09379,-0.394934 -0.203125,-0.572266 -0.104,-0.17733 -0.249503,-0.339042 -0.4375,-0.484375 -0.515998,-0.390662 -1.103921,-0.589843 -1.78125,-0.589843 -0.526701,0 -1.061531,0.147643 -1.603516,0.373047 l 1.025391,-1.341797 z m -74.347656,5.822266 c -1.16667,-0.09333 -2.22927,0.345556 -3.19727,1.324218 -0.99066,1.005329 -1.46568,2.066604 -1.42968,3.197266 0.0373,1.118664 0.58577,2.209197 1.64843,3.255859 l 2.22852,2.201172 c 1.00533,0.994663 2.07283,1.486703 3.1875,1.470703 1.12533,-0.02667 2.19289,-0.551988 3.21289,-1.583984 0.78133,-0.790662 1.23457,-1.603642 1.36523,-2.431641 0.12934,-0.843997 -0.0739,-1.684249 -0.61523,-2.517578 l -2.41211,1.177735 c 0.19867,0.354662 0.27075,0.703776 0.21875,1.037109 -0.0467,0.333332 -0.20695,0.640542 -0.48828,0.921875 -0.38533,0.390667 -0.78767,0.579552 -1.20898,0.574219 -0.42266,-0.01067 -0.83305,-0.210802 -1.23438,-0.605469 l -0.42383,-0.419922 4.17969,-4.232422 -1.52148,-1.503906 c -1.16666,-1.150662 -2.33777,-1.777234 -3.50977,-1.865234 z m 82.832031,2.53125 c -0.604875,-0.05106 -1.209644,0.07223 -1.806641,0.365234 l 0.847656,2.380859 c 0.328,-0.068 0.642026,-0.04826 0.94336,0.06641 0.31333,0.114667 0.583694,0.301692 0.818359,0.568359 0.317334,0.374666 0.478516,0.734125 0.478516,1.078125 0,0.354667 -0.159758,0.671792 -0.482422,0.953125 l -0.730469,0.634766 -1.199219,-1.38086 c -0.879996,-1.014663 -1.785421,-1.576739 -2.71875,-1.691406 -0.926664,-0.109333 -1.857066,0.244738 -2.789062,1.052734 -0.890663,0.776 -1.385802,1.562479 -1.480469,2.369141 -0.08267,0.802662 0.228975,1.608016 0.931641,2.416016 0.338663,0.390662 0.709375,0.687151 1.109375,0.896484 0.41733,0.208 0.838151,0.296817 1.271484,0.271484 0.16299,-0.01178 0.322016,-0.06354 0.480469,-0.113281 l -0.980469,0.851563 1.828125,2.099609 6.146484,-5.34375 c 0.953327,-0.827997 1.446422,-1.755921 1.482422,-2.78125 0.0373,-1.015996 -0.384204,-2.035312 -1.269531,-3.056641 -0.691997,-0.797331 -1.452724,-1.30868 -2.275391,-1.527343 -0.201664,-0.056 -0.403847,-0.09235 -0.605468,-0.109375 z m -83.050781,0.214843 c 0.40667,0 0.79172,0.18049 1.15039,0.535157 l 0.61914,0.615234 -2.19727,2.224609 -0.4414,-0.4375 c -0.42267,-0.417329 -0.65745,-0.843393 -0.68945,-1.27539 -0.036,-0.437332 0.1257,-0.834415 0.48437,-1.205078 0.308,-0.306667 0.66755,-0.462366 1.07422,-0.457032 z m 40.144531,0.4375 c 22.545284,0 40.855468,18.308789 40.855468,40.847657 0,7.896202 -2.253252,15.269 -6.140625,21.521484 h -3.568359 c 4.227366,-6.109754 6.708984,-13.521086 6.708984,-21.521484 0,-20.917001 -16.931552,-37.847657 -37.855468,-37.847657 -20.917001,0 -37.847661,16.930656 -37.847661,37.847657 0,8.000398 2.48217,15.41173 6.70899,21.521484 h -3.57031 c -3.88681,-6.252444 -6.13868,-13.62536 -6.13868,-21.521484 0,-22.538868 18.30879,-40.847657 40.847661,-40.847657 z M -45.3125,39.78125 c 0.342666,0.03067 0.661558,0.219028 0.962891,0.568359 l 1.152343,1.316407 -0.972656,0.84375 c -0.306009,0.260349 -0.638962,0.344728 -0.996094,0.240234 -0.363996,-0.09867 -0.74596,-0.380559 -1.140625,-0.837891 -0.281331,-0.323997 -0.428259,-0.631304 -0.433593,-0.917968 -0.0053,-0.292 0.13025,-0.551545 0.40625,-0.796875 0.354663,-0.306667 0.693484,-0.442683 1.021484,-0.416016 z m -87.44531,1.552734 c -0.22773,-0.02017 -0.4494,-0.0176 -0.66407,0.0098 -0.8653,0.104 -1.55235,0.57335 -2.06835,1.416016 -0.34934,0.57333 -0.48358,1.16125 -0.40625,1.78125 0.0697,0.475277 0.29539,0.959008 0.60546,1.447265 l -5.49609,-3.36914 -1.5625,2.552734 14.26172,8.740234 1.56055,-2.552734 -6.66993,-4.087891 -0.002,-0.002 c -0.40511,-0.243666 -0.65491,-0.535992 -0.74805,-0.863281 -0.0987,-0.338666 -0.0306,-0.693695 0.19336,-1.068359 0.23867,-0.385333 0.52514,-0.613641 0.86914,-0.681641 0.344,-0.07733 0.71886,0.01105 1.13086,0.261719 l 6.67188,4.08789 1.56055,-2.546875 -7.01368,-4.302734 c -0.797,-0.487999 -1.53947,-0.761766 -2.22265,-0.822266 z m 102.574216,0.240235 -2.99414,1.757812 -0.572266,-0.972656 -2.28125,1.337891 0.572266,0.972656 -5.337891,3.132812 c -0.879996,0.519998 -1.43225,1.123075 -1.65625,1.816407 -0.218665,0.69733 -0.05696,1.512262 0.484375,2.433593 l 0.71875,1.222657 2.515625,-1.478516 -0.40625,-0.697266 c -0.11467,-0.191997 -0.134906,-0.375929 -0.07227,-0.558593 0.0733,-0.177333 0.224325,-0.332131 0.458985,-0.466797 l 4.810547,-2.824219 0.755859,1.285156 2.28125,-1.33789 -0.755859,-1.28711 2.996093,-1.759765 z m -54.228515,2.005859 c 3.597379,0 6.535156,2.938781 6.535156,6.535156 V 74.46875 c 3.542684,2.242864 5.78125,6.096907 5.78125,10.333984 0,6.783604 -5.531633,12.314454 -12.316406,12.314454 -6.783603,-10e-7 -12.308594,-5.531633 -12.308594,-12.314454 a 1.3356468,1.3356468 0 0 1 0,-0.0039 c 0.01117,-4.223504 2.247024,-8.059456 5.78125,-10.296875 V 70.61524 h -6.763672 v -1.33399 h 6.763672 v -3.625 h -6.763672 v -1.335938 h 6.763672 v -3.623046 h -6.763672 v -1.335938 h 6.763672 v -3.61914 h -6.763672 V 54.40625 h 6.763672 v -3.625 h -6.763672 v -1.333984 h 6.796875 c 0.33664,-3.285121 3.126951,-5.867188 6.494141,-5.867188 z m 0,2.671875 c -2.156932,0 -3.855469,1.699692 -3.855469,3.863281 v 25.050782 a 1.3356468,1.3356468 0 0 1 -0.703125,1.177734 c -3.120719,1.67516 -5.066795,4.916814 -5.078125,8.458984 v 0.002 0.002 c 0.0029,5.337318 4.29949,9.638671 9.636719,9.638671 5.340497,1e-6 9.644531,-4.303572 9.644531,-9.642578 0,-3.552842 -1.951837,-6.811087 -5.078125,-8.490234 a 1.3356468,1.3356468 0 0 1 -0.703125,-1.177734 V 50.115234 c 0,-2.163589 -1.698026,-3.863281 -3.863281,-3.863281 z m -60.041011,3.169922 -3.34376,9.671875 2.71876,0.941406 1.18359,-3.425781 13.08789,4.527344 0.97852,-2.830078 -13.0879,-4.525391 1.18164,-3.421875 z m 113.847651,2.603516 c -0.20889,-0.017 -0.422861,-0.01643 -0.644531,0.002 l -0.0625,2.529297 c 0.328,0.052 0.614846,0.189013 0.853516,0.402343 0.250657,0.218667 0.438593,0.494795 0.558593,0.828125 0.16667,0.458667 0.182011,0.853735 0.05664,1.177735 -0.12533,0.327997 -0.391639,0.566226 -0.792969,0.71289 l -0.910156,0.328125 -0.619141,-1.71875 c -0.458657,-1.265326 -1.099737,-2.115931 -1.927734,-2.558593 -0.827997,-0.437333 -1.819142,-0.441392 -2.980469,-0.02539 -1.114657,0.401332 -1.852422,0.95907 -2.232422,1.677734 -0.370667,0.718665 -0.371049,1.582468 -0.0059,2.591797 0.176,0.485333 0.410221,0.895711 0.712891,1.234375 0.311997,0.343999 0.679186,0.580272 1.089843,0.710938 0.15502,0.04744 0.319898,0.05546 0.484375,0.06641 l -1.220703,0.441406 0.949219,2.615235 7.65625,-2.765625 c 1.191987,-0.431999 1.990625,-1.114505 2.390625,-2.0625 0.40133,-0.937329 0.374693,-2.035979 -0.08398,-3.306641 -0.36,-0.994664 -0.883737,-1.744141 -1.566407,-2.244141 -0.507997,-0.374997 -1.078388,-0.585718 -1.705078,-0.636718 z m -4.925781,4.15039 c 0.18433,-0.0032 0.35133,0.0328 0.5,0.105469 0.30667,0.150665 0.537362,0.443 0.693359,0.875 l 0.59375,1.644531 -1.205078,0.433594 c -0.377587,0.132085 -0.718481,0.09195 -1.019531,-0.130859 -0.30133,-0.229333 -0.557096,-0.62474 -0.759766,-1.191407 -0.145327,-0.406663 -0.172898,-0.744958 -0.07422,-1.015625 0.1,-0.270662 0.318018,-0.46975 0.666015,-0.59375 0.21933,-0.08133 0.421139,-0.123786 0.605469,-0.126953 z m -51.181641,3.75586 h 4.609375 V 78.75 c 2.433491,0.936967 4.173829,3.305364 4.173828,6.052734 10e-7,3.557166 -2.918618,6.480469 -6.482421,6.480469 -3.559401,0 -6.476563,-2.923303 -6.476563,-6.480469 0,-2.748897 1.742419,-5.118793 4.175781,-6.054687 z m 64.378907,11.533203 c 0.781327,0 1.369625,0.20166 1.765625,0.597656 0.401327,0.396 0.599609,0.942395 0.599609,1.650391 v 3.59375 c 0,0.698659 -0.198282,1.245154 -0.599609,1.646484 -0.396,0.401333 -0.989628,0.599609 -1.765625,0.599609 -0.78667,0 -1.379391,-0.204142 -1.775391,-0.605468 -0.39066,-0.406667 -0.587891,-0.952632 -0.587891,-1.640625 v -3.59375 c 0,-0.702662 0.197753,-1.249058 0.59375,-1.650391 0.40133,-0.395996 0.988202,-0.597656 1.769532,-0.597656 z m -8.25,0.01367 c 0.698657,0 1.239143,0.182971 1.61914,0.542968 0.38533,0.353329 0.580078,0.857675 0.580078,1.513672 v 0.240235 c 0,0.363997 -0.09471,0.688318 -0.277343,0.958984 -0.188,0.270663 -0.447026,0.473375 -0.791016,0.609375 0.37999,0.08267 0.676246,0.287612 0.878906,0.599609 0.21333,0.308 0.320313,0.707503 0.320313,1.1875 v 0.238282 c 0,0.693326 -0.204048,1.229375 -0.609375,1.609375 -0.40667,0.381331 -0.980187,0.574218 -1.714844,0.574218 -0.47334,0 -0.900817,-0.08777 -1.271484,-0.259765 -0.37466,-0.177334 -0.671968,-0.429817 -0.890625,-0.757813 -0.224,-0.333331 -0.347801,-0.729268 -0.369141,-1.197265 h 1.535156 c 0.0373,0.24533 0.126145,0.431837 0.271485,0.5625 0.146657,0.134664 0.33316,0.203125 0.5625,0.203125 0.281327,0 0.500346,-0.07704 0.652343,-0.234375 0.156,-0.156 0.232422,-0.37935 0.232422,-0.666016 v -0.1875 c 0,-0.297334 -0.0621,-0.532029 -0.191406,-0.693359 -0.12,-0.166667 -0.29659,-0.244141 -0.53125,-0.244141 h -0.667969 v -1.4375 h 0.667969 c 0.188,0 0.33216,-0.07351 0.4375,-0.214844 0.104,-0.145334 0.15625,-0.343522 0.15625,-0.603515 V 73.6875 c 0,-0.239996 -0.0577,-0.427308 -0.177734,-0.556641 -0.10933,-0.135997 -0.27061,-0.205078 -0.47461,-0.205078 -0.20266,0 -0.380063,0.0798 -0.52539,0.230469 -0.14133,0.150667 -0.233157,0.370487 -0.285157,0.646484 h -1.53125 c 0.0613,-0.734659 0.317628,-1.308179 0.765625,-1.714843 0.44267,-0.405329 0.988907,-0.609375 1.628907,-0.609375 z M -144.43164,71.5625 h 1.53516 l 1.67773,5.275391 1.68359,-5.275391 h 1.5293 l -2.63086,7.90625 h -1.16016 z m 122.097656,1.337891 c -0.30667,0 -0.530538,0.105026 -0.671875,0.318359 -0.13466,0.208 -0.201172,0.500333 -0.201172,0.875 v 2.832031 c 0,0.370666 0.0665,0.662289 0.201172,0.876953 0.141337,0.208 0.365205,0.3125 0.671875,0.3125 0.311997,0 0.531971,-0.1045 0.667968,-0.3125 0.14,-0.214664 0.207032,-0.506287 0.207032,-0.876953 V 74.09375 c 0,-0.374667 -0.067,-0.667 -0.207032,-0.875 -0.135997,-0.213333 -0.355971,-0.318359 -0.667968,-0.318359 z m -4.753907,5.078125 h 1.488282 v 1.490234 h -1.488282 z m -57.324218,3.679687 c -1.752577,0 -3.136719,1.387937 -3.136719,3.144531 0,1.754813 1.384142,3.142579 3.136719,3.142578 1.761503,10e-7 3.144531,-1.387765 3.144531,-3.142578 0,-1.756594 -1.383028,-3.144531 -3.144531,-3.144531 z m -68.597661,4.007813 h 25.37305 c 0.98304,4.089176 2.53628,7.915263 4.52149,11.443359 h -26.11915 a 2.504337,2.504337 0 0 0 -0.92578,0.308594 c -1.26881,-3.77351 -2.23444,-7.697901 -2.84961,-11.751953 z m 111.82227,0 h 25.380859 c -0.610747,4.020784 -1.568501,7.913149 -2.822265,11.658203 a 2.504337,2.504337 0 0 0 -0.955078,-0.214844 h -26.123047 c 1.984757,-3.528161 3.537836,-7.354094 4.519531,-11.443359 z m -108.04688,13.949218 h 129.650396 c -10.13456,27.035776 -35.947021,44.977936 -64.828125,45.056646 -28.874431,-0.0787 -54.686351,-18.02087 -64.822271,-45.056646 z m 7.30274,4.677736 c 4.57194,9.08258 11.1454,17.10232 19.41602,23.1543 0.005,0.005 0.0162,0.0123 0.0215,0.0176 6.11462,4.53599 13.58678,8.12916 20.94141,10.17578 8.697254,2.40666 17.808351,2.98549 26.626949,1.63086 0.0053,0 0.0078,-7.3e-4 0.0078,-0.006 8.838593,-1.32795 17.365874,-4.51133 24.980469,-9.33398 0,0 0.006,-0.004 0.01172,-0.004 7.675934,-4.83326 14.587181,-11.64658 19.535156,-19.25585 v -0.004 c 1.333307,-2.03066 2.229397,-4.25101 3.302734,-6.375 z m 32.45312,3.55469 c 0.25145,0 0.45777,0.0927 0.61329,0.25976 0.16237,0.16876 0.23632,0.42516 0.23632,0.76758 v 2.39844 h 3.66407 V 108.875 c 0,-0.34242 0.073,-0.59223 0.22851,-0.76758 0.1555,-0.16696 0.36186,-0.25976 0.61328,-0.25976 0.25144,0 0.45777,0.0927 0.61328,0.25976 0.16216,0.16876 0.23829,0.42516 0.23829,0.76758 v 6.59766 c 0,0.3424 -0.0762,0.60173 -0.23829,0.77539 -0.16211,0.16903 -0.36845,0.25781 -0.61328,0.25781 -0.25804,0 -0.45778,-0.0891 -0.61328,-0.25781 -0.15566,-0.17366 -0.22851,-0.43299 -0.22851,-0.77539 v -2.81641 h -3.66407 v 2.81641 c 0,0.3424 -0.0742,0.60173 -0.23632,0.77539 -0.15552,0.16903 -0.36184,0.25781 -0.61329,0.25781 -0.25968,0 -0.4614,-0.0891 -0.61523,-0.25781 -0.14867,-0.17366 -0.22656,-0.43299 -0.22656,-0.77539 V 108.875 c 0,-0.34242 0.0777,-0.59223 0.22656,-0.76758 0.14887,-0.16696 0.35555,-0.25976 0.61523,-0.25976 z m 22.808598,0 c 0.238201,0 0.428055,0.0837 0.570313,0.24414 0.142228,0.16876 0.210937,0.40821 0.210937,0.73242 v 3.77344 l 1.751953,-1.83399 c 0.220004,-0.22657 0.380311,-0.38912 0.496094,-0.46679 0.115788,-0.0826 0.253149,-0.12696 0.421875,-0.12696 0.193537,0 0.355349,0.0631 0.484375,0.18555 0.129017,0.12406 0.193359,0.27627 0.193359,0.46484 0,0.22495 -0.214611,0.53001 -0.634765,0.91211 l -0.833985,0.75977 1.605469,2.50976 c 0.115788,0.18691 0.196757,0.32926 0.248047,0.4336 0.05294,0.0909 0.08008,0.18078 0.08008,0.27148 0,0.24483 -0.07138,0.44367 -0.207031,0.58594 -0.129026,0.14221 -0.309292,0.21289 -0.529297,0.21289 -0.186921,0 -0.337188,-0.0498 -0.441406,-0.15234 -0.102563,-0.10422 -0.236769,-0.29121 -0.41211,-0.5625 l -1.375,-2.26368 -0.847656,0.80274 v 1.24023 c 0,0.29772 -0.07617,0.52852 -0.238281,0.69727 -0.155492,0.15383 -0.336197,0.23828 -0.542969,0.23828 -0.239854,0 -0.426101,-0.0845 -0.568359,-0.23828 -0.135617,-0.1621 -0.201172,-0.39802 -0.201172,-0.70899 v -6.64453 c 0,-0.34905 0.06553,-0.6068 0.201172,-0.78711 0.129026,-0.18216 0.321888,-0.27929 0.568359,-0.27929 z m 9.9375,0 c 0.264667,0 0.470265,0.0927 0.619141,0.25976 0.153819,0.17535 0.234375,0.42516 0.234375,0.76758 v 4.38867 c 0,0.3821 -0.01274,0.70408 -0.05078,0.96875 -0.02646,0.2647 -0.09906,0.53656 -0.214843,0.81446 -0.193537,0.45982 -0.505006,0.81617 -0.94336,1.07421 -0.440007,0.25804 -0.968771,0.38477 -1.595703,0.38477 -0.569031,0 -1.041415,-0.0876 -1.421875,-0.26953 -0.375494,-0.18031 -0.686387,-0.46494 -0.917969,-0.86524 -0.115785,-0.21338 -0.219885,-0.46036 -0.291015,-0.73828 -0.07773,-0.2779 -0.117188,-0.54347 -0.117188,-0.79492 0,-0.26463 0.07182,-0.46984 0.220703,-0.60547 0.14722,-0.14222 0.342637,-0.21289 0.574219,-0.21289 0.220005,0 0.394728,0.0643 0.503907,0.19336 0.115785,0.12903 0.209688,0.32753 0.267578,0.60547 0.06451,0.29113 0.126866,0.5236 0.191406,0.69726 0.06451,0.17532 0.175343,0.32907 0.324219,0.45313 0.153835,0.12227 0.367829,0.1875 0.652343,0.1875 0.74934,0 1.123047,-0.54619 1.123047,-1.64453 V 108.875 c 0,-0.34242 0.07965,-0.59223 0.228516,-0.76758 0.147223,-0.16696 0.353576,-0.25976 0.613281,-0.25976 z m -22.060547,2.30664 c 0.607083,0 1.129115,0.13063 1.5625,0.38867 0.433396,0.25808 0.764368,0.58914 0.984375,0.99609 0.213382,0.4069 0.322266,0.81734 0.322266,1.24414 0,0.38873 -0.109319,0.64798 -0.335938,0.76368 -0.226617,0.11556 -0.54034,0.17773 -0.947265,0.17773 h -3.050779 c 0.007,0.34901 0.0773,0.66309 0.21289,0.92773 0.14225,0.27129 0.328068,0.47766 0.554686,0.61328 0.231581,0.1358 0.485772,0.20704 0.763672,0.20704 0.186918,0 0.353974,-0.0182 0.507812,-0.0645 0.155493,-0.0446 0.304251,-0.11418 0.453125,-0.20508 0.142258,-0.0893 0.278746,-0.1956 0.394531,-0.30468 0.122412,-0.10418 0.284978,-0.24664 0.478516,-0.4336 0.07775,-0.0645 0.19292,-0.10351 0.341797,-0.10351 0.162106,0 0.293045,0.0454 0.390625,0.13476 0.09593,0.0844 0.144531,0.20702 0.144531,0.36914 0,0.14225 -0.05879,0.3131 -0.167969,0.5 -0.110826,0.18691 -0.277286,0.36761 -0.503906,0.54297 -0.22,0.1687 -0.496239,0.31496 -0.832031,0.42578 -0.335796,0.11593 -0.724055,0.17188 -1.164063,0.17188 -1.00077,0 -1.774276,-0.28342 -2.330076,-0.85742 -0.5558,-0.56902 -0.83399,-1.34631 -0.83399,-2.32227 0,-0.46481 0.0694,-0.89024 0.20508,-1.27734 0.13564,-0.39367 0.33688,-0.73576 0.60156,-1.01367 0.2597,-0.28449 0.58168,-0.49958 0.96875,-0.64844 0.38213,-0.15542 0.807865,-0.23242 1.279301,-0.23242 z m 27.31836,0 c 0.684825,0 1.228157,0.0859 1.615234,0.24804 0.393691,0.16211 0.671877,0.41857 0.833984,0.76758 0.160436,0.34904 0.240235,0.81498 0.240235,1.39063 v 0.92773 c 0,0.25808 -0.0078,0.54449 -0.0078,0.85547 0,0.28948 0.04859,0.60011 0.144531,0.91602 0.09762,0.31762 0.146485,0.51738 0.146485,0.61328 0,0.15551 -0.07664,0.30573 -0.230469,0.4414 -0.148877,0.12902 -0.31894,0.19336 -0.505859,0.19336 -0.162111,0 -0.321071,-0.0774 -0.476563,-0.22461 -0.154919,-0.14835 -0.314634,-0.36935 -0.49414,-0.65234 -0.381055,0.29001 -0.740945,0.50943 -1.095704,0.65625 -0.349029,0.14217 -0.743586,0.21875 -1.183593,0.21875 -0.40031,0 -0.748369,-0.0779 -1.052735,-0.23828 -0.302711,-0.15551 -0.537113,-0.37403 -0.699218,-0.63867 -0.160474,-0.27129 -0.244141,-0.56763 -0.244141,-0.87696 0,-0.42674 0.136918,-0.79766 0.408203,-1.09375 0.271285,-0.30437 0.639893,-0.50306 1.111328,-0.60742 0.0976,-0.0182 0.340686,-0.0734 0.734375,-0.15625 0.395347,-0.0778 0.726005,-0.14829 1.003907,-0.21289 0.284515,-0.0711 0.586836,-0.14819 0.916015,-0.24609 -0.0182,-0.41355 -0.101128,-0.70911 -0.25,-0.9043 -0.148875,-0.19335 -0.447589,-0.28906 -0.914062,-0.28906 -0.393693,0 -0.692424,0.0589 -0.892579,0.16797 -0.200152,0.11079 -0.364798,0.26949 -0.513671,0.49609 -0.142259,0.22002 -0.240148,0.36371 -0.304688,0.44141 -0.05127,0.0645 -0.179509,0.10156 -0.373047,0.10156 -0.175343,0 -0.331912,-0.0569 -0.460937,-0.16602 -0.122441,-0.11745 -0.185547,-0.26182 -0.185547,-0.43554 0,-0.27787 0.09748,-0.54113 0.291016,-0.80078 0.193535,-0.25809 0.496614,-0.46963 0.910156,-0.63672 0.406923,-0.16853 0.922214,-0.25586 1.529297,-0.25586 z m -22.458985,0.0156 c 0.135641,0 0.26418,0.0311 0.375,0.0957 0.109176,0.0645 0.195226,0.16032 0.259766,0.29102 0.07113,0.12903 0.101562,0.2907 0.101562,0.47266 v 0.1914 c 0.277899,-0.36226 0.575874,-0.62621 0.898438,-0.79492 0.330835,-0.17368 0.704839,-0.25586 1.125,-0.25586 0.41354,0 0.775093,0.0872 1.097656,0.26758 0.329182,0.17534 0.568361,0.4286 0.730469,0.75781 0.102538,0.1952 0.168092,0.39418 0.201172,0.61914 0.02481,0.22 0.04492,0.49938 0.04492,0.8418 v 2.90234 c 0,0.31097 -0.07845,0.54689 -0.220703,0.70899 -0.142258,0.15388 -0.321449,0.23828 -0.554688,0.23828 -0.231584,0 -0.420241,-0.0837 -0.5625,-0.24414 -0.140629,-0.1687 -0.21875,-0.39876 -0.21875,-0.70313 v -2.59765 c 0,-0.51113 -0.07063,-0.90645 -0.212891,-1.17774 -0.142255,-0.27129 -0.428695,-0.41211 -0.855468,-0.41211 -0.2779,0 -0.529238,0.0849 -0.75586,0.25196 -0.233238,0.1687 -0.399688,0.3913 -0.503906,0.67578 -0.07609,0.23324 -0.117187,0.67478 -0.117187,1.30664 v 1.95312 c -10e-7,0.31593 -0.06987,0.55348 -0.21875,0.70899 -0.148875,0.16038 -0.336776,0.23828 -0.56836,0.23828 -0.220005,0 -0.406566,-0.0837 -0.548828,-0.24414 -0.147228,-0.16872 -0.21875,-0.39876 -0.21875,-0.70313 v -4.5039 c 0,-0.29609 0.06434,-0.51789 0.193359,-0.66016 0.129026,-0.14877 0.309292,-0.22461 0.529297,-0.22461 z m 27.41211,0 c 0.1406,0 0.263871,0.0311 0.373046,0.0957 0.109176,0.0645 0.19134,0.16032 0.25586,0.29102 0.07112,0.12903 0.105469,0.2907 0.105469,0.47266 v 0.1914 c 0.277897,-0.36226 0.574219,-0.62621 0.898437,-0.79492 0.329181,-0.17368 0.706496,-0.25586 1.125,-0.25586 0.413544,0 0.775392,0.0872 1.09961,0.26758 0.329177,0.17534 0.566409,0.4286 0.728515,0.75781 0.102546,0.1952 0.166129,0.39418 0.199219,0.61914 0.02649,0.22 0.04687,0.49938 0.04687,0.8418 v 2.90234 c 0,0.31097 -0.07815,0.54689 -0.21875,0.70899 -0.14226,0.15388 -0.325058,0.23828 -0.556641,0.23828 -0.233239,0 -0.42024,-0.0837 -0.5625,-0.24414 -0.142252,-0.1687 -0.220703,-0.39876 -0.220703,-0.70313 v -2.59765 c 0,-0.51113 -0.07063,-0.90645 -0.212891,-1.17774 -0.142256,-0.27129 -0.426743,-0.41211 -0.853515,-0.41211 -0.277901,0 -0.529242,0.0849 -0.755859,0.25196 -0.231584,0.1687 -0.399368,0.3913 -0.501954,0.67578 -0.07776,0.23324 -0.11914,0.67478 -0.11914,1.30664 v 1.95312 c 0,0.31593 -0.06957,0.55348 -0.216797,0.70899 -0.148875,0.16038 -0.338728,0.23828 -0.570313,0.23828 -0.220001,0 -0.406569,-0.0837 -0.548828,-0.24414 -0.148861,-0.16872 -0.21875,-0.39876 -0.21875,-0.70313 v -4.5039 c 0,-0.29609 0.06433,-0.51789 0.19336,-0.66016 0.129022,-0.14877 0.311245,-0.22461 0.53125,-0.22461 z m -32.324219,1.07227 c -0.387077,0 -0.709803,0.13691 -0.962891,0.4082 -0.244816,0.26468 -0.391316,0.65817 -0.449216,1.1875 h 2.830076 c -0.0397,-0.53592 -0.187123,-0.93066 -0.433594,-1.19531 -0.251432,-0.26468 -0.575795,-0.40039 -0.984375,-0.40039 z m 28.535156,2.13281 c -0.231585,0.0844 -0.561943,0.16577 -1.001953,0.26367 -0.433393,0.091 -0.734377,0.16223 -0.896484,0.20703 -0.168724,0.0381 -0.328886,0.13075 -0.484375,0.25977 -0.148881,0.12246 -0.228516,0.30236 -0.228516,0.52734 0,0.23324 0.09118,0.43867 0.271484,0.60742 0.175342,0.16064 0.408085,0.2461 0.699219,0.2461 0.310983,0 0.593513,-0.0702 0.851563,-0.19922 0.258048,-0.14227 0.454061,-0.31786 0.578125,-0.53125 0.140597,-0.23324 0.210937,-0.61955 0.210937,-1.16211 z m -16.894531,6.16992 c 0.2382,0 0.420556,0.0691 0.542969,0.22461 0.129002,0.14887 0.191406,0.3707 0.191406,0.66016 v 6.87695 c 0,0.2961 -0.06358,0.51321 -0.199219,0.66211 -0.142258,0.14885 -0.316807,0.22852 -0.535156,0.22852 -0.213388,0 -0.390945,-0.0797 -0.533203,-0.22852 -0.135663,-0.16212 -0.207031,-0.37923 -0.207031,-0.66211 v -0.15625 c -0.206772,0.2382 -0.412369,0.43704 -0.619141,0.58594 -0.200154,0.14886 -0.421959,0.26679 -0.660156,0.33789 -0.239855,0.0842 -0.494782,0.12305 -0.779297,0.12305 -0.367225,0 -0.717557,-0.077 -1.035156,-0.23243 -0.315946,-0.1621 -0.593693,-0.38661 -0.820313,-0.67773 -0.233239,-0.29777 -0.414697,-0.64145 -0.537109,-1.03516 -0.115764,-0.4003 -0.173829,-0.82692 -0.173828,-1.28515 0,-0.97594 0.239497,-1.73208 0.710937,-2.28125 0.478054,-0.54258 1.103102,-0.81446 1.878906,-0.81446 0.451588,0 0.827389,0.077 1.136719,0.23243 0.310985,0.15551 0.607303,0.38867 0.898438,0.71289 v -2.30274 c 0,-0.32254 0.06629,-0.56218 0.195312,-0.72265 0.130679,-0.16896 0.311684,-0.2461 0.544922,-0.2461 z m 32.474609,0 c 0.233234,0 0.426105,0.0782 0.56836,0.24024 0.148859,0.15383 0.21875,0.38745 0.21875,0.70507 v 6.75391 c 0,0.31759 -0.07574,0.5586 -0.22461,0.7207 -0.142254,0.15542 -0.329266,0.23243 -0.5625,0.23243 -0.224971,0 -0.415279,-0.084 -0.5625,-0.2461 -0.135664,-0.16047 -0.205078,-0.40268 -0.205078,-0.70703 v -6.75391 c 0,-0.31098 0.06358,-0.55124 0.199219,-0.70507 0.142259,-0.16221 0.330159,-0.24024 0.568359,-0.24024 z m -14.001953,0.14258 h 2.177734 c 0.640164,0 1.134152,0.0441 1.476563,0.14844 0.34407,0.0909 0.640247,0.25262 0.886719,0.47265 0.251432,0.22001 0.439334,0.4907 0.568359,0.80664 0.135619,0.3242 0.201172,0.68473 0.201172,1.08008 0,0.85187 -0.266345,1.49672 -0.789063,1.94336 -0.529333,0.4317 -1.309894,0.65235 -2.34375,0.65235 h -1.55664 v 2.37109 c 0,0.33581 -0.07813,0.59613 -0.240234,0.77148 -0.162108,0.17382 -0.361408,0.26368 -0.59961,0.26368 -0.259704,0 -0.465601,-0.0844 -0.621094,-0.25977 -0.155505,-0.17371 -0.232421,-0.42426 -0.232422,-0.76172 v -6.45703 c 10e-7,-0.36887 0.08217,-0.63058 0.25586,-0.79102 0.168725,-0.16221 0.44091,-0.24023 0.816406,-0.24023 z m 0.621094,1.27148 v 2.55469 h 1.140625 c 0.400306,0 0.730667,-0.0427 1.001953,-0.12695 0.266321,-0.0827 0.472978,-0.21498 0.615234,-0.41016 0.140593,-0.18693 0.212891,-0.43976 0.212891,-0.74414 0,-0.36722 -0.110073,-0.67106 -0.330078,-0.9043 -0.238201,-0.24481 -0.744047,-0.36915 -1.5,-0.36914 z m -38.351562,0.89258 h 0.002 c 0.68384,1.6e-4 1.21834,0.0761 1.61328,0.23633 0.38708,0.1621 0.66406,0.42248 0.82618,0.77149 0.16063,0.34904 0.24414,0.81301 0.24414,1.38867 0,0.36885 -8.6e-4,0.67823 -0.006,0.92968 0,0.25967 10e-4,0.54419 -0.004,0.85352 0,0.29113 0.0466,0.60036 0.14258,0.91797 0.0977,0.31594 0.14844,0.52258 0.14844,0.61328 0,0.16047 -0.0757,0.30383 -0.22461,0.43945 -0.14888,0.13079 -0.31821,0.19532 -0.51172,0.19532 -0.16212,0 -0.31714,-0.0797 -0.47266,-0.22852 -0.15381,-0.14886 -0.32239,-0.36587 -0.49609,-0.65039 -0.37549,0.29112 -0.74366,0.50934 -1.09766,0.6582 -0.34901,0.14901 -0.74597,0.22071 -1.17773,0.22071 -0.40031,0 -0.75423,-0.077 -1.0586,-0.23243 -0.29773,-0.1621 -0.53048,-0.3752 -0.69922,-0.64648 -0.1606,-0.27129 -0.24414,-0.56325 -0.24414,-0.88086 0,-0.4268 0.13301,-0.78547 0.4043,-1.08984 0.27128,-0.30437 0.64186,-0.50492 1.11328,-0.60743 0.10258,-0.0198 0.34925,-0.0707 0.73633,-0.14843 0.39369,-0.0844 0.72991,-0.15611 1.00781,-0.22071 0.27791,-0.071 0.58097,-0.14824 0.91016,-0.24414 -0.0199,-0.41355 -0.10312,-0.71274 -0.25195,-0.90625 -0.14225,-0.19377 -0.44413,-0.29101 -0.90235,-0.29101 -0.39366,0 -0.70024,0.0591 -0.90039,0.16992 -0.20015,0.10918 -0.36752,0.27773 -0.50976,0.49609 -0.14226,0.21998 -0.24669,0.36836 -0.30469,0.43946 -0.0579,0.0646 -0.18266,0.10349 -0.38281,0.10351 -0.17372,0 -0.32021,-0.0589 -0.44922,-0.16797 -0.1288,-0.11574 -0.1875,-0.25824 -0.1875,-0.43359 0,-0.27128 0.0955,-0.54272 0.28906,-0.80078 0.1952,-0.25804 0.49934,-0.47188 0.90625,-0.64063 0.41307,-0.16694 0.92432,-0.24397 1.53711,-0.24414 z m 24.322265,0 c 0.60708,0 1.130761,0.12868 1.5625,0.38672 0.44001,0.25142 0.764371,0.58134 0.984375,0.98828 0.213384,0.40692 0.322266,0.8279 0.322266,1.24805 0,0.3937 -0.111269,0.64618 -0.337891,0.76367 -0.224966,0.11584 -0.535677,0.17188 -0.949219,0.17188 h -3.042968 c 0,0.35567 0.06943,0.66623 0.205078,0.9375 0.142258,0.26632 0.331672,0.47372 0.55664,0.60937 0.23324,0.13547 0.491631,0.20507 0.769532,0.20508 0.180304,0 0.356984,-0.0181 0.505859,-0.0625 0.155492,-0.0463 0.308914,-0.11299 0.451172,-0.20899 0.142261,-0.0909 0.277978,-0.19436 0.40039,-0.29687 0.124063,-0.11078 0.275513,-0.25086 0.470703,-0.43945 0.07609,-0.0643 0.196827,-0.0957 0.345704,-0.0957 0.16045,0 0.287135,0.0363 0.384765,0.12696 0.09761,0.0844 0.150391,0.21531 0.150391,0.36914 0,0.14227 -0.05128,0.3111 -0.16211,0.49804 -0.115785,0.18855 -0.277285,0.36734 -0.503906,0.54102 -0.218351,0.17533 -0.504049,0.3206 -0.839844,0.42969 -0.33745,0.11577 -0.724809,0.17383 -1.158203,0.17383 -1.000771,0 -1.784044,-0.28372 -2.339843,-0.85938 -0.555801,-0.56902 -0.833985,-1.34436 -0.833985,-2.32031 0,-0.45988 0.07334,-0.88591 0.208985,-1.28125 0.135637,-0.39367 0.334942,-0.73577 0.599609,-1.01367 0.258051,-0.28453 0.588591,-0.49762 0.970703,-0.64649 0.387075,-0.15398 0.807857,-0.22461 1.279297,-0.22461 z m -32.935545,0.006 c 0.25804,0 0.43535,0.0757 0.53125,0.22461 0.0976,0.14887 0.20476,0.39512 0.32226,0.74414 l 1.26758,3.54102 1.35742,-3.6875 c 0.10261,-0.29775 0.20426,-0.51245 0.3086,-0.63477 0.10422,-0.12229 0.25732,-0.1875 0.4707,-0.1875 0.19352,0 0.36164,0.0721 0.50391,0.20117 0.13597,0.13564 0.20898,0.28756 0.20898,0.46289 0,0.0645 -0.0146,0.15084 -0.041,0.24024 -0.0248,0.0909 -0.0526,0.17556 -0.084,0.25976 -0.0332,0.0778 -0.0676,0.16519 -0.10742,0.26954 L -111.83203,127 c -0.0447,0.10918 -0.0969,0.24415 -0.16797,0.40625 -0.0645,0.16211 -0.14366,0.3062 -0.22656,0.42187 -0.0778,0.11575 -0.18103,0.20689 -0.29688,0.27149 -0.12245,0.0639 -0.26293,0.0957 -0.43164,0.0957 -0.22665,0 -0.40342,-0.0526 -0.53906,-0.14843 -0.12902,-0.10422 -0.22642,-0.21243 -0.29102,-0.32813 -0.0579,-0.12407 -0.15772,-0.36309 -0.30664,-0.71875 l -1.48828,-3.67188 c -0.0314,-0.0893 -0.0715,-0.17883 -0.10937,-0.26953 -0.0333,-0.0893 -0.0653,-0.18725 -0.0918,-0.28515 -0.0224,-0.0893 -0.0312,-0.17368 -0.0312,-0.23828 0,-0.11078 0.0331,-0.21206 0.0977,-0.31641 0.0645,-0.10918 0.15458,-0.19517 0.26367,-0.25977 0.11748,-0.0645 0.23934,-0.10156 0.375,-0.10156 z m 13.5625,0 c 0.13565,0 0.25831,0.0292 0.36914,0.0937 0.10918,0.0645 0.20112,0.16394 0.26562,0.29297 0.0645,0.12902 0.10157,0.29161 0.10157,0.47852 v 0.18554 c 0.27294,-0.36061 0.57031,-0.62785 0.894528,-0.79492 0.329173,-0.16857 0.700939,-0.25586 1.121093,-0.25586 0.413544,0 0.782906,0.0895 1.105469,0.27149 0.322566,0.17369 0.562506,0.43165 0.724609,0.75586 0.102538,0.19354 0.168102,0.40109 0.201172,0.62109 0.03147,0.22 0.04297,0.49578 0.04297,0.83984 v 2.89844 c 0,0.31098 -0.07182,0.55077 -0.220703,0.71289 -0.135638,0.15569 -0.320258,0.23828 -0.546875,0.23828 -0.231585,0 -0.41919,-0.084 -0.566406,-0.24609 -0.142293,-0.16046 -0.212891,-0.40072 -0.212891,-0.70508 v -2.5957 c 0,-0.50947 -0.07183,-0.90645 -0.220703,-1.17774 -0.142264,-0.27128 -0.422834,-0.40625 -0.84961,-0.40625 -0.2779,0 -0.533153,0.0849 -0.759763,0.25196 -0.22662,0.16211 -0.39504,0.38854 -0.50586,0.67968 -0.0711,0.23159 -0.10938,0.66527 -0.10938,1.29883 v 1.94922 c 0,0.3176 -0.0777,0.55665 -0.22656,0.71875 -0.14227,0.15542 -0.32731,0.23242 -0.56055,0.23242 -0.22497,0 -0.41603,-0.084 -0.55664,-0.24609 -0.14223,-0.16046 -0.21289,-0.40072 -0.21289,-0.70508 v -4.50195 c 0,-0.29775 0.0643,-0.5179 0.19336,-0.66016 0.12904,-0.14866 0.3027,-0.22461 0.5293,-0.22461 z m 24.302732,0 c 0.258051,0 0.444762,0.0821 0.560547,0.24414 0.110812,0.16874 0.176206,0.40702 0.189453,0.72461 0.18692,-0.31759 0.372869,-0.55587 0.566407,-0.72461 0.201809,-0.16193 0.461837,-0.24414 0.791015,-0.24414 0.329179,0 0.647701,0.0821 0.957032,0.24414 0.304364,0.16874 0.457031,0.38301 0.457031,0.6543 0,0.18693 -0.06553,0.34824 -0.201172,0.4707 -0.129026,0.12227 -0.269093,0.18555 -0.417969,0.18555 -0.0579,0 -0.194955,-0.037 -0.419922,-0.10156 -0.213384,-0.0777 -0.409101,-0.11133 -0.576172,-0.11133 -0.226618,0 -0.412429,0.0576 -0.554687,0.18164 -0.148876,0.11576 -0.257417,0.29801 -0.341797,0.53125 -0.07775,0.2382 -0.130972,0.51486 -0.164062,0.8457 -0.03145,0.32255 -0.04492,0.71606 -0.04492,1.1875 v 1.29883 c 0,0.3176 -0.07769,0.55665 -0.226563,0.71875 -0.148875,0.15542 -0.333926,0.23242 -0.560547,0.23242 -0.224965,0 -0.409721,-0.0828 -0.558593,-0.23828 -0.14223,-0.16212 -0.210938,-0.40191 -0.210938,-0.71289 v -4.33594 c 0,-0.70303 0.25134,-1.05078 0.755859,-1.05078 z m 17.369141,0 c 0.471439,0 0.903045,0.0749 1.285156,0.23047 0.387075,0.14887 0.712335,0.36859 0.990235,0.64649 0.271281,0.28449 0.478833,0.62073 0.621094,1.00781 0.147218,0.38872 0.218749,0.81404 0.21875,1.28711 0,0.45821 -0.07153,0.8922 -0.21875,1.27929 -0.142261,0.39367 -0.355669,0.72916 -0.626954,1.01368 -0.271278,0.2779 -0.603917,0.4976 -0.984375,0.64648 -0.382111,0.14907 -0.8071,0.22656 -1.285156,0.22656 -0.473089,0 -0.891328,-0.077 -1.273437,-0.23242 -0.375498,-0.14888 -0.704523,-0.36859 -0.982422,-0.64648 -0.271285,-0.28287 -0.478081,-0.62076 -0.626953,-1.00782 -0.142255,-0.38709 -0.205079,-0.81447 -0.205079,-1.27929 0,-0.47307 0.07063,-0.90348 0.212891,-1.29883 0.142258,-0.39368 0.354473,-0.72209 0.619141,-1 0.271281,-0.2779 0.601962,-0.49371 0.982422,-0.64258 0.387072,-0.15561 0.806965,-0.23047 1.273437,-0.23047 z m -22.349609,1.07031 c -0.388729,0 -0.712215,0.13692 -0.957032,0.40821 -0.253086,0.26466 -0.400207,0.66507 -0.453124,1.18945 h 2.822265 c -0.03805,-0.53596 -0.180207,-0.93261 -0.431641,-1.19727 -0.246469,-0.26465 -0.573544,-0.40039 -0.980468,-0.40039 z m 22.349609,0.0859 c -0.304366,0 -0.567541,0.0759 -0.800781,0.23633 -0.231583,0.15549 -0.414696,0.38793 -0.53711,0.69727 -0.129024,0.30436 -0.185546,0.66851 -0.185546,1.08203 0,0.40692 0.05729,0.76368 0.179687,1.0664 0.122413,0.30435 0.302379,0.53515 0.527344,0.69727 0.23324,0.16194 0.505424,0.24414 0.816406,0.24414 0.471439,0 0.845149,-0.17951 1.123047,-0.53516 0.284521,-0.35564 0.427734,-0.84737 0.427734,-1.47265 0,-0.64015 -0.143213,-1.13069 -0.427734,-1.48633 -0.277898,-0.35565 -0.651608,-0.52929 -1.123047,-0.5293 z m -29.691406,0.006 c -0.284519,0 -0.543667,0.0837 -0.763672,0.24414 -0.224967,0.1621 -0.400273,0.39292 -0.529297,0.69727 -0.122411,0.30438 -0.177734,0.6544 -0.177734,1.05468 0,0.42017 0.06238,0.7804 0.191406,1.07813 0.135642,0.29777 0.314395,0.51808 0.541016,0.67187 0.226618,0.14901 0.480672,0.22071 0.751953,0.22071 0.271283,0 0.523836,-0.0648 0.742187,-0.20703 0.233237,-0.14886 0.413944,-0.36212 0.542969,-0.65821 0.142247,-0.29775 0.207031,-0.66711 0.207031,-1.10547 0,-0.4135 -0.06477,-0.77058 -0.207031,-1.06835 -0.129025,-0.30271 -0.316348,-0.52812 -0.542969,-0.6836 -0.231585,-0.16065 -0.484577,-0.24414 -0.755859,-0.24414 z m -15.773437,2.03906 c -0.22664,0.0844 -0.56043,0.17428 -0.99219,0.26368 -0.43998,0.0976 -0.73916,0.16458 -0.90625,0.20898 -0.16873,0.0463 -0.32962,0.12911 -0.47851,0.25977 -0.15542,0.12245 -0.23243,0.3007 -0.23243,0.52734 0,0.2382 0.0911,0.44064 0.27149,0.60937 0.18195,0.16192 0.41199,0.24414 0.70312,0.24415 0.30437,-1e-5 0.58794,-0.0705 0.84766,-0.20118 0.26465,-0.13564 0.45842,-0.31473 0.57422,-0.52148 0.14225,-0.23987 0.21289,-0.62735 0.21289,-1.16992 z" />
  </g>
</svg>
