%TF.GenerationSoftware,KiCad,Pcbnew,(6.0.0)*%
%TF.CreationDate,2022-01-06T15:15:50+01:00*%
%TF.ProjectId,Interconnect PCB,496e7465-7263-46f6-9e6e-656374205043,rev?*%
%TF.SameCoordinates,Original*%
%TF.FileFunction,Legend,Top*%
%TF.FilePolarity,Positive*%
%FSLAX46Y46*%
G04 Gerber Fmt 4.6, Leading zero omitted, Abs format (unit mm)*
G04 Created by KiCad (PCBNEW (6.0.0)) date 2022-01-06 15:15:50*
%MOMM*%
%LPD*%
G01*
G04 APERTURE LIST*
%ADD10C,0.150000*%
%ADD11C,0.120000*%
G04 APERTURE END LIST*
D10*
%TO.C,U7*%
X104238095Y-129388380D02*
X104238095Y-130197904D01*
X104285714Y-130293142D01*
X104333333Y-130340761D01*
X104428571Y-130388380D01*
X104619047Y-130388380D01*
X104714285Y-130340761D01*
X104761904Y-130293142D01*
X104809523Y-130197904D01*
X104809523Y-129388380D01*
X105190476Y-129388380D02*
X105857142Y-129388380D01*
X105428571Y-130388380D01*
X104143142Y-128864380D02*
X104143142Y-127864380D01*
X104381238Y-127864380D01*
X104524095Y-127912000D01*
X104619333Y-128007238D01*
X104666952Y-128102476D01*
X104714571Y-128292952D01*
X104714571Y-128435809D01*
X104666952Y-128626285D01*
X104619333Y-128721523D01*
X104524095Y-128816761D01*
X104381238Y-128864380D01*
X104143142Y-128864380D01*
X105095523Y-128816761D02*
X105238380Y-128864380D01*
X105476476Y-128864380D01*
X105571714Y-128816761D01*
X105619333Y-128769142D01*
X105666952Y-128673904D01*
X105666952Y-128578666D01*
X105619333Y-128483428D01*
X105571714Y-128435809D01*
X105476476Y-128388190D01*
X105286000Y-128340571D01*
X105190761Y-128292952D01*
X105143142Y-128245333D01*
X105095523Y-128150095D01*
X105095523Y-128054857D01*
X105143142Y-127959619D01*
X105190761Y-127912000D01*
X105286000Y-127864380D01*
X105524095Y-127864380D01*
X105666952Y-127912000D01*
X106619333Y-128864380D02*
X106047904Y-128864380D01*
X106333619Y-128864380D02*
X106333619Y-127864380D01*
X106238380Y-128007238D01*
X106143142Y-128102476D01*
X106047904Y-128150095D01*
X107190761Y-128292952D02*
X107095523Y-128245333D01*
X107047904Y-128197714D01*
X107000285Y-128102476D01*
X107000285Y-128054857D01*
X107047904Y-127959619D01*
X107095523Y-127912000D01*
X107190761Y-127864380D01*
X107381238Y-127864380D01*
X107476476Y-127912000D01*
X107524095Y-127959619D01*
X107571714Y-128054857D01*
X107571714Y-128102476D01*
X107524095Y-128197714D01*
X107476476Y-128245333D01*
X107381238Y-128292952D01*
X107190761Y-128292952D01*
X107095523Y-128340571D01*
X107047904Y-128388190D01*
X107000285Y-128483428D01*
X107000285Y-128673904D01*
X107047904Y-128769142D01*
X107095523Y-128816761D01*
X107190761Y-128864380D01*
X107381238Y-128864380D01*
X107476476Y-128816761D01*
X107524095Y-128769142D01*
X107571714Y-128673904D01*
X107571714Y-128483428D01*
X107524095Y-128388190D01*
X107476476Y-128340571D01*
X107381238Y-128292952D01*
X108333619Y-128340571D02*
X108476476Y-128388190D01*
X108524095Y-128435809D01*
X108571714Y-128531047D01*
X108571714Y-128673904D01*
X108524095Y-128769142D01*
X108476476Y-128816761D01*
X108381238Y-128864380D01*
X108000285Y-128864380D01*
X108000285Y-127864380D01*
X108333619Y-127864380D01*
X108428857Y-127912000D01*
X108476476Y-127959619D01*
X108524095Y-128054857D01*
X108524095Y-128150095D01*
X108476476Y-128245333D01*
X108428857Y-128292952D01*
X108333619Y-128340571D01*
X108000285Y-128340571D01*
X108952666Y-127959619D02*
X109000285Y-127912000D01*
X109095523Y-127864380D01*
X109333619Y-127864380D01*
X109428857Y-127912000D01*
X109476476Y-127959619D01*
X109524095Y-128054857D01*
X109524095Y-128150095D01*
X109476476Y-128292952D01*
X108905047Y-128864380D01*
X109524095Y-128864380D01*
X110143142Y-127864380D02*
X110238380Y-127864380D01*
X110333619Y-127912000D01*
X110381238Y-127959619D01*
X110428857Y-128054857D01*
X110476476Y-128245333D01*
X110476476Y-128483428D01*
X110428857Y-128673904D01*
X110381238Y-128769142D01*
X110333619Y-128816761D01*
X110238380Y-128864380D01*
X110143142Y-128864380D01*
X110047904Y-128816761D01*
X110000285Y-128769142D01*
X109952666Y-128673904D01*
X109905047Y-128483428D01*
X109905047Y-128245333D01*
X109952666Y-128054857D01*
X110000285Y-127959619D01*
X110047904Y-127912000D01*
X110143142Y-127864380D01*
X108563780Y-134452380D02*
X108563780Y-133452380D01*
X108801875Y-133452380D01*
X108944733Y-133500000D01*
X109039971Y-133595238D01*
X109087590Y-133690476D01*
X109135209Y-133880952D01*
X109135209Y-134023809D01*
X109087590Y-134214285D01*
X109039971Y-134309523D01*
X108944733Y-134404761D01*
X108801875Y-134452380D01*
X108563780Y-134452380D01*
X110230447Y-134547619D02*
X110135209Y-134500000D01*
X110039971Y-134404761D01*
X109897114Y-134261904D01*
X109801875Y-134214285D01*
X109706637Y-134214285D01*
X109754256Y-134452380D02*
X109659018Y-134404761D01*
X109563780Y-134309523D01*
X109516161Y-134119047D01*
X109516161Y-133785714D01*
X109563780Y-133595238D01*
X109659018Y-133500000D01*
X109754256Y-133452380D01*
X109944733Y-133452380D01*
X110039971Y-133500000D01*
X110135209Y-133595238D01*
X110182828Y-133785714D01*
X110182828Y-134119047D01*
X110135209Y-134309523D01*
X110039971Y-134404761D01*
X109944733Y-134452380D01*
X109754256Y-134452380D01*
X108587590Y-131540000D02*
X108492352Y-131492380D01*
X108349495Y-131492380D01*
X108206637Y-131540000D01*
X108111399Y-131635238D01*
X108063780Y-131730476D01*
X108016161Y-131920952D01*
X108016161Y-132063809D01*
X108063780Y-132254285D01*
X108111399Y-132349523D01*
X108206637Y-132444761D01*
X108349495Y-132492380D01*
X108444733Y-132492380D01*
X108587590Y-132444761D01*
X108635209Y-132397142D01*
X108635209Y-132063809D01*
X108444733Y-132063809D01*
X109063780Y-132492380D02*
X109063780Y-131492380D01*
X109635209Y-132492380D01*
X109635209Y-131492380D01*
X110111399Y-132492380D02*
X110111399Y-131492380D01*
X110349495Y-131492380D01*
X110492352Y-131540000D01*
X110587590Y-131635238D01*
X110635209Y-131730476D01*
X110682828Y-131920952D01*
X110682828Y-132063809D01*
X110635209Y-132254285D01*
X110587590Y-132349523D01*
X110492352Y-132444761D01*
X110349495Y-132492380D01*
X110111399Y-132492380D01*
X108270161Y-135302380D02*
X108603495Y-136302380D01*
X108936828Y-135302380D01*
X109270161Y-136302380D02*
X109270161Y-135302380D01*
X109508256Y-135302380D01*
X109651114Y-135350000D01*
X109746352Y-135445238D01*
X109793971Y-135540476D01*
X109841590Y-135730952D01*
X109841590Y-135873809D01*
X109793971Y-136064285D01*
X109746352Y-136159523D01*
X109651114Y-136254761D01*
X109508256Y-136302380D01*
X109270161Y-136302380D01*
X110270161Y-136302380D02*
X110270161Y-135302380D01*
X110508256Y-135302380D01*
X110651114Y-135350000D01*
X110746352Y-135445238D01*
X110793971Y-135540476D01*
X110841590Y-135730952D01*
X110841590Y-135873809D01*
X110793971Y-136064285D01*
X110746352Y-136159523D01*
X110651114Y-136254761D01*
X110508256Y-136302380D01*
X110270161Y-136302380D01*
%TO.C,U6*%
X104269590Y-63587380D02*
X104269590Y-64396904D01*
X104317209Y-64492142D01*
X104364828Y-64539761D01*
X104460066Y-64587380D01*
X104650542Y-64587380D01*
X104745780Y-64539761D01*
X104793399Y-64492142D01*
X104841018Y-64396904D01*
X104841018Y-63587380D01*
X105745780Y-63587380D02*
X105555304Y-63587380D01*
X105460066Y-63635000D01*
X105412447Y-63682619D01*
X105317209Y-63825476D01*
X105269590Y-64015952D01*
X105269590Y-64396904D01*
X105317209Y-64492142D01*
X105364828Y-64539761D01*
X105460066Y-64587380D01*
X105650542Y-64587380D01*
X105745780Y-64539761D01*
X105793399Y-64492142D01*
X105841018Y-64396904D01*
X105841018Y-64158809D01*
X105793399Y-64063571D01*
X105745780Y-64015952D01*
X105650542Y-63968333D01*
X105460066Y-63968333D01*
X105364828Y-64015952D01*
X105317209Y-64063571D01*
X105269590Y-64158809D01*
X106712142Y-64587380D02*
X106712142Y-63587380D01*
X106950238Y-63587380D01*
X107093095Y-63635000D01*
X107188333Y-63730238D01*
X107235952Y-63825476D01*
X107283571Y-64015952D01*
X107283571Y-64158809D01*
X107235952Y-64349285D01*
X107188333Y-64444523D01*
X107093095Y-64539761D01*
X106950238Y-64587380D01*
X106712142Y-64587380D01*
X107664523Y-64539761D02*
X107807380Y-64587380D01*
X108045476Y-64587380D01*
X108140714Y-64539761D01*
X108188333Y-64492142D01*
X108235952Y-64396904D01*
X108235952Y-64301666D01*
X108188333Y-64206428D01*
X108140714Y-64158809D01*
X108045476Y-64111190D01*
X107855000Y-64063571D01*
X107759761Y-64015952D01*
X107712142Y-63968333D01*
X107664523Y-63873095D01*
X107664523Y-63777857D01*
X107712142Y-63682619D01*
X107759761Y-63635000D01*
X107855000Y-63587380D01*
X108093095Y-63587380D01*
X108235952Y-63635000D01*
X109188333Y-64587380D02*
X108616904Y-64587380D01*
X108902619Y-64587380D02*
X108902619Y-63587380D01*
X108807380Y-63730238D01*
X108712142Y-63825476D01*
X108616904Y-63873095D01*
X109759761Y-64015952D02*
X109664523Y-63968333D01*
X109616904Y-63920714D01*
X109569285Y-63825476D01*
X109569285Y-63777857D01*
X109616904Y-63682619D01*
X109664523Y-63635000D01*
X109759761Y-63587380D01*
X109950238Y-63587380D01*
X110045476Y-63635000D01*
X110093095Y-63682619D01*
X110140714Y-63777857D01*
X110140714Y-63825476D01*
X110093095Y-63920714D01*
X110045476Y-63968333D01*
X109950238Y-64015952D01*
X109759761Y-64015952D01*
X109664523Y-64063571D01*
X109616904Y-64111190D01*
X109569285Y-64206428D01*
X109569285Y-64396904D01*
X109616904Y-64492142D01*
X109664523Y-64539761D01*
X109759761Y-64587380D01*
X109950238Y-64587380D01*
X110045476Y-64539761D01*
X110093095Y-64492142D01*
X110140714Y-64396904D01*
X110140714Y-64206428D01*
X110093095Y-64111190D01*
X110045476Y-64063571D01*
X109950238Y-64015952D01*
X110902619Y-64063571D02*
X111045476Y-64111190D01*
X111093095Y-64158809D01*
X111140714Y-64254047D01*
X111140714Y-64396904D01*
X111093095Y-64492142D01*
X111045476Y-64539761D01*
X110950238Y-64587380D01*
X110569285Y-64587380D01*
X110569285Y-63587380D01*
X110902619Y-63587380D01*
X110997857Y-63635000D01*
X111045476Y-63682619D01*
X111093095Y-63777857D01*
X111093095Y-63873095D01*
X111045476Y-63968333D01*
X110997857Y-64015952D01*
X110902619Y-64063571D01*
X110569285Y-64063571D01*
X111521666Y-63682619D02*
X111569285Y-63635000D01*
X111664523Y-63587380D01*
X111902619Y-63587380D01*
X111997857Y-63635000D01*
X112045476Y-63682619D01*
X112093095Y-63777857D01*
X112093095Y-63873095D01*
X112045476Y-64015952D01*
X111474047Y-64587380D01*
X112093095Y-64587380D01*
X112712142Y-63587380D02*
X112807380Y-63587380D01*
X112902619Y-63635000D01*
X112950238Y-63682619D01*
X112997857Y-63777857D01*
X113045476Y-63968333D01*
X113045476Y-64206428D01*
X112997857Y-64396904D01*
X112950238Y-64492142D01*
X112902619Y-64539761D01*
X112807380Y-64587380D01*
X112712142Y-64587380D01*
X112616904Y-64539761D01*
X112569285Y-64492142D01*
X112521666Y-64396904D01*
X112474047Y-64206428D01*
X112474047Y-63968333D01*
X112521666Y-63777857D01*
X112569285Y-63682619D01*
X112616904Y-63635000D01*
X112712142Y-63587380D01*
X108434285Y-68452380D02*
X108434285Y-67452380D01*
X108672380Y-67452380D01*
X108815238Y-67500000D01*
X108910476Y-67595238D01*
X108958095Y-67690476D01*
X109005714Y-67880952D01*
X109005714Y-68023809D01*
X108958095Y-68214285D01*
X108910476Y-68309523D01*
X108815238Y-68404761D01*
X108672380Y-68452380D01*
X108434285Y-68452380D01*
X110100952Y-68547619D02*
X110005714Y-68500000D01*
X109910476Y-68404761D01*
X109767619Y-68261904D01*
X109672380Y-68214285D01*
X109577142Y-68214285D01*
X109624761Y-68452380D02*
X109529523Y-68404761D01*
X109434285Y-68309523D01*
X109386666Y-68119047D01*
X109386666Y-67785714D01*
X109434285Y-67595238D01*
X109529523Y-67500000D01*
X109624761Y-67452380D01*
X109815238Y-67452380D01*
X109910476Y-67500000D01*
X110005714Y-67595238D01*
X110053333Y-67785714D01*
X110053333Y-68119047D01*
X110005714Y-68309523D01*
X109910476Y-68404761D01*
X109815238Y-68452380D01*
X109624761Y-68452380D01*
X108458095Y-65468000D02*
X108362857Y-65420380D01*
X108220000Y-65420380D01*
X108077142Y-65468000D01*
X107981904Y-65563238D01*
X107934285Y-65658476D01*
X107886666Y-65848952D01*
X107886666Y-65991809D01*
X107934285Y-66182285D01*
X107981904Y-66277523D01*
X108077142Y-66372761D01*
X108220000Y-66420380D01*
X108315238Y-66420380D01*
X108458095Y-66372761D01*
X108505714Y-66325142D01*
X108505714Y-65991809D01*
X108315238Y-65991809D01*
X108934285Y-66420380D02*
X108934285Y-65420380D01*
X109505714Y-66420380D01*
X109505714Y-65420380D01*
X109981904Y-66420380D02*
X109981904Y-65420380D01*
X110220000Y-65420380D01*
X110362857Y-65468000D01*
X110458095Y-65563238D01*
X110505714Y-65658476D01*
X110553333Y-65848952D01*
X110553333Y-65991809D01*
X110505714Y-66182285D01*
X110458095Y-66277523D01*
X110362857Y-66372761D01*
X110220000Y-66420380D01*
X109981904Y-66420380D01*
X108521666Y-69302380D02*
X108855000Y-70302380D01*
X109188333Y-69302380D01*
X109521666Y-70302380D02*
X109521666Y-69302380D01*
X109759761Y-69302380D01*
X109902619Y-69350000D01*
X109997857Y-69445238D01*
X110045476Y-69540476D01*
X110093095Y-69730952D01*
X110093095Y-69873809D01*
X110045476Y-70064285D01*
X109997857Y-70159523D01*
X109902619Y-70254761D01*
X109759761Y-70302380D01*
X109521666Y-70302380D01*
X110521666Y-70302380D02*
X110521666Y-69302380D01*
X110759761Y-69302380D01*
X110902619Y-69350000D01*
X110997857Y-69445238D01*
X111045476Y-69540476D01*
X111093095Y-69730952D01*
X111093095Y-69873809D01*
X111045476Y-70064285D01*
X110997857Y-70159523D01*
X110902619Y-70254761D01*
X110759761Y-70302380D01*
X110521666Y-70302380D01*
%TO.C,U4*%
X194183095Y-63587380D02*
X194183095Y-64396904D01*
X194230714Y-64492142D01*
X194278333Y-64539761D01*
X194373571Y-64587380D01*
X194564047Y-64587380D01*
X194659285Y-64539761D01*
X194706904Y-64492142D01*
X194754523Y-64396904D01*
X194754523Y-63587380D01*
X195659285Y-63920714D02*
X195659285Y-64587380D01*
X195421190Y-63539761D02*
X195183095Y-64254047D01*
X195802142Y-64254047D01*
X186722142Y-64587380D02*
X186722142Y-63587380D01*
X186960238Y-63587380D01*
X187103095Y-63635000D01*
X187198333Y-63730238D01*
X187245952Y-63825476D01*
X187293571Y-64015952D01*
X187293571Y-64158809D01*
X187245952Y-64349285D01*
X187198333Y-64444523D01*
X187103095Y-64539761D01*
X186960238Y-64587380D01*
X186722142Y-64587380D01*
X187674523Y-64539761D02*
X187817380Y-64587380D01*
X188055476Y-64587380D01*
X188150714Y-64539761D01*
X188198333Y-64492142D01*
X188245952Y-64396904D01*
X188245952Y-64301666D01*
X188198333Y-64206428D01*
X188150714Y-64158809D01*
X188055476Y-64111190D01*
X187865000Y-64063571D01*
X187769761Y-64015952D01*
X187722142Y-63968333D01*
X187674523Y-63873095D01*
X187674523Y-63777857D01*
X187722142Y-63682619D01*
X187769761Y-63635000D01*
X187865000Y-63587380D01*
X188103095Y-63587380D01*
X188245952Y-63635000D01*
X189198333Y-64587380D02*
X188626904Y-64587380D01*
X188912619Y-64587380D02*
X188912619Y-63587380D01*
X188817380Y-63730238D01*
X188722142Y-63825476D01*
X188626904Y-63873095D01*
X189769761Y-64015952D02*
X189674523Y-63968333D01*
X189626904Y-63920714D01*
X189579285Y-63825476D01*
X189579285Y-63777857D01*
X189626904Y-63682619D01*
X189674523Y-63635000D01*
X189769761Y-63587380D01*
X189960238Y-63587380D01*
X190055476Y-63635000D01*
X190103095Y-63682619D01*
X190150714Y-63777857D01*
X190150714Y-63825476D01*
X190103095Y-63920714D01*
X190055476Y-63968333D01*
X189960238Y-64015952D01*
X189769761Y-64015952D01*
X189674523Y-64063571D01*
X189626904Y-64111190D01*
X189579285Y-64206428D01*
X189579285Y-64396904D01*
X189626904Y-64492142D01*
X189674523Y-64539761D01*
X189769761Y-64587380D01*
X189960238Y-64587380D01*
X190055476Y-64539761D01*
X190103095Y-64492142D01*
X190150714Y-64396904D01*
X190150714Y-64206428D01*
X190103095Y-64111190D01*
X190055476Y-64063571D01*
X189960238Y-64015952D01*
X190912619Y-64063571D02*
X191055476Y-64111190D01*
X191103095Y-64158809D01*
X191150714Y-64254047D01*
X191150714Y-64396904D01*
X191103095Y-64492142D01*
X191055476Y-64539761D01*
X190960238Y-64587380D01*
X190579285Y-64587380D01*
X190579285Y-63587380D01*
X190912619Y-63587380D01*
X191007857Y-63635000D01*
X191055476Y-63682619D01*
X191103095Y-63777857D01*
X191103095Y-63873095D01*
X191055476Y-63968333D01*
X191007857Y-64015952D01*
X190912619Y-64063571D01*
X190579285Y-64063571D01*
X191531666Y-63682619D02*
X191579285Y-63635000D01*
X191674523Y-63587380D01*
X191912619Y-63587380D01*
X192007857Y-63635000D01*
X192055476Y-63682619D01*
X192103095Y-63777857D01*
X192103095Y-63873095D01*
X192055476Y-64015952D01*
X191484047Y-64587380D01*
X192103095Y-64587380D01*
X192722142Y-63587380D02*
X192817380Y-63587380D01*
X192912619Y-63635000D01*
X192960238Y-63682619D01*
X193007857Y-63777857D01*
X193055476Y-63968333D01*
X193055476Y-64206428D01*
X193007857Y-64396904D01*
X192960238Y-64492142D01*
X192912619Y-64539761D01*
X192817380Y-64587380D01*
X192722142Y-64587380D01*
X192626904Y-64539761D01*
X192579285Y-64492142D01*
X192531666Y-64396904D01*
X192484047Y-64206428D01*
X192484047Y-63968333D01*
X192531666Y-63777857D01*
X192579285Y-63682619D01*
X192626904Y-63635000D01*
X192722142Y-63587380D01*
X189714285Y-68452380D02*
X189714285Y-67452380D01*
X189952380Y-67452380D01*
X190095238Y-67500000D01*
X190190476Y-67595238D01*
X190238095Y-67690476D01*
X190285714Y-67880952D01*
X190285714Y-68023809D01*
X190238095Y-68214285D01*
X190190476Y-68309523D01*
X190095238Y-68404761D01*
X189952380Y-68452380D01*
X189714285Y-68452380D01*
X191380952Y-68547619D02*
X191285714Y-68500000D01*
X191190476Y-68404761D01*
X191047619Y-68261904D01*
X190952380Y-68214285D01*
X190857142Y-68214285D01*
X190904761Y-68452380D02*
X190809523Y-68404761D01*
X190714285Y-68309523D01*
X190666666Y-68119047D01*
X190666666Y-67785714D01*
X190714285Y-67595238D01*
X190809523Y-67500000D01*
X190904761Y-67452380D01*
X191095238Y-67452380D01*
X191190476Y-67500000D01*
X191285714Y-67595238D01*
X191333333Y-67785714D01*
X191333333Y-68119047D01*
X191285714Y-68309523D01*
X191190476Y-68404761D01*
X191095238Y-68452380D01*
X190904761Y-68452380D01*
X194183095Y-71564000D02*
X194087857Y-71516380D01*
X193945000Y-71516380D01*
X193802142Y-71564000D01*
X193706904Y-71659238D01*
X193659285Y-71754476D01*
X193611666Y-71944952D01*
X193611666Y-72087809D01*
X193659285Y-72278285D01*
X193706904Y-72373523D01*
X193802142Y-72468761D01*
X193945000Y-72516380D01*
X194040238Y-72516380D01*
X194183095Y-72468761D01*
X194230714Y-72421142D01*
X194230714Y-72087809D01*
X194040238Y-72087809D01*
X194659285Y-72516380D02*
X194659285Y-71516380D01*
X195230714Y-72516380D01*
X195230714Y-71516380D01*
X195706904Y-72516380D02*
X195706904Y-71516380D01*
X195945000Y-71516380D01*
X196087857Y-71564000D01*
X196183095Y-71659238D01*
X196230714Y-71754476D01*
X196278333Y-71944952D01*
X196278333Y-72087809D01*
X196230714Y-72278285D01*
X196183095Y-72373523D01*
X196087857Y-72468761D01*
X195945000Y-72516380D01*
X195706904Y-72516380D01*
X189094666Y-65674380D02*
X189428000Y-66674380D01*
X189761333Y-65674380D01*
X190094666Y-66674380D02*
X190094666Y-65674380D01*
X190332761Y-65674380D01*
X190475619Y-65722000D01*
X190570857Y-65817238D01*
X190618476Y-65912476D01*
X190666095Y-66102952D01*
X190666095Y-66245809D01*
X190618476Y-66436285D01*
X190570857Y-66531523D01*
X190475619Y-66626761D01*
X190332761Y-66674380D01*
X190094666Y-66674380D01*
X191094666Y-66674380D02*
X191094666Y-65674380D01*
X191332761Y-65674380D01*
X191475619Y-65722000D01*
X191570857Y-65817238D01*
X191618476Y-65912476D01*
X191666095Y-66102952D01*
X191666095Y-66245809D01*
X191618476Y-66436285D01*
X191570857Y-66531523D01*
X191475619Y-66626761D01*
X191332761Y-66674380D01*
X191094666Y-66674380D01*
%TO.C,U5*%
X194238095Y-129627380D02*
X194238095Y-130436904D01*
X194285714Y-130532142D01*
X194333333Y-130579761D01*
X194428571Y-130627380D01*
X194619047Y-130627380D01*
X194714285Y-130579761D01*
X194761904Y-130532142D01*
X194809523Y-130436904D01*
X194809523Y-129627380D01*
X195761904Y-129627380D02*
X195285714Y-129627380D01*
X195238095Y-130103571D01*
X195285714Y-130055952D01*
X195380952Y-130008333D01*
X195619047Y-130008333D01*
X195714285Y-130055952D01*
X195761904Y-130103571D01*
X195809523Y-130198809D01*
X195809523Y-130436904D01*
X195761904Y-130532142D01*
X195714285Y-130579761D01*
X195619047Y-130627380D01*
X195380952Y-130627380D01*
X195285714Y-130579761D01*
X195238095Y-130532142D01*
X191167142Y-128722380D02*
X191167142Y-127722380D01*
X191405238Y-127722380D01*
X191548095Y-127770000D01*
X191643333Y-127865238D01*
X191690952Y-127960476D01*
X191738571Y-128150952D01*
X191738571Y-128293809D01*
X191690952Y-128484285D01*
X191643333Y-128579523D01*
X191548095Y-128674761D01*
X191405238Y-128722380D01*
X191167142Y-128722380D01*
X192119523Y-128674761D02*
X192262380Y-128722380D01*
X192500476Y-128722380D01*
X192595714Y-128674761D01*
X192643333Y-128627142D01*
X192690952Y-128531904D01*
X192690952Y-128436666D01*
X192643333Y-128341428D01*
X192595714Y-128293809D01*
X192500476Y-128246190D01*
X192310000Y-128198571D01*
X192214761Y-128150952D01*
X192167142Y-128103333D01*
X192119523Y-128008095D01*
X192119523Y-127912857D01*
X192167142Y-127817619D01*
X192214761Y-127770000D01*
X192310000Y-127722380D01*
X192548095Y-127722380D01*
X192690952Y-127770000D01*
X193643333Y-128722380D02*
X193071904Y-128722380D01*
X193357619Y-128722380D02*
X193357619Y-127722380D01*
X193262380Y-127865238D01*
X193167142Y-127960476D01*
X193071904Y-128008095D01*
X194214761Y-128150952D02*
X194119523Y-128103333D01*
X194071904Y-128055714D01*
X194024285Y-127960476D01*
X194024285Y-127912857D01*
X194071904Y-127817619D01*
X194119523Y-127770000D01*
X194214761Y-127722380D01*
X194405238Y-127722380D01*
X194500476Y-127770000D01*
X194548095Y-127817619D01*
X194595714Y-127912857D01*
X194595714Y-127960476D01*
X194548095Y-128055714D01*
X194500476Y-128103333D01*
X194405238Y-128150952D01*
X194214761Y-128150952D01*
X194119523Y-128198571D01*
X194071904Y-128246190D01*
X194024285Y-128341428D01*
X194024285Y-128531904D01*
X194071904Y-128627142D01*
X194119523Y-128674761D01*
X194214761Y-128722380D01*
X194405238Y-128722380D01*
X194500476Y-128674761D01*
X194548095Y-128627142D01*
X194595714Y-128531904D01*
X194595714Y-128341428D01*
X194548095Y-128246190D01*
X194500476Y-128198571D01*
X194405238Y-128150952D01*
X195357619Y-128198571D02*
X195500476Y-128246190D01*
X195548095Y-128293809D01*
X195595714Y-128389047D01*
X195595714Y-128531904D01*
X195548095Y-128627142D01*
X195500476Y-128674761D01*
X195405238Y-128722380D01*
X195024285Y-128722380D01*
X195024285Y-127722380D01*
X195357619Y-127722380D01*
X195452857Y-127770000D01*
X195500476Y-127817619D01*
X195548095Y-127912857D01*
X195548095Y-128008095D01*
X195500476Y-128103333D01*
X195452857Y-128150952D01*
X195357619Y-128198571D01*
X195024285Y-128198571D01*
X195976666Y-127817619D02*
X196024285Y-127770000D01*
X196119523Y-127722380D01*
X196357619Y-127722380D01*
X196452857Y-127770000D01*
X196500476Y-127817619D01*
X196548095Y-127912857D01*
X196548095Y-128008095D01*
X196500476Y-128150952D01*
X195929047Y-128722380D01*
X196548095Y-128722380D01*
X197167142Y-127722380D02*
X197262380Y-127722380D01*
X197357619Y-127770000D01*
X197405238Y-127817619D01*
X197452857Y-127912857D01*
X197500476Y-128103333D01*
X197500476Y-128341428D01*
X197452857Y-128531904D01*
X197405238Y-128627142D01*
X197357619Y-128674761D01*
X197262380Y-128722380D01*
X197167142Y-128722380D01*
X197071904Y-128674761D01*
X197024285Y-128627142D01*
X196976666Y-128531904D01*
X196929047Y-128341428D01*
X196929047Y-128103333D01*
X196976666Y-127912857D01*
X197024285Y-127817619D01*
X197071904Y-127770000D01*
X197167142Y-127722380D01*
X189779780Y-134452380D02*
X189779780Y-133452380D01*
X190017875Y-133452380D01*
X190160733Y-133500000D01*
X190255971Y-133595238D01*
X190303590Y-133690476D01*
X190351209Y-133880952D01*
X190351209Y-134023809D01*
X190303590Y-134214285D01*
X190255971Y-134309523D01*
X190160733Y-134404761D01*
X190017875Y-134452380D01*
X189779780Y-134452380D01*
X191446447Y-134547619D02*
X191351209Y-134500000D01*
X191255971Y-134404761D01*
X191113114Y-134261904D01*
X191017875Y-134214285D01*
X190922637Y-134214285D01*
X190970256Y-134452380D02*
X190875018Y-134404761D01*
X190779780Y-134309523D01*
X190732161Y-134119047D01*
X190732161Y-133785714D01*
X190779780Y-133595238D01*
X190875018Y-133500000D01*
X190970256Y-133452380D01*
X191160733Y-133452380D01*
X191255971Y-133500000D01*
X191351209Y-133595238D01*
X191398828Y-133785714D01*
X191398828Y-134119047D01*
X191351209Y-134309523D01*
X191255971Y-134404761D01*
X191160733Y-134452380D01*
X190970256Y-134452380D01*
X189803590Y-135786000D02*
X189708352Y-135738380D01*
X189565495Y-135738380D01*
X189422637Y-135786000D01*
X189327399Y-135881238D01*
X189279780Y-135976476D01*
X189232161Y-136166952D01*
X189232161Y-136309809D01*
X189279780Y-136500285D01*
X189327399Y-136595523D01*
X189422637Y-136690761D01*
X189565495Y-136738380D01*
X189660733Y-136738380D01*
X189803590Y-136690761D01*
X189851209Y-136643142D01*
X189851209Y-136309809D01*
X189660733Y-136309809D01*
X190279780Y-136738380D02*
X190279780Y-135738380D01*
X190851209Y-136738380D01*
X190851209Y-135738380D01*
X191327399Y-136738380D02*
X191327399Y-135738380D01*
X191565495Y-135738380D01*
X191708352Y-135786000D01*
X191803590Y-135881238D01*
X191851209Y-135976476D01*
X191898828Y-136166952D01*
X191898828Y-136309809D01*
X191851209Y-136500285D01*
X191803590Y-136595523D01*
X191708352Y-136690761D01*
X191565495Y-136738380D01*
X191327399Y-136738380D01*
X189348666Y-131420380D02*
X189682000Y-132420380D01*
X190015333Y-131420380D01*
X190348666Y-132420380D02*
X190348666Y-131420380D01*
X190586761Y-131420380D01*
X190729619Y-131468000D01*
X190824857Y-131563238D01*
X190872476Y-131658476D01*
X190920095Y-131848952D01*
X190920095Y-131991809D01*
X190872476Y-132182285D01*
X190824857Y-132277523D01*
X190729619Y-132372761D01*
X190586761Y-132420380D01*
X190348666Y-132420380D01*
X191348666Y-132420380D02*
X191348666Y-131420380D01*
X191586761Y-131420380D01*
X191729619Y-131468000D01*
X191824857Y-131563238D01*
X191872476Y-131658476D01*
X191920095Y-131848952D01*
X191920095Y-131991809D01*
X191872476Y-132182285D01*
X191824857Y-132277523D01*
X191729619Y-132372761D01*
X191586761Y-132420380D01*
X191348666Y-132420380D01*
%TO.C,T2*%
X193588095Y-89452380D02*
X194159523Y-89452380D01*
X193873809Y-90452380D02*
X193873809Y-89452380D01*
X194445238Y-89547619D02*
X194492857Y-89500000D01*
X194588095Y-89452380D01*
X194826190Y-89452380D01*
X194921428Y-89500000D01*
X194969047Y-89547619D01*
X195016666Y-89642857D01*
X195016666Y-89738095D01*
X194969047Y-89880952D01*
X194397619Y-90452380D01*
X195016666Y-90452380D01*
X183833333Y-84848571D02*
X183976190Y-84896190D01*
X184023809Y-84943809D01*
X184071428Y-85039047D01*
X184071428Y-85181904D01*
X184023809Y-85277142D01*
X183976190Y-85324761D01*
X183880952Y-85372380D01*
X183500000Y-85372380D01*
X183500000Y-84372380D01*
X183833333Y-84372380D01*
X183928571Y-84420000D01*
X183976190Y-84467619D01*
X184023809Y-84562857D01*
X184023809Y-84658095D01*
X183976190Y-84753333D01*
X183928571Y-84800952D01*
X183833333Y-84848571D01*
X183500000Y-84848571D01*
X184928571Y-84705714D02*
X184928571Y-85372380D01*
X184500000Y-84705714D02*
X184500000Y-85229523D01*
X184547619Y-85324761D01*
X184642857Y-85372380D01*
X184785714Y-85372380D01*
X184880952Y-85324761D01*
X184928571Y-85277142D01*
X185261904Y-84705714D02*
X185642857Y-84705714D01*
X185404761Y-84372380D02*
X185404761Y-85229523D01*
X185452380Y-85324761D01*
X185547619Y-85372380D01*
X185642857Y-85372380D01*
X185833333Y-84705714D02*
X186214285Y-84705714D01*
X185976190Y-84372380D02*
X185976190Y-85229523D01*
X186023809Y-85324761D01*
X186119047Y-85372380D01*
X186214285Y-85372380D01*
X186690476Y-85372380D02*
X186595238Y-85324761D01*
X186547619Y-85277142D01*
X186500000Y-85181904D01*
X186500000Y-84896190D01*
X186547619Y-84800952D01*
X186595238Y-84753333D01*
X186690476Y-84705714D01*
X186833333Y-84705714D01*
X186928571Y-84753333D01*
X186976190Y-84800952D01*
X187023809Y-84896190D01*
X187023809Y-85181904D01*
X186976190Y-85277142D01*
X186928571Y-85324761D01*
X186833333Y-85372380D01*
X186690476Y-85372380D01*
X187452380Y-84705714D02*
X187452380Y-85372380D01*
X187452380Y-84800952D02*
X187500000Y-84753333D01*
X187595238Y-84705714D01*
X187738095Y-84705714D01*
X187833333Y-84753333D01*
X187880952Y-84848571D01*
X187880952Y-85372380D01*
X188309523Y-85324761D02*
X188452380Y-85372380D01*
X188690476Y-85372380D01*
X188785714Y-85324761D01*
X188833333Y-85277142D01*
X188880952Y-85181904D01*
X188880952Y-85086666D01*
X188833333Y-84991428D01*
X188785714Y-84943809D01*
X188690476Y-84896190D01*
X188500000Y-84848571D01*
X188404761Y-84800952D01*
X188357142Y-84753333D01*
X188309523Y-84658095D01*
X188309523Y-84562857D01*
X188357142Y-84467619D01*
X188404761Y-84420000D01*
X188500000Y-84372380D01*
X188738095Y-84372380D01*
X188880952Y-84420000D01*
X189690476Y-85324761D02*
X189595238Y-85372380D01*
X189404761Y-85372380D01*
X189309523Y-85324761D01*
X189261904Y-85229523D01*
X189261904Y-84848571D01*
X189309523Y-84753333D01*
X189404761Y-84705714D01*
X189595238Y-84705714D01*
X189690476Y-84753333D01*
X189738095Y-84848571D01*
X189738095Y-84943809D01*
X189261904Y-85039047D01*
X190309523Y-85372380D02*
X190214285Y-85324761D01*
X190166666Y-85229523D01*
X190166666Y-84372380D01*
X191071428Y-85324761D02*
X190976190Y-85372380D01*
X190785714Y-85372380D01*
X190690476Y-85324761D01*
X190642857Y-85229523D01*
X190642857Y-84848571D01*
X190690476Y-84753333D01*
X190785714Y-84705714D01*
X190976190Y-84705714D01*
X191071428Y-84753333D01*
X191119047Y-84848571D01*
X191119047Y-84943809D01*
X190642857Y-85039047D01*
X191976190Y-85324761D02*
X191880952Y-85372380D01*
X191690476Y-85372380D01*
X191595238Y-85324761D01*
X191547619Y-85277142D01*
X191500000Y-85181904D01*
X191500000Y-84896190D01*
X191547619Y-84800952D01*
X191595238Y-84753333D01*
X191690476Y-84705714D01*
X191880952Y-84705714D01*
X191976190Y-84753333D01*
X192261904Y-84705714D02*
X192642857Y-84705714D01*
X192404761Y-84372380D02*
X192404761Y-85229523D01*
X192452380Y-85324761D01*
X192547619Y-85372380D01*
X192642857Y-85372380D01*
%TO.C,T3*%
X193588095Y-104452380D02*
X194159523Y-104452380D01*
X193873809Y-105452380D02*
X193873809Y-104452380D01*
X194397619Y-104452380D02*
X195016666Y-104452380D01*
X194683333Y-104833333D01*
X194826190Y-104833333D01*
X194921428Y-104880952D01*
X194969047Y-104928571D01*
X195016666Y-105023809D01*
X195016666Y-105261904D01*
X194969047Y-105357142D01*
X194921428Y-105404761D01*
X194826190Y-105452380D01*
X194540476Y-105452380D01*
X194445238Y-105404761D01*
X194397619Y-105357142D01*
X184214285Y-99848571D02*
X184357142Y-99896190D01*
X184404761Y-99943809D01*
X184452380Y-100039047D01*
X184452380Y-100181904D01*
X184404761Y-100277142D01*
X184357142Y-100324761D01*
X184261904Y-100372380D01*
X183880952Y-100372380D01*
X183880952Y-99372380D01*
X184214285Y-99372380D01*
X184309523Y-99420000D01*
X184357142Y-99467619D01*
X184404761Y-99562857D01*
X184404761Y-99658095D01*
X184357142Y-99753333D01*
X184309523Y-99800952D01*
X184214285Y-99848571D01*
X183880952Y-99848571D01*
X185309523Y-99705714D02*
X185309523Y-100372380D01*
X184880952Y-99705714D02*
X184880952Y-100229523D01*
X184928571Y-100324761D01*
X185023809Y-100372380D01*
X185166666Y-100372380D01*
X185261904Y-100324761D01*
X185309523Y-100277142D01*
X185642857Y-99705714D02*
X186023809Y-99705714D01*
X185785714Y-99372380D02*
X185785714Y-100229523D01*
X185833333Y-100324761D01*
X185928571Y-100372380D01*
X186023809Y-100372380D01*
X186214285Y-99705714D02*
X186595238Y-99705714D01*
X186357142Y-99372380D02*
X186357142Y-100229523D01*
X186404761Y-100324761D01*
X186500000Y-100372380D01*
X186595238Y-100372380D01*
X187071428Y-100372380D02*
X186976190Y-100324761D01*
X186928571Y-100277142D01*
X186880952Y-100181904D01*
X186880952Y-99896190D01*
X186928571Y-99800952D01*
X186976190Y-99753333D01*
X187071428Y-99705714D01*
X187214285Y-99705714D01*
X187309523Y-99753333D01*
X187357142Y-99800952D01*
X187404761Y-99896190D01*
X187404761Y-100181904D01*
X187357142Y-100277142D01*
X187309523Y-100324761D01*
X187214285Y-100372380D01*
X187071428Y-100372380D01*
X187833333Y-99705714D02*
X187833333Y-100372380D01*
X187833333Y-99800952D02*
X187880952Y-99753333D01*
X187976190Y-99705714D01*
X188119047Y-99705714D01*
X188214285Y-99753333D01*
X188261904Y-99848571D01*
X188261904Y-100372380D01*
X188738095Y-100372380D02*
X188738095Y-99372380D01*
X188976190Y-99372380D01*
X189119047Y-99420000D01*
X189214285Y-99515238D01*
X189261904Y-99610476D01*
X189309523Y-99800952D01*
X189309523Y-99943809D01*
X189261904Y-100134285D01*
X189214285Y-100229523D01*
X189119047Y-100324761D01*
X188976190Y-100372380D01*
X188738095Y-100372380D01*
X189880952Y-100372380D02*
X189785714Y-100324761D01*
X189738095Y-100277142D01*
X189690476Y-100181904D01*
X189690476Y-99896190D01*
X189738095Y-99800952D01*
X189785714Y-99753333D01*
X189880952Y-99705714D01*
X190023809Y-99705714D01*
X190119047Y-99753333D01*
X190166666Y-99800952D01*
X190214285Y-99896190D01*
X190214285Y-100181904D01*
X190166666Y-100277142D01*
X190119047Y-100324761D01*
X190023809Y-100372380D01*
X189880952Y-100372380D01*
X190547619Y-99705714D02*
X190738095Y-100372380D01*
X190928571Y-99896190D01*
X191119047Y-100372380D01*
X191309523Y-99705714D01*
X191690476Y-99705714D02*
X191690476Y-100372380D01*
X191690476Y-99800952D02*
X191738095Y-99753333D01*
X191833333Y-99705714D01*
X191976190Y-99705714D01*
X192071428Y-99753333D01*
X192119047Y-99848571D01*
X192119047Y-100372380D01*
%TO.C,T1*%
X193588095Y-74452380D02*
X194159523Y-74452380D01*
X193873809Y-75452380D02*
X193873809Y-74452380D01*
X195016666Y-75452380D02*
X194445238Y-75452380D01*
X194730952Y-75452380D02*
X194730952Y-74452380D01*
X194635714Y-74595238D01*
X194540476Y-74690476D01*
X194445238Y-74738095D01*
X185166666Y-69848571D02*
X185309523Y-69896190D01*
X185357142Y-69943809D01*
X185404761Y-70039047D01*
X185404761Y-70181904D01*
X185357142Y-70277142D01*
X185309523Y-70324761D01*
X185214285Y-70372380D01*
X184833333Y-70372380D01*
X184833333Y-69372380D01*
X185166666Y-69372380D01*
X185261904Y-69420000D01*
X185309523Y-69467619D01*
X185357142Y-69562857D01*
X185357142Y-69658095D01*
X185309523Y-69753333D01*
X185261904Y-69800952D01*
X185166666Y-69848571D01*
X184833333Y-69848571D01*
X186261904Y-69705714D02*
X186261904Y-70372380D01*
X185833333Y-69705714D02*
X185833333Y-70229523D01*
X185880952Y-70324761D01*
X185976190Y-70372380D01*
X186119047Y-70372380D01*
X186214285Y-70324761D01*
X186261904Y-70277142D01*
X186595238Y-69705714D02*
X186976190Y-69705714D01*
X186738095Y-69372380D02*
X186738095Y-70229523D01*
X186785714Y-70324761D01*
X186880952Y-70372380D01*
X186976190Y-70372380D01*
X187166666Y-69705714D02*
X187547619Y-69705714D01*
X187309523Y-69372380D02*
X187309523Y-70229523D01*
X187357142Y-70324761D01*
X187452380Y-70372380D01*
X187547619Y-70372380D01*
X188023809Y-70372380D02*
X187928571Y-70324761D01*
X187880952Y-70277142D01*
X187833333Y-70181904D01*
X187833333Y-69896190D01*
X187880952Y-69800952D01*
X187928571Y-69753333D01*
X188023809Y-69705714D01*
X188166666Y-69705714D01*
X188261904Y-69753333D01*
X188309523Y-69800952D01*
X188357142Y-69896190D01*
X188357142Y-70181904D01*
X188309523Y-70277142D01*
X188261904Y-70324761D01*
X188166666Y-70372380D01*
X188023809Y-70372380D01*
X188785714Y-69705714D02*
X188785714Y-70372380D01*
X188785714Y-69800952D02*
X188833333Y-69753333D01*
X188928571Y-69705714D01*
X189071428Y-69705714D01*
X189166666Y-69753333D01*
X189214285Y-69848571D01*
X189214285Y-70372380D01*
X189690476Y-69372380D02*
X189690476Y-70181904D01*
X189738095Y-70277142D01*
X189785714Y-70324761D01*
X189880952Y-70372380D01*
X190071428Y-70372380D01*
X190166666Y-70324761D01*
X190214285Y-70277142D01*
X190261904Y-70181904D01*
X190261904Y-69372380D01*
X190738095Y-69705714D02*
X190738095Y-70705714D01*
X190738095Y-69753333D02*
X190833333Y-69705714D01*
X191023809Y-69705714D01*
X191119047Y-69753333D01*
X191166666Y-69800952D01*
X191214285Y-69896190D01*
X191214285Y-70181904D01*
X191166666Y-70277142D01*
X191119047Y-70324761D01*
X191023809Y-70372380D01*
X190833333Y-70372380D01*
X190738095Y-70324761D01*
%TO.C,U2*%
X115824095Y-69048380D02*
X115824095Y-69857904D01*
X115871714Y-69953142D01*
X115919333Y-70000761D01*
X116014571Y-70048380D01*
X116205047Y-70048380D01*
X116300285Y-70000761D01*
X116347904Y-69953142D01*
X116395523Y-69857904D01*
X116395523Y-69048380D01*
X116824095Y-69143619D02*
X116871714Y-69096000D01*
X116966952Y-69048380D01*
X117205047Y-69048380D01*
X117300285Y-69096000D01*
X117347904Y-69143619D01*
X117395523Y-69238857D01*
X117395523Y-69334095D01*
X117347904Y-69476952D01*
X116776476Y-70048380D01*
X117395523Y-70048380D01*
X110694761Y-96707142D02*
X110647142Y-96754761D01*
X110504285Y-96802380D01*
X110409047Y-96802380D01*
X110266190Y-96754761D01*
X110170952Y-96659523D01*
X110123333Y-96564285D01*
X110075714Y-96373809D01*
X110075714Y-96230952D01*
X110123333Y-96040476D01*
X110170952Y-95945238D01*
X110266190Y-95850000D01*
X110409047Y-95802380D01*
X110504285Y-95802380D01*
X110647142Y-95850000D01*
X110694761Y-95897619D01*
X111599523Y-96802380D02*
X111123333Y-96802380D01*
X111123333Y-95802380D01*
X111932857Y-96802380D02*
X111932857Y-95802380D01*
X112504285Y-96802380D02*
X112075714Y-96230952D01*
X112504285Y-95802380D02*
X111932857Y-96373809D01*
X108762380Y-110073809D02*
X107762380Y-110073809D01*
X108762380Y-109026190D02*
X108286190Y-109359523D01*
X108762380Y-109597619D02*
X107762380Y-109597619D01*
X107762380Y-109216666D01*
X107810000Y-109121428D01*
X107857619Y-109073809D01*
X107952857Y-109026190D01*
X108095714Y-109026190D01*
X108190952Y-109073809D01*
X108238571Y-109121428D01*
X108286190Y-109216666D01*
X108286190Y-109597619D01*
X108857619Y-107930952D02*
X108810000Y-108026190D01*
X108714761Y-108121428D01*
X108571904Y-108264285D01*
X108524285Y-108359523D01*
X108524285Y-108454761D01*
X108762380Y-108407142D02*
X108714761Y-108502380D01*
X108619523Y-108597619D01*
X108429047Y-108645238D01*
X108095714Y-108645238D01*
X107905238Y-108597619D01*
X107810000Y-108502380D01*
X107762380Y-108407142D01*
X107762380Y-108216666D01*
X107810000Y-108121428D01*
X107905238Y-108026190D01*
X108095714Y-107978571D01*
X108429047Y-107978571D01*
X108619523Y-108026190D01*
X108714761Y-108121428D01*
X108762380Y-108216666D01*
X108762380Y-108407142D01*
X110647142Y-91722380D02*
X110170952Y-91722380D01*
X110170952Y-90722380D01*
X110980476Y-91198571D02*
X111313809Y-91198571D01*
X111456666Y-91722380D02*
X110980476Y-91722380D01*
X110980476Y-90722380D01*
X111456666Y-90722380D01*
X111885238Y-91722380D02*
X111885238Y-90722380D01*
X112123333Y-90722380D01*
X112266190Y-90770000D01*
X112361428Y-90865238D01*
X112409047Y-90960476D01*
X112456666Y-91150952D01*
X112456666Y-91293809D01*
X112409047Y-91484285D01*
X112361428Y-91579523D01*
X112266190Y-91674761D01*
X112123333Y-91722380D01*
X111885238Y-91722380D01*
X110742380Y-81562380D02*
X110409047Y-81086190D01*
X110170952Y-81562380D02*
X110170952Y-80562380D01*
X110551904Y-80562380D01*
X110647142Y-80610000D01*
X110694761Y-80657619D01*
X110742380Y-80752857D01*
X110742380Y-80895714D01*
X110694761Y-80990952D01*
X110647142Y-81038571D01*
X110551904Y-81086190D01*
X110170952Y-81086190D01*
X111123333Y-81514761D02*
X111266190Y-81562380D01*
X111504285Y-81562380D01*
X111599523Y-81514761D01*
X111647142Y-81467142D01*
X111694761Y-81371904D01*
X111694761Y-81276666D01*
X111647142Y-81181428D01*
X111599523Y-81133809D01*
X111504285Y-81086190D01*
X111313809Y-81038571D01*
X111218571Y-80990952D01*
X111170952Y-80943333D01*
X111123333Y-80848095D01*
X111123333Y-80752857D01*
X111170952Y-80657619D01*
X111218571Y-80610000D01*
X111313809Y-80562380D01*
X111551904Y-80562380D01*
X111694761Y-80610000D01*
X111980476Y-80562380D02*
X112551904Y-80562380D01*
X112266190Y-81562380D02*
X112266190Y-80562380D01*
X110528095Y-84102380D02*
X110528095Y-83102380D01*
X110766190Y-83102380D01*
X110909047Y-83150000D01*
X111004285Y-83245238D01*
X111051904Y-83340476D01*
X111099523Y-83530952D01*
X111099523Y-83673809D01*
X111051904Y-83864285D01*
X111004285Y-83959523D01*
X110909047Y-84054761D01*
X110766190Y-84102380D01*
X110528095Y-84102380D01*
X112099523Y-84007142D02*
X112051904Y-84054761D01*
X111909047Y-84102380D01*
X111813809Y-84102380D01*
X111670952Y-84054761D01*
X111575714Y-83959523D01*
X111528095Y-83864285D01*
X111480476Y-83673809D01*
X111480476Y-83530952D01*
X111528095Y-83340476D01*
X111575714Y-83245238D01*
X111670952Y-83150000D01*
X111813809Y-83102380D01*
X111909047Y-83102380D01*
X112051904Y-83150000D01*
X112099523Y-83197619D01*
X109718571Y-94262380D02*
X109718571Y-93262380D01*
X110051904Y-93976666D01*
X110385238Y-93262380D01*
X110385238Y-94262380D01*
X110861428Y-94262380D02*
X110861428Y-93262380D01*
X111290000Y-94214761D02*
X111432857Y-94262380D01*
X111670952Y-94262380D01*
X111766190Y-94214761D01*
X111813809Y-94167142D01*
X111861428Y-94071904D01*
X111861428Y-93976666D01*
X111813809Y-93881428D01*
X111766190Y-93833809D01*
X111670952Y-93786190D01*
X111480476Y-93738571D01*
X111385238Y-93690952D01*
X111337619Y-93643333D01*
X111290000Y-93548095D01*
X111290000Y-93452857D01*
X111337619Y-93357619D01*
X111385238Y-93310000D01*
X111480476Y-93262380D01*
X111718571Y-93262380D01*
X111861428Y-93310000D01*
X112480476Y-93262380D02*
X112670952Y-93262380D01*
X112766190Y-93310000D01*
X112861428Y-93405238D01*
X112909047Y-93595714D01*
X112909047Y-93929047D01*
X112861428Y-94119523D01*
X112766190Y-94214761D01*
X112670952Y-94262380D01*
X112480476Y-94262380D01*
X112385238Y-94214761D01*
X112290000Y-94119523D01*
X112242380Y-93929047D01*
X112242380Y-93595714D01*
X112290000Y-93405238D01*
X112385238Y-93310000D01*
X112480476Y-93262380D01*
X104076666Y-73112380D02*
X104410000Y-74112380D01*
X104743333Y-73112380D01*
X105648095Y-74017142D02*
X105600476Y-74064761D01*
X105457619Y-74112380D01*
X105362380Y-74112380D01*
X105219523Y-74064761D01*
X105124285Y-73969523D01*
X105076666Y-73874285D01*
X105029047Y-73683809D01*
X105029047Y-73540952D01*
X105076666Y-73350476D01*
X105124285Y-73255238D01*
X105219523Y-73160000D01*
X105362380Y-73112380D01*
X105457619Y-73112380D01*
X105600476Y-73160000D01*
X105648095Y-73207619D01*
X106648095Y-74017142D02*
X106600476Y-74064761D01*
X106457619Y-74112380D01*
X106362380Y-74112380D01*
X106219523Y-74064761D01*
X106124285Y-73969523D01*
X106076666Y-73874285D01*
X106029047Y-73683809D01*
X106029047Y-73540952D01*
X106076666Y-73350476D01*
X106124285Y-73255238D01*
X106219523Y-73160000D01*
X106362380Y-73112380D01*
X106457619Y-73112380D01*
X106600476Y-73160000D01*
X106648095Y-73207619D01*
X114552380Y-102517142D02*
X114552380Y-101945714D01*
X115552380Y-102231428D02*
X114552380Y-102231428D01*
X114552380Y-101421904D02*
X114552380Y-101231428D01*
X114600000Y-101136190D01*
X114695238Y-101040952D01*
X114885714Y-100993333D01*
X115219047Y-100993333D01*
X115409523Y-101040952D01*
X115504761Y-101136190D01*
X115552380Y-101231428D01*
X115552380Y-101421904D01*
X115504761Y-101517142D01*
X115409523Y-101612380D01*
X115219047Y-101660000D01*
X114885714Y-101660000D01*
X114695238Y-101612380D01*
X114600000Y-101517142D01*
X114552380Y-101421904D01*
X114552380Y-100564761D02*
X115361904Y-100564761D01*
X115457142Y-100517142D01*
X115504761Y-100469523D01*
X115552380Y-100374285D01*
X115552380Y-100183809D01*
X115504761Y-100088571D01*
X115457142Y-100040952D01*
X115361904Y-99993333D01*
X114552380Y-99993333D01*
X115457142Y-98945714D02*
X115504761Y-98993333D01*
X115552380Y-99136190D01*
X115552380Y-99231428D01*
X115504761Y-99374285D01*
X115409523Y-99469523D01*
X115314285Y-99517142D01*
X115123809Y-99564761D01*
X114980952Y-99564761D01*
X114790476Y-99517142D01*
X114695238Y-99469523D01*
X114600000Y-99374285D01*
X114552380Y-99231428D01*
X114552380Y-99136190D01*
X114600000Y-98993333D01*
X114647619Y-98945714D01*
X115552380Y-98517142D02*
X114552380Y-98517142D01*
X115028571Y-98517142D02*
X115028571Y-97945714D01*
X115552380Y-97945714D02*
X114552380Y-97945714D01*
X109718571Y-101882380D02*
X109718571Y-100882380D01*
X110051904Y-101596666D01*
X110385238Y-100882380D01*
X110385238Y-101882380D01*
X111051904Y-100882380D02*
X111242380Y-100882380D01*
X111337619Y-100930000D01*
X111432857Y-101025238D01*
X111480476Y-101215714D01*
X111480476Y-101549047D01*
X111432857Y-101739523D01*
X111337619Y-101834761D01*
X111242380Y-101882380D01*
X111051904Y-101882380D01*
X110956666Y-101834761D01*
X110861428Y-101739523D01*
X110813809Y-101549047D01*
X110813809Y-101215714D01*
X110861428Y-101025238D01*
X110956666Y-100930000D01*
X111051904Y-100882380D01*
X111861428Y-101834761D02*
X112004285Y-101882380D01*
X112242380Y-101882380D01*
X112337619Y-101834761D01*
X112385238Y-101787142D01*
X112432857Y-101691904D01*
X112432857Y-101596666D01*
X112385238Y-101501428D01*
X112337619Y-101453809D01*
X112242380Y-101406190D01*
X112051904Y-101358571D01*
X111956666Y-101310952D01*
X111909047Y-101263333D01*
X111861428Y-101168095D01*
X111861428Y-101072857D01*
X111909047Y-100977619D01*
X111956666Y-100930000D01*
X112051904Y-100882380D01*
X112290000Y-100882380D01*
X112432857Y-100930000D01*
X112861428Y-101882380D02*
X112861428Y-100882380D01*
X110004285Y-89134761D02*
X110147142Y-89182380D01*
X110385238Y-89182380D01*
X110480476Y-89134761D01*
X110528095Y-89087142D01*
X110575714Y-88991904D01*
X110575714Y-88896666D01*
X110528095Y-88801428D01*
X110480476Y-88753809D01*
X110385238Y-88706190D01*
X110194761Y-88658571D01*
X110099523Y-88610952D01*
X110051904Y-88563333D01*
X110004285Y-88468095D01*
X110004285Y-88372857D01*
X110051904Y-88277619D01*
X110099523Y-88230000D01*
X110194761Y-88182380D01*
X110432857Y-88182380D01*
X110575714Y-88230000D01*
X111575714Y-89087142D02*
X111528095Y-89134761D01*
X111385238Y-89182380D01*
X111290000Y-89182380D01*
X111147142Y-89134761D01*
X111051904Y-89039523D01*
X111004285Y-88944285D01*
X110956666Y-88753809D01*
X110956666Y-88610952D01*
X111004285Y-88420476D01*
X111051904Y-88325238D01*
X111147142Y-88230000D01*
X111290000Y-88182380D01*
X111385238Y-88182380D01*
X111528095Y-88230000D01*
X111575714Y-88277619D01*
X112004285Y-89182380D02*
X112004285Y-88182380D01*
X112575714Y-89182380D02*
X112147142Y-88610952D01*
X112575714Y-88182380D02*
X112004285Y-88753809D01*
X109718571Y-104422380D02*
X109718571Y-103422380D01*
X110051904Y-104136666D01*
X110385238Y-103422380D01*
X110385238Y-104422380D01*
X110861428Y-104422380D02*
X110861428Y-103422380D01*
X111290000Y-104374761D02*
X111432857Y-104422380D01*
X111670952Y-104422380D01*
X111766190Y-104374761D01*
X111813809Y-104327142D01*
X111861428Y-104231904D01*
X111861428Y-104136666D01*
X111813809Y-104041428D01*
X111766190Y-103993809D01*
X111670952Y-103946190D01*
X111480476Y-103898571D01*
X111385238Y-103850952D01*
X111337619Y-103803333D01*
X111290000Y-103708095D01*
X111290000Y-103612857D01*
X111337619Y-103517619D01*
X111385238Y-103470000D01*
X111480476Y-103422380D01*
X111718571Y-103422380D01*
X111861428Y-103470000D01*
X112480476Y-103422380D02*
X112670952Y-103422380D01*
X112766190Y-103470000D01*
X112861428Y-103565238D01*
X112909047Y-103755714D01*
X112909047Y-104089047D01*
X112861428Y-104279523D01*
X112766190Y-104374761D01*
X112670952Y-104422380D01*
X112480476Y-104422380D01*
X112385238Y-104374761D01*
X112290000Y-104279523D01*
X112242380Y-104089047D01*
X112242380Y-103755714D01*
X112290000Y-103565238D01*
X112385238Y-103470000D01*
X112480476Y-103422380D01*
X111123333Y-78927142D02*
X111075714Y-78974761D01*
X110932857Y-79022380D01*
X110837619Y-79022380D01*
X110694761Y-78974761D01*
X110599523Y-78879523D01*
X110551904Y-78784285D01*
X110504285Y-78593809D01*
X110504285Y-78450952D01*
X110551904Y-78260476D01*
X110599523Y-78165238D01*
X110694761Y-78070000D01*
X110837619Y-78022380D01*
X110932857Y-78022380D01*
X111075714Y-78070000D01*
X111123333Y-78117619D01*
X111504285Y-78974761D02*
X111647142Y-79022380D01*
X111885238Y-79022380D01*
X111980476Y-78974761D01*
X112028095Y-78927142D01*
X112075714Y-78831904D01*
X112075714Y-78736666D01*
X112028095Y-78641428D01*
X111980476Y-78593809D01*
X111885238Y-78546190D01*
X111694761Y-78498571D01*
X111599523Y-78450952D01*
X111551904Y-78403333D01*
X111504285Y-78308095D01*
X111504285Y-78212857D01*
X111551904Y-78117619D01*
X111599523Y-78070000D01*
X111694761Y-78022380D01*
X111932857Y-78022380D01*
X112075714Y-78070000D01*
X110528095Y-75530000D02*
X110432857Y-75482380D01*
X110290000Y-75482380D01*
X110147142Y-75530000D01*
X110051904Y-75625238D01*
X110004285Y-75720476D01*
X109956666Y-75910952D01*
X109956666Y-76053809D01*
X110004285Y-76244285D01*
X110051904Y-76339523D01*
X110147142Y-76434761D01*
X110290000Y-76482380D01*
X110385238Y-76482380D01*
X110528095Y-76434761D01*
X110575714Y-76387142D01*
X110575714Y-76053809D01*
X110385238Y-76053809D01*
X111004285Y-76482380D02*
X111004285Y-75482380D01*
X111575714Y-76482380D01*
X111575714Y-75482380D01*
X112051904Y-76482380D02*
X112051904Y-75482380D01*
X112290000Y-75482380D01*
X112432857Y-75530000D01*
X112528095Y-75625238D01*
X112575714Y-75720476D01*
X112623333Y-75910952D01*
X112623333Y-76053809D01*
X112575714Y-76244285D01*
X112528095Y-76339523D01*
X112432857Y-76434761D01*
X112290000Y-76482380D01*
X112051904Y-76482380D01*
X109718571Y-86642380D02*
X109718571Y-85642380D01*
X110051904Y-86356666D01*
X110385238Y-85642380D01*
X110385238Y-86642380D01*
X111051904Y-85642380D02*
X111242380Y-85642380D01*
X111337619Y-85690000D01*
X111432857Y-85785238D01*
X111480476Y-85975714D01*
X111480476Y-86309047D01*
X111432857Y-86499523D01*
X111337619Y-86594761D01*
X111242380Y-86642380D01*
X111051904Y-86642380D01*
X110956666Y-86594761D01*
X110861428Y-86499523D01*
X110813809Y-86309047D01*
X110813809Y-85975714D01*
X110861428Y-85785238D01*
X110956666Y-85690000D01*
X111051904Y-85642380D01*
X111861428Y-86594761D02*
X112004285Y-86642380D01*
X112242380Y-86642380D01*
X112337619Y-86594761D01*
X112385238Y-86547142D01*
X112432857Y-86451904D01*
X112432857Y-86356666D01*
X112385238Y-86261428D01*
X112337619Y-86213809D01*
X112242380Y-86166190D01*
X112051904Y-86118571D01*
X111956666Y-86070952D01*
X111909047Y-86023333D01*
X111861428Y-85928095D01*
X111861428Y-85832857D01*
X111909047Y-85737619D01*
X111956666Y-85690000D01*
X112051904Y-85642380D01*
X112290000Y-85642380D01*
X112432857Y-85690000D01*
X112861428Y-86642380D02*
X112861428Y-85642380D01*
X111123333Y-99247142D02*
X111075714Y-99294761D01*
X110932857Y-99342380D01*
X110837619Y-99342380D01*
X110694761Y-99294761D01*
X110599523Y-99199523D01*
X110551904Y-99104285D01*
X110504285Y-98913809D01*
X110504285Y-98770952D01*
X110551904Y-98580476D01*
X110599523Y-98485238D01*
X110694761Y-98390000D01*
X110837619Y-98342380D01*
X110932857Y-98342380D01*
X111075714Y-98390000D01*
X111123333Y-98437619D01*
X111504285Y-99294761D02*
X111647142Y-99342380D01*
X111885238Y-99342380D01*
X111980476Y-99294761D01*
X112028095Y-99247142D01*
X112075714Y-99151904D01*
X112075714Y-99056666D01*
X112028095Y-98961428D01*
X111980476Y-98913809D01*
X111885238Y-98866190D01*
X111694761Y-98818571D01*
X111599523Y-98770952D01*
X111551904Y-98723333D01*
X111504285Y-98628095D01*
X111504285Y-98532857D01*
X111551904Y-98437619D01*
X111599523Y-98390000D01*
X111694761Y-98342380D01*
X111932857Y-98342380D01*
X112075714Y-98390000D01*
%TO.C,U3*%
X163322095Y-124420380D02*
X163322095Y-125229904D01*
X163369714Y-125325142D01*
X163417333Y-125372761D01*
X163512571Y-125420380D01*
X163703047Y-125420380D01*
X163798285Y-125372761D01*
X163845904Y-125325142D01*
X163893523Y-125229904D01*
X163893523Y-124420380D01*
X164274476Y-124420380D02*
X164893523Y-124420380D01*
X164560190Y-124801333D01*
X164703047Y-124801333D01*
X164798285Y-124848952D01*
X164845904Y-124896571D01*
X164893523Y-124991809D01*
X164893523Y-125229904D01*
X164845904Y-125325142D01*
X164798285Y-125372761D01*
X164703047Y-125420380D01*
X164417333Y-125420380D01*
X164322095Y-125372761D01*
X164274476Y-125325142D01*
X166291619Y-125420380D02*
X166291619Y-124420380D01*
X166529714Y-124420380D01*
X166672571Y-124468000D01*
X166767809Y-124563238D01*
X166815428Y-124658476D01*
X166863047Y-124848952D01*
X166863047Y-124991809D01*
X166815428Y-125182285D01*
X166767809Y-125277523D01*
X166672571Y-125372761D01*
X166529714Y-125420380D01*
X166291619Y-125420380D01*
X167291619Y-125420380D02*
X167291619Y-124420380D01*
X167958285Y-124944190D02*
X167958285Y-125420380D01*
X167624952Y-124420380D02*
X167958285Y-124944190D01*
X168291619Y-124420380D01*
X168767809Y-125420380D02*
X168672571Y-125372761D01*
X168624952Y-125277523D01*
X168624952Y-124420380D01*
X169529714Y-125372761D02*
X169434476Y-125420380D01*
X169244000Y-125420380D01*
X169148761Y-125372761D01*
X169101142Y-125277523D01*
X169101142Y-124896571D01*
X169148761Y-124801333D01*
X169244000Y-124753714D01*
X169434476Y-124753714D01*
X169529714Y-124801333D01*
X169577333Y-124896571D01*
X169577333Y-124991809D01*
X169101142Y-125087047D01*
X169958285Y-125372761D02*
X170053523Y-125420380D01*
X170244000Y-125420380D01*
X170339238Y-125372761D01*
X170386857Y-125277523D01*
X170386857Y-125229904D01*
X170339238Y-125134666D01*
X170244000Y-125087047D01*
X170101142Y-125087047D01*
X170005904Y-125039428D01*
X169958285Y-124944190D01*
X169958285Y-124896571D01*
X170005904Y-124801333D01*
X170101142Y-124753714D01*
X170244000Y-124753714D01*
X170339238Y-124801333D01*
X170767809Y-125372761D02*
X170863047Y-125420380D01*
X171053523Y-125420380D01*
X171148761Y-125372761D01*
X171196380Y-125277523D01*
X171196380Y-125229904D01*
X171148761Y-125134666D01*
X171053523Y-125087047D01*
X170910666Y-125087047D01*
X170815428Y-125039428D01*
X170767809Y-124944190D01*
X170767809Y-124896571D01*
X170815428Y-124801333D01*
X170910666Y-124753714D01*
X171053523Y-124753714D01*
X171148761Y-124801333D01*
X172386857Y-125420380D02*
X172386857Y-124420380D01*
X172720190Y-125134666D01*
X173053523Y-124420380D01*
X173053523Y-125420380D01*
X173958285Y-125420380D02*
X173958285Y-124896571D01*
X173910666Y-124801333D01*
X173815428Y-124753714D01*
X173624952Y-124753714D01*
X173529714Y-124801333D01*
X173958285Y-125372761D02*
X173863047Y-125420380D01*
X173624952Y-125420380D01*
X173529714Y-125372761D01*
X173482095Y-125277523D01*
X173482095Y-125182285D01*
X173529714Y-125087047D01*
X173624952Y-125039428D01*
X173863047Y-125039428D01*
X173958285Y-124991809D01*
X174386857Y-125372761D02*
X174482095Y-125420380D01*
X174672571Y-125420380D01*
X174767809Y-125372761D01*
X174815428Y-125277523D01*
X174815428Y-125229904D01*
X174767809Y-125134666D01*
X174672571Y-125087047D01*
X174529714Y-125087047D01*
X174434476Y-125039428D01*
X174386857Y-124944190D01*
X174386857Y-124896571D01*
X174434476Y-124801333D01*
X174529714Y-124753714D01*
X174672571Y-124753714D01*
X174767809Y-124801333D01*
X175101142Y-124753714D02*
X175482095Y-124753714D01*
X175244000Y-124420380D02*
X175244000Y-125277523D01*
X175291619Y-125372761D01*
X175386857Y-125420380D01*
X175482095Y-125420380D01*
X176196380Y-125372761D02*
X176101142Y-125420380D01*
X175910666Y-125420380D01*
X175815428Y-125372761D01*
X175767809Y-125277523D01*
X175767809Y-124896571D01*
X175815428Y-124801333D01*
X175910666Y-124753714D01*
X176101142Y-124753714D01*
X176196380Y-124801333D01*
X176244000Y-124896571D01*
X176244000Y-124991809D01*
X175767809Y-125087047D01*
X176672571Y-125420380D02*
X176672571Y-124753714D01*
X176672571Y-124944190D02*
X176720190Y-124848952D01*
X176767809Y-124801333D01*
X176863047Y-124753714D01*
X176958285Y-124753714D01*
X178005904Y-125372761D02*
X178148761Y-125420380D01*
X178386857Y-125420380D01*
X178482095Y-125372761D01*
X178529714Y-125325142D01*
X178577333Y-125229904D01*
X178577333Y-125134666D01*
X178529714Y-125039428D01*
X178482095Y-124991809D01*
X178386857Y-124944190D01*
X178196380Y-124896571D01*
X178101142Y-124848952D01*
X178053523Y-124801333D01*
X178005904Y-124706095D01*
X178005904Y-124610857D01*
X178053523Y-124515619D01*
X178101142Y-124468000D01*
X178196380Y-124420380D01*
X178434476Y-124420380D01*
X178577333Y-124468000D01*
X179005904Y-125420380D02*
X179005904Y-124420380D01*
X179434476Y-125420380D02*
X179434476Y-124896571D01*
X179386857Y-124801333D01*
X179291619Y-124753714D01*
X179148761Y-124753714D01*
X179053523Y-124801333D01*
X179005904Y-124848952D01*
X179910666Y-125420380D02*
X179910666Y-124753714D01*
X179910666Y-124420380D02*
X179863047Y-124468000D01*
X179910666Y-124515619D01*
X179958285Y-124468000D01*
X179910666Y-124420380D01*
X179910666Y-124515619D01*
X180767809Y-125372761D02*
X180672571Y-125420380D01*
X180482095Y-125420380D01*
X180386857Y-125372761D01*
X180339238Y-125277523D01*
X180339238Y-124896571D01*
X180386857Y-124801333D01*
X180482095Y-124753714D01*
X180672571Y-124753714D01*
X180767809Y-124801333D01*
X180815428Y-124896571D01*
X180815428Y-124991809D01*
X180339238Y-125087047D01*
X181386857Y-125420380D02*
X181291619Y-125372761D01*
X181244000Y-125277523D01*
X181244000Y-124420380D01*
X182196380Y-125420380D02*
X182196380Y-124420380D01*
X182196380Y-125372761D02*
X182101142Y-125420380D01*
X181910666Y-125420380D01*
X181815428Y-125372761D01*
X181767809Y-125325142D01*
X181720190Y-125229904D01*
X181720190Y-124944190D01*
X181767809Y-124848952D01*
X181815428Y-124801333D01*
X181910666Y-124753714D01*
X182101142Y-124753714D01*
X182196380Y-124801333D01*
X172592380Y-129810000D02*
X172592380Y-129619523D01*
X172640000Y-129524285D01*
X172735238Y-129429047D01*
X172925714Y-129381428D01*
X173259047Y-129381428D01*
X173449523Y-129429047D01*
X173544761Y-129524285D01*
X173592380Y-129619523D01*
X173592380Y-129810000D01*
X173544761Y-129905238D01*
X173449523Y-130000476D01*
X173259047Y-130048095D01*
X172925714Y-130048095D01*
X172735238Y-130000476D01*
X172640000Y-129905238D01*
X172592380Y-129810000D01*
X172592380Y-128952857D02*
X173401904Y-128952857D01*
X173497142Y-128905238D01*
X173544761Y-128857619D01*
X173592380Y-128762380D01*
X173592380Y-128571904D01*
X173544761Y-128476666D01*
X173497142Y-128429047D01*
X173401904Y-128381428D01*
X172592380Y-128381428D01*
X172592380Y-128048095D02*
X172592380Y-127476666D01*
X173592380Y-127762380D02*
X172592380Y-127762380D01*
X165020000Y-134651904D02*
X164972380Y-134747142D01*
X164972380Y-134890000D01*
X165020000Y-135032857D01*
X165115238Y-135128095D01*
X165210476Y-135175714D01*
X165400952Y-135223333D01*
X165543809Y-135223333D01*
X165734285Y-135175714D01*
X165829523Y-135128095D01*
X165924761Y-135032857D01*
X165972380Y-134890000D01*
X165972380Y-134794761D01*
X165924761Y-134651904D01*
X165877142Y-134604285D01*
X165543809Y-134604285D01*
X165543809Y-134794761D01*
X165972380Y-134175714D02*
X164972380Y-134175714D01*
X165972380Y-133604285D01*
X164972380Y-133604285D01*
X165972380Y-133128095D02*
X164972380Y-133128095D01*
X164972380Y-132890000D01*
X165020000Y-132747142D01*
X165115238Y-132651904D01*
X165210476Y-132604285D01*
X165400952Y-132556666D01*
X165543809Y-132556666D01*
X165734285Y-132604285D01*
X165829523Y-132651904D01*
X165924761Y-132747142D01*
X165972380Y-132890000D01*
X165972380Y-133128095D01*
X159869238Y-122356571D02*
X160012095Y-122404190D01*
X160059714Y-122451809D01*
X160107333Y-122547047D01*
X160107333Y-122689904D01*
X160059714Y-122785142D01*
X160012095Y-122832761D01*
X159916857Y-122880380D01*
X159535904Y-122880380D01*
X159535904Y-121880380D01*
X159869238Y-121880380D01*
X159964476Y-121928000D01*
X160012095Y-121975619D01*
X160059714Y-122070857D01*
X160059714Y-122166095D01*
X160012095Y-122261333D01*
X159964476Y-122308952D01*
X159869238Y-122356571D01*
X159535904Y-122356571D01*
X161059714Y-122880380D02*
X160488285Y-122880380D01*
X160774000Y-122880380D02*
X160774000Y-121880380D01*
X160678761Y-122023238D01*
X160583523Y-122118476D01*
X160488285Y-122166095D01*
X171052380Y-129333809D02*
X170052380Y-129333809D01*
X171052380Y-128857619D02*
X170052380Y-128857619D01*
X171052380Y-128286190D01*
X170052380Y-128286190D01*
X162432380Y-134080476D02*
X162432380Y-134556666D01*
X162908571Y-134604285D01*
X162860952Y-134556666D01*
X162813333Y-134461428D01*
X162813333Y-134223333D01*
X162860952Y-134128095D01*
X162908571Y-134080476D01*
X163003809Y-134032857D01*
X163241904Y-134032857D01*
X163337142Y-134080476D01*
X163384761Y-134128095D01*
X163432380Y-134223333D01*
X163432380Y-134461428D01*
X163384761Y-134556666D01*
X163337142Y-134604285D01*
X162432380Y-133747142D02*
X163432380Y-133413809D01*
X162432380Y-133080476D01*
X159869238Y-127436571D02*
X160012095Y-127484190D01*
X160059714Y-127531809D01*
X160107333Y-127627047D01*
X160107333Y-127769904D01*
X160059714Y-127865142D01*
X160012095Y-127912761D01*
X159916857Y-127960380D01*
X159535904Y-127960380D01*
X159535904Y-126960380D01*
X159869238Y-126960380D01*
X159964476Y-127008000D01*
X160012095Y-127055619D01*
X160059714Y-127150857D01*
X160059714Y-127246095D01*
X160012095Y-127341333D01*
X159964476Y-127388952D01*
X159869238Y-127436571D01*
X159535904Y-127436571D01*
X160488285Y-127055619D02*
X160535904Y-127008000D01*
X160631142Y-126960380D01*
X160869238Y-126960380D01*
X160964476Y-127008000D01*
X161012095Y-127055619D01*
X161059714Y-127150857D01*
X161059714Y-127246095D01*
X161012095Y-127388952D01*
X160440666Y-127960380D01*
X161059714Y-127960380D01*
X162432380Y-112363095D02*
X162432380Y-111744047D01*
X162813333Y-112077380D01*
X162813333Y-111934523D01*
X162860952Y-111839285D01*
X162908571Y-111791666D01*
X163003809Y-111744047D01*
X163241904Y-111744047D01*
X163337142Y-111791666D01*
X163384761Y-111839285D01*
X163432380Y-111934523D01*
X163432380Y-112220238D01*
X163384761Y-112315476D01*
X163337142Y-112363095D01*
X162432380Y-111458333D02*
X163432380Y-111125000D01*
X162432380Y-110791666D01*
X162432380Y-110553571D02*
X162432380Y-109934523D01*
X162813333Y-110267857D01*
X162813333Y-110125000D01*
X162860952Y-110029761D01*
X162908571Y-109982142D01*
X163003809Y-109934523D01*
X163241904Y-109934523D01*
X163337142Y-109982142D01*
X163384761Y-110029761D01*
X163432380Y-110125000D01*
X163432380Y-110410714D01*
X163384761Y-110505952D01*
X163337142Y-110553571D01*
D11*
%TO.C,U7*%
X103730000Y-136540000D02*
X103730000Y-131460000D01*
X103730000Y-136540000D02*
G75*
G03*
X103730000Y-131460000I1397797J2540000D01*
G01*
%TO.C,U6*%
X103730000Y-70540000D02*
X103730000Y-65460000D01*
X103730000Y-70540000D02*
G75*
G03*
X103730000Y-65460000I1397797J2540000D01*
G01*
%TO.C,U4*%
X196270000Y-65460000D02*
X196270000Y-70540000D01*
X196270000Y-65460000D02*
G75*
G03*
X196270000Y-70540000I-1397797J-2540000D01*
G01*
%TO.C,U5*%
X196270000Y-131460000D02*
X196270000Y-136540000D01*
X196270000Y-131460000D02*
G75*
G03*
X196270000Y-136540000I-1397797J-2540000D01*
G01*
%TO.C,U2*%
X151200000Y-90000000D02*
X148730000Y-90000000D01*
X113830000Y-95080000D02*
X113830000Y-105240000D01*
X150000000Y-88730000D02*
X150000000Y-91270000D01*
X113830000Y-95080000D02*
X112560000Y-95080000D01*
%TO.C,U3*%
X162100000Y-119920000D02*
X154000000Y-119920000D01*
X154000000Y-119920000D02*
X154000000Y-130080000D01*
X154000000Y-130080000D02*
X162100000Y-130080000D01*
X162100000Y-130080000D02*
X162100000Y-119920000D01*
X187800000Y-113650000D02*
X187800000Y-112150000D01*
X187800000Y-112150000D02*
X186300000Y-112150000D01*
X154000000Y-137850000D02*
X154000000Y-136350000D01*
X154000000Y-137850000D02*
X155500000Y-137850000D01*
%TD*%
M02*
