%TF.GenerationSoftware,KiCad,Pcbnew,(6.0.0)*%
%TF.CreationDate,2022-12-18T15:17:50+01:00*%
%TF.ProjectId,Interconnect PCB,496e7465-7263-46f6-9e6e-656374205043,rev?*%
%TF.SameCoordinates,Original*%
%TF.FileFunction,Legend,Top*%
%TF.FilePolarity,Positive*%
%FSLAX46Y46*%
G04 Gerber Fmt 4.6, Leading zero omitted, Abs format (unit mm)*
G04 Created by KiCad (PCBNEW (6.0.0)) date 2022-12-18 15:17:50*
%MOMM*%
%LPD*%
G01*
G04 APERTURE LIST*
%ADD10C,0.150000*%
%ADD11C,0.120000*%
G04 APERTURE END LIST*
D10*
X132119047Y-67452380D02*
X132119047Y-66452380D01*
X132547619Y-67452380D02*
X132547619Y-66928571D01*
X132500000Y-66833333D01*
X132404761Y-66785714D01*
X132261904Y-66785714D01*
X132166666Y-66833333D01*
X132119047Y-66880952D01*
X132880952Y-66785714D02*
X133261904Y-66785714D01*
X133023809Y-66452380D02*
X133023809Y-67309523D01*
X133071428Y-67404761D01*
X133166666Y-67452380D01*
X133261904Y-67452380D01*
X133452380Y-66785714D02*
X133833333Y-66785714D01*
X133595238Y-66452380D02*
X133595238Y-67309523D01*
X133642857Y-67404761D01*
X133738095Y-67452380D01*
X133833333Y-67452380D01*
X134166666Y-66785714D02*
X134166666Y-67785714D01*
X134166666Y-66833333D02*
X134261904Y-66785714D01*
X134452380Y-66785714D01*
X134547619Y-66833333D01*
X134595238Y-66880952D01*
X134642857Y-66976190D01*
X134642857Y-67261904D01*
X134595238Y-67357142D01*
X134547619Y-67404761D01*
X134452380Y-67452380D01*
X134261904Y-67452380D01*
X134166666Y-67404761D01*
X135023809Y-67404761D02*
X135119047Y-67452380D01*
X135309523Y-67452380D01*
X135404761Y-67404761D01*
X135452380Y-67309523D01*
X135452380Y-67261904D01*
X135404761Y-67166666D01*
X135309523Y-67119047D01*
X135166666Y-67119047D01*
X135071428Y-67071428D01*
X135023809Y-66976190D01*
X135023809Y-66928571D01*
X135071428Y-66833333D01*
X135166666Y-66785714D01*
X135309523Y-66785714D01*
X135404761Y-66833333D01*
X135880952Y-67357142D02*
X135928571Y-67404761D01*
X135880952Y-67452380D01*
X135833333Y-67404761D01*
X135880952Y-67357142D01*
X135880952Y-67452380D01*
X135880952Y-66833333D02*
X135928571Y-66880952D01*
X135880952Y-66928571D01*
X135833333Y-66880952D01*
X135880952Y-66833333D01*
X135880952Y-66928571D01*
X137071428Y-66404761D02*
X136214285Y-67690476D01*
X138119047Y-66404761D02*
X137261904Y-67690476D01*
X138880952Y-66785714D02*
X138880952Y-67595238D01*
X138833333Y-67690476D01*
X138785714Y-67738095D01*
X138690476Y-67785714D01*
X138547619Y-67785714D01*
X138452380Y-67738095D01*
X138880952Y-67404761D02*
X138785714Y-67452380D01*
X138595238Y-67452380D01*
X138500000Y-67404761D01*
X138452380Y-67357142D01*
X138404761Y-67261904D01*
X138404761Y-66976190D01*
X138452380Y-66880952D01*
X138500000Y-66833333D01*
X138595238Y-66785714D01*
X138785714Y-66785714D01*
X138880952Y-66833333D01*
X139357142Y-67452380D02*
X139357142Y-66785714D01*
X139357142Y-66452380D02*
X139309523Y-66500000D01*
X139357142Y-66547619D01*
X139404761Y-66500000D01*
X139357142Y-66452380D01*
X139357142Y-66547619D01*
X139690476Y-66785714D02*
X140071428Y-66785714D01*
X139833333Y-66452380D02*
X139833333Y-67309523D01*
X139880952Y-67404761D01*
X139976190Y-67452380D01*
X140071428Y-67452380D01*
X140404761Y-67452380D02*
X140404761Y-66452380D01*
X140833333Y-67452380D02*
X140833333Y-66928571D01*
X140785714Y-66833333D01*
X140690476Y-66785714D01*
X140547619Y-66785714D01*
X140452380Y-66833333D01*
X140404761Y-66880952D01*
X141738095Y-66785714D02*
X141738095Y-67452380D01*
X141309523Y-66785714D02*
X141309523Y-67309523D01*
X141357142Y-67404761D01*
X141452380Y-67452380D01*
X141595238Y-67452380D01*
X141690476Y-67404761D01*
X141738095Y-67357142D01*
X142214285Y-67452380D02*
X142214285Y-66452380D01*
X142214285Y-66833333D02*
X142309523Y-66785714D01*
X142500000Y-66785714D01*
X142595238Y-66833333D01*
X142642857Y-66880952D01*
X142690476Y-66976190D01*
X142690476Y-67261904D01*
X142642857Y-67357142D01*
X142595238Y-67404761D01*
X142500000Y-67452380D01*
X142309523Y-67452380D01*
X142214285Y-67404761D01*
X143119047Y-67357142D02*
X143166666Y-67404761D01*
X143119047Y-67452380D01*
X143071428Y-67404761D01*
X143119047Y-67357142D01*
X143119047Y-67452380D01*
X144023809Y-67404761D02*
X143928571Y-67452380D01*
X143738095Y-67452380D01*
X143642857Y-67404761D01*
X143595238Y-67357142D01*
X143547619Y-67261904D01*
X143547619Y-66976190D01*
X143595238Y-66880952D01*
X143642857Y-66833333D01*
X143738095Y-66785714D01*
X143928571Y-66785714D01*
X144023809Y-66833333D01*
X144595238Y-67452380D02*
X144500000Y-67404761D01*
X144452380Y-67357142D01*
X144404761Y-67261904D01*
X144404761Y-66976190D01*
X144452380Y-66880952D01*
X144500000Y-66833333D01*
X144595238Y-66785714D01*
X144738095Y-66785714D01*
X144833333Y-66833333D01*
X144880952Y-66880952D01*
X144928571Y-66976190D01*
X144928571Y-67261904D01*
X144880952Y-67357142D01*
X144833333Y-67404761D01*
X144738095Y-67452380D01*
X144595238Y-67452380D01*
X145357142Y-67452380D02*
X145357142Y-66785714D01*
X145357142Y-66880952D02*
X145404761Y-66833333D01*
X145500000Y-66785714D01*
X145642857Y-66785714D01*
X145738095Y-66833333D01*
X145785714Y-66928571D01*
X145785714Y-67452380D01*
X145785714Y-66928571D02*
X145833333Y-66833333D01*
X145928571Y-66785714D01*
X146071428Y-66785714D01*
X146166666Y-66833333D01*
X146214285Y-66928571D01*
X146214285Y-67452380D01*
X147404761Y-66404761D02*
X146547619Y-67690476D01*
X147738095Y-67452380D02*
X147738095Y-66452380D01*
X148166666Y-67452380D02*
X148166666Y-66928571D01*
X148119047Y-66833333D01*
X148023809Y-66785714D01*
X147880952Y-66785714D01*
X147785714Y-66833333D01*
X147738095Y-66880952D01*
X149023809Y-67404761D02*
X148928571Y-67452380D01*
X148738095Y-67452380D01*
X148642857Y-67404761D01*
X148595238Y-67309523D01*
X148595238Y-66928571D01*
X148642857Y-66833333D01*
X148738095Y-66785714D01*
X148928571Y-66785714D01*
X149023809Y-66833333D01*
X149071428Y-66928571D01*
X149071428Y-67023809D01*
X148595238Y-67119047D01*
X149500000Y-66785714D02*
X149500000Y-67452380D01*
X149500000Y-66880952D02*
X149547619Y-66833333D01*
X149642857Y-66785714D01*
X149785714Y-66785714D01*
X149880952Y-66833333D01*
X149928571Y-66928571D01*
X149928571Y-67452380D01*
X150404761Y-67452380D02*
X150404761Y-66452380D01*
X150500000Y-67071428D02*
X150785714Y-67452380D01*
X150785714Y-66785714D02*
X150404761Y-67166666D01*
X151214285Y-66785714D02*
X151214285Y-67642857D01*
X151166666Y-67738095D01*
X151071428Y-67785714D01*
X151023809Y-67785714D01*
X151214285Y-66452380D02*
X151166666Y-66500000D01*
X151214285Y-66547619D01*
X151261904Y-66500000D01*
X151214285Y-66452380D01*
X151214285Y-66547619D01*
X152119047Y-67452380D02*
X152119047Y-66928571D01*
X152071428Y-66833333D01*
X151976190Y-66785714D01*
X151785714Y-66785714D01*
X151690476Y-66833333D01*
X152119047Y-67404761D02*
X152023809Y-67452380D01*
X151785714Y-67452380D01*
X151690476Y-67404761D01*
X151642857Y-67309523D01*
X151642857Y-67214285D01*
X151690476Y-67119047D01*
X151785714Y-67071428D01*
X152023809Y-67071428D01*
X152119047Y-67023809D01*
X152595238Y-66785714D02*
X152595238Y-67452380D01*
X152595238Y-66880952D02*
X152642857Y-66833333D01*
X152738095Y-66785714D01*
X152880952Y-66785714D01*
X152976190Y-66833333D01*
X153023809Y-66928571D01*
X153023809Y-67452380D01*
X153500000Y-66785714D02*
X153500000Y-67452380D01*
X153500000Y-66880952D02*
X153547619Y-66833333D01*
X153642857Y-66785714D01*
X153785714Y-66785714D01*
X153880952Y-66833333D01*
X153928571Y-66928571D01*
X153928571Y-67452380D01*
X154547619Y-67452380D02*
X154452380Y-67404761D01*
X154404761Y-67309523D01*
X154404761Y-66452380D01*
X155642857Y-66404761D02*
X154785714Y-67690476D01*
X156547619Y-67452380D02*
X156214285Y-66976190D01*
X155976190Y-67452380D02*
X155976190Y-66452380D01*
X156357142Y-66452380D01*
X156452380Y-66500000D01*
X156500000Y-66547619D01*
X156547619Y-66642857D01*
X156547619Y-66785714D01*
X156500000Y-66880952D01*
X156452380Y-66928571D01*
X156357142Y-66976190D01*
X155976190Y-66976190D01*
X157119047Y-67452380D02*
X157023809Y-67404761D01*
X156976190Y-67357142D01*
X156928571Y-67261904D01*
X156928571Y-66976190D01*
X156976190Y-66880952D01*
X157023809Y-66833333D01*
X157119047Y-66785714D01*
X157261904Y-66785714D01*
X157357142Y-66833333D01*
X157404761Y-66880952D01*
X157452380Y-66976190D01*
X157452380Y-67261904D01*
X157404761Y-67357142D01*
X157357142Y-67404761D01*
X157261904Y-67452380D01*
X157119047Y-67452380D01*
X158023809Y-67452380D02*
X157928571Y-67404761D01*
X157880952Y-67357142D01*
X157833333Y-67261904D01*
X157833333Y-66976190D01*
X157880952Y-66880952D01*
X157928571Y-66833333D01*
X158023809Y-66785714D01*
X158166666Y-66785714D01*
X158261904Y-66833333D01*
X158309523Y-66880952D01*
X158357142Y-66976190D01*
X158357142Y-67261904D01*
X158309523Y-67357142D01*
X158261904Y-67404761D01*
X158166666Y-67452380D01*
X158023809Y-67452380D01*
X158785714Y-67452380D02*
X158785714Y-66785714D01*
X158785714Y-66880952D02*
X158833333Y-66833333D01*
X158928571Y-66785714D01*
X159071428Y-66785714D01*
X159166666Y-66833333D01*
X159214285Y-66928571D01*
X159214285Y-67452380D01*
X159214285Y-66928571D02*
X159261904Y-66833333D01*
X159357142Y-66785714D01*
X159500000Y-66785714D01*
X159595238Y-66833333D01*
X159642857Y-66928571D01*
X159642857Y-67452380D01*
X159976190Y-66452380D02*
X160547619Y-66452380D01*
X160261904Y-67452380D02*
X160261904Y-66452380D01*
X160880952Y-67452380D02*
X160880952Y-66452380D01*
X161309523Y-67452380D02*
X161309523Y-66928571D01*
X161261904Y-66833333D01*
X161166666Y-66785714D01*
X161023809Y-66785714D01*
X160928571Y-66833333D01*
X160880952Y-66880952D01*
X162166666Y-67404761D02*
X162071428Y-67452380D01*
X161880952Y-67452380D01*
X161785714Y-67404761D01*
X161738095Y-67309523D01*
X161738095Y-66928571D01*
X161785714Y-66833333D01*
X161880952Y-66785714D01*
X162071428Y-66785714D01*
X162166666Y-66833333D01*
X162214285Y-66928571D01*
X162214285Y-67023809D01*
X161738095Y-67119047D01*
X162642857Y-67452380D02*
X162642857Y-66785714D01*
X162642857Y-66976190D02*
X162690476Y-66880952D01*
X162738095Y-66833333D01*
X162833333Y-66785714D01*
X162928571Y-66785714D01*
X163261904Y-67452380D02*
X163261904Y-66785714D01*
X163261904Y-66880952D02*
X163309523Y-66833333D01*
X163404761Y-66785714D01*
X163547619Y-66785714D01*
X163642857Y-66833333D01*
X163690476Y-66928571D01*
X163690476Y-67452380D01*
X163690476Y-66928571D02*
X163738095Y-66833333D01*
X163833333Y-66785714D01*
X163976190Y-66785714D01*
X164071428Y-66833333D01*
X164119047Y-66928571D01*
X164119047Y-67452380D01*
X164738095Y-67452380D02*
X164642857Y-67404761D01*
X164595238Y-67357142D01*
X164547619Y-67261904D01*
X164547619Y-66976190D01*
X164595238Y-66880952D01*
X164642857Y-66833333D01*
X164738095Y-66785714D01*
X164880952Y-66785714D01*
X164976190Y-66833333D01*
X165023809Y-66880952D01*
X165071428Y-66976190D01*
X165071428Y-67261904D01*
X165023809Y-67357142D01*
X164976190Y-67404761D01*
X164880952Y-67452380D01*
X164738095Y-67452380D01*
X165452380Y-67404761D02*
X165547619Y-67452380D01*
X165738095Y-67452380D01*
X165833333Y-67404761D01*
X165880952Y-67309523D01*
X165880952Y-67261904D01*
X165833333Y-67166666D01*
X165738095Y-67119047D01*
X165595238Y-67119047D01*
X165500000Y-67071428D01*
X165452380Y-66976190D01*
X165452380Y-66928571D01*
X165500000Y-66833333D01*
X165595238Y-66785714D01*
X165738095Y-66785714D01*
X165833333Y-66833333D01*
X166166666Y-66785714D02*
X166547619Y-66785714D01*
X166309523Y-66452380D02*
X166309523Y-67309523D01*
X166357142Y-67404761D01*
X166452380Y-67452380D01*
X166547619Y-67452380D01*
X167309523Y-67452380D02*
X167309523Y-66928571D01*
X167261904Y-66833333D01*
X167166666Y-66785714D01*
X166976190Y-66785714D01*
X166880952Y-66833333D01*
X167309523Y-67404761D02*
X167214285Y-67452380D01*
X166976190Y-67452380D01*
X166880952Y-67404761D01*
X166833333Y-67309523D01*
X166833333Y-67214285D01*
X166880952Y-67119047D01*
X166976190Y-67071428D01*
X167214285Y-67071428D01*
X167309523Y-67023809D01*
X167642857Y-66785714D02*
X168023809Y-66785714D01*
X167785714Y-66452380D02*
X167785714Y-67309523D01*
X167833333Y-67404761D01*
X167928571Y-67452380D01*
X168023809Y-67452380D01*
X142071428Y-65452380D02*
X141738095Y-64976190D01*
X141500000Y-65452380D02*
X141500000Y-64452380D01*
X141880952Y-64452380D01*
X141976190Y-64500000D01*
X142023809Y-64547619D01*
X142071428Y-64642857D01*
X142071428Y-64785714D01*
X142023809Y-64880952D01*
X141976190Y-64928571D01*
X141880952Y-64976190D01*
X141500000Y-64976190D01*
X142690476Y-64452380D02*
X142880952Y-64452380D01*
X142976190Y-64500000D01*
X143071428Y-64595238D01*
X143119047Y-64785714D01*
X143119047Y-65119047D01*
X143071428Y-65309523D01*
X142976190Y-65404761D01*
X142880952Y-65452380D01*
X142690476Y-65452380D01*
X142595238Y-65404761D01*
X142500000Y-65309523D01*
X142452380Y-65119047D01*
X142452380Y-64785714D01*
X142500000Y-64595238D01*
X142595238Y-64500000D01*
X142690476Y-64452380D01*
X143738095Y-64452380D02*
X143928571Y-64452380D01*
X144023809Y-64500000D01*
X144119047Y-64595238D01*
X144166666Y-64785714D01*
X144166666Y-65119047D01*
X144119047Y-65309523D01*
X144023809Y-65404761D01*
X143928571Y-65452380D01*
X143738095Y-65452380D01*
X143642857Y-65404761D01*
X143547619Y-65309523D01*
X143500000Y-65119047D01*
X143500000Y-64785714D01*
X143547619Y-64595238D01*
X143642857Y-64500000D01*
X143738095Y-64452380D01*
X144595238Y-65452380D02*
X144595238Y-64452380D01*
X144928571Y-65166666D01*
X145261904Y-64452380D01*
X145261904Y-65452380D01*
X145595238Y-64452380D02*
X146166666Y-64452380D01*
X145880952Y-65452380D02*
X145880952Y-64452380D01*
X146500000Y-65452380D02*
X146500000Y-64452380D01*
X146500000Y-64928571D02*
X147071428Y-64928571D01*
X147071428Y-65452380D02*
X147071428Y-64452380D01*
X147547619Y-64928571D02*
X147880952Y-64928571D01*
X148023809Y-65452380D02*
X147547619Y-65452380D01*
X147547619Y-64452380D01*
X148023809Y-64452380D01*
X149023809Y-65452380D02*
X148690476Y-64976190D01*
X148452380Y-65452380D02*
X148452380Y-64452380D01*
X148833333Y-64452380D01*
X148928571Y-64500000D01*
X148976190Y-64547619D01*
X149023809Y-64642857D01*
X149023809Y-64785714D01*
X148976190Y-64880952D01*
X148928571Y-64928571D01*
X148833333Y-64976190D01*
X148452380Y-64976190D01*
X149452380Y-65452380D02*
X149452380Y-64452380D01*
X149785714Y-65166666D01*
X150119047Y-64452380D01*
X150119047Y-65452380D01*
X150785714Y-64452380D02*
X150976190Y-64452380D01*
X151071428Y-64500000D01*
X151166666Y-64595238D01*
X151214285Y-64785714D01*
X151214285Y-65119047D01*
X151166666Y-65309523D01*
X151071428Y-65404761D01*
X150976190Y-65452380D01*
X150785714Y-65452380D01*
X150690476Y-65404761D01*
X150595238Y-65309523D01*
X150547619Y-65119047D01*
X150547619Y-64785714D01*
X150595238Y-64595238D01*
X150690476Y-64500000D01*
X150785714Y-64452380D01*
X151595238Y-65404761D02*
X151738095Y-65452380D01*
X151976190Y-65452380D01*
X152071428Y-65404761D01*
X152119047Y-65357142D01*
X152166666Y-65261904D01*
X152166666Y-65166666D01*
X152119047Y-65071428D01*
X152071428Y-65023809D01*
X151976190Y-64976190D01*
X151785714Y-64928571D01*
X151690476Y-64880952D01*
X151642857Y-64833333D01*
X151595238Y-64738095D01*
X151595238Y-64642857D01*
X151642857Y-64547619D01*
X151690476Y-64500000D01*
X151785714Y-64452380D01*
X152023809Y-64452380D01*
X152166666Y-64500000D01*
X152452380Y-64452380D02*
X153023809Y-64452380D01*
X152738095Y-65452380D02*
X152738095Y-64452380D01*
X153309523Y-65166666D02*
X153785714Y-65166666D01*
X153214285Y-65452380D02*
X153547619Y-64452380D01*
X153880952Y-65452380D01*
X154071428Y-64452380D02*
X154642857Y-64452380D01*
X154357142Y-65452380D02*
X154357142Y-64452380D01*
X155595238Y-64452380D02*
X155928571Y-65452380D01*
X156261904Y-64452380D01*
X157119047Y-65452380D02*
X156547619Y-65452380D01*
X156833333Y-65452380D02*
X156833333Y-64452380D01*
X156738095Y-64595238D01*
X156642857Y-64690476D01*
X156547619Y-64738095D01*
X157547619Y-65357142D02*
X157595238Y-65404761D01*
X157547619Y-65452380D01*
X157500000Y-65404761D01*
X157547619Y-65357142D01*
X157547619Y-65452380D01*
X158547619Y-65452380D02*
X157976190Y-65452380D01*
X158261904Y-65452380D02*
X158261904Y-64452380D01*
X158166666Y-64595238D01*
X158071428Y-64690476D01*
X157976190Y-64738095D01*
X152200000Y-108585000D02*
X152200000Y-117881400D01*
X126800000Y-108559600D02*
X126800000Y-110286800D01*
X126800000Y-125984000D02*
X126800000Y-132994400D01*
X161417000Y-115000000D02*
X154559000Y-115000000D01*
X167081200Y-135128000D02*
X181610000Y-135128000D01*
X161340800Y-135178800D02*
X159613600Y-135178800D01*
X121800000Y-108305600D02*
X121800000Y-115112800D01*
X164439600Y-115000000D02*
X181711600Y-115000000D01*
X170094780Y-133999314D02*
X170094780Y-134665980D01*
X169666209Y-133999314D02*
X169666209Y-134523123D01*
X169713828Y-134618361D01*
X169809066Y-134665980D01*
X169951923Y-134665980D01*
X170047161Y-134618361D01*
X170094780Y-134570742D01*
X170570971Y-133999314D02*
X170570971Y-134665980D01*
X170570971Y-134094552D02*
X170618590Y-134046933D01*
X170713828Y-133999314D01*
X170856685Y-133999314D01*
X170951923Y-134046933D01*
X170999542Y-134142171D01*
X170999542Y-134665980D01*
X171904304Y-134618361D02*
X171809066Y-134665980D01*
X171618590Y-134665980D01*
X171523352Y-134618361D01*
X171475733Y-134570742D01*
X171428114Y-134475504D01*
X171428114Y-134189790D01*
X171475733Y-134094552D01*
X171523352Y-134046933D01*
X171618590Y-133999314D01*
X171809066Y-133999314D01*
X171904304Y-134046933D01*
X172475733Y-134665980D02*
X172380495Y-134618361D01*
X172332876Y-134570742D01*
X172285257Y-134475504D01*
X172285257Y-134189790D01*
X172332876Y-134094552D01*
X172380495Y-134046933D01*
X172475733Y-133999314D01*
X172618590Y-133999314D01*
X172713828Y-134046933D01*
X172761447Y-134094552D01*
X172809066Y-134189790D01*
X172809066Y-134475504D01*
X172761447Y-134570742D01*
X172713828Y-134618361D01*
X172618590Y-134665980D01*
X172475733Y-134665980D01*
X173237638Y-133999314D02*
X173237638Y-134665980D01*
X173237638Y-134094552D02*
X173285257Y-134046933D01*
X173380495Y-133999314D01*
X173523352Y-133999314D01*
X173618590Y-134046933D01*
X173666209Y-134142171D01*
X173666209Y-134665980D01*
X174142400Y-133999314D02*
X174142400Y-134665980D01*
X174142400Y-134094552D02*
X174190019Y-134046933D01*
X174285257Y-133999314D01*
X174428114Y-133999314D01*
X174523352Y-134046933D01*
X174570971Y-134142171D01*
X174570971Y-134665980D01*
X175428114Y-134618361D02*
X175332876Y-134665980D01*
X175142400Y-134665980D01*
X175047161Y-134618361D01*
X174999542Y-134523123D01*
X174999542Y-134142171D01*
X175047161Y-134046933D01*
X175142400Y-133999314D01*
X175332876Y-133999314D01*
X175428114Y-134046933D01*
X175475733Y-134142171D01*
X175475733Y-134237409D01*
X174999542Y-134332647D01*
X176332876Y-134618361D02*
X176237638Y-134665980D01*
X176047161Y-134665980D01*
X175951923Y-134618361D01*
X175904304Y-134570742D01*
X175856685Y-134475504D01*
X175856685Y-134189790D01*
X175904304Y-134094552D01*
X175951923Y-134046933D01*
X176047161Y-133999314D01*
X176237638Y-133999314D01*
X176332876Y-134046933D01*
X176618590Y-133999314D02*
X176999542Y-133999314D01*
X176761447Y-133665980D02*
X176761447Y-134523123D01*
X176809066Y-134618361D01*
X176904304Y-134665980D01*
X176999542Y-134665980D01*
X177713828Y-134618361D02*
X177618590Y-134665980D01*
X177428114Y-134665980D01*
X177332876Y-134618361D01*
X177285257Y-134523123D01*
X177285257Y-134142171D01*
X177332876Y-134046933D01*
X177428114Y-133999314D01*
X177618590Y-133999314D01*
X177713828Y-134046933D01*
X177761447Y-134142171D01*
X177761447Y-134237409D01*
X177285257Y-134332647D01*
X178618590Y-134665980D02*
X178618590Y-133665980D01*
X178618590Y-134618361D02*
X178523352Y-134665980D01*
X178332876Y-134665980D01*
X178237638Y-134618361D01*
X178190019Y-134570742D01*
X178142400Y-134475504D01*
X178142400Y-134189790D01*
X178190019Y-134094552D01*
X178237638Y-134046933D01*
X178332876Y-133999314D01*
X178523352Y-133999314D01*
X178618590Y-134046933D01*
X171517180Y-115508114D02*
X171517180Y-116174780D01*
X171088609Y-115508114D02*
X171088609Y-116031923D01*
X171136228Y-116127161D01*
X171231466Y-116174780D01*
X171374323Y-116174780D01*
X171469561Y-116127161D01*
X171517180Y-116079542D01*
X171993371Y-115508114D02*
X171993371Y-116174780D01*
X171993371Y-115603352D02*
X172040990Y-115555733D01*
X172136228Y-115508114D01*
X172279085Y-115508114D01*
X172374323Y-115555733D01*
X172421942Y-115650971D01*
X172421942Y-116174780D01*
X173326704Y-116127161D02*
X173231466Y-116174780D01*
X173040990Y-116174780D01*
X172945752Y-116127161D01*
X172898133Y-116079542D01*
X172850514Y-115984304D01*
X172850514Y-115698590D01*
X172898133Y-115603352D01*
X172945752Y-115555733D01*
X173040990Y-115508114D01*
X173231466Y-115508114D01*
X173326704Y-115555733D01*
X173898133Y-116174780D02*
X173802895Y-116127161D01*
X173755276Y-116079542D01*
X173707657Y-115984304D01*
X173707657Y-115698590D01*
X173755276Y-115603352D01*
X173802895Y-115555733D01*
X173898133Y-115508114D01*
X174040990Y-115508114D01*
X174136228Y-115555733D01*
X174183847Y-115603352D01*
X174231466Y-115698590D01*
X174231466Y-115984304D01*
X174183847Y-116079542D01*
X174136228Y-116127161D01*
X174040990Y-116174780D01*
X173898133Y-116174780D01*
X174660038Y-115508114D02*
X174660038Y-116174780D01*
X174660038Y-115603352D02*
X174707657Y-115555733D01*
X174802895Y-115508114D01*
X174945752Y-115508114D01*
X175040990Y-115555733D01*
X175088609Y-115650971D01*
X175088609Y-116174780D01*
X175564800Y-115508114D02*
X175564800Y-116174780D01*
X175564800Y-115603352D02*
X175612419Y-115555733D01*
X175707657Y-115508114D01*
X175850514Y-115508114D01*
X175945752Y-115555733D01*
X175993371Y-115650971D01*
X175993371Y-116174780D01*
X176850514Y-116127161D02*
X176755276Y-116174780D01*
X176564800Y-116174780D01*
X176469561Y-116127161D01*
X176421942Y-116031923D01*
X176421942Y-115650971D01*
X176469561Y-115555733D01*
X176564800Y-115508114D01*
X176755276Y-115508114D01*
X176850514Y-115555733D01*
X176898133Y-115650971D01*
X176898133Y-115746209D01*
X176421942Y-115841447D01*
X177755276Y-116127161D02*
X177660038Y-116174780D01*
X177469561Y-116174780D01*
X177374323Y-116127161D01*
X177326704Y-116079542D01*
X177279085Y-115984304D01*
X177279085Y-115698590D01*
X177326704Y-115603352D01*
X177374323Y-115555733D01*
X177469561Y-115508114D01*
X177660038Y-115508114D01*
X177755276Y-115555733D01*
X178040990Y-115508114D02*
X178421942Y-115508114D01*
X178183847Y-115174780D02*
X178183847Y-116031923D01*
X178231466Y-116127161D01*
X178326704Y-116174780D01*
X178421942Y-116174780D01*
X179136228Y-116127161D02*
X179040990Y-116174780D01*
X178850514Y-116174780D01*
X178755276Y-116127161D01*
X178707657Y-116031923D01*
X178707657Y-115650971D01*
X178755276Y-115555733D01*
X178850514Y-115508114D01*
X179040990Y-115508114D01*
X179136228Y-115555733D01*
X179183847Y-115650971D01*
X179183847Y-115746209D01*
X178707657Y-115841447D01*
X180040990Y-116174780D02*
X180040990Y-115174780D01*
X180040990Y-116127161D02*
X179945752Y-116174780D01*
X179755276Y-116174780D01*
X179660038Y-116127161D01*
X179612419Y-116079542D01*
X179564800Y-115984304D01*
X179564800Y-115698590D01*
X179612419Y-115603352D01*
X179660038Y-115555733D01*
X179755276Y-115508114D01*
X179945752Y-115508114D01*
X180040990Y-115555733D01*
%TO.C,T2*%
X193588095Y-89452380D02*
X194159523Y-89452380D01*
X193873809Y-90452380D02*
X193873809Y-89452380D01*
X194445238Y-89547619D02*
X194492857Y-89500000D01*
X194588095Y-89452380D01*
X194826190Y-89452380D01*
X194921428Y-89500000D01*
X194969047Y-89547619D01*
X195016666Y-89642857D01*
X195016666Y-89738095D01*
X194969047Y-89880952D01*
X194397619Y-90452380D01*
X195016666Y-90452380D01*
X183844133Y-95330971D02*
X183986990Y-95378590D01*
X184034609Y-95426209D01*
X184082228Y-95521447D01*
X184082228Y-95664304D01*
X184034609Y-95759542D01*
X183986990Y-95807161D01*
X183891752Y-95854780D01*
X183510800Y-95854780D01*
X183510800Y-94854780D01*
X183844133Y-94854780D01*
X183939371Y-94902400D01*
X183986990Y-94950019D01*
X184034609Y-95045257D01*
X184034609Y-95140495D01*
X183986990Y-95235733D01*
X183939371Y-95283352D01*
X183844133Y-95330971D01*
X183510800Y-95330971D01*
X184939371Y-95188114D02*
X184939371Y-95854780D01*
X184510800Y-95188114D02*
X184510800Y-95711923D01*
X184558419Y-95807161D01*
X184653657Y-95854780D01*
X184796514Y-95854780D01*
X184891752Y-95807161D01*
X184939371Y-95759542D01*
X185272704Y-95188114D02*
X185653657Y-95188114D01*
X185415561Y-94854780D02*
X185415561Y-95711923D01*
X185463180Y-95807161D01*
X185558419Y-95854780D01*
X185653657Y-95854780D01*
X185844133Y-95188114D02*
X186225085Y-95188114D01*
X185986990Y-94854780D02*
X185986990Y-95711923D01*
X186034609Y-95807161D01*
X186129847Y-95854780D01*
X186225085Y-95854780D01*
X186701276Y-95854780D02*
X186606038Y-95807161D01*
X186558419Y-95759542D01*
X186510800Y-95664304D01*
X186510800Y-95378590D01*
X186558419Y-95283352D01*
X186606038Y-95235733D01*
X186701276Y-95188114D01*
X186844133Y-95188114D01*
X186939371Y-95235733D01*
X186986990Y-95283352D01*
X187034609Y-95378590D01*
X187034609Y-95664304D01*
X186986990Y-95759542D01*
X186939371Y-95807161D01*
X186844133Y-95854780D01*
X186701276Y-95854780D01*
X187463180Y-95188114D02*
X187463180Y-95854780D01*
X187463180Y-95283352D02*
X187510800Y-95235733D01*
X187606038Y-95188114D01*
X187748895Y-95188114D01*
X187844133Y-95235733D01*
X187891752Y-95330971D01*
X187891752Y-95854780D01*
X188320323Y-95807161D02*
X188463180Y-95854780D01*
X188701276Y-95854780D01*
X188796514Y-95807161D01*
X188844133Y-95759542D01*
X188891752Y-95664304D01*
X188891752Y-95569066D01*
X188844133Y-95473828D01*
X188796514Y-95426209D01*
X188701276Y-95378590D01*
X188510800Y-95330971D01*
X188415561Y-95283352D01*
X188367942Y-95235733D01*
X188320323Y-95140495D01*
X188320323Y-95045257D01*
X188367942Y-94950019D01*
X188415561Y-94902400D01*
X188510800Y-94854780D01*
X188748895Y-94854780D01*
X188891752Y-94902400D01*
X189701276Y-95807161D02*
X189606038Y-95854780D01*
X189415561Y-95854780D01*
X189320323Y-95807161D01*
X189272704Y-95711923D01*
X189272704Y-95330971D01*
X189320323Y-95235733D01*
X189415561Y-95188114D01*
X189606038Y-95188114D01*
X189701276Y-95235733D01*
X189748895Y-95330971D01*
X189748895Y-95426209D01*
X189272704Y-95521447D01*
X190320323Y-95854780D02*
X190225085Y-95807161D01*
X190177466Y-95711923D01*
X190177466Y-94854780D01*
X191082228Y-95807161D02*
X190986990Y-95854780D01*
X190796514Y-95854780D01*
X190701276Y-95807161D01*
X190653657Y-95711923D01*
X190653657Y-95330971D01*
X190701276Y-95235733D01*
X190796514Y-95188114D01*
X190986990Y-95188114D01*
X191082228Y-95235733D01*
X191129847Y-95330971D01*
X191129847Y-95426209D01*
X190653657Y-95521447D01*
X191986990Y-95807161D02*
X191891752Y-95854780D01*
X191701276Y-95854780D01*
X191606038Y-95807161D01*
X191558419Y-95759542D01*
X191510800Y-95664304D01*
X191510800Y-95378590D01*
X191558419Y-95283352D01*
X191606038Y-95235733D01*
X191701276Y-95188114D01*
X191891752Y-95188114D01*
X191986990Y-95235733D01*
X192272704Y-95188114D02*
X192653657Y-95188114D01*
X192415561Y-94854780D02*
X192415561Y-95711923D01*
X192463180Y-95807161D01*
X192558419Y-95854780D01*
X192653657Y-95854780D01*
%TO.C,U7*%
X104238095Y-129703580D02*
X104238095Y-130513104D01*
X104285714Y-130608342D01*
X104333333Y-130655961D01*
X104428571Y-130703580D01*
X104619047Y-130703580D01*
X104714285Y-130655961D01*
X104761904Y-130608342D01*
X104809523Y-130513104D01*
X104809523Y-129703580D01*
X105190476Y-129703580D02*
X105857142Y-129703580D01*
X105428571Y-130703580D01*
X108343866Y-135443980D02*
X108677200Y-136443980D01*
X109010533Y-135443980D01*
X109343866Y-136443980D02*
X109343866Y-135443980D01*
X109581961Y-135443980D01*
X109724819Y-135491600D01*
X109820057Y-135586838D01*
X109867676Y-135682076D01*
X109915295Y-135872552D01*
X109915295Y-136015409D01*
X109867676Y-136205885D01*
X109820057Y-136301123D01*
X109724819Y-136396361D01*
X109581961Y-136443980D01*
X109343866Y-136443980D01*
X110343866Y-136443980D02*
X110343866Y-135443980D01*
X110581961Y-135443980D01*
X110724819Y-135491600D01*
X110820057Y-135586838D01*
X110867676Y-135682076D01*
X110915295Y-135872552D01*
X110915295Y-136015409D01*
X110867676Y-136205885D01*
X110820057Y-136301123D01*
X110724819Y-136396361D01*
X110581961Y-136443980D01*
X110343866Y-136443980D01*
X108915295Y-131500000D02*
X108820057Y-131452380D01*
X108677200Y-131452380D01*
X108534342Y-131500000D01*
X108439104Y-131595238D01*
X108391485Y-131690476D01*
X108343866Y-131880952D01*
X108343866Y-132023809D01*
X108391485Y-132214285D01*
X108439104Y-132309523D01*
X108534342Y-132404761D01*
X108677200Y-132452380D01*
X108772438Y-132452380D01*
X108915295Y-132404761D01*
X108962914Y-132357142D01*
X108962914Y-132023809D01*
X108772438Y-132023809D01*
X109391485Y-132452380D02*
X109391485Y-131452380D01*
X109962914Y-132452380D01*
X109962914Y-131452380D01*
X110439104Y-132452380D02*
X110439104Y-131452380D01*
X110677200Y-131452380D01*
X110820057Y-131500000D01*
X110915295Y-131595238D01*
X110962914Y-131690476D01*
X111010533Y-131880952D01*
X111010533Y-132023809D01*
X110962914Y-132214285D01*
X110915295Y-132309523D01*
X110820057Y-132404761D01*
X110677200Y-132452380D01*
X110439104Y-132452380D01*
X108485085Y-134411980D02*
X108485085Y-133411980D01*
X108723180Y-133411980D01*
X108866038Y-133459600D01*
X108961276Y-133554838D01*
X109008895Y-133650076D01*
X109056514Y-133840552D01*
X109056514Y-133983409D01*
X109008895Y-134173885D01*
X108961276Y-134269123D01*
X108866038Y-134364361D01*
X108723180Y-134411980D01*
X108485085Y-134411980D01*
X110151752Y-134507219D02*
X110056514Y-134459600D01*
X109961276Y-134364361D01*
X109818419Y-134221504D01*
X109723180Y-134173885D01*
X109627942Y-134173885D01*
X109675561Y-134411980D02*
X109580323Y-134364361D01*
X109485085Y-134269123D01*
X109437466Y-134078647D01*
X109437466Y-133745314D01*
X109485085Y-133554838D01*
X109580323Y-133459600D01*
X109675561Y-133411980D01*
X109866038Y-133411980D01*
X109961276Y-133459600D01*
X110056514Y-133554838D01*
X110104133Y-133745314D01*
X110104133Y-134078647D01*
X110056514Y-134269123D01*
X109961276Y-134364361D01*
X109866038Y-134411980D01*
X109675561Y-134411980D01*
%TO.C,U3*%
X180037619Y-124238095D02*
X179228095Y-124238095D01*
X179132857Y-124285714D01*
X179085238Y-124333333D01*
X179037619Y-124428571D01*
X179037619Y-124619047D01*
X179085238Y-124714285D01*
X179132857Y-124761904D01*
X179228095Y-124809523D01*
X180037619Y-124809523D01*
X180037619Y-125190476D02*
X180037619Y-125809523D01*
X179656666Y-125476190D01*
X179656666Y-125619047D01*
X179609047Y-125714285D01*
X179561428Y-125761904D01*
X179466190Y-125809523D01*
X179228095Y-125809523D01*
X179132857Y-125761904D01*
X179085238Y-125714285D01*
X179037619Y-125619047D01*
X179037619Y-125333333D01*
X179085238Y-125238095D01*
X179132857Y-125190476D01*
X158135428Y-120277238D02*
X158087809Y-120420095D01*
X158040190Y-120467714D01*
X157944952Y-120515333D01*
X157802095Y-120515333D01*
X157706857Y-120467714D01*
X157659238Y-120420095D01*
X157611619Y-120324857D01*
X157611619Y-119943904D01*
X158611619Y-119943904D01*
X158611619Y-120277238D01*
X158564000Y-120372476D01*
X158516380Y-120420095D01*
X158421142Y-120467714D01*
X158325904Y-120467714D01*
X158230666Y-120420095D01*
X158183047Y-120372476D01*
X158135428Y-120277238D01*
X158135428Y-119943904D01*
X157611619Y-121467714D02*
X157611619Y-120896285D01*
X157611619Y-121182000D02*
X158611619Y-121182000D01*
X158468761Y-121086761D01*
X158373523Y-120991523D01*
X158325904Y-120896285D01*
X163527619Y-133699523D02*
X163527619Y-133223333D01*
X163051428Y-133175714D01*
X163099047Y-133223333D01*
X163146666Y-133318571D01*
X163146666Y-133556666D01*
X163099047Y-133651904D01*
X163051428Y-133699523D01*
X162956190Y-133747142D01*
X162718095Y-133747142D01*
X162622857Y-133699523D01*
X162575238Y-133651904D01*
X162527619Y-133556666D01*
X162527619Y-133318571D01*
X162575238Y-133223333D01*
X162622857Y-133175714D01*
X163527619Y-134032857D02*
X162527619Y-134366190D01*
X163527619Y-134699523D01*
X158135428Y-128659238D02*
X158087809Y-128802095D01*
X158040190Y-128849714D01*
X157944952Y-128897333D01*
X157802095Y-128897333D01*
X157706857Y-128849714D01*
X157659238Y-128802095D01*
X157611619Y-128706857D01*
X157611619Y-128325904D01*
X158611619Y-128325904D01*
X158611619Y-128659238D01*
X158564000Y-128754476D01*
X158516380Y-128802095D01*
X158421142Y-128849714D01*
X158325904Y-128849714D01*
X158230666Y-128802095D01*
X158183047Y-128754476D01*
X158135428Y-128659238D01*
X158135428Y-128325904D01*
X158516380Y-129278285D02*
X158564000Y-129325904D01*
X158611619Y-129421142D01*
X158611619Y-129659238D01*
X158564000Y-129754476D01*
X158516380Y-129802095D01*
X158421142Y-129849714D01*
X158325904Y-129849714D01*
X158183047Y-129802095D01*
X157611619Y-129230666D01*
X157611619Y-129849714D01*
X163527619Y-114871904D02*
X163527619Y-115490952D01*
X163146666Y-115157619D01*
X163146666Y-115300476D01*
X163099047Y-115395714D01*
X163051428Y-115443333D01*
X162956190Y-115490952D01*
X162718095Y-115490952D01*
X162622857Y-115443333D01*
X162575238Y-115395714D01*
X162527619Y-115300476D01*
X162527619Y-115014761D01*
X162575238Y-114919523D01*
X162622857Y-114871904D01*
X163527619Y-115776666D02*
X162527619Y-116110000D01*
X163527619Y-116443333D01*
X163527619Y-116681428D02*
X163527619Y-117300476D01*
X163146666Y-116967142D01*
X163146666Y-117110000D01*
X163099047Y-117205238D01*
X163051428Y-117252857D01*
X162956190Y-117300476D01*
X162718095Y-117300476D01*
X162622857Y-117252857D01*
X162575238Y-117205238D01*
X162527619Y-117110000D01*
X162527619Y-116824285D01*
X162575238Y-116729047D01*
X162622857Y-116681428D01*
X176227619Y-127810000D02*
X176227619Y-128000476D01*
X176180000Y-128095714D01*
X176084761Y-128190952D01*
X175894285Y-128238571D01*
X175560952Y-128238571D01*
X175370476Y-128190952D01*
X175275238Y-128095714D01*
X175227619Y-128000476D01*
X175227619Y-127810000D01*
X175275238Y-127714761D01*
X175370476Y-127619523D01*
X175560952Y-127571904D01*
X175894285Y-127571904D01*
X176084761Y-127619523D01*
X176180000Y-127714761D01*
X176227619Y-127810000D01*
X176227619Y-128667142D02*
X175418095Y-128667142D01*
X175322857Y-128714761D01*
X175275238Y-128762380D01*
X175227619Y-128857619D01*
X175227619Y-129048095D01*
X175275238Y-129143333D01*
X175322857Y-129190952D01*
X175418095Y-129238571D01*
X176227619Y-129238571D01*
X176227619Y-129571904D02*
X176227619Y-130143333D01*
X175227619Y-129857619D02*
X176227619Y-129857619D01*
X166020000Y-133128095D02*
X166067619Y-133032857D01*
X166067619Y-132890000D01*
X166020000Y-132747142D01*
X165924761Y-132651904D01*
X165829523Y-132604285D01*
X165639047Y-132556666D01*
X165496190Y-132556666D01*
X165305714Y-132604285D01*
X165210476Y-132651904D01*
X165115238Y-132747142D01*
X165067619Y-132890000D01*
X165067619Y-132985238D01*
X165115238Y-133128095D01*
X165162857Y-133175714D01*
X165496190Y-133175714D01*
X165496190Y-132985238D01*
X165067619Y-133604285D02*
X166067619Y-133604285D01*
X165067619Y-134175714D01*
X166067619Y-134175714D01*
X165067619Y-134651904D02*
X166067619Y-134651904D01*
X166067619Y-134890000D01*
X166020000Y-135032857D01*
X165924761Y-135128095D01*
X165829523Y-135175714D01*
X165639047Y-135223333D01*
X165496190Y-135223333D01*
X165305714Y-135175714D01*
X165210476Y-135128095D01*
X165115238Y-135032857D01*
X165067619Y-134890000D01*
X165067619Y-134651904D01*
X172687619Y-128286190D02*
X173687619Y-128286190D01*
X172687619Y-128762380D02*
X173687619Y-128762380D01*
X172687619Y-129333809D01*
X173687619Y-129333809D01*
%TO.C,T3*%
X193588095Y-104452380D02*
X194159523Y-104452380D01*
X193873809Y-105452380D02*
X193873809Y-104452380D01*
X194397619Y-104452380D02*
X195016666Y-104452380D01*
X194683333Y-104833333D01*
X194826190Y-104833333D01*
X194921428Y-104880952D01*
X194969047Y-104928571D01*
X195016666Y-105023809D01*
X195016666Y-105261904D01*
X194969047Y-105357142D01*
X194921428Y-105404761D01*
X194826190Y-105452380D01*
X194540476Y-105452380D01*
X194445238Y-105404761D01*
X194397619Y-105357142D01*
X184123485Y-109808971D02*
X184266342Y-109856590D01*
X184313961Y-109904209D01*
X184361580Y-109999447D01*
X184361580Y-110142304D01*
X184313961Y-110237542D01*
X184266342Y-110285161D01*
X184171104Y-110332780D01*
X183790152Y-110332780D01*
X183790152Y-109332780D01*
X184123485Y-109332780D01*
X184218723Y-109380400D01*
X184266342Y-109428019D01*
X184313961Y-109523257D01*
X184313961Y-109618495D01*
X184266342Y-109713733D01*
X184218723Y-109761352D01*
X184123485Y-109808971D01*
X183790152Y-109808971D01*
X185218723Y-109666114D02*
X185218723Y-110332780D01*
X184790152Y-109666114D02*
X184790152Y-110189923D01*
X184837771Y-110285161D01*
X184933009Y-110332780D01*
X185075866Y-110332780D01*
X185171104Y-110285161D01*
X185218723Y-110237542D01*
X185552057Y-109666114D02*
X185933009Y-109666114D01*
X185694914Y-109332780D02*
X185694914Y-110189923D01*
X185742533Y-110285161D01*
X185837771Y-110332780D01*
X185933009Y-110332780D01*
X186123485Y-109666114D02*
X186504438Y-109666114D01*
X186266342Y-109332780D02*
X186266342Y-110189923D01*
X186313961Y-110285161D01*
X186409200Y-110332780D01*
X186504438Y-110332780D01*
X186980628Y-110332780D02*
X186885390Y-110285161D01*
X186837771Y-110237542D01*
X186790152Y-110142304D01*
X186790152Y-109856590D01*
X186837771Y-109761352D01*
X186885390Y-109713733D01*
X186980628Y-109666114D01*
X187123485Y-109666114D01*
X187218723Y-109713733D01*
X187266342Y-109761352D01*
X187313961Y-109856590D01*
X187313961Y-110142304D01*
X187266342Y-110237542D01*
X187218723Y-110285161D01*
X187123485Y-110332780D01*
X186980628Y-110332780D01*
X187742533Y-109666114D02*
X187742533Y-110332780D01*
X187742533Y-109761352D02*
X187790152Y-109713733D01*
X187885390Y-109666114D01*
X188028247Y-109666114D01*
X188123485Y-109713733D01*
X188171104Y-109808971D01*
X188171104Y-110332780D01*
X188647295Y-110332780D02*
X188647295Y-109332780D01*
X188885390Y-109332780D01*
X189028247Y-109380400D01*
X189123485Y-109475638D01*
X189171104Y-109570876D01*
X189218723Y-109761352D01*
X189218723Y-109904209D01*
X189171104Y-110094685D01*
X189123485Y-110189923D01*
X189028247Y-110285161D01*
X188885390Y-110332780D01*
X188647295Y-110332780D01*
X189790152Y-110332780D02*
X189694914Y-110285161D01*
X189647295Y-110237542D01*
X189599676Y-110142304D01*
X189599676Y-109856590D01*
X189647295Y-109761352D01*
X189694914Y-109713733D01*
X189790152Y-109666114D01*
X189933009Y-109666114D01*
X190028247Y-109713733D01*
X190075866Y-109761352D01*
X190123485Y-109856590D01*
X190123485Y-110142304D01*
X190075866Y-110237542D01*
X190028247Y-110285161D01*
X189933009Y-110332780D01*
X189790152Y-110332780D01*
X190456819Y-109666114D02*
X190647295Y-110332780D01*
X190837771Y-109856590D01*
X191028247Y-110332780D01*
X191218723Y-109666114D01*
X191599676Y-109666114D02*
X191599676Y-110332780D01*
X191599676Y-109761352D02*
X191647295Y-109713733D01*
X191742533Y-109666114D01*
X191885390Y-109666114D01*
X191980628Y-109713733D01*
X192028247Y-109808971D01*
X192028247Y-110332780D01*
%TO.C,T1*%
X193588095Y-74452380D02*
X194159523Y-74452380D01*
X193873809Y-75452380D02*
X193873809Y-74452380D01*
X195016666Y-75452380D02*
X194445238Y-75452380D01*
X194730952Y-75452380D02*
X194730952Y-74452380D01*
X194635714Y-74595238D01*
X194540476Y-74690476D01*
X194445238Y-74738095D01*
X185177466Y-80090971D02*
X185320323Y-80138590D01*
X185367942Y-80186209D01*
X185415561Y-80281447D01*
X185415561Y-80424304D01*
X185367942Y-80519542D01*
X185320323Y-80567161D01*
X185225085Y-80614780D01*
X184844133Y-80614780D01*
X184844133Y-79614780D01*
X185177466Y-79614780D01*
X185272704Y-79662400D01*
X185320323Y-79710019D01*
X185367942Y-79805257D01*
X185367942Y-79900495D01*
X185320323Y-79995733D01*
X185272704Y-80043352D01*
X185177466Y-80090971D01*
X184844133Y-80090971D01*
X186272704Y-79948114D02*
X186272704Y-80614780D01*
X185844133Y-79948114D02*
X185844133Y-80471923D01*
X185891752Y-80567161D01*
X185986990Y-80614780D01*
X186129847Y-80614780D01*
X186225085Y-80567161D01*
X186272704Y-80519542D01*
X186606038Y-79948114D02*
X186986990Y-79948114D01*
X186748895Y-79614780D02*
X186748895Y-80471923D01*
X186796514Y-80567161D01*
X186891752Y-80614780D01*
X186986990Y-80614780D01*
X187177466Y-79948114D02*
X187558419Y-79948114D01*
X187320323Y-79614780D02*
X187320323Y-80471923D01*
X187367942Y-80567161D01*
X187463180Y-80614780D01*
X187558419Y-80614780D01*
X188034609Y-80614780D02*
X187939371Y-80567161D01*
X187891752Y-80519542D01*
X187844133Y-80424304D01*
X187844133Y-80138590D01*
X187891752Y-80043352D01*
X187939371Y-79995733D01*
X188034609Y-79948114D01*
X188177466Y-79948114D01*
X188272704Y-79995733D01*
X188320323Y-80043352D01*
X188367942Y-80138590D01*
X188367942Y-80424304D01*
X188320323Y-80519542D01*
X188272704Y-80567161D01*
X188177466Y-80614780D01*
X188034609Y-80614780D01*
X188796514Y-79948114D02*
X188796514Y-80614780D01*
X188796514Y-80043352D02*
X188844133Y-79995733D01*
X188939371Y-79948114D01*
X189082228Y-79948114D01*
X189177466Y-79995733D01*
X189225085Y-80090971D01*
X189225085Y-80614780D01*
X189701276Y-79614780D02*
X189701276Y-80424304D01*
X189748895Y-80519542D01*
X189796514Y-80567161D01*
X189891752Y-80614780D01*
X190082228Y-80614780D01*
X190177466Y-80567161D01*
X190225085Y-80519542D01*
X190272704Y-80424304D01*
X190272704Y-79614780D01*
X190748895Y-79948114D02*
X190748895Y-80948114D01*
X190748895Y-79995733D02*
X190844133Y-79948114D01*
X191034609Y-79948114D01*
X191129847Y-79995733D01*
X191177466Y-80043352D01*
X191225085Y-80138590D01*
X191225085Y-80424304D01*
X191177466Y-80519542D01*
X191129847Y-80567161D01*
X191034609Y-80614780D01*
X190844133Y-80614780D01*
X190748895Y-80567161D01*
%TO.C,U6*%
X104238095Y-63612780D02*
X104238095Y-64422304D01*
X104285714Y-64517542D01*
X104333333Y-64565161D01*
X104428571Y-64612780D01*
X104619047Y-64612780D01*
X104714285Y-64565161D01*
X104761904Y-64517542D01*
X104809523Y-64422304D01*
X104809523Y-63612780D01*
X105714285Y-63612780D02*
X105523809Y-63612780D01*
X105428571Y-63660400D01*
X105380952Y-63708019D01*
X105285714Y-63850876D01*
X105238095Y-64041352D01*
X105238095Y-64422304D01*
X105285714Y-64517542D01*
X105333333Y-64565161D01*
X105428571Y-64612780D01*
X105619047Y-64612780D01*
X105714285Y-64565161D01*
X105761904Y-64517542D01*
X105809523Y-64422304D01*
X105809523Y-64184209D01*
X105761904Y-64088971D01*
X105714285Y-64041352D01*
X105619047Y-63993733D01*
X105428571Y-63993733D01*
X105333333Y-64041352D01*
X105285714Y-64088971D01*
X105238095Y-64184209D01*
X108191466Y-69454780D02*
X108524800Y-70454780D01*
X108858133Y-69454780D01*
X109191466Y-70454780D02*
X109191466Y-69454780D01*
X109429561Y-69454780D01*
X109572419Y-69502400D01*
X109667657Y-69597638D01*
X109715276Y-69692876D01*
X109762895Y-69883352D01*
X109762895Y-70026209D01*
X109715276Y-70216685D01*
X109667657Y-70311923D01*
X109572419Y-70407161D01*
X109429561Y-70454780D01*
X109191466Y-70454780D01*
X110191466Y-70454780D02*
X110191466Y-69454780D01*
X110429561Y-69454780D01*
X110572419Y-69502400D01*
X110667657Y-69597638D01*
X110715276Y-69692876D01*
X110762895Y-69883352D01*
X110762895Y-70026209D01*
X110715276Y-70216685D01*
X110667657Y-70311923D01*
X110572419Y-70407161D01*
X110429561Y-70454780D01*
X110191466Y-70454780D01*
X108586685Y-68422780D02*
X108586685Y-67422780D01*
X108824780Y-67422780D01*
X108967638Y-67470400D01*
X109062876Y-67565638D01*
X109110495Y-67660876D01*
X109158114Y-67851352D01*
X109158114Y-67994209D01*
X109110495Y-68184685D01*
X109062876Y-68279923D01*
X108967638Y-68375161D01*
X108824780Y-68422780D01*
X108586685Y-68422780D01*
X110253352Y-68518019D02*
X110158114Y-68470400D01*
X110062876Y-68375161D01*
X109920019Y-68232304D01*
X109824780Y-68184685D01*
X109729542Y-68184685D01*
X109777161Y-68422780D02*
X109681923Y-68375161D01*
X109586685Y-68279923D01*
X109539066Y-68089447D01*
X109539066Y-67756114D01*
X109586685Y-67565638D01*
X109681923Y-67470400D01*
X109777161Y-67422780D01*
X109967638Y-67422780D01*
X110062876Y-67470400D01*
X110158114Y-67565638D01*
X110205733Y-67756114D01*
X110205733Y-68089447D01*
X110158114Y-68279923D01*
X110062876Y-68375161D01*
X109967638Y-68422780D01*
X109777161Y-68422780D01*
X108864495Y-65438400D02*
X108769257Y-65390780D01*
X108626400Y-65390780D01*
X108483542Y-65438400D01*
X108388304Y-65533638D01*
X108340685Y-65628876D01*
X108293066Y-65819352D01*
X108293066Y-65962209D01*
X108340685Y-66152685D01*
X108388304Y-66247923D01*
X108483542Y-66343161D01*
X108626400Y-66390780D01*
X108721638Y-66390780D01*
X108864495Y-66343161D01*
X108912114Y-66295542D01*
X108912114Y-65962209D01*
X108721638Y-65962209D01*
X109340685Y-66390780D02*
X109340685Y-65390780D01*
X109912114Y-66390780D01*
X109912114Y-65390780D01*
X110388304Y-66390780D02*
X110388304Y-65390780D01*
X110626400Y-65390780D01*
X110769257Y-65438400D01*
X110864495Y-65533638D01*
X110912114Y-65628876D01*
X110959733Y-65819352D01*
X110959733Y-65962209D01*
X110912114Y-66152685D01*
X110864495Y-66247923D01*
X110769257Y-66343161D01*
X110626400Y-66390780D01*
X110388304Y-66390780D01*
%TO.C,U4*%
X194238095Y-63642380D02*
X194238095Y-64451904D01*
X194285714Y-64547142D01*
X194333333Y-64594761D01*
X194428571Y-64642380D01*
X194619047Y-64642380D01*
X194714285Y-64594761D01*
X194761904Y-64547142D01*
X194809523Y-64451904D01*
X194809523Y-63642380D01*
X195714285Y-63975714D02*
X195714285Y-64642380D01*
X195476190Y-63594761D02*
X195238095Y-64309047D01*
X195857142Y-64309047D01*
X189890495Y-69604000D02*
X189795257Y-69556380D01*
X189652400Y-69556380D01*
X189509542Y-69604000D01*
X189414304Y-69699238D01*
X189366685Y-69794476D01*
X189319066Y-69984952D01*
X189319066Y-70127809D01*
X189366685Y-70318285D01*
X189414304Y-70413523D01*
X189509542Y-70508761D01*
X189652400Y-70556380D01*
X189747638Y-70556380D01*
X189890495Y-70508761D01*
X189938114Y-70461142D01*
X189938114Y-70127809D01*
X189747638Y-70127809D01*
X190366685Y-70556380D02*
X190366685Y-69556380D01*
X190938114Y-70556380D01*
X190938114Y-69556380D01*
X191414304Y-70556380D02*
X191414304Y-69556380D01*
X191652400Y-69556380D01*
X191795257Y-69604000D01*
X191890495Y-69699238D01*
X191938114Y-69794476D01*
X191985733Y-69984952D01*
X191985733Y-70127809D01*
X191938114Y-70318285D01*
X191890495Y-70413523D01*
X191795257Y-70508761D01*
X191652400Y-70556380D01*
X191414304Y-70556380D01*
X189765085Y-68473580D02*
X189765085Y-67473580D01*
X190003180Y-67473580D01*
X190146038Y-67521200D01*
X190241276Y-67616438D01*
X190288895Y-67711676D01*
X190336514Y-67902152D01*
X190336514Y-68045009D01*
X190288895Y-68235485D01*
X190241276Y-68330723D01*
X190146038Y-68425961D01*
X190003180Y-68473580D01*
X189765085Y-68473580D01*
X191431752Y-68568819D02*
X191336514Y-68521200D01*
X191241276Y-68425961D01*
X191098419Y-68283104D01*
X191003180Y-68235485D01*
X190907942Y-68235485D01*
X190955561Y-68473580D02*
X190860323Y-68425961D01*
X190765085Y-68330723D01*
X190717466Y-68140247D01*
X190717466Y-67806914D01*
X190765085Y-67616438D01*
X190860323Y-67521200D01*
X190955561Y-67473580D01*
X191146038Y-67473580D01*
X191241276Y-67521200D01*
X191336514Y-67616438D01*
X191384133Y-67806914D01*
X191384133Y-68140247D01*
X191336514Y-68330723D01*
X191241276Y-68425961D01*
X191146038Y-68473580D01*
X190955561Y-68473580D01*
X189217466Y-65492380D02*
X189550800Y-66492380D01*
X189884133Y-65492380D01*
X190217466Y-66492380D02*
X190217466Y-65492380D01*
X190455561Y-65492380D01*
X190598419Y-65540000D01*
X190693657Y-65635238D01*
X190741276Y-65730476D01*
X190788895Y-65920952D01*
X190788895Y-66063809D01*
X190741276Y-66254285D01*
X190693657Y-66349523D01*
X190598419Y-66444761D01*
X190455561Y-66492380D01*
X190217466Y-66492380D01*
X191217466Y-66492380D02*
X191217466Y-65492380D01*
X191455561Y-65492380D01*
X191598419Y-65540000D01*
X191693657Y-65635238D01*
X191741276Y-65730476D01*
X191788895Y-65920952D01*
X191788895Y-66063809D01*
X191741276Y-66254285D01*
X191693657Y-66349523D01*
X191598419Y-66444761D01*
X191455561Y-66492380D01*
X191217466Y-66492380D01*
%TO.C,U2*%
X105725980Y-90830304D02*
X106535504Y-90830304D01*
X106630742Y-90782685D01*
X106678361Y-90735066D01*
X106725980Y-90639828D01*
X106725980Y-90449352D01*
X106678361Y-90354114D01*
X106630742Y-90306495D01*
X106535504Y-90258876D01*
X105725980Y-90258876D01*
X105821219Y-89830304D02*
X105773600Y-89782685D01*
X105725980Y-89687447D01*
X105725980Y-89449352D01*
X105773600Y-89354114D01*
X105821219Y-89306495D01*
X105916457Y-89258876D01*
X106011695Y-89258876D01*
X106154552Y-89306495D01*
X106725980Y-89877923D01*
X106725980Y-89258876D01*
X109718571Y-101882380D02*
X109718571Y-100882380D01*
X110051904Y-101596666D01*
X110385238Y-100882380D01*
X110385238Y-101882380D01*
X111051904Y-100882380D02*
X111242380Y-100882380D01*
X111337619Y-100930000D01*
X111432857Y-101025238D01*
X111480476Y-101215714D01*
X111480476Y-101549047D01*
X111432857Y-101739523D01*
X111337619Y-101834761D01*
X111242380Y-101882380D01*
X111051904Y-101882380D01*
X110956666Y-101834761D01*
X110861428Y-101739523D01*
X110813809Y-101549047D01*
X110813809Y-101215714D01*
X110861428Y-101025238D01*
X110956666Y-100930000D01*
X111051904Y-100882380D01*
X111861428Y-101834761D02*
X112004285Y-101882380D01*
X112242380Y-101882380D01*
X112337619Y-101834761D01*
X112385238Y-101787142D01*
X112432857Y-101691904D01*
X112432857Y-101596666D01*
X112385238Y-101501428D01*
X112337619Y-101453809D01*
X112242380Y-101406190D01*
X112051904Y-101358571D01*
X111956666Y-101310952D01*
X111909047Y-101263333D01*
X111861428Y-101168095D01*
X111861428Y-101072857D01*
X111909047Y-100977619D01*
X111956666Y-100930000D01*
X112051904Y-100882380D01*
X112290000Y-100882380D01*
X112432857Y-100930000D01*
X112861428Y-101882380D02*
X112861428Y-100882380D01*
X109718571Y-104422380D02*
X109718571Y-103422380D01*
X110051904Y-104136666D01*
X110385238Y-103422380D01*
X110385238Y-104422380D01*
X110861428Y-104422380D02*
X110861428Y-103422380D01*
X111290000Y-104374761D02*
X111432857Y-104422380D01*
X111670952Y-104422380D01*
X111766190Y-104374761D01*
X111813809Y-104327142D01*
X111861428Y-104231904D01*
X111861428Y-104136666D01*
X111813809Y-104041428D01*
X111766190Y-103993809D01*
X111670952Y-103946190D01*
X111480476Y-103898571D01*
X111385238Y-103850952D01*
X111337619Y-103803333D01*
X111290000Y-103708095D01*
X111290000Y-103612857D01*
X111337619Y-103517619D01*
X111385238Y-103470000D01*
X111480476Y-103422380D01*
X111718571Y-103422380D01*
X111861428Y-103470000D01*
X112480476Y-103422380D02*
X112670952Y-103422380D01*
X112766190Y-103470000D01*
X112861428Y-103565238D01*
X112909047Y-103755714D01*
X112909047Y-104089047D01*
X112861428Y-104279523D01*
X112766190Y-104374761D01*
X112670952Y-104422380D01*
X112480476Y-104422380D01*
X112385238Y-104374761D01*
X112290000Y-104279523D01*
X112242380Y-104089047D01*
X112242380Y-103755714D01*
X112290000Y-103565238D01*
X112385238Y-103470000D01*
X112480476Y-103422380D01*
X110647142Y-91722380D02*
X110170952Y-91722380D01*
X110170952Y-90722380D01*
X110980476Y-91198571D02*
X111313809Y-91198571D01*
X111456666Y-91722380D02*
X110980476Y-91722380D01*
X110980476Y-90722380D01*
X111456666Y-90722380D01*
X111885238Y-91722380D02*
X111885238Y-90722380D01*
X112123333Y-90722380D01*
X112266190Y-90770000D01*
X112361428Y-90865238D01*
X112409047Y-90960476D01*
X112456666Y-91150952D01*
X112456666Y-91293809D01*
X112409047Y-91484285D01*
X112361428Y-91579523D01*
X112266190Y-91674761D01*
X112123333Y-91722380D01*
X111885238Y-91722380D01*
X111123333Y-78927142D02*
X111075714Y-78974761D01*
X110932857Y-79022380D01*
X110837619Y-79022380D01*
X110694761Y-78974761D01*
X110599523Y-78879523D01*
X110551904Y-78784285D01*
X110504285Y-78593809D01*
X110504285Y-78450952D01*
X110551904Y-78260476D01*
X110599523Y-78165238D01*
X110694761Y-78070000D01*
X110837619Y-78022380D01*
X110932857Y-78022380D01*
X111075714Y-78070000D01*
X111123333Y-78117619D01*
X111504285Y-78974761D02*
X111647142Y-79022380D01*
X111885238Y-79022380D01*
X111980476Y-78974761D01*
X112028095Y-78927142D01*
X112075714Y-78831904D01*
X112075714Y-78736666D01*
X112028095Y-78641428D01*
X111980476Y-78593809D01*
X111885238Y-78546190D01*
X111694761Y-78498571D01*
X111599523Y-78450952D01*
X111551904Y-78403333D01*
X111504285Y-78308095D01*
X111504285Y-78212857D01*
X111551904Y-78117619D01*
X111599523Y-78070000D01*
X111694761Y-78022380D01*
X111932857Y-78022380D01*
X112075714Y-78070000D01*
X114552380Y-102517142D02*
X114552380Y-101945714D01*
X115552380Y-102231428D02*
X114552380Y-102231428D01*
X114552380Y-101421904D02*
X114552380Y-101231428D01*
X114600000Y-101136190D01*
X114695238Y-101040952D01*
X114885714Y-100993333D01*
X115219047Y-100993333D01*
X115409523Y-101040952D01*
X115504761Y-101136190D01*
X115552380Y-101231428D01*
X115552380Y-101421904D01*
X115504761Y-101517142D01*
X115409523Y-101612380D01*
X115219047Y-101660000D01*
X114885714Y-101660000D01*
X114695238Y-101612380D01*
X114600000Y-101517142D01*
X114552380Y-101421904D01*
X114552380Y-100564761D02*
X115361904Y-100564761D01*
X115457142Y-100517142D01*
X115504761Y-100469523D01*
X115552380Y-100374285D01*
X115552380Y-100183809D01*
X115504761Y-100088571D01*
X115457142Y-100040952D01*
X115361904Y-99993333D01*
X114552380Y-99993333D01*
X115457142Y-98945714D02*
X115504761Y-98993333D01*
X115552380Y-99136190D01*
X115552380Y-99231428D01*
X115504761Y-99374285D01*
X115409523Y-99469523D01*
X115314285Y-99517142D01*
X115123809Y-99564761D01*
X114980952Y-99564761D01*
X114790476Y-99517142D01*
X114695238Y-99469523D01*
X114600000Y-99374285D01*
X114552380Y-99231428D01*
X114552380Y-99136190D01*
X114600000Y-98993333D01*
X114647619Y-98945714D01*
X115552380Y-98517142D02*
X114552380Y-98517142D01*
X115028571Y-98517142D02*
X115028571Y-97945714D01*
X115552380Y-97945714D02*
X114552380Y-97945714D01*
X110528095Y-75530000D02*
X110432857Y-75482380D01*
X110290000Y-75482380D01*
X110147142Y-75530000D01*
X110051904Y-75625238D01*
X110004285Y-75720476D01*
X109956666Y-75910952D01*
X109956666Y-76053809D01*
X110004285Y-76244285D01*
X110051904Y-76339523D01*
X110147142Y-76434761D01*
X110290000Y-76482380D01*
X110385238Y-76482380D01*
X110528095Y-76434761D01*
X110575714Y-76387142D01*
X110575714Y-76053809D01*
X110385238Y-76053809D01*
X111004285Y-76482380D02*
X111004285Y-75482380D01*
X111575714Y-76482380D01*
X111575714Y-75482380D01*
X112051904Y-76482380D02*
X112051904Y-75482380D01*
X112290000Y-75482380D01*
X112432857Y-75530000D01*
X112528095Y-75625238D01*
X112575714Y-75720476D01*
X112623333Y-75910952D01*
X112623333Y-76053809D01*
X112575714Y-76244285D01*
X112528095Y-76339523D01*
X112432857Y-76434761D01*
X112290000Y-76482380D01*
X112051904Y-76482380D01*
X111123333Y-99247142D02*
X111075714Y-99294761D01*
X110932857Y-99342380D01*
X110837619Y-99342380D01*
X110694761Y-99294761D01*
X110599523Y-99199523D01*
X110551904Y-99104285D01*
X110504285Y-98913809D01*
X110504285Y-98770952D01*
X110551904Y-98580476D01*
X110599523Y-98485238D01*
X110694761Y-98390000D01*
X110837619Y-98342380D01*
X110932857Y-98342380D01*
X111075714Y-98390000D01*
X111123333Y-98437619D01*
X111504285Y-99294761D02*
X111647142Y-99342380D01*
X111885238Y-99342380D01*
X111980476Y-99294761D01*
X112028095Y-99247142D01*
X112075714Y-99151904D01*
X112075714Y-99056666D01*
X112028095Y-98961428D01*
X111980476Y-98913809D01*
X111885238Y-98866190D01*
X111694761Y-98818571D01*
X111599523Y-98770952D01*
X111551904Y-98723333D01*
X111504285Y-98628095D01*
X111504285Y-98532857D01*
X111551904Y-98437619D01*
X111599523Y-98390000D01*
X111694761Y-98342380D01*
X111932857Y-98342380D01*
X112075714Y-98390000D01*
X109718571Y-86642380D02*
X109718571Y-85642380D01*
X110051904Y-86356666D01*
X110385238Y-85642380D01*
X110385238Y-86642380D01*
X111051904Y-85642380D02*
X111242380Y-85642380D01*
X111337619Y-85690000D01*
X111432857Y-85785238D01*
X111480476Y-85975714D01*
X111480476Y-86309047D01*
X111432857Y-86499523D01*
X111337619Y-86594761D01*
X111242380Y-86642380D01*
X111051904Y-86642380D01*
X110956666Y-86594761D01*
X110861428Y-86499523D01*
X110813809Y-86309047D01*
X110813809Y-85975714D01*
X110861428Y-85785238D01*
X110956666Y-85690000D01*
X111051904Y-85642380D01*
X111861428Y-86594761D02*
X112004285Y-86642380D01*
X112242380Y-86642380D01*
X112337619Y-86594761D01*
X112385238Y-86547142D01*
X112432857Y-86451904D01*
X112432857Y-86356666D01*
X112385238Y-86261428D01*
X112337619Y-86213809D01*
X112242380Y-86166190D01*
X112051904Y-86118571D01*
X111956666Y-86070952D01*
X111909047Y-86023333D01*
X111861428Y-85928095D01*
X111861428Y-85832857D01*
X111909047Y-85737619D01*
X111956666Y-85690000D01*
X112051904Y-85642380D01*
X112290000Y-85642380D01*
X112432857Y-85690000D01*
X112861428Y-86642380D02*
X112861428Y-85642380D01*
X104432266Y-73010780D02*
X104765600Y-74010780D01*
X105098933Y-73010780D01*
X106003695Y-73915542D02*
X105956076Y-73963161D01*
X105813219Y-74010780D01*
X105717980Y-74010780D01*
X105575123Y-73963161D01*
X105479885Y-73867923D01*
X105432266Y-73772685D01*
X105384647Y-73582209D01*
X105384647Y-73439352D01*
X105432266Y-73248876D01*
X105479885Y-73153638D01*
X105575123Y-73058400D01*
X105717980Y-73010780D01*
X105813219Y-73010780D01*
X105956076Y-73058400D01*
X106003695Y-73106019D01*
X107003695Y-73915542D02*
X106956076Y-73963161D01*
X106813219Y-74010780D01*
X106717980Y-74010780D01*
X106575123Y-73963161D01*
X106479885Y-73867923D01*
X106432266Y-73772685D01*
X106384647Y-73582209D01*
X106384647Y-73439352D01*
X106432266Y-73248876D01*
X106479885Y-73153638D01*
X106575123Y-73058400D01*
X106717980Y-73010780D01*
X106813219Y-73010780D01*
X106956076Y-73058400D01*
X107003695Y-73106019D01*
X110004285Y-89134761D02*
X110147142Y-89182380D01*
X110385238Y-89182380D01*
X110480476Y-89134761D01*
X110528095Y-89087142D01*
X110575714Y-88991904D01*
X110575714Y-88896666D01*
X110528095Y-88801428D01*
X110480476Y-88753809D01*
X110385238Y-88706190D01*
X110194761Y-88658571D01*
X110099523Y-88610952D01*
X110051904Y-88563333D01*
X110004285Y-88468095D01*
X110004285Y-88372857D01*
X110051904Y-88277619D01*
X110099523Y-88230000D01*
X110194761Y-88182380D01*
X110432857Y-88182380D01*
X110575714Y-88230000D01*
X111575714Y-89087142D02*
X111528095Y-89134761D01*
X111385238Y-89182380D01*
X111290000Y-89182380D01*
X111147142Y-89134761D01*
X111051904Y-89039523D01*
X111004285Y-88944285D01*
X110956666Y-88753809D01*
X110956666Y-88610952D01*
X111004285Y-88420476D01*
X111051904Y-88325238D01*
X111147142Y-88230000D01*
X111290000Y-88182380D01*
X111385238Y-88182380D01*
X111528095Y-88230000D01*
X111575714Y-88277619D01*
X112004285Y-89182380D02*
X112004285Y-88182380D01*
X112575714Y-89182380D02*
X112147142Y-88610952D01*
X112575714Y-88182380D02*
X112004285Y-88753809D01*
X109718571Y-94262380D02*
X109718571Y-93262380D01*
X110051904Y-93976666D01*
X110385238Y-93262380D01*
X110385238Y-94262380D01*
X110861428Y-94262380D02*
X110861428Y-93262380D01*
X111290000Y-94214761D02*
X111432857Y-94262380D01*
X111670952Y-94262380D01*
X111766190Y-94214761D01*
X111813809Y-94167142D01*
X111861428Y-94071904D01*
X111861428Y-93976666D01*
X111813809Y-93881428D01*
X111766190Y-93833809D01*
X111670952Y-93786190D01*
X111480476Y-93738571D01*
X111385238Y-93690952D01*
X111337619Y-93643333D01*
X111290000Y-93548095D01*
X111290000Y-93452857D01*
X111337619Y-93357619D01*
X111385238Y-93310000D01*
X111480476Y-93262380D01*
X111718571Y-93262380D01*
X111861428Y-93310000D01*
X112480476Y-93262380D02*
X112670952Y-93262380D01*
X112766190Y-93310000D01*
X112861428Y-93405238D01*
X112909047Y-93595714D01*
X112909047Y-93929047D01*
X112861428Y-94119523D01*
X112766190Y-94214761D01*
X112670952Y-94262380D01*
X112480476Y-94262380D01*
X112385238Y-94214761D01*
X112290000Y-94119523D01*
X112242380Y-93929047D01*
X112242380Y-93595714D01*
X112290000Y-93405238D01*
X112385238Y-93310000D01*
X112480476Y-93262380D01*
X110694761Y-96707142D02*
X110647142Y-96754761D01*
X110504285Y-96802380D01*
X110409047Y-96802380D01*
X110266190Y-96754761D01*
X110170952Y-96659523D01*
X110123333Y-96564285D01*
X110075714Y-96373809D01*
X110075714Y-96230952D01*
X110123333Y-96040476D01*
X110170952Y-95945238D01*
X110266190Y-95850000D01*
X110409047Y-95802380D01*
X110504285Y-95802380D01*
X110647142Y-95850000D01*
X110694761Y-95897619D01*
X111599523Y-96802380D02*
X111123333Y-96802380D01*
X111123333Y-95802380D01*
X111932857Y-96802380D02*
X111932857Y-95802380D01*
X112504285Y-96802380D02*
X112075714Y-96230952D01*
X112504285Y-95802380D02*
X111932857Y-96373809D01*
X104843390Y-106979980D02*
X104843390Y-105979980D01*
X105891009Y-106979980D02*
X105557676Y-106503790D01*
X105319580Y-106979980D02*
X105319580Y-105979980D01*
X105700533Y-105979980D01*
X105795771Y-106027600D01*
X105843390Y-106075219D01*
X105891009Y-106170457D01*
X105891009Y-106313314D01*
X105843390Y-106408552D01*
X105795771Y-106456171D01*
X105700533Y-106503790D01*
X105319580Y-106503790D01*
X106986247Y-107075219D02*
X106891009Y-107027600D01*
X106795771Y-106932361D01*
X106652914Y-106789504D01*
X106557676Y-106741885D01*
X106462438Y-106741885D01*
X106510057Y-106979980D02*
X106414819Y-106932361D01*
X106319580Y-106837123D01*
X106271961Y-106646647D01*
X106271961Y-106313314D01*
X106319580Y-106122838D01*
X106414819Y-106027600D01*
X106510057Y-105979980D01*
X106700533Y-105979980D01*
X106795771Y-106027600D01*
X106891009Y-106122838D01*
X106938628Y-106313314D01*
X106938628Y-106646647D01*
X106891009Y-106837123D01*
X106795771Y-106932361D01*
X106700533Y-106979980D01*
X106510057Y-106979980D01*
X110528095Y-84102380D02*
X110528095Y-83102380D01*
X110766190Y-83102380D01*
X110909047Y-83150000D01*
X111004285Y-83245238D01*
X111051904Y-83340476D01*
X111099523Y-83530952D01*
X111099523Y-83673809D01*
X111051904Y-83864285D01*
X111004285Y-83959523D01*
X110909047Y-84054761D01*
X110766190Y-84102380D01*
X110528095Y-84102380D01*
X112099523Y-84007142D02*
X112051904Y-84054761D01*
X111909047Y-84102380D01*
X111813809Y-84102380D01*
X111670952Y-84054761D01*
X111575714Y-83959523D01*
X111528095Y-83864285D01*
X111480476Y-83673809D01*
X111480476Y-83530952D01*
X111528095Y-83340476D01*
X111575714Y-83245238D01*
X111670952Y-83150000D01*
X111813809Y-83102380D01*
X111909047Y-83102380D01*
X112051904Y-83150000D01*
X112099523Y-83197619D01*
X110742380Y-81562380D02*
X110409047Y-81086190D01*
X110170952Y-81562380D02*
X110170952Y-80562380D01*
X110551904Y-80562380D01*
X110647142Y-80610000D01*
X110694761Y-80657619D01*
X110742380Y-80752857D01*
X110742380Y-80895714D01*
X110694761Y-80990952D01*
X110647142Y-81038571D01*
X110551904Y-81086190D01*
X110170952Y-81086190D01*
X111123333Y-81514761D02*
X111266190Y-81562380D01*
X111504285Y-81562380D01*
X111599523Y-81514761D01*
X111647142Y-81467142D01*
X111694761Y-81371904D01*
X111694761Y-81276666D01*
X111647142Y-81181428D01*
X111599523Y-81133809D01*
X111504285Y-81086190D01*
X111313809Y-81038571D01*
X111218571Y-80990952D01*
X111170952Y-80943333D01*
X111123333Y-80848095D01*
X111123333Y-80752857D01*
X111170952Y-80657619D01*
X111218571Y-80610000D01*
X111313809Y-80562380D01*
X111551904Y-80562380D01*
X111694761Y-80610000D01*
X111980476Y-80562380D02*
X112551904Y-80562380D01*
X112266190Y-81562380D02*
X112266190Y-80562380D01*
%TO.C,U5*%
X194238095Y-129642380D02*
X194238095Y-130451904D01*
X194285714Y-130547142D01*
X194333333Y-130594761D01*
X194428571Y-130642380D01*
X194619047Y-130642380D01*
X194714285Y-130594761D01*
X194761904Y-130547142D01*
X194809523Y-130451904D01*
X194809523Y-129642380D01*
X195761904Y-129642380D02*
X195285714Y-129642380D01*
X195238095Y-130118571D01*
X195285714Y-130070952D01*
X195380952Y-130023333D01*
X195619047Y-130023333D01*
X195714285Y-130070952D01*
X195761904Y-130118571D01*
X195809523Y-130213809D01*
X195809523Y-130451904D01*
X195761904Y-130547142D01*
X195714285Y-130594761D01*
X195619047Y-130642380D01*
X195380952Y-130642380D01*
X195285714Y-130594761D01*
X195238095Y-130547142D01*
X189014266Y-131430780D02*
X189347600Y-132430780D01*
X189680933Y-131430780D01*
X190014266Y-132430780D02*
X190014266Y-131430780D01*
X190252361Y-131430780D01*
X190395219Y-131478400D01*
X190490457Y-131573638D01*
X190538076Y-131668876D01*
X190585695Y-131859352D01*
X190585695Y-132002209D01*
X190538076Y-132192685D01*
X190490457Y-132287923D01*
X190395219Y-132383161D01*
X190252361Y-132430780D01*
X190014266Y-132430780D01*
X191014266Y-132430780D02*
X191014266Y-131430780D01*
X191252361Y-131430780D01*
X191395219Y-131478400D01*
X191490457Y-131573638D01*
X191538076Y-131668876D01*
X191585695Y-131859352D01*
X191585695Y-132002209D01*
X191538076Y-132192685D01*
X191490457Y-132287923D01*
X191395219Y-132383161D01*
X191252361Y-132430780D01*
X191014266Y-132430780D01*
X189917485Y-134452380D02*
X189917485Y-133452380D01*
X190155580Y-133452380D01*
X190298438Y-133500000D01*
X190393676Y-133595238D01*
X190441295Y-133690476D01*
X190488914Y-133880952D01*
X190488914Y-134023809D01*
X190441295Y-134214285D01*
X190393676Y-134309523D01*
X190298438Y-134404761D01*
X190155580Y-134452380D01*
X189917485Y-134452380D01*
X191584152Y-134547619D02*
X191488914Y-134500000D01*
X191393676Y-134404761D01*
X191250819Y-134261904D01*
X191155580Y-134214285D01*
X191060342Y-134214285D01*
X191107961Y-134452380D02*
X191012723Y-134404761D01*
X190917485Y-134309523D01*
X190869866Y-134119047D01*
X190869866Y-133785714D01*
X190917485Y-133595238D01*
X191012723Y-133500000D01*
X191107961Y-133452380D01*
X191298438Y-133452380D01*
X191393676Y-133500000D01*
X191488914Y-133595238D01*
X191536533Y-133785714D01*
X191536533Y-134119047D01*
X191488914Y-134309523D01*
X191393676Y-134404761D01*
X191298438Y-134452380D01*
X191107961Y-134452380D01*
X189585695Y-135491600D02*
X189490457Y-135443980D01*
X189347600Y-135443980D01*
X189204742Y-135491600D01*
X189109504Y-135586838D01*
X189061885Y-135682076D01*
X189014266Y-135872552D01*
X189014266Y-136015409D01*
X189061885Y-136205885D01*
X189109504Y-136301123D01*
X189204742Y-136396361D01*
X189347600Y-136443980D01*
X189442838Y-136443980D01*
X189585695Y-136396361D01*
X189633314Y-136348742D01*
X189633314Y-136015409D01*
X189442838Y-136015409D01*
X190061885Y-136443980D02*
X190061885Y-135443980D01*
X190633314Y-136443980D01*
X190633314Y-135443980D01*
X191109504Y-136443980D02*
X191109504Y-135443980D01*
X191347600Y-135443980D01*
X191490457Y-135491600D01*
X191585695Y-135586838D01*
X191633314Y-135682076D01*
X191680933Y-135872552D01*
X191680933Y-136015409D01*
X191633314Y-136205885D01*
X191585695Y-136301123D01*
X191490457Y-136396361D01*
X191347600Y-136443980D01*
X191109504Y-136443980D01*
D11*
%TO.C,U7*%
X103730000Y-136540000D02*
X103730000Y-131460000D01*
X103730000Y-136540000D02*
G75*
G03*
X103730000Y-131460000I1397797J2540000D01*
G01*
%TO.C,U3*%
X187800000Y-112150000D02*
X186300000Y-112150000D01*
X154000000Y-137850000D02*
X155500000Y-137850000D01*
X154000000Y-137850000D02*
X154000000Y-136350000D01*
X187800000Y-113650000D02*
X187800000Y-112150000D01*
%TO.C,U6*%
X103730000Y-70540000D02*
X103730000Y-65460000D01*
X103730000Y-70540000D02*
G75*
G03*
X103730000Y-65460000I1397797J2540000D01*
G01*
%TO.C,U4*%
X196270000Y-65460000D02*
X196270000Y-70540000D01*
X196270000Y-65460000D02*
G75*
G03*
X196270000Y-70540000I-1397797J-2540000D01*
G01*
%TO.C,U2*%
X150000000Y-88730000D02*
X150000000Y-91270000D01*
X113830000Y-95080000D02*
X112560000Y-95080000D01*
X113830000Y-95080000D02*
X113830000Y-105240000D01*
X151200000Y-90000000D02*
X148730000Y-90000000D01*
%TO.C,U5*%
X196270000Y-131460000D02*
X196270000Y-136540000D01*
X196270000Y-131460000D02*
G75*
G03*
X196270000Y-136540000I-1397797J-2540000D01*
G01*
%TD*%
M02*
