%TF.GenerationSoftware,KiCad,Pcbnew,(6.0.0)*%
%TF.CreationDate,2022-12-18T15:17:50+01:00*%
%TF.ProjectId,Interconnect PCB,496e7465-7263-46f6-9e6e-656374205043,rev?*%
%TF.SameCoordinates,Original*%
%TF.FileFunction,Legend,Bot*%
%TF.FilePolarity,Positive*%
%FSLAX46Y46*%
G04 Gerber Fmt 4.6, Leading zero omitted, Abs format (unit mm)*
G04 Created by KiCad (PCBNEW (6.0.0)) date 2022-12-18 15:17:50*
%MOMM*%
%LPD*%
G01*
G04 APERTURE LIST*
%ADD10C,0.150000*%
%ADD11C,0.120000*%
%ADD12C,0.100000*%
G04 APERTURE END LIST*
D10*
X164541200Y-115000000D02*
X181762400Y-115000000D01*
X161442400Y-115000000D02*
X158038800Y-115000000D01*
X159537400Y-135128000D02*
X161315400Y-135128000D01*
X154533600Y-114960400D02*
X161442400Y-114960400D01*
X181711600Y-135128000D02*
X167132000Y-135128000D01*
X178088419Y-115558914D02*
X178088419Y-116225580D01*
X178516990Y-115558914D02*
X178516990Y-116082723D01*
X178469371Y-116177961D01*
X178374133Y-116225580D01*
X178231276Y-116225580D01*
X178136038Y-116177961D01*
X178088419Y-116130342D01*
X177612228Y-115558914D02*
X177612228Y-116225580D01*
X177612228Y-115654152D02*
X177564609Y-115606533D01*
X177469371Y-115558914D01*
X177326514Y-115558914D01*
X177231276Y-115606533D01*
X177183657Y-115701771D01*
X177183657Y-116225580D01*
X176278895Y-116177961D02*
X176374133Y-116225580D01*
X176564609Y-116225580D01*
X176659847Y-116177961D01*
X176707466Y-116130342D01*
X176755085Y-116035104D01*
X176755085Y-115749390D01*
X176707466Y-115654152D01*
X176659847Y-115606533D01*
X176564609Y-115558914D01*
X176374133Y-115558914D01*
X176278895Y-115606533D01*
X175707466Y-116225580D02*
X175802704Y-116177961D01*
X175850323Y-116130342D01*
X175897942Y-116035104D01*
X175897942Y-115749390D01*
X175850323Y-115654152D01*
X175802704Y-115606533D01*
X175707466Y-115558914D01*
X175564609Y-115558914D01*
X175469371Y-115606533D01*
X175421752Y-115654152D01*
X175374133Y-115749390D01*
X175374133Y-116035104D01*
X175421752Y-116130342D01*
X175469371Y-116177961D01*
X175564609Y-116225580D01*
X175707466Y-116225580D01*
X174945561Y-115558914D02*
X174945561Y-116225580D01*
X174945561Y-115654152D02*
X174897942Y-115606533D01*
X174802704Y-115558914D01*
X174659847Y-115558914D01*
X174564609Y-115606533D01*
X174516990Y-115701771D01*
X174516990Y-116225580D01*
X174040800Y-115558914D02*
X174040800Y-116225580D01*
X174040800Y-115654152D02*
X173993180Y-115606533D01*
X173897942Y-115558914D01*
X173755085Y-115558914D01*
X173659847Y-115606533D01*
X173612228Y-115701771D01*
X173612228Y-116225580D01*
X172755085Y-116177961D02*
X172850323Y-116225580D01*
X173040800Y-116225580D01*
X173136038Y-116177961D01*
X173183657Y-116082723D01*
X173183657Y-115701771D01*
X173136038Y-115606533D01*
X173040800Y-115558914D01*
X172850323Y-115558914D01*
X172755085Y-115606533D01*
X172707466Y-115701771D01*
X172707466Y-115797009D01*
X173183657Y-115892247D01*
X171850323Y-116177961D02*
X171945561Y-116225580D01*
X172136038Y-116225580D01*
X172231276Y-116177961D01*
X172278895Y-116130342D01*
X172326514Y-116035104D01*
X172326514Y-115749390D01*
X172278895Y-115654152D01*
X172231276Y-115606533D01*
X172136038Y-115558914D01*
X171945561Y-115558914D01*
X171850323Y-115606533D01*
X171564609Y-115558914D02*
X171183657Y-115558914D01*
X171421752Y-115225580D02*
X171421752Y-116082723D01*
X171374133Y-116177961D01*
X171278895Y-116225580D01*
X171183657Y-116225580D01*
X170469371Y-116177961D02*
X170564609Y-116225580D01*
X170755085Y-116225580D01*
X170850323Y-116177961D01*
X170897942Y-116082723D01*
X170897942Y-115701771D01*
X170850323Y-115606533D01*
X170755085Y-115558914D01*
X170564609Y-115558914D01*
X170469371Y-115606533D01*
X170421752Y-115701771D01*
X170421752Y-115797009D01*
X170897942Y-115892247D01*
X169564609Y-116225580D02*
X169564609Y-115225580D01*
X169564609Y-116177961D02*
X169659847Y-116225580D01*
X169850323Y-116225580D01*
X169945561Y-116177961D01*
X169993180Y-116130342D01*
X170040800Y-116035104D01*
X170040800Y-115749390D01*
X169993180Y-115654152D01*
X169945561Y-115606533D01*
X169850323Y-115558914D01*
X169659847Y-115558914D01*
X169564609Y-115606533D01*
X178190019Y-134100914D02*
X178190019Y-134767580D01*
X178618590Y-134100914D02*
X178618590Y-134624723D01*
X178570971Y-134719961D01*
X178475733Y-134767580D01*
X178332876Y-134767580D01*
X178237638Y-134719961D01*
X178190019Y-134672342D01*
X177713828Y-134100914D02*
X177713828Y-134767580D01*
X177713828Y-134196152D02*
X177666209Y-134148533D01*
X177570971Y-134100914D01*
X177428114Y-134100914D01*
X177332876Y-134148533D01*
X177285257Y-134243771D01*
X177285257Y-134767580D01*
X176380495Y-134719961D02*
X176475733Y-134767580D01*
X176666209Y-134767580D01*
X176761447Y-134719961D01*
X176809066Y-134672342D01*
X176856685Y-134577104D01*
X176856685Y-134291390D01*
X176809066Y-134196152D01*
X176761447Y-134148533D01*
X176666209Y-134100914D01*
X176475733Y-134100914D01*
X176380495Y-134148533D01*
X175809066Y-134767580D02*
X175904304Y-134719961D01*
X175951923Y-134672342D01*
X175999542Y-134577104D01*
X175999542Y-134291390D01*
X175951923Y-134196152D01*
X175904304Y-134148533D01*
X175809066Y-134100914D01*
X175666209Y-134100914D01*
X175570971Y-134148533D01*
X175523352Y-134196152D01*
X175475733Y-134291390D01*
X175475733Y-134577104D01*
X175523352Y-134672342D01*
X175570971Y-134719961D01*
X175666209Y-134767580D01*
X175809066Y-134767580D01*
X175047161Y-134100914D02*
X175047161Y-134767580D01*
X175047161Y-134196152D02*
X174999542Y-134148533D01*
X174904304Y-134100914D01*
X174761447Y-134100914D01*
X174666209Y-134148533D01*
X174618590Y-134243771D01*
X174618590Y-134767580D01*
X174142400Y-134100914D02*
X174142400Y-134767580D01*
X174142400Y-134196152D02*
X174094780Y-134148533D01*
X173999542Y-134100914D01*
X173856685Y-134100914D01*
X173761447Y-134148533D01*
X173713828Y-134243771D01*
X173713828Y-134767580D01*
X172856685Y-134719961D02*
X172951923Y-134767580D01*
X173142400Y-134767580D01*
X173237638Y-134719961D01*
X173285257Y-134624723D01*
X173285257Y-134243771D01*
X173237638Y-134148533D01*
X173142400Y-134100914D01*
X172951923Y-134100914D01*
X172856685Y-134148533D01*
X172809066Y-134243771D01*
X172809066Y-134339009D01*
X173285257Y-134434247D01*
X171951923Y-134719961D02*
X172047161Y-134767580D01*
X172237638Y-134767580D01*
X172332876Y-134719961D01*
X172380495Y-134672342D01*
X172428114Y-134577104D01*
X172428114Y-134291390D01*
X172380495Y-134196152D01*
X172332876Y-134148533D01*
X172237638Y-134100914D01*
X172047161Y-134100914D01*
X171951923Y-134148533D01*
X171666209Y-134100914D02*
X171285257Y-134100914D01*
X171523352Y-133767580D02*
X171523352Y-134624723D01*
X171475733Y-134719961D01*
X171380495Y-134767580D01*
X171285257Y-134767580D01*
X170570971Y-134719961D02*
X170666209Y-134767580D01*
X170856685Y-134767580D01*
X170951923Y-134719961D01*
X170999542Y-134624723D01*
X170999542Y-134243771D01*
X170951923Y-134148533D01*
X170856685Y-134100914D01*
X170666209Y-134100914D01*
X170570971Y-134148533D01*
X170523352Y-134243771D01*
X170523352Y-134339009D01*
X170999542Y-134434247D01*
X169666209Y-134767580D02*
X169666209Y-133767580D01*
X169666209Y-134719961D02*
X169761447Y-134767580D01*
X169951923Y-134767580D01*
X170047161Y-134719961D01*
X170094780Y-134672342D01*
X170142400Y-134577104D01*
X170142400Y-134291390D01*
X170094780Y-134196152D01*
X170047161Y-134148533D01*
X169951923Y-134100914D01*
X169761447Y-134100914D01*
X169666209Y-134148533D01*
%TO.C,R1*%
X189682380Y-123785333D02*
X189206190Y-123452000D01*
X189682380Y-123213904D02*
X188682380Y-123213904D01*
X188682380Y-123594857D01*
X188730000Y-123690095D01*
X188777619Y-123737714D01*
X188872857Y-123785333D01*
X189015714Y-123785333D01*
X189110952Y-123737714D01*
X189158571Y-123690095D01*
X189206190Y-123594857D01*
X189206190Y-123213904D01*
X189682380Y-124737714D02*
X189682380Y-124166285D01*
X189682380Y-124452000D02*
X188682380Y-124452000D01*
X188825238Y-124356761D01*
X188920476Y-124261523D01*
X188968095Y-124166285D01*
%TO.C,U1*%
X137761904Y-118962380D02*
X137761904Y-119771904D01*
X137714285Y-119867142D01*
X137666666Y-119914761D01*
X137571428Y-119962380D01*
X137380952Y-119962380D01*
X137285714Y-119914761D01*
X137238095Y-119867142D01*
X137190476Y-119771904D01*
X137190476Y-118962380D01*
X136190476Y-119962380D02*
X136761904Y-119962380D01*
X136476190Y-119962380D02*
X136476190Y-118962380D01*
X136571428Y-119105238D01*
X136666666Y-119200476D01*
X136761904Y-119248095D01*
X144628095Y-132757619D02*
X145199523Y-132757619D01*
X144913809Y-131757619D02*
X144913809Y-132757619D01*
X145437619Y-132757619D02*
X146104285Y-131757619D01*
X146104285Y-132757619D02*
X145437619Y-131757619D01*
X146485238Y-131757619D02*
X146485238Y-132757619D01*
X146723333Y-132757619D01*
X146866190Y-132710000D01*
X146961428Y-132614761D01*
X147009047Y-132519523D01*
X147056666Y-132329047D01*
X147056666Y-132186190D01*
X147009047Y-131995714D01*
X146961428Y-131900476D01*
X146866190Y-131805238D01*
X146723333Y-131757619D01*
X146485238Y-131757619D01*
X126848095Y-108945238D02*
X126990952Y-108897619D01*
X127229047Y-108897619D01*
X127324285Y-108945238D01*
X127371904Y-108992857D01*
X127419523Y-109088095D01*
X127419523Y-109183333D01*
X127371904Y-109278571D01*
X127324285Y-109326190D01*
X127229047Y-109373809D01*
X127038571Y-109421428D01*
X126943333Y-109469047D01*
X126895714Y-109516666D01*
X126848095Y-109611904D01*
X126848095Y-109707142D01*
X126895714Y-109802380D01*
X126943333Y-109850000D01*
X127038571Y-109897619D01*
X127276666Y-109897619D01*
X127419523Y-109850000D01*
X127848095Y-108897619D02*
X127848095Y-109897619D01*
X128086190Y-109897619D01*
X128229047Y-109850000D01*
X128324285Y-109754761D01*
X128371904Y-109659523D01*
X128419523Y-109469047D01*
X128419523Y-109326190D01*
X128371904Y-109135714D01*
X128324285Y-109040476D01*
X128229047Y-108945238D01*
X128086190Y-108897619D01*
X127848095Y-108897619D01*
X128752857Y-109897619D02*
X129371904Y-109897619D01*
X129038571Y-109516666D01*
X129181428Y-109516666D01*
X129276666Y-109469047D01*
X129324285Y-109421428D01*
X129371904Y-109326190D01*
X129371904Y-109088095D01*
X129324285Y-108992857D01*
X129276666Y-108945238D01*
X129181428Y-108897619D01*
X128895714Y-108897619D01*
X128800476Y-108945238D01*
X128752857Y-108992857D01*
X127562380Y-131757619D02*
X127229047Y-132233809D01*
X126990952Y-131757619D02*
X126990952Y-132757619D01*
X127371904Y-132757619D01*
X127467142Y-132710000D01*
X127514761Y-132662380D01*
X127562380Y-132567142D01*
X127562380Y-132424285D01*
X127514761Y-132329047D01*
X127467142Y-132281428D01*
X127371904Y-132233809D01*
X126990952Y-132233809D01*
X127943333Y-131805238D02*
X128086190Y-131757619D01*
X128324285Y-131757619D01*
X128419523Y-131805238D01*
X128467142Y-131852857D01*
X128514761Y-131948095D01*
X128514761Y-132043333D01*
X128467142Y-132138571D01*
X128419523Y-132186190D01*
X128324285Y-132233809D01*
X128133809Y-132281428D01*
X128038571Y-132329047D01*
X127990952Y-132376666D01*
X127943333Y-132471904D01*
X127943333Y-132567142D01*
X127990952Y-132662380D01*
X128038571Y-132710000D01*
X128133809Y-132757619D01*
X128371904Y-132757619D01*
X128514761Y-132710000D01*
X128800476Y-132757619D02*
X129371904Y-132757619D01*
X129086190Y-131757619D02*
X129086190Y-132757619D01*
X152748095Y-132710000D02*
X152652857Y-132757619D01*
X152510000Y-132757619D01*
X152367142Y-132710000D01*
X152271904Y-132614761D01*
X152224285Y-132519523D01*
X152176666Y-132329047D01*
X152176666Y-132186190D01*
X152224285Y-131995714D01*
X152271904Y-131900476D01*
X152367142Y-131805238D01*
X152510000Y-131757619D01*
X152605238Y-131757619D01*
X152748095Y-131805238D01*
X152795714Y-131852857D01*
X152795714Y-132186190D01*
X152605238Y-132186190D01*
X153224285Y-131757619D02*
X153224285Y-132757619D01*
X153795714Y-131757619D01*
X153795714Y-132757619D01*
X154271904Y-131757619D02*
X154271904Y-132757619D01*
X154510000Y-132757619D01*
X154652857Y-132710000D01*
X154748095Y-132614761D01*
X154795714Y-132519523D01*
X154843333Y-132329047D01*
X154843333Y-132186190D01*
X154795714Y-131995714D01*
X154748095Y-131900476D01*
X154652857Y-131805238D01*
X154510000Y-131757619D01*
X154271904Y-131757619D01*
X144628095Y-108945238D02*
X144770952Y-108897619D01*
X145009047Y-108897619D01*
X145104285Y-108945238D01*
X145151904Y-108992857D01*
X145199523Y-109088095D01*
X145199523Y-109183333D01*
X145151904Y-109278571D01*
X145104285Y-109326190D01*
X145009047Y-109373809D01*
X144818571Y-109421428D01*
X144723333Y-109469047D01*
X144675714Y-109516666D01*
X144628095Y-109611904D01*
X144628095Y-109707142D01*
X144675714Y-109802380D01*
X144723333Y-109850000D01*
X144818571Y-109897619D01*
X145056666Y-109897619D01*
X145199523Y-109850000D01*
X145628095Y-108897619D02*
X145628095Y-109897619D01*
X145866190Y-109897619D01*
X146009047Y-109850000D01*
X146104285Y-109754761D01*
X146151904Y-109659523D01*
X146199523Y-109469047D01*
X146199523Y-109326190D01*
X146151904Y-109135714D01*
X146104285Y-109040476D01*
X146009047Y-108945238D01*
X145866190Y-108897619D01*
X145628095Y-108897619D01*
X146818571Y-109897619D02*
X146913809Y-109897619D01*
X147009047Y-109850000D01*
X147056666Y-109802380D01*
X147104285Y-109707142D01*
X147151904Y-109516666D01*
X147151904Y-109278571D01*
X147104285Y-109088095D01*
X147056666Y-108992857D01*
X147009047Y-108945238D01*
X146913809Y-108897619D01*
X146818571Y-108897619D01*
X146723333Y-108945238D01*
X146675714Y-108992857D01*
X146628095Y-109088095D01*
X146580476Y-109278571D01*
X146580476Y-109516666D01*
X146628095Y-109707142D01*
X146675714Y-109802380D01*
X146723333Y-109850000D01*
X146818571Y-109897619D01*
X119728095Y-108992857D02*
X119680476Y-108945238D01*
X119537619Y-108897619D01*
X119442380Y-108897619D01*
X119299523Y-108945238D01*
X119204285Y-109040476D01*
X119156666Y-109135714D01*
X119109047Y-109326190D01*
X119109047Y-109469047D01*
X119156666Y-109659523D01*
X119204285Y-109754761D01*
X119299523Y-109850000D01*
X119442380Y-109897619D01*
X119537619Y-109897619D01*
X119680476Y-109850000D01*
X119728095Y-109802380D01*
X120156666Y-108897619D02*
X120156666Y-109897619D01*
X120490000Y-109183333D01*
X120823333Y-109897619D01*
X120823333Y-108897619D01*
X121299523Y-108897619D02*
X121299523Y-109897619D01*
X121537619Y-109897619D01*
X121680476Y-109850000D01*
X121775714Y-109754761D01*
X121823333Y-109659523D01*
X121870952Y-109469047D01*
X121870952Y-109326190D01*
X121823333Y-109135714D01*
X121775714Y-109040476D01*
X121680476Y-108945238D01*
X121537619Y-108897619D01*
X121299523Y-108897619D01*
X119728095Y-132710000D02*
X119632857Y-132757619D01*
X119490000Y-132757619D01*
X119347142Y-132710000D01*
X119251904Y-132614761D01*
X119204285Y-132519523D01*
X119156666Y-132329047D01*
X119156666Y-132186190D01*
X119204285Y-131995714D01*
X119251904Y-131900476D01*
X119347142Y-131805238D01*
X119490000Y-131757619D01*
X119585238Y-131757619D01*
X119728095Y-131805238D01*
X119775714Y-131852857D01*
X119775714Y-132186190D01*
X119585238Y-132186190D01*
X120204285Y-131757619D02*
X120204285Y-132757619D01*
X120775714Y-131757619D01*
X120775714Y-132757619D01*
X121251904Y-131757619D02*
X121251904Y-132757619D01*
X121490000Y-132757619D01*
X121632857Y-132710000D01*
X121728095Y-132614761D01*
X121775714Y-132519523D01*
X121823333Y-132329047D01*
X121823333Y-132186190D01*
X121775714Y-131995714D01*
X121728095Y-131900476D01*
X121632857Y-131805238D01*
X121490000Y-131757619D01*
X121251904Y-131757619D01*
X152914761Y-108992857D02*
X152867142Y-108945238D01*
X152724285Y-108897619D01*
X152629047Y-108897619D01*
X152486190Y-108945238D01*
X152390952Y-109040476D01*
X152343333Y-109135714D01*
X152295714Y-109326190D01*
X152295714Y-109469047D01*
X152343333Y-109659523D01*
X152390952Y-109754761D01*
X152486190Y-109850000D01*
X152629047Y-109897619D01*
X152724285Y-109897619D01*
X152867142Y-109850000D01*
X152914761Y-109802380D01*
X153819523Y-108897619D02*
X153343333Y-108897619D01*
X153343333Y-109897619D01*
X154152857Y-108897619D02*
X154152857Y-109897619D01*
X154724285Y-108897619D02*
X154295714Y-109469047D01*
X154724285Y-109897619D02*
X154152857Y-109326190D01*
X138261904Y-99912380D02*
X138261904Y-100721904D01*
X138214285Y-100817142D01*
X138166666Y-100864761D01*
X138071428Y-100912380D01*
X137880952Y-100912380D01*
X137785714Y-100864761D01*
X137738095Y-100817142D01*
X137690476Y-100721904D01*
X137690476Y-99912380D01*
X137261904Y-100864761D02*
X137119047Y-100912380D01*
X136880952Y-100912380D01*
X136785714Y-100864761D01*
X136738095Y-100817142D01*
X136690476Y-100721904D01*
X136690476Y-100626666D01*
X136738095Y-100531428D01*
X136785714Y-100483809D01*
X136880952Y-100436190D01*
X137071428Y-100388571D01*
X137166666Y-100340952D01*
X137214285Y-100293333D01*
X137261904Y-100198095D01*
X137261904Y-100102857D01*
X137214285Y-100007619D01*
X137166666Y-99960000D01*
X137071428Y-99912380D01*
X136833333Y-99912380D01*
X136690476Y-99960000D01*
X135928571Y-100388571D02*
X135785714Y-100436190D01*
X135738095Y-100483809D01*
X135690476Y-100579047D01*
X135690476Y-100721904D01*
X135738095Y-100817142D01*
X135785714Y-100864761D01*
X135880952Y-100912380D01*
X136261904Y-100912380D01*
X136261904Y-99912380D01*
X135928571Y-99912380D01*
X135833333Y-99960000D01*
X135785714Y-100007619D01*
X135738095Y-100102857D01*
X135738095Y-100198095D01*
X135785714Y-100293333D01*
X135833333Y-100340952D01*
X135928571Y-100388571D01*
X136261904Y-100388571D01*
%TO.C,J1*%
X171403533Y-117141780D02*
X171403533Y-117856066D01*
X171451152Y-117998923D01*
X171546390Y-118094161D01*
X171689247Y-118141780D01*
X171784485Y-118141780D01*
X170403533Y-118141780D02*
X170974961Y-118141780D01*
X170689247Y-118141780D02*
X170689247Y-117141780D01*
X170784485Y-117284638D01*
X170879723Y-117379876D01*
X170974961Y-117427495D01*
D11*
%TO.C,R1*%
X188230000Y-121412000D02*
X190230000Y-121412000D01*
X190230000Y-121412000D02*
X190230000Y-126492000D01*
X190230000Y-126492000D02*
X188230000Y-126492000D01*
X188230000Y-126492000D02*
X188230000Y-121412000D01*
%TO.C,U1*%
X148430000Y-139830000D02*
X149700000Y-139830000D01*
X124300000Y-139830000D02*
X125570000Y-139830000D01*
X124300000Y-108080000D02*
X124300000Y-103000000D01*
X149700000Y-139830000D02*
X152240000Y-137290000D01*
X124300000Y-139830000D02*
X121760000Y-137290000D01*
X121760000Y-136020000D02*
X121760000Y-137290000D01*
X152240000Y-103000000D02*
X150970000Y-103000000D01*
X121760000Y-108080000D02*
X124300000Y-108080000D01*
X152240000Y-136020000D02*
X152240000Y-137290000D01*
X125570000Y-103000000D02*
X124300000Y-103000000D01*
X152240000Y-104270000D02*
X152240000Y-103000000D01*
D12*
X123030000Y-104270000D02*
X123030000Y-106810000D01*
X123030000Y-106810000D02*
X124300000Y-106810000D01*
X124300000Y-106810000D02*
X124300000Y-104270000D01*
X124300000Y-104270000D02*
X123030000Y-104270000D01*
G36*
X124300000Y-106810000D02*
G01*
X123030000Y-106810000D01*
X123030000Y-104270000D01*
X124300000Y-104270000D01*
X124300000Y-106810000D01*
G37*
X124300000Y-106810000D02*
X123030000Y-106810000D01*
X123030000Y-104270000D01*
X124300000Y-104270000D01*
X124300000Y-106810000D01*
D11*
%TO.C,J1*%
X176087800Y-109017800D02*
X166087800Y-109017800D01*
X166087800Y-109017800D02*
X166087800Y-121017800D01*
X166087800Y-121017800D02*
X176087800Y-121017800D01*
X176087800Y-121017800D02*
X176087800Y-109017800D01*
%TD*%
M02*
