M48
; DRILL file {KiCad (6.0.0)} date Sun Dec 18 15:17:42 2022
; FORMAT={-:-/ absolute / metric / decimal}
; #@! TF.CreationDate,2022-12-18T15:17:42+01:00
; #@! TF.GenerationSoftware,Kicad,Pcbnew,(6.0.0)
; #@! TF.FileFunction,Plated,1,2,PTH
FMAT,2
METRIC
; #@! TA.AperFunction,Plated,PTH,ViaDrill
T1C0.400
; #@! TA.AperFunction,Plated,PTH,ComponentDrill
T2C0.762
; #@! TA.AperFunction,Plated,PTH,ComponentDrill
T3C0.800
; #@! TA.AperFunction,Plated,PTH,ComponentDrill
T4C1.000
; #@! TA.AperFunction,Plated,PTH,ComponentDrill
T5C1.600
; #@! TA.AperFunction,Plated,PTH,ComponentDrill
T6C3.200
; #@! TA.AperFunction,Plated,PTH,ComponentDrill
T7C5.400
%
G90
G05
T1
X116.332Y-125.984
X117.348Y-116.332
X119.634Y-128.524
X194.31Y-113.03
T2
X105.0Y-65.968
X105.0Y-68.0
X105.0Y-70.032
X105.0Y-131.968
X105.0Y-134.0
X105.0Y-136.032
X155.36Y-113.57
X157.9Y-113.57
X158.0Y-123.0
X158.0Y-127.0
X160.44Y-113.57
X160.44Y-136.43
X162.98Y-113.57
X162.98Y-136.43
X165.52Y-113.57
X165.52Y-136.43
X168.06Y-113.57
X168.06Y-136.43
X170.6Y-113.57
X170.6Y-136.43
X173.06Y-132.313
X173.14Y-113.57
X173.14Y-136.43
X175.68Y-113.57
X175.68Y-132.313
X175.68Y-136.43
X178.22Y-113.57
X178.22Y-136.43
X180.76Y-113.57
X180.76Y-136.43
X189.23Y-119.952
X189.23Y-127.952
X195.0Y-65.968
X195.0Y-68.0
X195.0Y-70.032
X195.0Y-131.968
X195.0Y-134.0
X195.0Y-136.032
T3
X123.03Y-109.35
X123.03Y-111.89
X123.03Y-114.43
X123.03Y-116.97
X123.03Y-119.51
X123.03Y-122.05
X123.03Y-124.59
X123.03Y-127.13
X123.03Y-129.67
X123.03Y-132.21
X125.57Y-109.35
X125.57Y-111.89
X125.57Y-114.43
X125.57Y-116.97
X125.57Y-119.51
X125.57Y-122.05
X125.57Y-124.59
X125.57Y-127.13
X125.57Y-129.67
X125.57Y-132.21
X148.43Y-109.35
X148.43Y-111.89
X148.43Y-114.43
X148.43Y-116.97
X148.43Y-119.51
X148.43Y-122.05
X148.43Y-124.59
X148.43Y-127.13
X148.43Y-129.67
X148.43Y-132.21
X150.97Y-109.35
X150.97Y-111.89
X150.97Y-114.43
X150.97Y-116.97
X150.97Y-119.51
X150.97Y-122.05
X150.97Y-124.59
X150.97Y-127.13
X150.97Y-129.67
X150.97Y-132.21
T4
X108.31Y-106.51
X108.34Y-73.49
X108.34Y-76.03
X108.34Y-78.57
X108.34Y-81.11
X108.34Y-83.65
X108.34Y-86.19
X108.34Y-88.73
X108.34Y-91.27
X108.34Y-93.81
X108.34Y-96.35
X108.34Y-98.89
X108.34Y-101.43
X108.34Y-103.97
X181.49Y-86.19
X181.49Y-88.73
X181.49Y-91.27
X181.49Y-93.81
T5
X168.588Y-119.018
X173.588Y-119.018
T6
X113.23Y-71.64
X113.23Y-108.36
X180.49Y-71.64
X180.49Y-108.36
T7
X188.0Y-75.0
X188.0Y-90.0
X188.0Y-105.0
T0
M30
